<?xml version="1.0" standalone="no"?>
<!DOCTYPE svg PUBLIC "-//W3C//DTD SVG 20010904//EN"
 "http://www.w3.org/TR/2001/REC-SVG-20010904/DTD/svg10.dtd">
<svg version="1.0" xmlns="http://www.w3.org/2000/svg"
 width="300.000000pt" height="200.000000pt" viewBox="0 0 300.000000 200.000000"
 preserveAspectRatio="xMidYMid meet">
<metadata>
Created by potrace 1.10, written by Peter Selinger 2001-2011
</metadata>
<g transform="translate(0.000000,200.000000) scale(0.100000,-0.100000)"
fill="#000000" stroke="none">
<path d="M60 1947 c0 -8 7 -18 16 -21 11 -4 14 -1 12 11 -4 21 -28 30 -28 10z"/>
<path d="M125 1950 c17 -6 41 -11 54 -12 22 -2 23 -6 19 -55 -4 -48 -3 -53 16
-53 19 0 21 5 18 45 -3 30 0 45 8 45 6 0 8 5 5 10 -4 6 7 10 25 10 18 0 29 4
25 10 -3 6 -18 7 -33 4 -31 -7 -37 -7 -112 0 -45 5 -50 4 -25 -4z"/>
<path d="M18 1894 c-6 -43 -2 -57 13 -49 11 8 12 55 0 74 -6 9 -10 1 -13 -25z"/>
<path d="M290 1916 c0 -3 5 -17 10 -31 7 -18 7 -33 0 -45 -8 -16 -8 -18 5 -14
17 7 21 74 4 74 -5 0 -7 5 -4 10 3 6 1 10 -4 10 -6 0 -11 -2 -11 -4z"/>
<path d="M80 1897 c0 -23 12 -57 20 -57 4 0 10 9 13 21 3 12 10 18 16 14 6 -3
11 -2 11 2 0 5 -13 14 -30 20 -23 8 -30 8 -30 0z"/>
<path d="M76 1818 c3 -5 10 -6 15 -3 13 9 11 12 -6 12 -8 0 -12 -4 -9 -9z"/>
<path d="M2402 1714 c10 -10 20 -16 22 -13 3 3 -5 11 -17 18 -21 13 -21 12 -5
-5z"/>
<path d="M1495 1690 c-50 -11 -104 -41 -130 -72 -30 -36 -60 -96 -51 -105 3
-3 6 -1 6 6 0 7 19 36 42 63 73 87 169 110 270 64 59 -26 101 -66 118 -110 15
-41 2 -141 -23 -172 -15 -19 -21 -46 -25 -99 -4 -67 -3 -73 19 -89 13 -9 41
-21 62 -27 20 -5 52 -23 71 -39 18 -17 40 -30 47 -30 8 0 23 -7 33 -15 11 -8
31 -15 45 -15 55 0 147 -94 212 -218 36 -68 142 -163 249 -223 101 -57 135
-79 205 -139 73 -62 124 -90 177 -95 28 -3 40 0 45 11 3 9 12 13 21 9 9 -3 28
7 48 26 35 34 54 32 54 -5 0 -33 -22 -49 -53 -37 -34 13 -53 -6 -30 -31 9 -10
14 -20 11 -23 -8 -9 -60 14 -54 24 3 4 -6 6 -19 3 -19 -3 -27 -15 -40 -59 -9
-31 -13 -68 -10 -84 7 -31 39 -56 50 -39 3 5 -1 10 -9 10 -17 0 -21 5 -29 41
-4 16 -1 33 8 45 11 13 13 14 10 3 -7 -20 15 -39 59 -49 27 -6 36 -4 40 7 10
24 8 25 -31 19 -37 -6 -74 6 -61 19 4 4 3 18 -2 31 -8 19 -6 24 8 26 25 2 34
1 69 -10 25 -8 31 -7 27 3 -3 7 2 20 11 29 13 12 21 14 36 5 19 -10 20 -7 17
68 l-3 78 -94 7 c-51 4 -99 13 -107 19 -11 9 -14 8 -14 -4 0 -24 28 -35 90
-37 75 -2 80 -2 80 -10 0 -15 -40 -42 -55 -36 -9 3 -14 2 -11 -3 6 -9 -19 -19
-71 -27 -23 -4 -37 0 -52 15 -12 12 -21 18 -21 15 0 -9 -64 38 -85 63 -11 13
-30 25 -42 28 -24 4 -83 44 -83 56 0 4 3 9 8 12 4 2 2 2 -5 1 -7 -2 -15 1 -18
6 -4 6 -14 10 -24 10 -40 0 -271 180 -271 212 0 15 -86 144 -122 183 -17 19
-37 35 -45 35 -7 0 -13 4 -13 9 0 5 -30 19 -67 31 -38 12 -80 33 -96 48 -15
14 -33 27 -40 28 -7 1 -36 12 -65 24 -43 19 -52 27 -53 49 0 14 -2 37 -5 50
-3 15 5 38 19 61 22 32 33 76 41 163 2 15 -5 44 -15 66 -34 76 -175 141 -264
121z m1422 -1456 c-3 -3 -12 -4 -19 -1 -8 3 -5 6 6 6 11 1 17 -2 13 -5z"/>
<path d="M2440 1686 c0 -2 8 -10 18 -17 15 -13 16 -12 3 4 -13 16 -21 21 -21
13z"/>
<path d="M1480 1620 c-12 -8 -12 -10 2 -15 20 -8 41 2 33 16 -8 11 -16 11 -35
-1z"/>
<path d="M1415 1600 c-3 -5 -1 -10 4 -10 6 0 11 5 11 10 0 6 -2 10 -4 10 -3 0
-8 -4 -11 -10z"/>
<path d="M1455 1580 c-3 -6 1 -7 9 -4 18 7 21 14 7 14 -6 0 -13 -4 -16 -10z"/>
<path d="M1406 1559 c5 -8 2 -11 -7 -7 -18 7 -59 -8 -59 -21 0 -6 7 -8 15 -4
9 3 -2 -13 -25 -35 l-40 -41 0 -108 c1 -83 3 -104 11 -89 8 12 9 46 5 97 l-7
78 33 33 c55 53 74 61 106 44 15 -9 23 -15 19 -16 -5 0 -17 5 -28 10 -10 6
-19 7 -19 3 0 -4 12 -13 26 -20 27 -12 54 -8 54 9 0 6 8 7 18 3 39 -16 83 -23
79 -12 -5 15 -26 25 -71 32 -25 4 -35 10 -29 16 6 6 19 6 36 0 15 -6 27 -8 27
-6 0 8 -51 27 -80 31 -14 2 -36 6 -48 9 -17 4 -22 2 -16 -6z m49 -29 c3 -5 1
-10 -4 -10 -6 0 -11 5 -11 10 0 6 2 10 4 10 3 0 8 -4 11 -10z"/>
<path d="M1560 1550 c0 -5 10 -10 23 -10 13 0 29 -6 35 -12 10 -10 15 -10 23
2 7 11 8 9 4 -10 -4 -15 0 -33 10 -45 14 -19 15 -18 3 8 -10 23 -9 30 3 38 8
5 20 7 27 4 6 -2 12 1 12 8 0 8 -15 13 -42 13 -24 0 -55 3 -70 7 -17 5 -28 3
-28 -3z"/>
<path d="M1602 1491 c2 -9 12 -17 23 -19 15 -2 17 -1 6 6 -7 6 -11 14 -8 19 3
5 -1 10 -9 10 -8 0 -13 -7 -12 -16z"/>
<path d="M2230 1506 c0 -2 8 -10 18 -17 15 -13 16 -12 3 4 -13 16 -21 21 -21
13z"/>
<path d="M1696 1484 c-5 -14 -4 -15 9 -4 17 14 19 20 6 20 -5 0 -12 -7 -15
-16z"/>
<path d="M1420 1455 c15 -18 7 -31 -12 -19 -19 13 -79 12 -74 -1 2 -5 -4 -19
-13 -30 -14 -17 -14 -18 0 -8 8 7 39 15 69 18 51 5 55 3 88 -31 27 -28 34 -31
29 -15 -3 12 -1 21 4 21 5 0 9 4 9 10 0 5 -6 7 -14 4 -7 -3 -28 11 -47 30 -32
35 -64 52 -39 21z"/>
<path d="M1470 1465 c0 -16 44 -45 69 -44 26 1 26 1 -4 11 -16 6 -38 17 -47
26 -10 8 -18 12 -18 7z"/>
<path d="M1688 1456 c-15 -8 -29 -12 -31 -9 -3 2 -8 -5 -12 -16 -3 -12 -11
-21 -16 -21 -6 0 -8 3 -6 8 9 13 -19 31 -34 21 -11 -7 -11 -9 2 -9 9 0 19 -7
23 -15 4 -12 -1 -14 -24 -10 -33 6 -50 -10 -20 -18 11 -3 20 0 20 5 0 7 5 7
13 0 10 -9 21 -3 44 22 26 27 37 32 62 28 26 -3 30 -1 25 12 -7 19 -12 20 -46
2z"/>
<path d="M1695 1420 c-3 -5 -12 -7 -20 -3 -11 4 -13 1 -9 -11 4 -10 -1 -25
-11 -36 -19 -22 -17 -64 5 -68 8 -1 20 6 26 16 10 16 9 18 -9 18 -30 -1 -31
18 -2 34 14 7 25 19 25 26 0 7 8 18 18 23 16 10 16 10 0 11 -9 0 -19 -4 -23
-10z"/>
<path d="M1332 1388 c-13 -13 -17 -38 -6 -38 4 0 12 6 18 14 9 13 15 13 41 1
l30 -14 -32 6 c-21 3 -33 1 -33 -6 0 -6 17 -11 40 -11 22 0 40 -4 40 -10 0
-16 17 -12 24 6 3 8 2 12 -4 9 -6 -3 -10 -2 -10 4 0 28 -88 59 -108 39z"/>
<path d="M1690 1360 c-13 -8 -13 -10 2 -10 9 0 20 5 23 10 8 13 -5 13 -25 0z"/>
<path d="M1320 1323 c1 -33 43 -39 79 -11 l24 18 -52 0 c-28 0 -51 -3 -51 -7z"/>
<path d="M1425 1290 c-3 -5 -1 -10 4 -10 6 0 11 5 11 10 0 6 -2 10 -4 10 -3 0
-8 -4 -11 -10z"/>
<path d="M1465 1280 c-3 -5 -2 -10 4 -10 5 0 13 5 16 10 3 6 2 10 -4 10 -5 0
-13 -4 -16 -10z"/>
<path d="M1336 1262 c-3 -5 3 -17 13 -26 17 -15 19 -15 36 4 16 17 16 20 2 20
-8 0 -22 3 -30 6 -8 3 -18 1 -21 -4z"/>
<path d="M1402 1239 c-15 -24 -15 -32 1 -22 6 4 18 8 25 9 22 4 22 9 3 21 -14
9 -20 7 -29 -8z"/>
<path d="M1610 1249 c0 -5 5 -7 10 -4 6 3 10 8 10 11 0 2 -4 4 -10 4 -5 0 -10
-5 -10 -11z"/>
<path d="M1562 1220 c-29 -16 -31 -19 -15 -31 14 -12 16 -12 8 0 -6 11 -4 13
8 8 16 -6 30 6 33 31 1 6 2 11 1 11 -1 -1 -17 -9 -35 -19z"/>
<path d="M1355 1166 c4 -33 -72 -86 -152 -106 -84 -20 -143 -72 -184 -159 -17
-36 -36 -76 -42 -88 -8 -18 -13 -20 -24 -12 -7 6 -13 8 -13 3 0 -4 -5 -3 -12
4 -19 19 -29 14 -16 -7 7 -11 16 -17 20 -14 5 2 15 -1 23 -7 21 -17 45 -5 45
22 0 41 56 144 97 178 39 32 122 70 156 70 11 0 37 16 60 35 22 19 44 35 49
35 4 0 8 -22 8 -50 0 -27 -4 -50 -9 -50 -13 0 -24 37 -16 50 4 6 -5 5 -20 -2
-21 -10 -23 -13 -10 -20 8 -5 15 -16 15 -23 0 -8 8 -15 18 -15 9 0 29 -6 44
-14 24 -12 26 -12 21 1 -10 25 20 10 32 -15 13 -29 36 -37 32 -11 -4 25 -57
69 -74 62 -7 -3 -13 2 -13 11 0 9 4 16 9 16 5 0 12 7 15 16 5 14 4 15 -9 4
-13 -11 -15 -9 -15 14 0 14 -4 26 -10 26 -5 0 -10 13 -10 29 0 17 -4 32 -9 35
-4 3 -7 -5 -6 -18z"/>
<path d="M1630 1170 c0 -5 5 -10 11 -10 5 0 7 5 4 10 -3 6 -8 10 -11 10 -2 0
-4 -4 -4 -10z"/>
<path d="M1675 1169 c-11 -4 -14 -8 -7 -8 6 -1 12 -8 12 -17 0 -14 -2 -15 -17
-3 -15 13 -15 12 -3 -7 12 -19 16 -20 27 -8 8 8 13 22 11 33 -2 14 -8 16 -23
10z"/>
<path d="M1451 1156 c-13 -7 -20 -16 -15 -19 5 -3 20 3 33 14 27 22 17 25 -18
5z"/>
<path d="M1720 1125 c-11 -13 -8 -15 15 -15 23 0 26 2 15 15 -7 8 -14 15 -15
15 -1 0 -8 -7 -15 -15z"/>
<path d="M1462 1064 c18 -20 32 -40 31 -45 -2 -5 11 -16 27 -24 37 -19 38 -31
5 -39 -24 -6 -33 -25 -19 -39 10 -10 44 12 44 28 0 8 3 15 8 16 23 2 42 8 59
19 15 10 14 10 -10 5 -31 -6 -87 13 -86 30 3 25 -2 35 -17 35 -9 0 -25 11 -36
25 -11 14 -24 25 -29 25 -5 0 5 -16 23 -36z"/>
<path d="M1660 1090 c-13 -9 -13 -10 0 -11 8 0 23 -2 33 -4 15 -3 16 -1 6 11
-13 16 -19 17 -39 4z"/>
<path d="M1814 1088 c-3 -5 -17 -7 -29 -4 -27 7 -44 -10 -18 -17 10 -3 29 -4
43 -2 14 2 31 4 38 4 6 1 12 5 12 10 0 13 -39 21 -46 9z"/>
<path d="M1572 1044 c-31 -16 -18 -22 48 -22 30 0 47 2 38 5 -9 2 -15 10 -12
16 6 16 -44 17 -74 1z"/>
<path d="M1785 1040 c-11 -12 -25 -18 -36 -15 -18 6 -99 -22 -99 -34 0 -4 9
-7 19 -7 11 0 17 4 15 8 -3 4 6 12 19 17 22 9 50 5 113 -14 12 -4 25 -2 28 4
4 6 16 11 26 11 10 0 20 5 22 11 3 9 10 9 26 0 18 -10 22 -9 22 4 0 9 -4 13
-10 10 -5 -3 -10 -1 -10 5 0 7 -6 8 -19 1 -21 -12 -93 -3 -85 10 10 17 -13 9
-31 -11z m55 -25 c0 -2 -9 -3 -20 -2 -11 1 -20 7 -20 14 0 11 5 11 20 3 11 -6
20 -13 20 -15z"/>
<path d="M1308 1025 c-7 -7 -45 -17 -78 -20 -14 -1 -36 -7 -50 -12 -14 -6 -32
-13 -40 -16 -13 -5 -13 -6 0 -6 8 -1 27 6 43 13 24 13 27 13 27 0 0 -8 -7 -17
-15 -20 -8 -4 -15 -10 -15 -15 0 -4 32 8 70 27 39 20 70 40 70 45 0 10 -4 11
-12 4z"/>
<path d="M1970 1021 c0 -6 4 -13 10 -16 6 -3 7 1 4 9 -7 18 -14 21 -14 7z"/>
<path d="M12 992 c-7 -2 -1 -15 17 -33 33 -33 54 -40 26 -9 -18 19 -17 20 3
20 21 0 52 -24 52 -41 0 -5 5 -9 10 -9 7 0 7 6 0 20 -12 23 -5 25 50 14 22 -5
28 -9 18 -15 -11 -7 -10 -9 1 -9 8 0 23 -8 34 -17 19 -17 20 -17 8 5 -12 22
-11 22 31 16 24 -4 48 -11 53 -17 7 -6 1 -7 -18 -3 -18 4 -26 3 -23 -3 4 -5
20 -12 37 -16 21 -5 29 -12 26 -23 -3 -18 -8 -19 -47 -7 -22 7 -23 6 -11 -9 7
-9 22 -16 32 -16 12 0 19 -7 19 -20 0 -21 -9 -24 -59 -14 -27 6 -31 10 -31 40
0 32 -2 34 -31 32 -22 -2 -34 -9 -40 -25 -5 -13 -16 -23 -26 -24 -11 0 -13 -3
-5 -6 7 -3 18 0 26 6 16 14 55 6 70 -14 15 -21 91 -32 110 -16 11 10 32 8 95
-5 45 -10 81 -21 81 -26 0 -11 -2 -10 -90 6 -67 13 -105 14 -69 2 17 -6 157
-36 184 -40 11 -2 27 -6 35 -8 70 -23 92 -29 130 -34 41 -5 48 -3 74 24 24 26
32 29 53 21 35 -13 93 -19 93 -9 0 8 -40 22 -80 26 -42 5 -54 9 -79 26 -29 20
-43 14 -16 -6 17 -12 18 -18 7 -40 -11 -26 -36 -34 -46 -17 -3 5 -15 7 -25 4
-10 -3 -22 0 -25 6 -4 5 -13 8 -21 4 -10 -3 -15 1 -15 13 0 14 -3 15 -12 6 -7
-7 -18 -12 -25 -12 -10 0 -10 6 3 25 9 13 14 30 11 37 -4 8 -6 6 -6 -4 -1 -11
-9 -18 -21 -18 -11 0 -20 -7 -20 -15 0 -8 -7 -15 -16 -15 -11 0 -14 5 -9 18
12 28 14 62 4 68 -5 3 -9 -4 -9 -15 0 -35 -20 -34 -21 1 -2 30 -2 31 -6 6 -5
-31 -19 -37 -26 -10 -4 14 -5 14 -6 1 -1 -12 -8 -15 -26 -11 -14 2 -25 8 -25
13 0 5 -7 6 -15 3 -10 -4 -15 0 -15 12 -1 18 -1 18 -14 2 -19 -26 -23 -23 -24
21 l-2 39 60 -15 c33 -9 60 -21 60 -27 0 -6 4 -5 9 3 8 12 14 13 36 3 14 -7
37 -12 51 -12 13 0 27 -7 31 -16 4 -12 8 -13 13 -3 14 22 38 1 45 -40 5 -33
11 -41 27 -41 19 0 20 2 6 18 -9 9 -19 27 -22 40 -6 18 -3 22 13 22 24 0 38
-19 21 -30 -9 -5 -9 -9 -1 -14 6 -4 11 -16 11 -27 0 -13 7 -19 21 -19 19 0 19
1 5 22 -21 30 -20 58 2 58 10 0 23 -5 30 -12 8 -8 15 -8 27 2 24 20 18 26 -37
38 -29 6 -96 20 -148 31 -52 12 -133 28 -180 36 -102 19 -102 19 -117 28 -7 5
-13 6 -13 3 0 -3 -12 -1 -27 5 -16 6 -44 13 -63 15 -19 2 -69 10 -110 17 -42
7 -81 12 -88 9z m215 -138 c-3 -3 -12 -4 -19 -1 -8 3 -5 6 6 6 11 1 17 -2 13
-5z"/>
<path d="M1310 990 c-18 -12 -2 -12 25 0 13 6 15 9 5 9 -8 0 -22 -4 -30 -9z"/>
<path d="M1755 970 c21 -24 26 -25 19 -6 -3 8 -13 17 -22 21 -13 5 -13 2 3
-15z"/>
<path d="M1872 974 c-7 -8 -8 -14 -3 -14 10 0 25 19 20 25 -2 1 -10 -3 -17
-11z"/>
<path d="M1990 982 c0 -12 19 -26 26 -19 2 2 -2 10 -11 17 -9 8 -15 8 -15 2z"/>
<path d="M2039 964 c7 -14 7 -24 0 -31 -8 -8 -7 -13 3 -18 7 -5 10 -5 6 0 -4
4 -3 13 2 20 6 8 5 18 -6 31 -15 18 -15 18 -5 -2z"/>
<path d="M1372 954 c-18 -8 -30 -19 -27 -24 9 -15 27 -12 19 3 -4 6 -3 8 1 4
12 -10 15 -38 4 -32 -5 4 -6 -1 -3 -9 8 -21 24 -10 24 16 0 12 7 30 17 40 19
21 10 22 -35 2z"/>
<path d="M1716 954 c-4 -9 -4 -19 -1 -22 2 -3 7 3 11 12 4 9 4 19 1 22 -2 3
-7 -3 -11 -12z"/>
<path d="M1295 929 c1 -10 5 -22 10 -26 4 -5 5 -3 2 3 -4 7 0 14 8 18 21 8 19
21 -3 23 -12 1 -18 -5 -17 -18z"/>
<path d="M1632 915 c-11 -13 -23 -21 -27 -17 -5 4 -5 1 -1 -5 10 -17 9 -17 34
17 27 36 22 40 -6 5z"/>
<path d="M1950 930 c0 -17 27 -23 47 -10 11 7 12 10 3 7 -8 -2 -23 0 -32 5
-12 6 -18 5 -18 -2z"/>
<path d="M1217 923 c-10 -9 -9 -23 2 -23 5 0 11 7 15 15 5 15 -5 20 -17 8z"/>
<path d="M1911 928 c2 -2 20 -16 39 -33 l35 -30 -29 33 c-17 17 -34 32 -40 32
-5 0 -7 -1 -5 -2z"/>
<path d="M2 893 c-2 -37 12 -48 75 -56 39 -5 42 -3 52 26 13 37 13 37 1 37 -6
0 -15 -11 -20 -25 -10 -26 -19 -29 -68 -19 -25 5 -32 12 -35 38 l-4 31 -1 -32z"/>
<path d="M1240 903 c0 -4 5 -15 10 -23 8 -13 10 -13 10 2 0 9 -4 20 -10 23 -5
3 -10 3 -10 -2z"/>
<path d="M1573 895 c0 -8 4 -12 9 -9 5 3 6 10 3 15 -9 13 -12 11 -12 -6z"/>
<path d="M2090 900 c0 -5 5 -10 11 -10 5 0 7 5 4 10 -3 6 -8 10 -11 10 -2 0
-4 -4 -4 -10z"/>
<path d="M50 890 c0 -5 9 -10 21 -10 11 0 17 5 14 10 -3 6 -13 10 -21 10 -8 0
-14 -4 -14 -10z"/>
<path d="M1486 884 c-10 -34 -3 -138 11 -167 8 -15 12 -31 9 -35 -3 -5 5 -20
17 -35 24 -30 125 -70 142 -57 5 4 33 10 60 13 28 3 66 12 85 20 l35 15 -30 1
c-17 1 -36 -4 -42 -10 -33 -33 -194 -16 -231 24 -33 37 -50 105 -42 172 7 58
-2 96 -14 59z"/>
<path d="M1887 888 c4 -7 8 -21 8 -32 0 -23 36 -38 52 -21 8 9 4 18 -17 38
-29 28 -58 37 -43 15z m43 -33 c7 -8 8 -15 2 -15 -5 0 -15 7 -22 15 -7 8 -8
15 -2 15 5 0 15 -7 22 -15z"/>
<path d="M1998 883 c7 -3 16 -2 19 1 4 3 -2 6 -13 5 -11 0 -14 -3 -6 -6z"/>
<path d="M1396 865 c-9 -26 -7 -32 5 -12 6 10 9 21 6 23 -2 3 -7 -2 -11 -11z"/>
<path d="M1544 865 c11 -8 22 -12 25 -9 6 6 -19 24 -34 24 -5 -1 -1 -7 9 -15z"/>
<path d="M1132 840 c-6 -11 -9 -27 -5 -36 5 -14 0 -16 -35 -12 -31 4 -39 2
-35 -8 3 -8 18 -14 34 -14 15 0 32 -7 37 -16 7 -12 11 0 14 42 3 33 5 60 4 61
-1 1 -7 -7 -14 -17z"/>
<path d="M2110 850 c0 -6 -22 -9 -55 -6 -31 2 -58 0 -61 -5 -3 -5 -11 -6 -17
-3 -7 4 -9 3 -4 -1 4 -5 -1 -18 -10 -29 -18 -20 -18 -20 10 -3 36 23 168 18
196 -7 10 -9 21 -16 26 -16 5 0 -2 10 -15 23 -14 12 -31 22 -40 22 -9 0 -14 8
-12 18 2 9 -2 17 -8 17 -5 0 -10 -5 -10 -10z"/>
<path d="M1620 841 c0 -6 5 -11 10 -11 6 0 10 -7 10 -15 0 -8 5 -15 10 -15 7
0 7 6 0 19 -12 24 -30 36 -30 22z"/>
<path d="M570 815 c0 -8 4 -15 10 -15 5 0 7 7 4 15 -4 8 -8 15 -10 15 -2 0 -4
-7 -4 -15z"/>
<path d="M861 813 c16 -26 36 -36 44 -23 4 6 1 10 -6 10 -7 0 -21 8 -32 18
-19 17 -19 16 -6 -5z"/>
<path d="M830 800 c20 -13 33 -13 25 0 -3 6 -14 10 -23 10 -15 0 -15 -2 -2
-10z"/>
<path d="M1902 765 c-18 -37 -20 -50 -11 -59 9 -8 10 -8 5 2 -4 6 -3 12 1 12
5 0 15 -6 22 -12 11 -11 11 -9 2 10 -9 16 -9 27 -1 43 6 11 10 27 8 36 -2 9
-13 -5 -26 -32z"/>
<path d="M1448 793 c7 -3 16 -2 19 1 4 3 -2 6 -13 5 -11 0 -14 -3 -6 -6z"/>
<path d="M2037 784 c3 -8 9 -14 14 -14 5 0 14 -10 19 -22 9 -23 9 -23 9 2 1
17 -7 29 -23 36 -20 9 -23 9 -19 -2z"/>
<path d="M1734 776 c19 -15 19 -16 1 -16 -25 0 -11 -12 17 -15 38 -4 39 -5 34
-14 -4 -5 3 -7 15 -4 20 6 19 7 -7 19 -16 7 -40 21 -54 30 -22 14 -23 14 -6 0z"/>
<path d="M2123 767 c-3 -7 -2 -9 2 -4 5 4 19 0 32 -8 66 -43 78 -48 43 -17
-40 35 -67 45 -77 29z"/>
<path d="M50 759 c0 -5 7 -9 16 -9 9 0 12 -5 8 -12 -5 -9 -2 -9 9 1 22 17 22
18 -8 23 -14 3 -25 1 -25 -3z"/>
<path d="M994 752 c-5 -16 -14 -22 -32 -22 -20 0 -23 -3 -15 -11 9 -9 3 -22
-23 -52 -18 -22 -34 -45 -34 -49 0 -5 -4 -7 -9 -4 -4 3 -17 -4 -27 -17 -10
-12 -12 -16 -4 -9 22 19 35 14 17 -6 -10 -10 -17 -22 -17 -27 0 -4 10 5 22 21
44 57 132 159 142 166 8 5 7 11 -2 20 -10 10 -14 8 -18 -10z"/>
<path d="M1700 750 c6 -11 15 -20 20 -20 6 0 2 9 -7 20 -10 11 -19 20 -21 20
-1 0 2 -9 8 -20z"/>
<path d="M87 722 c-10 -10 -17 -22 -17 -26 0 -4 -13 -18 -29 -32 -26 -21 -52
-72 -30 -58 5 3 9 10 9 15 0 6 14 22 30 36 17 13 30 29 30 35 0 5 10 18 23 29
12 10 17 18 11 19 -6 0 -18 -8 -27 -18z"/>
<path d="M440 730 c0 -5 5 -10 11 -10 5 0 7 5 4 10 -3 6 -8 10 -11 10 -2 0 -4
-4 -4 -10z"/>
<path d="M1450 729 c0 -5 5 -7 10 -4 6 3 10 8 10 11 0 2 -4 4 -10 4 -5 0 -10
-5 -10 -11z"/>
<path d="M25 689 c-16 -15 -27 -31 -24 -33 3 -3 18 8 34 24 37 39 29 46 -10 9z"/>
<path d="M355 709 c-11 -17 1 -21 15 -4 8 9 8 15 2 15 -6 0 -14 -5 -17 -11z"/>
<path d="M175 700 c-3 -5 -1 -10 4 -10 6 0 11 5 11 10 0 6 -2 10 -4 10 -3 0
-8 -4 -11 -10z"/>
<path d="M1117 695 c-4 -8 -2 -17 3 -20 6 -4 10 3 10 14 0 25 -6 27 -13 6z"/>
<path d="M439 683 c-13 -16 -12 -17 4 -4 9 7 17 15 17 17 0 8 -8 3 -21 -13z"/>
<path d="M1700 691 c0 -10 19 -26 43 -34 13 -5 17 -1 17 14 0 15 -5 19 -16 15
-8 -3 -12 -2 -9 4 3 6 -3 10 -14 10 -12 0 -21 -4 -21 -9z"/>
<path d="M110 665 c-19 -14 -27 -25 -19 -25 9 0 26 11 39 25 13 14 21 25 19
25 -3 0 -20 -11 -39 -25z"/>
<path d="M360 666 c-4 -13 -23 -35 -41 -49 -19 -14 -30 -29 -27 -33 4 -3 23
11 43 32 43 46 61 74 45 74 -6 0 -15 -11 -20 -24z"/>
<path d="M526 674 c-9 -23 -2 -28 13 -10 7 8 8 17 3 20 -6 3 -13 -1 -16 -10z"/>
<path d="M2220 686 c0 -2 7 -7 16 -10 8 -3 12 -2 9 4 -6 10 -25 14 -25 6z"/>
<path d="M215 654 c-18 -16 -22 -22 -9 -15 18 9 53 42 43 41 -2 -1 -17 -12
-34 -26z"/>
<path d="M1413 654 c-15 -14 -37 -32 -47 -40 -11 -7 -17 -16 -13 -20 3 -4 24
8 45 25 22 17 47 31 56 31 10 0 13 6 10 15 -8 21 -19 19 -51 -11z"/>
<path d="M255 659 c-4 -6 -5 -12 -2 -15 2 -3 7 2 10 11 7 17 1 20 -8 4z"/>
<path d="M418 617 c-27 -28 -48 -54 -48 -58 0 -3 -11 -16 -25 -29 -14 -13 -25
-28 -24 -34 0 -6 3 -5 6 2 2 6 9 10 14 6 5 -3 12 3 16 13 8 20 17 33 53 71 23
25 64 83 58 82 -2 -1 -24 -24 -50 -53z"/>
<path d="M606 655 c-3 -8 -1 -15 4 -15 13 0 22 18 11 24 -5 3 -11 -1 -15 -9z"/>
<path d="M1200 650 c0 -23 10 -26 28 -8 18 18 15 28 -8 28 -13 0 -20 -7 -20
-20z"/>
<path d="M1881 665 c1 -19 18 -51 18 -35 0 8 -4 22 -9 30 -5 8 -9 11 -9 5z"/>
<path d="M2260 666 c0 -2 16 -13 35 -25 37 -21 51 -50 16 -31 -24 12 -31 13
-31 2 0 -5 15 -16 34 -25 19 -9 37 -24 40 -35 8 -24 53 -49 66 -36 12 12 2 51
-14 57 -8 3 -11 -5 -9 -27 l3 -31 -15 32 c-8 17 -21 35 -28 40 -8 4 -14 19
-13 32 1 14 -8 29 -24 40 -13 9 -21 11 -16 4 9 -16 1 -16 -25 -3 -10 6 -19 9
-19 6z m75 -27 c11 -17 -1 -21 -15 -4 -8 9 -8 15 -2 15 6 0 14 -5 17 -11z"/>
<path d="M122 637 c-12 -13 -22 -28 -22 -33 0 -22 -49 -56 -72 -51 -19 5 -23
2 -24 -19 -2 -24 -1 -25 17 -8 11 9 22 15 25 12 7 -7 52 37 82 81 28 40 24 50
-6 18z"/>
<path d="M315 652 c-5 -4 -17 -16 -25 -27 -11 -15 -7 -14 13 4 24 22 32 31 25
31 -2 0 -7 -4 -13 -8z"/>
<path d="M1080 642 c0 -12 0 -25 -1 -29 0 -4 3 -9 8 -10 10 -4 10 44 0 54 -4
3 -7 -3 -7 -15z"/>
<path d="M1150 646 c0 -8 4 -17 9 -20 5 -4 7 3 4 14 -6 23 -13 26 -13 6z"/>
<path d="M376 619 c-16 -16 -26 -29 -22 -29 11 0 66 43 66 52 0 14 -14 6 -44
-23z"/>
<path d="M523 623 c-10 -16 -28 -36 -40 -46 -13 -10 -23 -24 -23 -32 0 -7 -13
-25 -30 -38 -16 -14 -30 -30 -30 -34 0 -5 -13 -22 -30 -38 -16 -16 -30 -34
-30 -40 0 -6 -11 -22 -25 -35 -14 -13 -25 -28 -25 -34 0 -17 -53 -66 -72 -66
-9 0 -22 -9 -28 -20 -6 -11 -17 -20 -25 -20 -8 0 -15 -4 -15 -10 0 -19 29 -10
49 17 12 14 25 23 29 19 4 -4 -8 -21 -27 -38 l-33 -30 -22 22 c-15 16 -17 24
-8 27 6 3 12 13 12 23 0 10 13 27 29 36 16 10 32 25 35 33 8 24 29 55 44 64 6
4 12 13 12 20 0 7 12 25 26 40 14 16 24 30 23 32 -7 6 -70 -56 -65 -64 3 -4
-8 -21 -24 -36 -17 -16 -30 -34 -30 -41 0 -7 -13 -24 -30 -37 -16 -14 -30 -33
-30 -41 0 -9 -9 -21 -20 -28 -19 -12 -19 -13 2 -35 15 -16 33 -23 59 -23 21 0
41 -5 44 -11 15 -23 52 -28 89 -11 20 9 36 21 36 26 0 5 10 21 23 35 20 23 19
23 -16 -4 -21 -15 -41 -25 -45 -21 -4 4 1 12 11 17 9 6 17 17 17 25 0 9 7 23
16 31 13 13 17 14 24 3 7 -11 13 -10 34 4 14 9 26 21 26 26 0 6 -11 3 -25 -6
-24 -16 -25 -16 -25 7 0 14 11 36 25 51 14 15 25 31 25 36 0 4 14 21 30 37 17
16 30 34 30 41 0 7 10 20 21 28 12 8 29 26 38 39 9 14 27 40 40 59 l24 33 -34
-31 c-19 -18 -44 -35 -56 -38 -11 -4 -24 -13 -27 -21 -3 -8 -12 -15 -21 -15
-8 0 -15 -4 -15 -10 0 -18 20 -11 46 17 13 14 27 23 30 20 4 -3 -8 -20 -25
-37 -17 -17 -31 -35 -31 -39 0 -4 -13 -20 -30 -36 -16 -16 -30 -34 -30 -40 0
-6 -13 -24 -30 -40 -16 -15 -27 -31 -25 -36 3 -4 -10 -20 -28 -36 -18 -16 -32
-34 -30 -39 2 -5 -10 -23 -27 -39 -25 -24 -34 -27 -48 -19 -9 6 -19 19 -20 29
-2 10 0 15 6 11 6 -3 12 4 14 16 4 25 23 35 31 15 3 -8 -3 -24 -14 -35 -10
-12 -15 -23 -10 -27 5 -3 19 7 30 21 19 24 20 29 6 44 -19 21 -19 36 0 44 8 3
15 12 15 19 0 8 11 23 25 33 14 10 25 27 25 37 0 10 14 30 30 44 17 13 30 29
30 35 0 5 14 23 30 40 17 16 30 36 30 44 0 8 5 14 11 14 7 0 18 8 26 18 19 24
45 72 38 72 -2 0 -12 -12 -22 -27z"/>
<path d="M1475 640 c-19 -8 -19 -9 2 -9 12 -1 25 4 28 9 7 12 -2 12 -30 0z"/>
<path d="M217 622 c-10 -10 -17 -22 -17 -27 0 -5 9 1 21 14 12 12 19 24 17 27
-3 2 -12 -4 -21 -14z"/>
<path d="M60 605 c-7 -14 -17 -25 -22 -25 -4 0 -8 -5 -8 -10 0 -16 37 7 50 30
5 10 6 21 2 24 -5 3 -15 -6 -22 -19z"/>
<path d="M465 605 c-16 -14 -25 -25 -18 -25 7 0 25 11 40 25 36 32 17 32 -22
0z"/>
<path d="M2245 620 c3 -5 8 -10 11 -10 2 0 4 5 4 10 0 6 -5 10 -11 10 -5 0 -7
-4 -4 -10z"/>
<path d="M563 600 c-34 -21 -48 -49 -15 -31 17 9 59 51 51 51 -2 0 -19 -9 -36
-20z"/>
<path d="M1474 607 c-7 -19 -1 -98 10 -115 4 -7 6 -22 5 -35 -2 -23 16 -77 27
-77 3 0 3 19 -1 41 -5 28 -4 39 3 35 6 -3 13 -2 16 3 4 5 -1 11 -10 13 -10 2
-18 15 -20 31 -2 23 0 26 10 17 10 -8 15 -7 20 5 3 9 11 13 17 9 8 -4 9 -3 5
5 -5 8 -19 10 -36 6 -28 -6 -29 -5 -25 29 3 37 -11 59 -21 33z"/>
<path d="M1996 604 c-3 -9 4 -16 22 -20 15 -4 36 -14 47 -23 11 -9 29 -23 40
-31 19 -15 19 -14 4 10 -9 14 -37 37 -62 52 -36 21 -47 24 -51 12z"/>
<path d="M2375 606 c11 -8 23 -12 27 -10 5 3 8 1 8 -4 0 -5 18 -17 40 -27 22
-10 37 -22 33 -28 -3 -6 -1 -7 5 -3 7 4 12 2 12 -3 0 -6 -15 -11 -32 -11 -25
0 -29 -3 -18 -10 8 -5 26 -7 40 -3 50 11 49 13 -55 79 -16 10 -33 19 -37 19
-3 0 -10 3 -14 8 -4 4 -12 7 -18 7 -5 0 -1 -6 9 -14z"/>
<path d="M2566 601 c-8 -12 25 -46 33 -33 7 10 82 8 120 -4 18 -5 22 -4 16 5
-6 10 -3 11 11 4 11 -6 51 -9 91 -9 39 1 69 -2 66 -6 -7 -13 12 -9 25 4 9 9
12 9 12 -1 0 -11 3 -11 15 -1 12 10 18 10 30 0 12 -10 15 -10 15 3 0 24 -36
41 -44 21 -5 -13 -9 -14 -20 -5 -9 8 -71 13 -173 15 -87 2 -165 6 -174 10 -10
4 -20 3 -23 -3z"/>
<path d="M146 574 c-15 -14 -26 -27 -24 -29 2 -3 17 9 33 25 35 36 30 39 -9 4z"/>
<path d="M635 575 c-16 -14 -25 -25 -18 -25 7 0 25 11 40 25 36 32 17 32 -22
0z"/>
<path d="M1395 589 c-4 -6 -5 -12 -2 -15 2 -3 7 2 10 11 7 17 1 20 -8 4z"/>
<path d="M248 571 c-9 -10 -22 -21 -29 -23 -8 -3 -10 -9 -6 -14 4 -4 20 4 34
19 15 14 25 29 22 31 -3 3 -12 -3 -21 -13z"/>
<path d="M745 580 c-10 -16 -49 -29 -55 -19 -3 4 -19 -3 -35 -17 -29 -25 -29
-26 -3 -10 15 9 30 16 33 16 13 0 -10 -56 -29 -72 -12 -9 -16 -17 -9 -18 7 0
24 12 38 27 14 16 25 22 25 14 0 -13 -38 -63 -85 -111 -14 -14 -25 -30 -25
-37 0 -12 -19 -28 -109 -94 -57 -42 -74 -48 -65 -24 5 11 2 13 -10 9 -9 -3
-16 -12 -16 -20 0 -7 -10 -22 -22 -34 l-22 -20 22 0 c11 0 24 5 27 10 4 6 24
19 46 31 22 11 84 63 137 115 53 53 121 112 150 131 28 20 52 40 52 45 0 6 11
19 25 30 14 11 25 24 25 30 0 6 -8 4 -18 -5 -10 -10 -24 -17 -31 -17 -6 0 -16
-11 -23 -24 -10 -23 -36 -42 -45 -32 -2 2 8 17 22 34 31 37 33 50 3 22 -12
-11 -28 -20 -37 -20 -9 0 -1 12 19 30 18 16 31 32 28 36 -3 3 -9 0 -13 -6z"/>
<path d="M1728 577 c-16 -6 -28 -15 -28 -19 0 -5 13 -2 29 6 23 12 35 13 58 4
25 -9 74 -5 62 6 -12 10 -98 12 -121 3z"/>
<path d="M170 555 c-13 -14 -31 -25 -40 -25 -9 0 -29 -13 -45 -30 -36 -37 -21
-40 17 -3 15 14 31 23 35 19 4 -4 -7 -18 -25 -32 -18 -14 -32 -31 -32 -37 0
-16 -51 -67 -67 -67 -7 0 -13 -5 -13 -11 0 -5 5 -7 12 -3 8 5 9 2 5 -9 -3 -10
-2 -17 3 -17 6 0 10 4 10 10 0 5 13 25 30 43 16 19 30 39 30 45 0 6 6 15 13
19 8 4 24 24 38 43 13 19 33 43 43 53 11 9 17 19 14 22 -2 3 -15 -6 -28 -20z"/>
<path d="M330 568 c0 -6 -7 -20 -17 -30 -9 -10 -12 -18 -6 -18 10 0 34 24 47
48 4 7 1 12 -8 12 -9 0 -16 -5 -16 -12z"/>
<path d="M1970 566 c0 -8 -3 -23 -6 -33 -5 -12 -4 -15 3 -8 16 15 26 55 14 55
-6 0 -11 -6 -11 -14z"/>
<path d="M259 542 c-41 -46 -48 -66 -34 -86 15 -19 39 -12 65 19 20 24 6 28
-18 5 -49 -46 -58 -9 -11 45 18 20 30 38 27 40 -2 3 -15 -8 -29 -23z"/>
<path d="M1638 556 c-10 -7 -15 -16 -11 -19 3 -4 12 1 19 11 12 15 13 14 9 -8
-4 -22 -3 -23 9 -8 7 10 17 14 21 10 4 -4 6 0 3 8 -6 20 -29 23 -50 6z"/>
<path d="M420 541 c-6 -12 -15 -19 -20 -16 -5 3 -11 1 -14 -4 -4 -5 -2 -12 2
-15 11 -6 58 41 50 50 -4 3 -11 -4 -18 -15z"/>
<path d="M1384 536 c-15 -12 -17 -19 -8 -32 6 -10 17 -19 25 -22 9 -2 8 1 -3
11 -24 19 -23 24 10 41 16 9 21 15 11 16 -8 0 -24 -6 -35 -14z"/>
<path d="M861 496 c-1 -37 2 -47 10 -39 8 8 8 22 1 50 l-10 38 -1 -49z"/>
<path d="M578 505 c-16 -13 -24 -26 -19 -29 4 -3 21 8 36 24 34 36 21 39 -17
5z"/>
<path d="M1176 522 c-4 -7 -6 -16 -3 -19 8 -7 -43 -49 -68 -57 -27 -8 -126
-98 -100 -90 16 5 17 4 5 -4 -8 -6 -18 -8 -22 -6 -5 3 -21 -9 -36 -27 -36 -43
-45 -59 -32 -59 5 0 10 4 10 10 0 12 32 50 42 50 15 0 8 -26 -13 -43 -11 -10
-18 -21 -15 -24 9 -9 46 28 46 47 0 9 13 29 30 45 16 16 28 30 26 33 -7 7 61
62 76 62 22 0 70 56 66 77 -3 14 -5 15 -12 5z"/>
<path d="M1780 523 c-9 -4 0 -11 25 -18 47 -14 64 -9 38 11 -19 14 -38 16 -63
7z"/>
<path d="M15 500 c-10 -11 -14 -20 -9 -20 12 1 44 25 44 34 0 12 -17 6 -35
-14z"/>
<path d="M1550 516 c0 -2 7 -7 16 -10 8 -3 12 -2 9 4 -6 10 -25 14 -25 6z"/>
<path d="M2021 511 c-11 -7 -11 -9 0 -14 8 -3 5 -6 -8 -6 -12 -1 -23 4 -25 10
-3 8 -10 6 -20 -5 -9 -9 -20 -16 -25 -16 -13 0 -33 -37 -57 -104 -20 -57 -24
-102 -7 -92 11 7 4 -120 -8 -143 -6 -10 -8 -21 -6 -23 3 -3 -7 -6 -22 -6 -16
-1 -76 -8 -135 -15 -59 -7 -113 -10 -120 -6 -12 8 -99 3 -128 -7 -13 -4 -13
-6 0 -15 10 -5 11 -12 5 -17 -14 -10 -13 -44 2 -49 6 -2 13 6 15 18 5 33 26
35 31 2 l4 -28 2 26 c2 36 24 54 50 40 25 -14 17 -41 -10 -34 -14 4 -19 0 -19
-13 0 -16 2 -17 10 -4 6 10 10 11 10 3 0 -7 9 -13 19 -13 14 0 18 5 14 20 -4
15 2 22 22 30 33 12 35 12 35 0 0 -5 -6 -10 -14 -10 -14 0 -32 -18 -25 -24 2
-2 14 -7 27 -10 18 -6 22 -4 22 14 0 13 8 24 20 27 11 3 17 9 14 14 -3 5 -10
6 -16 3 -7 -4 -8 -2 -4 4 9 15 36 16 36 2 0 -5 5 -10 11 -10 5 0 7 4 4 10 -3
5 2 10 12 11 10 0 25 2 33 3 77 15 118 15 129 2 17 -20 -12 -46 -50 -46 -41 0
-36 7 14 21 27 8 36 14 24 17 -25 5 -77 -17 -77 -34 0 -8 -6 -11 -14 -8 -8 3
-23 1 -33 -5 -14 -9 2 -10 63 -5 51 4 84 2 88 -4 4 -7 -9 -8 -36 -5 -24 3 -41
3 -38 1 3 -3 27 -9 53 -12 48 -7 48 -7 37 14 -13 24 -6 36 25 42 17 3 15 7
-15 22 -53 29 -61 40 -46 62 12 15 16 16 30 5 11 -9 33 -12 66 -9 41 4 50 2
51 -11 1 -26 21 30 24 67 1 21 -3 32 -12 32 -7 0 -13 -10 -13 -23 0 -34 -19
-47 -70 -47 -54 0 -70 13 -70 55 0 46 29 69 77 60 21 -4 44 -12 52 -18 7 -6
27 -10 44 -8 16 1 41 -3 53 -10 20 -10 24 -20 24 -59 0 -25 -6 -52 -12 -58
-10 -10 -10 -17 0 -32 6 -11 12 -37 12 -57 0 -28 3 -34 10 -23 5 8 7 23 4 34
-4 11 -2 16 4 12 6 -3 14 -1 18 5 4 8 3 9 -5 5 -19 -12 -22 18 -6 58 14 33 18
36 33 24 15 -12 16 -11 4 4 -12 15 -12 20 2 33 24 24 19 28 -8 8 -13 -10 -22
-21 -20 -24 2 -4 -3 -12 -11 -19 -30 -25 -11 32 20 63 30 28 30 28 3 12 -16
-10 -29 -16 -29 -14 -1 2 -3 34 -4 71 -2 48 1 65 9 62 7 -3 21 4 31 16 21 23
14 27 -9 4 -21 -20 -39 -8 -33 22 3 19 0 24 -15 24 -11 0 -22 -9 -25 -20 -3
-11 -10 -20 -17 -20 -6 0 -4 -4 4 -10 9 -6 17 -5 22 3 4 7 6 3 5 -10 0 -12 -5
-19 -9 -17 -4 3 -8 0 -8 -5 0 -6 5 -11 10 -11 6 0 9 -13 8 -28 -1 -15 1 -33 6
-40 4 -7 2 -12 -3 -12 -6 0 -11 5 -11 10 0 6 -16 10 -36 10 -34 0 -35 1 -32
32 2 24 9 34 28 40 21 6 19 7 -10 5 -25 -1 -35 2 -35 13 0 9 7 14 18 12 15 -3
16 0 5 17 -7 11 -9 24 -5 28 5 4 12 1 17 -6 7 -12 11 -12 23 1 14 14 11 16
-36 21 -28 4 -56 2 -61 -3 -6 -6 -16 -5 -28 1 -11 6 -26 8 -34 5 -18 -7 -18
18 0 33 10 9 36 10 83 6 87 -8 103 -13 103 -31 0 -8 5 -14 10 -14 6 0 10 5 10
10 0 6 11 10 25 10 18 0 23 4 18 16 -4 12 -8 13 -13 3 -6 -9 -16 -9 -42 4 -18
9 -46 17 -62 20 -16 2 -32 11 -35 20 -4 11 -11 13 -20 8z m-44 -116 c5 -14 8
-14 29 0 31 20 34 19 34 -8 0 -16 -9 -28 -25 -35 -14 -6 -25 -16 -25 -22 0 -5
11 -10 25 -10 17 0 25 -5 25 -17 0 -15 -10 -18 -70 -18 -38 0 -71 5 -73 10 -2
6 3 34 11 63 12 44 18 52 39 52 13 0 26 -7 30 -15z"/>
<path d="M1937 363 c-13 -12 -7 -33 8 -33 8 0 15 9 15 20 0 20 -11 26 -23 13z"/>
<path d="M2055 510 c-3 -5 3 -10 14 -10 12 0 21 5 21 10 0 6 -6 10 -14 10 -8
0 -18 -4 -21 -10z"/>
<path d="M2260 512 c0 -15 40 -42 62 -42 9 0 20 5 24 12 5 8 0 9 -17 5 -16 -4
-30 0 -46 15 -13 12 -23 16 -23 10z"/>
<path d="M2310 504 c0 -14 3 -15 18 -3 9 7 19 15 21 16 2 2 -5 3 -17 3 -14 0
-22 -6 -22 -16z"/>
<path d="M2699 500 c30 -26 49 -26 26 0 -10 11 -25 20 -34 20 -12 -1 -10 -5 8
-20z"/>
<path d="M2740 512 c0 -5 7 -15 15 -22 8 -7 15 -8 15 -2 0 5 -7 15 -15 22 -8
7 -15 8 -15 2z"/>
<path d="M174 486 c-16 -13 -26 -27 -23 -31 4 -3 20 5 35 19 16 13 26 27 23
31 -4 3 -20 -5 -35 -19z"/>
<path d="M603 481 c-17 -16 -29 -32 -25 -36 3 -3 -9 -19 -28 -35 -19 -17 -30
-30 -24 -30 12 0 48 38 89 93 33 44 30 46 -12 8z"/>
<path d="M2528 498 c11 -11 82 -39 82 -32 0 5 -77 44 -87 44 -4 0 -2 -5 5 -12z"/>
<path d="M818 494 c-7 -12 -4 -46 5 -61 4 -6 6 -17 4 -25 -2 -7 -2 -10 0 -5 3
4 9 5 14 1 13 -7 11 14 -5 60 -7 21 -16 35 -18 30z"/>
<path d="M1595 490 c3 -5 14 -10 23 -10 15 0 15 2 2 10 -20 13 -33 13 -25 0z"/>
<path d="M1750 490 c0 -5 5 -10 11 -10 5 0 7 5 4 10 -3 6 -8 10 -11 10 -2 0
-4 -4 -4 -10z"/>
<path d="M2405 490 c3 -5 18 -10 33 -10 20 -1 23 -3 12 -9 -26 -16 -116 -28
-139 -19 -16 5 -21 4 -19 -4 2 -6 11 -12 19 -14 7 -1 28 -5 44 -9 23 -5 26 -4
15 4 -12 8 -8 11 20 12 19 1 41 1 49 0 7 -2 10 2 6 8 -3 6 1 11 9 11 24 0 126
-51 121 -60 -3 -5 4 -6 15 -3 15 4 7 12 -40 36 -41 22 -56 34 -47 40 8 6 5 7
-9 4 -11 -2 -29 2 -39 9 -22 16 -59 19 -50 4z"/>
<path d="M348 458 c-15 -15 -21 -28 -14 -28 16 0 60 47 49 52 -4 2 -20 -9 -35
-24z"/>
<path d="M452 479 c4 -10 -2 -23 -14 -33 -11 -10 -17 -20 -14 -24 4 -3 18 5
32 19 24 24 24 26 8 40 -16 12 -17 12 -12 -2z"/>
<path d="M191 456 c-7 -9 -19 -16 -26 -16 -8 0 -27 -13 -43 -30 -17 -16 -26
-30 -21 -30 6 0 21 12 36 26 14 14 28 22 32 19 3 -4 -9 -20 -27 -36 -17 -16
-32 -34 -32 -41 0 -6 6 -4 13 7 14 18 37 14 37 -7 0 -7 -10 -22 -22 -35 -30
-32 -3 -29 29 3 23 24 24 27 10 36 -18 10 -23 38 -7 38 6 0 10 9 10 20 0 10 7
23 16 28 9 5 15 15 12 22 -3 9 -7 8 -17 -4z"/>
<path d="M1661 461 c-11 -7 -10 -11 7 -20 26 -14 42 -14 42 -1 0 6 -6 10 -14
10 -8 0 -16 4 -18 10 -2 5 -9 6 -17 1z"/>
<path d="M2528 463 c7 -3 16 -2 19 1 4 3 -2 6 -13 5 -11 0 -14 -3 -6 -6z"/>
<path d="M25 421 c-23 -26 -25 -32 -9 -23 26 14 47 39 42 50 -1 4 -16 -8 -33
-27z"/>
<path d="M520 427 l-25 -32 33 23 c17 13 32 28 32 33 0 17 -15 8 -40 -24z"/>
<path d="M2593 434 c21 -14 41 -24 43 -21 6 5 -59 47 -72 47 -5 0 9 -12 29
-26z"/>
<path d="M613 422 c-29 -35 -19 -43 13 -10 14 14 22 28 17 31 -4 3 -18 -7 -30
-21z"/>
<path d="M1570 439 c0 -10 50 -32 57 -25 2 2 -10 11 -26 19 -17 9 -31 11 -31
6z"/>
<path d="M867 426 c-7 -17 10 -27 68 -40 27 -5 26 -4 -10 15 -22 12 -43 26
-46 31 -3 5 -9 2 -12 -6z"/>
<path d="M1150 415 c-13 -14 -21 -27 -18 -30 2 -3 15 6 28 20 13 14 21 27 18
30 -2 3 -15 -6 -28 -20z"/>
<path d="M1200 428 c0 -7 -12 -25 -27 -40 -15 -15 -22 -28 -15 -28 6 0 17 9
25 20 8 11 17 17 20 13 4 -3 7 6 7 20 0 15 -2 27 -5 27 -3 0 -5 -5 -5 -12z"/>
<path d="M2260 420 c35 -24 54 -31 30 -11 -14 11 -29 21 -35 21 -5 0 -3 -5 5
-10z"/>
<path d="M201 395 c-13 -14 -22 -28 -19 -30 7 -7 58 34 58 46 0 16 -14 10 -39
-16z"/>
<path d="M790 409 c0 -5 5 -7 10 -4 6 3 10 8 10 11 0 2 -4 4 -10 4 -5 0 -10
-5 -10 -11z"/>
<path d="M2407 409 c7 -7 15 -10 18 -7 3 3 -2 9 -12 12 -14 6 -15 5 -6 -5z"/>
<path d="M295 385 c-16 -13 -26 -28 -22 -32 4 -4 20 5 34 20 35 34 25 44 -12
12z"/>
<path d="M1640 399 c0 -5 5 -7 10 -4 6 3 10 8 10 11 0 2 -4 4 -10 4 -5 0 -10
-5 -10 -11z"/>
<path d="M2650 399 c0 -5 5 -7 10 -4 6 4 17 2 25 -5 8 -6 16 -7 19 -2 3 6 -4
12 -17 16 -31 8 -37 7 -37 -5z"/>
<path d="M378 366 c-21 -18 -38 -37 -38 -41 0 -5 -10 -19 -22 -32 -29 -31 -18
-39 16 -12 17 14 25 27 21 38 -4 12 3 21 19 29 14 6 30 20 36 32 14 26 12 25
-32 -14z"/>
<path d="M1072 388 c-7 -7 -12 -17 -12 -23 0 -6 -11 -22 -25 -35 -14 -13 -25
-29 -25 -35 0 -6 -11 -22 -25 -35 -14 -13 -23 -30 -21 -36 3 -7 -8 -23 -24
-36 -17 -13 -30 -30 -30 -39 0 -9 -10 -24 -21 -35 -23 -21 -39 -54 -32 -67 3
-5 14 9 25 29 11 20 25 43 31 50 30 34 37 44 37 56 1 9 5 7 14 -4 12 -16 15
-15 41 12 16 17 24 30 18 30 -6 0 -16 -7 -23 -15 -18 -22 -29 -18 -22 8 5 21
77 131 110 170 17 19 3 24 -16 5z"/>
<path d="M1396 385 c-13 -10 -9 -12 22 -13 21 -1 42 -8 49 -18 11 -15 12 -14
10 3 -1 25 -58 45 -81 28z"/>
<path d="M470 355 c-13 -14 -21 -27 -18 -30 2 -3 15 6 28 20 13 14 21 27 18
30 -2 3 -15 -6 -28 -20z"/>
<path d="M2317 362 c-24 -27 -21 -36 4 -11 11 11 19 23 16 25 -2 2 -11 -4 -20
-14z"/>
<path d="M570 361 c0 -6 -10 -19 -22 -31 -12 -11 -17 -20 -12 -20 18 0 57 47
45 55 -6 3 -11 2 -11 -4z"/>
<path d="M750 360 l-25 -8 28 -1 c15 -1 27 4 27 9 0 6 -1 10 -2 9 -2 -1 -14
-5 -28 -9z"/>
<path d="M865 361 c-41 -7 -109 -39 -157 -73 -15 -10 -50 -26 -78 -34 -27 -8
-50 -17 -50 -20 0 -5 20 0 60 14 12 4 11 1 -2 -15 -10 -11 -18 -24 -18 -29 0
-4 7 1 15 14 35 48 196 132 256 132 10 0 21 5 24 10 3 6 3 9 -2 9 -4 -1 -26
-5 -48 -8z"/>
<path d="M1510 360 c0 -5 5 -10 11 -10 5 0 7 5 4 10 -3 6 -8 10 -11 10 -2 0
-4 -4 -4 -10z"/>
<path d="M2757 363 c-3 -5 9 -9 26 -10 24 -2 28 0 17 7 -18 12 -37 13 -43 3z"/>
<path d="M55 330 c-16 -16 -24 -30 -19 -30 6 0 23 14 39 30 16 17 24 30 19 30
-6 0 -23 -13 -39 -30z"/>
<path d="M1089 334 l-24 -27 28 18 c15 9 27 21 27 26 0 14 -5 11 -31 -17z"/>
<path d="M1595 352 c24 -22 87 -54 84 -43 -3 7 -7 11 -11 9 -3 -2 -14 4 -24
13 -20 17 -67 37 -49 21z"/>
<path d="M2221 346 c-16 -19 -11 -29 8 -17 7 5 12 14 9 21 -3 9 -8 7 -17 -4z"/>
<path d="M2648 353 c6 -2 18 -2 25 0 6 3 1 5 -13 5 -14 0 -19 -2 -12 -5z"/>
<path d="M250 333 c0 -10 -9 -24 -20 -31 -11 -7 -20 -17 -20 -23 0 -6 14 -1
30 11 30 22 38 44 20 55 -5 3 -10 -2 -10 -12z"/>
<path d="M1176 329 c-26 -26 -15 -34 14 -11 13 10 19 21 14 24 -5 3 -18 -3
-28 -13z"/>
<path d="M2360 347 c0 -2 9 -14 20 -27 13 -15 20 -18 20 -9 0 8 -9 20 -20 27
-11 7 -20 11 -20 9z"/>
<path d="M480 322 c-22 -18 -22 -19 -4 -26 10 -4 15 -4 11 0 -4 4 0 16 10 26
21 23 12 23 -17 0z"/>
<path d="M1111 316 c-25 -19 -29 -25 -14 -23 11 0 27 11 37 24 22 29 18 29
-23 -1z"/>
<path d="M2685 330 c3 -5 11 -10 16 -10 6 0 7 5 4 10 -3 6 -11 10 -16 10 -6 0
-7 -4 -4 -10z"/>
<path d="M2743 328 c-28 -14 -37 -40 -28 -84 5 -27 2 -39 -12 -52 -11 -9 -13
-13 -6 -9 7 5 27 6 45 2 l33 -8 -23 19 c-27 23 -40 87 -22 109 15 18 47 20 53
3 2 -7 8 -10 12 -6 8 8 -12 39 -24 37 -3 0 -16 -5 -28 -11z"/>
<path d="M76 309 c-14 -11 -26 -26 -26 -33 0 -7 -9 -25 -20 -39 -18 -22 -18
-25 -2 -23 11 0 18 -7 20 -21 2 -13 -1 -23 -7 -23 -6 0 -15 -10 -22 -22 l-11
-21 31 22 c35 25 43 12 9 -16 -13 -10 -24 -27 -26 -38 -3 -15 4 -12 27 15 24
28 32 32 40 21 5 -8 16 -11 25 -8 19 7 19 6 6 -28 -7 -17 -7 -24 0 -20 5 3 20
8 31 10 12 3 30 12 39 20 12 11 20 13 25 6 3 -6 11 -11 18 -11 6 0 2 7 -9 15
-13 10 -15 14 -5 15 8 0 12 3 8 6 -3 3 -20 -4 -36 -16 -29 -20 -58 -20 -45 1
3 5 9 7 14 4 4 -3 14 2 21 11 12 14 8 15 -34 9 -40 -6 -48 -5 -54 11 -4 11
-13 25 -20 33 -17 17 -11 37 10 33 8 -1 22 7 31 19 15 22 13 39 -5 39 -6 0 -7
-5 -4 -10 3 -6 -2 -13 -12 -17 -10 -3 -26 -13 -35 -21 -10 -8 -18 -10 -18 -5
0 6 7 16 15 23 9 7 13 15 11 17 -3 3 6 16 20 30 38 38 32 45 -10 12z"/>
<path d="M1199 302 c-15 -15 -29 -36 -33 -47 -4 -13 3 -8 20 13 14 18 32 31
39 28 8 -3 11 2 8 15 -3 10 -6 19 -7 18 0 0 -13 -12 -27 -27z"/>
<path d="M2949 308 c-1 -13 -1 -26 0 -31 3 -22 -23 -96 -45 -122 -21 -26 -26
-28 -44 -17 -23 14 -30 15 -30 3 0 -5 9 -11 20 -14 14 -4 18 -10 13 -23 -5
-13 -1 -12 17 6 21 21 24 22 35 6 11 -14 14 -14 24 -2 9 11 8 15 -6 21 -17 6
-17 8 2 23 12 9 24 25 28 35 3 9 14 17 23 17 16 0 15 18 -3 66 -4 12 -3 15 5
10 23 -14 11 9 -13 27 -25 18 -25 18 -26 -5z"/>
<path d="M2263 305 c0 -8 4 -12 9 -9 4 3 8 9 8 15 0 5 -4 9 -8 9 -5 0 -9 -7
-9 -15z"/>
<path d="M835 300 c-8 -13 5 -13 25 0 13 8 13 10 -2 10 -9 0 -20 -4 -23 -10z"/>
<path d="M1311 284 c-1 -12 8 -32 19 -45 17 -20 19 -20 12 -4 -6 11 -15 31
-20 45 -10 23 -11 23 -11 4z"/>
<path d="M2080 296 c0 -2 11 -6 25 -8 14 -3 25 -1 25 3 0 5 -11 9 -25 9 -14 0
-25 -2 -25 -4z"/>
<path d="M20 276 c0 -8 -5 -16 -12 -18 -6 -2 -9 -9 -7 -15 2 -6 12 -1 22 12
10 15 13 26 7 30 -5 3 -10 0 -10 -9z"/>
<path d="M1037 268 c-10 -11 -16 -22 -13 -25 7 -7 46 26 46 39 0 13 -14 8 -33
-14z"/>
<path d="M2359 273 c-13 -16 -12 -17 4 -4 16 13 21 21 13 21 -2 0 -10 -8 -17
-17z"/>
<path d="M803 268 c-12 -21 -12 -37 0 -45 7 -3 9 -2 4 2 -4 5 0 19 8 32 9 13
11 23 6 23 -5 0 -13 -6 -18 -12z"/>
<path d="M1470 265 c0 -10 10 -15 28 -15 15 0 34 -6 41 -12 11 -11 13 -10 7 5
-3 10 -6 20 -6 21 0 2 -11 1 -25 -2 -15 -2 -25 0 -25 7 0 6 -4 11 -10 11 -5 0
-10 -7 -10 -15z"/>
<path d="M2270 265 c-7 -8 -8 -15 -2 -15 5 0 15 7 22 15 7 8 8 15 2 15 -5 0
-15 -7 -22 -15z"/>
<path d="M2890 268 c0 -4 4 -8 9 -8 6 0 12 4 15 8 3 5 -1 9 -9 9 -8 0 -15 -4
-15 -9z"/>
<path d="M1062 247 c-23 -24 -32 -51 -10 -29 19 19 28 14 28 -14 0 -17 -6 -28
-20 -31 -11 -3 -17 -10 -14 -15 3 -5 17 0 29 12 20 19 22 27 14 48 -5 14 -8
31 -5 39 7 18 3 16 -22 -10z"/>
<path d="M1126 253 c-6 -14 -5 -15 5 -6 7 7 10 15 7 18 -3 3 -9 -2 -12 -12z"/>
<path d="M1212 245 c-12 -14 -18 -25 -13 -25 11 0 45 39 39 45 -2 3 -14 -6
-26 -20z"/>
<path d="M1833 251 c-8 -13 -9 -22 -3 -26 11 -7 24 18 18 35 -2 6 -9 1 -15 -9z"/>
<path d="M1723 252 c-13 -2 -23 -8 -23 -14 0 -6 9 -8 20 -5 10 3 21 0 23 -6 1
-5 9 -8 15 -6 22 7 -10 35 -35 31z"/>
<path d="M2605 241 c-2 -5 3 -15 12 -22 10 -8 14 -9 10 -2 -5 8 1 11 20 9 16
-2 30 -4 32 -5 2 0 -4 -11 -15 -23 -17 -20 -16 -20 9 1 30 27 26 34 -30 44
-18 4 -35 3 -38 -2z"/>
<path d="M857 203 c-16 -18 -34 -33 -40 -33 -6 0 2 14 19 31 28 31 27 30 -26
-7 -76 -52 -120 -91 -113 -98 4 -3 -6 -20 -22 -36 -16 -17 -25 -30 -21 -30 9
0 55 52 56 63 0 11 62 67 74 67 5 0 -1 -8 -12 -19 -12 -10 -19 -21 -15 -25 4
-3 19 6 35 21 15 14 31 23 35 19 5 -4 -6 -20 -24 -36 -17 -16 -29 -31 -26 -34
3 -3 -6 -21 -21 -40 -36 -48 -33 -58 4 -11 17 21 30 43 30 49 0 6 10 17 21 25
17 10 23 10 29 0 6 -9 15 -5 35 15 34 34 24 48 -10 16 -21 -20 -25 -21 -25 -6
0 20 29 66 41 66 5 0 9 -8 9 -17 0 -13 6 -11 30 12 16 16 28 31 25 33 -2 2
-11 -3 -20 -12 -21 -21 -33 -20 -37 2 -2 15 -8 12 -31 -15z"/>
<path d="M1935 230 c-10 -16 14 -40 40 -40 30 0 49 22 33 38 -15 15 -65 16
-73 2z"/>
<path d="M2551 214 c-14 -13 -23 -26 -20 -29 3 -3 16 6 29 20 30 32 23 40 -9
9z"/>
<path d="M1129 213 c-13 -16 -12 -17 4 -4 16 13 21 21 13 21 -2 0 -10 -8 -17
-17z"/>
<path d="M1216 211 c-11 -12 -14 -21 -7 -26 6 -3 11 -11 11 -16 0 -6 -4 -8 -9
-5 -4 3 -21 -6 -37 -19 -16 -14 -24 -25 -18 -25 6 0 19 9 29 20 17 19 41 18
30 -1 -4 -5 -2 -9 3 -9 9 0 26 89 19 97 -2 2 -12 -5 -21 -16z"/>
<path d="M1615 205 c-30 -10 -34 -13 -15 -13 35 0 77 13 65 20 -6 3 -28 0 -50
-7z"/>
<path d="M2086 206 c3 -8 14 -16 24 -19 14 -3 18 0 17 14 -1 13 -9 19 -24 19
-15 0 -21 -5 -17 -14z"/>
<path d="M2296 204 c-5 -14 -4 -15 9 -4 17 14 19 20 6 20 -5 0 -12 -7 -15 -16z"/>
<path d="M2419 203 c-13 -16 -12 -17 4 -4 16 13 21 21 13 21 -2 0 -10 -8 -17
-17z"/>
<path d="M1510 199 c-19 -4 -38 -5 -42 -3 -15 9 -8 -16 9 -36 21 -24 41 -27
22 -3 -13 14 -11 16 11 12 15 -3 31 2 42 12 21 22 6 28 -42 18z"/>
<path d="M2564 178 c-19 -23 -19 -23 1 -7 11 9 26 14 34 11 8 -3 11 0 7 7 -10
16 -21 14 -42 -11z"/>
<path d="M1012 167 c-12 -13 -22 -31 -22 -39 0 -9 -12 -26 -27 -37 -14 -12
-23 -25 -19 -29 4 -4 17 4 28 17 16 20 21 22 28 11 7 -12 12 -11 29 4 12 11
21 26 21 35 0 11 -4 9 -16 -7 -8 -12 -19 -22 -25 -22 -18 0 -9 35 16 63 14 15
22 27 17 27 -5 0 -18 -10 -30 -23z"/>
<path d="M1097 162 c-15 -15 -27 -35 -27 -43 0 -9 -9 -24 -20 -34 -11 -10 -20
-23 -20 -28 0 -6 -10 -21 -22 -34 -12 -13 -16 -23 -10 -23 11 0 82 103 82 119
0 5 7 14 16 21 15 13 38 50 31 50 -2 0 -15 -13 -30 -28z"/>
<path d="M1170 179 c0 -5 5 -7 10 -4 6 3 10 8 10 11 0 2 -4 4 -10 4 -5 0 -10
-5 -10 -11z"/>
<path d="M2439 173 c-13 -16 -12 -17 4 -4 16 13 21 21 13 21 -2 0 -10 -8 -17
-17z"/>
<path d="M2084 162 c4 -7 13 -12 21 -12 7 0 16 -6 18 -12 3 -8 6 -6 6 5 1 9
-3 17 -8 17 -5 0 -17 3 -27 7 -12 4 -15 3 -10 -5z"/>
<path d="M2780 160 c0 -5 5 -10 11 -10 5 0 7 5 4 10 -3 6 -8 10 -11 10 -2 0
-4 -4 -4 -10z"/>
<path d="M2978 163 c7 -3 16 -2 19 1 4 3 -2 6 -13 5 -11 0 -14 -3 -6 -6z"/>
<path d="M385 150 c-3 -5 -15 -10 -25 -10 -10 0 -21 -4 -25 -9 -3 -6 7 -6 27
0 48 13 47 14 73 -43 14 -29 25 -44 25 -34 0 23 -47 106 -60 106 -5 0 -12 -4
-15 -10z"/>
<path d="M1135 150 c-3 -6 1 -7 9 -4 18 7 21 14 7 14 -6 0 -13 -4 -16 -10z"/>
<path d="M2614 138 l-19 -23 23 19 c12 11 22 21 22 23 0 8 -8 2 -26 -19z"/>
<path d="M565 130 c-10 -11 -16 -22 -14 -24 2 -2 12 7 22 20 22 29 17 32 -8 4z"/>
<path d="M942 121 c-13 -12 -21 -26 -17 -29 7 -8 48 33 44 44 -2 5 -14 -2 -27
-15z"/>
<path d="M1525 140 c3 -6 -4 -10 -17 -10 -21 -1 -21 -2 -5 -11 13 -8 22 -7 32
1 15 13 11 30 -6 30 -6 0 -7 -4 -4 -10z"/>
<path d="M2236 134 c-5 -14 -4 -15 9 -4 17 14 19 20 6 20 -5 0 -12 -7 -15 -16z"/>
<path d="M2970 140 c0 -5 7 -10 15 -10 8 0 15 5 15 10 0 6 -7 10 -15 10 -8 0
-15 -4 -15 -10z"/>
<path d="M2070 120 c0 -5 7 -10 15 -10 8 0 15 5 15 10 0 6 -7 10 -15 10 -8 0
-15 -4 -15 -10z"/>
<path d="M2466 118 c3 -5 10 -6 15 -3 13 9 11 12 -6 12 -8 0 -12 -4 -9 -9z"/>
<path d="M308 63 c15 -34 30 -62 34 -63 11 0 -15 64 -39 96 -21 26 -20 23 5
-33z"/>
<path d="M635 106 c-16 -8 -40 -24 -51 -37 -23 -26 -37 -69 -23 -69 5 0 9 9 9
19 0 22 63 81 87 81 13 0 12 -5 -7 -27 l-24 -28 29 27 c36 34 24 53 -20 34z"/>
<path d="M1120 110 c0 -5 -7 -10 -15 -10 -8 0 -15 -7 -15 -15 0 -8 6 -12 13
-9 17 6 40 44 27 44 -5 0 -10 -4 -10 -10z"/>
<path d="M1200 107 c0 -8 -10 -22 -22 -30 -13 -9 -18 -16 -12 -16 17 -1 57 46
45 54 -6 3 -11 0 -11 -8z"/>
<path d="M2955 110 c-3 -4 2 -11 11 -14 22 -8 34 -7 34 3 0 12 -39 21 -45 11z"/>
<path d="M87 96 c-4 -9 -17 -18 -29 -21 -13 -3 -31 -19 -40 -35 -16 -29 -16
-30 2 -30 10 0 26 -3 36 -7 13 -5 11 0 -6 17 l-24 24 32 13 c31 13 51 38 39
49 -2 3 -7 -2 -10 -10z"/>
<path d="M367 95 c-8 -8 -18 -11 -22 -7 -4 4 -6 1 -4 -6 5 -15 8 -15 43 -6 16
4 23 11 19 20 -7 18 -18 18 -36 -1z"/>
<path d="M745 101 c4 -7 -2 -22 -16 -37 -12 -13 -18 -24 -12 -24 13 0 43 33
43 48 0 6 -5 14 -12 18 -7 5 -8 3 -3 -5z"/>
<path d="M1980 99 c0 -4 9 -9 20 -12 28 -7 25 -24 -7 -41 l-28 -15 38 -1 c26
0 37 -4 37 -15 0 -8 5 -15 10 -15 6 0 10 6 10 13 0 21 58 20 63 -1 2 -9 3 2 3
25 l-1 41 -40 -1 c-30 -1 -40 3 -39 14 1 11 -9 15 -32 15 -19 0 -34 -3 -34 -7z"/>
<path d="M2375 99 c-4 -6 -5 -12 -2 -15 2 -3 7 2 10 11 7 17 1 20 -8 4z"/>
<path d="M2438 99 c13 -17 4 -31 -28 -41 -9 -3 -10 -7 -3 -11 5 -3 20 4 32 17
21 22 21 24 4 37 -16 12 -17 12 -5 -2z"/>
<path d="M260 93 c0 -7 5 -13 10 -13 6 0 10 -6 9 -12 -3 -27 2 -38 16 -38 8 0
15 4 15 9 0 15 -49 68 -50 54z"/>
<path d="M822 89 c4 -10 -2 -26 -13 -38 -11 -12 -16 -21 -11 -21 5 0 18 11 31
23 20 23 21 25 4 38 -15 12 -16 12 -11 -2z"/>
<path d="M1132 77 c-12 -13 -22 -28 -22 -34 0 -7 -7 -19 -16 -27 -8 -9 -11
-16 -6 -16 5 0 23 22 40 50 35 56 35 61 4 27z"/>
<path d="M1210 67 c-14 -17 -25 -34 -25 -37 0 -3 -4 -11 -8 -17 -5 -8 -4 -13
3 -13 6 0 15 11 20 25 5 13 18 33 29 44 11 11 17 22 13 24 -4 3 -18 -9 -32
-26z"/>
<path d="M2900 85 c7 -9 19 -14 27 -11 7 3 13 1 13 -4 0 -6 14 -10 30 -10 17
0 30 4 30 10 0 5 -6 7 -14 4 -8 -3 -28 2 -45 10 -40 21 -58 21 -41 1z"/>
<path d="M549 69 c-23 -19 -23 -20 -2 -10 12 6 25 16 28 21 10 16 -1 12 -26
-11z"/>
<path d="M117 54 c-29 -25 -21 -32 14 -13 20 10 20 10 4 -15 -16 -24 -16 -26
0 -26 11 0 15 5 11 15 -7 19 4 19 18 0 8 -10 15 -12 26 -5 13 8 12 10 -3 10
-10 0 -23 12 -30 29 l-12 29 -28 -24z"/>
<path d="M230 70 c0 -9 5 -21 12 -28 6 -6 9 -15 5 -18 -9 -9 -38 16 -32 26 3
5 1 11 -4 14 -16 11 -22 -12 -9 -34 9 -13 23 -20 45 -20 34 0 43 13 20 27 -8
4 -19 17 -25 28 -8 15 -11 16 -12 5z"/>
<path d="M897 48 c-10 -11 -17 -22 -15 -24 3 -2 15 7 28 21 13 14 19 25 14 24
-5 0 -17 -10 -27 -21z"/>
<path d="M1333 63 c9 -2 23 -2 30 0 6 3 -1 5 -18 5 -16 0 -22 -2 -12 -5z"/>
<path d="M975 33 l-18 -28 27 24 c28 26 31 31 17 31 -5 0 -17 -12 -26 -27z"/>
<path d="M1066 43 c-3 -10 -9 -25 -12 -33 -4 -8 4 -5 17 7 17 16 20 26 12 34
-7 7 -12 5 -17 -8z"/>
<path d="M1744 45 c-10 -8 -28 -15 -39 -16 -15 -1 -16 -2 -4 -6 9 -2 32 5 50
16 19 12 29 21 23 21 -5 0 -19 -7 -30 -15z"/>
<path d="M2285 50 c3 -5 8 -10 11 -10 2 0 4 5 4 10 0 6 -5 10 -11 10 -5 0 -7
-4 -4 -10z"/>
<path d="M2646 51 c-12 -5 -15 -10 -9 -14 6 -4 16 0 23 8 14 17 13 17 -14 6z"/>
<path d="M2770 49 c0 -5 5 -7 10 -4 6 3 10 8 10 11 0 2 -4 4 -10 4 -5 0 -10
-5 -10 -11z"/>
<path d="M1548 43 c7 -3 16 -2 19 1 4 3 -2 6 -13 5 -11 0 -14 -3 -6 -6z"/>
<path d="M2319 33 c-13 -16 -12 -17 4 -4 16 13 21 21 13 21 -2 0 -10 -8 -17
-17z"/>
<path d="M2794 28 l-19 -23 23 19 c12 11 22 21 22 23 0 8 -8 2 -26 -19z"/>
<path d="M72 20 c13 -21 38 -27 38 -10 0 6 -7 10 -15 10 -8 0 -15 5 -15 10 0
6 -5 10 -10 10 -6 0 -5 -8 2 -20z"/>
<path d="M463 21 c-11 -17 -10 -20 7 -18 12 1 20 9 20 19 0 24 -12 23 -27 -1z"/>
<path d="M530 29 c0 -5 5 -7 10 -4 6 3 10 8 10 11 0 2 -4 4 -10 4 -5 0 -10 -5
-10 -11z"/>
<path d="M826 24 c-11 -8 -16 -14 -10 -14 13 0 39 18 34 24 -3 2 -14 -2 -24
-10z"/>
<path d="M1145 20 c-16 -17 -16 -20 -3 -15 9 4 19 13 22 21 7 19 2 18 -19 -6z"/>
<path d="M615 20 c-3 -5 -1 -10 4 -10 6 0 11 5 11 10 0 6 -2 10 -4 10 -3 0 -8
-4 -11 -10z"/>
<path d="M905 10 c-3 -5 -2 -10 4 -10 5 0 13 5 16 10 3 6 2 10 -4 10 -5 0 -13
-4 -16 -10z"/>
<path d="M2650 16 c0 -2 7 -6 15 -10 8 -3 15 -1 15 4 0 6 -7 10 -15 10 -8 0
-15 -2 -15 -4z"/>
</g>
</svg>
