<?xml version="1.0" standalone="no"?>
<!DOCTYPE svg PUBLIC "-//W3C//DTD SVG 20010904//EN"
 "http://www.w3.org/TR/2001/REC-SVG-20010904/DTD/svg10.dtd">
<svg version="1.0" xmlns="http://www.w3.org/2000/svg"
 width="300.000000pt" height="200.000000pt" viewBox="0 0 300.000000 200.000000"
 preserveAspectRatio="xMidYMid meet">
<metadata>
Created by potrace 1.10, written by Peter Selinger 2001-2011
</metadata>
<g transform="translate(0.000000,200.000000) scale(0.100000,-0.100000)"
fill="#000000" stroke="none">
<path d="M58 1993 c-44 -3 -58 -8 -58 -19 0 -13 10 -15 50 -12 49 3 50 2 50
-25 0 -20 -4 -26 -12 -21 -7 4 1 -7 18 -23 l31 -29 -41 -13 c-23 -7 -42 -9
-44 -3 -3 11 -52 3 -52 -9 0 -5 11 -9 25 -9 14 0 28 -7 32 -16 7 -20 -22 -83
-42 -90 -24 -9 -18 -26 7 -19 17 6 20 4 15 -10 -4 -9 -7 -19 -7 -21 0 -2 -7
-4 -15 -4 -8 0 -15 -4 -15 -10 0 -5 15 -10 32 -10 18 0 40 -1 48 -1 8 0 37 3
64 7 44 6 49 5 43 -10 -5 -12 -3 -15 6 -9 6 4 18 8 26 10 36 5 71 27 71 44 0
11 4 19 8 19 12 0 9 43 -3 52 -5 4 -2 15 9 27 13 14 16 28 11 49 -4 20 -1 33
11 43 50 41 28 89 -42 89 -34 0 -42 3 -38 15 4 9 0 15 -10 15 -14 0 -21 -24
-14 -47 2 -5 26 -6 55 -5 55 4 60 -1 44 -42 -6 -16 -20 -20 -87 -23 -105 -6
-122 6 -107 71 7 33 7 45 -1 44 -6 -1 -37 -3 -68 -5z m158 -147 c9 -10 26 -13
49 -9 31 5 35 3 35 -16 0 -17 -6 -21 -29 -21 -16 0 -31 -6 -35 -15 -4 -10 1
-15 15 -15 42 0 36 -74 -7 -90 -30 -12 -76 -3 -71 14 2 6 18 12 35 14 40 4 44
32 6 32 -19 0 -25 4 -21 14 3 8 9 31 13 50 6 32 4 36 -15 36 -12 0 -19 5 -16
10 9 14 24 12 41 -4z m-41 -26 c3 -5 0 -21 -6 -37 -7 -15 -11 -38 -10 -50 3
-33 -34 -65 -72 -61 -42 4 -44 32 -2 33 21 0 31 6 33 19 3 15 0 18 -17 13 -16
-4 -21 -1 -21 14 0 14 7 19 25 19 23 0 26 4 25 28 -1 4 -10 6 -20 4 -13 -2
-20 2 -20 12 0 23 72 28 85 6z"/>
<path d="M780 1982 c0 -11 -9 -27 -20 -37 -24 -21 -25 -38 -5 -58 12 -13 8
-14 -31 -13 -25 1 -48 -2 -50 -5 -2 -4 -13 -5 -24 -2 -25 7 -47 -11 -45 -34 6
-69 31 -133 51 -133 14 0 -39 -84 -82 -129 -26 -28 -28 -28 -163 -31 -401 -6
-428 -8 -410 -24 2 -2 128 0 279 4 151 4 277 6 279 4 11 -10 -24 -13 -282 -19
-152 -4 -277 -12 -277 -16 0 -13 -23 -13 311 -5 l216 6 -2 -35 c-1 -19 -10
-46 -19 -59 -19 -30 -21 -40 -4 -30 8 5 9 2 5 -9 -7 -19 8 -33 18 -17 4 6 12
7 19 3 7 -4 5 -2 -4 6 -14 13 -14 22 -3 79 8 35 21 75 30 90 69 112 106 162
118 162 18 0 18 -5 4 -31 -5 -11 -15 -16 -21 -13 -7 4 -8 3 -4 -5 4 -6 0 -14
-8 -17 -9 -3 -13 -11 -9 -17 3 -5 -2 -16 -12 -24 -16 -11 -16 -13 -3 -13 9 0
24 12 34 28 10 15 24 33 31 40 7 7 13 23 13 36 0 25 17 46 37 46 7 0 13 -6 13
-12 0 -15 -56 -99 -72 -109 -7 -5 -7 -8 0 -13 11 -6 94 105 91 121 -1 4 -1 13
0 18 1 6 3 39 4 75 l2 65 30 0 30 0 0 -65 c0 -60 -2 -65 -23 -68 -12 -2 -20
-7 -17 -12 3 -5 1 -11 -5 -15 -5 -3 -10 -12 -10 -20 0 -7 -18 -41 -41 -75 -28
-42 -45 -60 -55 -56 -9 4 -12 2 -8 -5 4 -6 0 -15 -7 -20 -12 -7 -11 -9 1 -9
11 -1 10 -4 -4 -15 -11 -8 -15 -15 -9 -15 6 0 16 7 23 15 7 8 10 15 6 15 -3 0
3 9 14 20 11 11 23 19 26 18 3 -2 13 11 21 27 29 57 75 125 85 125 11 0 2 -51
-10 -60 -13 -9 -62 -115 -62 -133 0 -10 -10 -22 -22 -27 -18 -7 -19 -9 -5 -9
16 -1 16 -3 2 -32 -9 -17 -14 -33 -11 -37 3 -3 6 0 6 6 0 7 6 12 14 12 7 0 25
9 39 21 30 23 78 30 84 12 3 -7 -6 -17 -19 -22 -13 -5 -42 -25 -66 -44 -51
-43 -100 -60 -153 -54 -27 3 -38 1 -36 -7 3 -6 10 -10 16 -8 6 1 11 -2 11 -8
0 -14 -12 -12 -38 6 -13 9 -26 13 -29 10 -3 -3 -12 -1 -18 4 -9 8 -14 6 -19
-5 -5 -13 5 -20 27 -16 4 0 7 -6 7 -15 0 -11 6 -14 23 -9 20 6 19 4 -7 -20
-20 -19 -35 -25 -50 -20 -12 3 -36 7 -54 9 -47 6 -49 12 -13 45 40 38 39 48
-4 43 -19 -2 -35 -9 -35 -14 0 -6 -7 -7 -16 -4 -9 3 -27 -3 -40 -13 -22 -17
-23 -21 -8 -29 15 -8 15 -9 0 -15 -10 -4 -15 -3 -11 3 3 6 -1 10 -10 10 -9 0
-13 -4 -10 -10 3 -5 0 -10 -7 -11 -7 0 -3 -4 10 -9 27 -12 29 -36 2 -43 -11
-3 -20 -11 -20 -17 0 -9 4 -9 17 1 15 12 16 12 10 -4 -4 -10 -7 -20 -7 -23 0
-2 -7 0 -17 3 -11 4 -14 3 -9 -5 4 -7 13 -12 20 -12 8 0 16 -8 20 -17 3 -10 9
-24 12 -32 4 -9 2 -12 -7 -9 -8 3 -14 9 -14 14 0 17 -16 34 -26 29 -5 -4 -9 0
-10 7 -1 7 -4 2 -8 -12 -5 -14 -4 -29 1 -35 11 -12 10 -25 -2 -25 -14 0 -34
41 -23 49 14 9 43 88 36 95 -6 6 12 10 30 7 4 0 7 4 7 9 0 6 -3 10 -7 10 -21
-1 -39 -23 -55 -67 -13 -38 -17 -42 -17 -22 -1 15 6 43 15 64 20 48 26 96 13
111 -12 14 -114 17 -138 4 -10 -5 -21 -6 -25 -2 -8 8 -83 12 -108 5 -15 -4
-18 -16 -18 -84 0 -64 3 -79 15 -79 10 0 15 -10 15 -31 0 -17 4 -28 10 -24 6
3 10 17 10 31 0 17 5 24 20 24 18 0 20 -7 20 -55 0 -38 -4 -55 -13 -55 -8 0
-12 14 -10 43 l2 42 -11 -42 c-6 -24 -14 -43 -18 -43 -4 0 -12 19 -18 43 l-11
42 2 -42 c2 -24 -1 -43 -5 -43 -5 0 -8 -5 -8 -11 0 -8 32 -10 110 -5 61 3 110
4 110 1 0 -2 -10 -15 -23 -29 -17 -18 -29 -23 -50 -19 -32 6 -57 -11 -58 -41
-1 -19 -2 -19 -8 3 -8 28 -54 46 -70 28 -5 -7 -9 -42 -10 -78 l-1 -65 30 4
c18 3 30 0 30 -7 0 -6 -9 -11 -21 -11 -12 0 -19 -5 -16 -12 2 -7 9 -13 14 -13
6 0 15 -3 19 -7 4 -5 -2 -8 -14 -8 -13 0 -22 -6 -22 -15 0 -8 9 -15 20 -15 11
0 20 -4 20 -10 0 -5 -13 -10 -30 -10 -17 0 -30 -4 -30 -9 0 -7 78 -8 143 -2 4
1 7 11 8 24 0 21 1 21 8 2 8 -20 8 -20 13 0 5 16 6 17 7 3 1 -22 -4 -20 103
-23 47 -2 91 -6 97 -9 6 -4 11 -2 11 3 0 6 10 10 22 8 13 -1 26 6 32 18 8 15
21 20 49 20 20 0 37 -3 37 -6 0 -3 37 -9 82 -12 60 -5 84 -3 90 6 12 19 9 27
-11 27 -20 0 -37 17 -28 26 9 10 57 11 51 3 -3 -5 -1 -9 5 -9 19 0 24 23 8 35
-10 7 -17 18 -17 26 1 10 4 9 11 -3 13 -23 44 -24 35 -2 -3 8 -2 13 3 9 14 -8
41 5 41 20 0 7 5 15 11 17 5 2 7 11 4 21 -9 22 -75 24 -75 2 0 -8 9 -19 21
-26 19 -10 20 -8 14 10 -5 15 -2 21 9 21 19 0 20 -13 4 -40 -11 -18 -14 -18
-30 -3 -12 11 -18 12 -18 4 0 -7 -4 -9 -10 -6 -14 8 -12 37 3 57 10 13 21 15
48 9 39 -9 67 7 46 28 -16 16 0 26 18 11 14 -12 14 -15 -5 -35 -49 -52 7 -25
73 36 19 17 79 49 138 72 l35 14 -4 -28 c-2 -16 -8 -32 -13 -35 -5 -3 -9 -10
-9 -16 0 -7 6 -6 15 2 12 10 15 10 15 -3 0 -10 -7 -15 -19 -12 -13 2 -29 -8
-48 -33 -40 -53 -56 -73 -75 -94 -10 -10 -18 -22 -18 -27 0 -5 -7 -14 -15 -21
-9 -7 -14 -19 -11 -26 3 -8 -1 -29 -9 -48 -8 -20 -15 -51 -15 -71 0 -19 -3
-35 -7 -35 -5 0 -8 -14 -9 -30 -1 -17 3 -30 7 -30 12 0 11 -41 0 -59 -7 -11
-10 -9 -16 8 -3 11 -3 25 0 31 4 6 1 9 -7 8 -7 -2 -27 -30 -45 -63 -31 -58
-44 -96 -22 -65 8 11 9 4 6 -27 -5 -42 -4 -43 24 -43 16 0 29 5 29 11 0 5 5 7
10 4 6 -4 9 -14 8 -23 -2 -10 3 -16 11 -14 7 1 19 -2 25 -8 7 -5 16 -7 20 -3
11 11 69 11 84 0 7 -5 12 -5 12 0 0 5 39 9 88 10 48 1 104 5 125 8 27 5 37 3
37 -7 0 -10 3 -9 10 2 9 13 11 13 20 0 5 -8 10 -10 10 -3 0 6 14 11 34 10 19
0 41 6 50 16 20 19 30 21 55 7 12 -6 29 -5 50 3 30 11 42 27 21 27 -5 0 -12 0
-15 0 -3 0 -4 -3 -2 -6 5 -13 -34 -25 -50 -15 -16 9 -16 10 3 11 17 0 20 5 17
24 -3 13 0 27 6 30 7 5 11 -2 11 -16 0 -17 2 -20 9 -9 5 8 7 30 4 49 -5 27 -3
33 7 27 10 -6 12 -3 8 13 -4 15 -2 19 9 15 7 -3 11 -8 8 -11 -3 -3 2 -14 12
-24 9 -11 11 -18 5 -18 -7 0 -12 5 -12 11 0 5 -5 7 -10 4 -6 -4 -8 -11 -5 -16
4 -5 3 -9 -2 -9 -4 0 -9 -11 -9 -24 -1 -16 5 -26 18 -29 11 -3 17 -10 14 -15
-3 -6 1 -12 9 -16 8 -3 17 -1 20 5 4 5 11 6 17 3 6 -4 5 -10 -3 -15 -10 -6 -7
-9 10 -9 19 0 21 3 12 14 -8 9 -8 16 -2 20 5 4 12 2 15 -3 3 -4 26 -9 51 -9
42 -1 45 0 46 26 0 15 4 36 8 47 12 31 1 55 -25 55 -18 0 -24 -6 -24 -22 0
-12 -3 -18 -7 -14 -28 27 23 76 78 76 32 0 39 3 39 20 0 25 24 26 49 1 10 -10
28 -22 40 -26 12 -3 21 -11 21 -17 0 -7 -5 -6 -14 1 -8 7 -25 9 -41 5 -17 -4
-30 -2 -35 6 -6 9 -13 9 -28 1 -11 -6 -38 -11 -59 -12 -36 -1 -37 -1 -10 -9
15 -5 36 -19 47 -32 16 -18 19 -20 20 -6 0 9 -6 18 -12 21 -7 2 6 7 28 11 29
5 53 3 79 -8 21 -9 39 -16 40 -16 2 0 1 12 -2 28 -10 60 -5 116 14 130 17 13
16 13 -7 10 -20 -2 -26 -10 -31 -40 -3 -20 -2 -35 3 -32 4 3 8 0 8 -6 0 -7 -7
-9 -16 -6 -9 3 -18 6 -20 6 -3 0 -3 4 0 9 4 5 -7 12 -24 16 -16 4 -30 11 -30
16 0 6 4 8 9 5 5 -4 20 -1 33 4 22 10 22 10 -4 5 -16 -3 -28 -1 -28 5 0 5 6
10 14 10 8 0 18 4 21 10 4 6 -1 7 -11 3 -13 -5 -15 -2 -10 15 4 11 2 23 -4 27
-5 3 -10 13 -10 22 0 11 5 9 20 -8 l21 -24 -15 31 c-8 17 -12 35 -8 39 4 5 1
5 -5 1 -12 -7 -18 12 -14 37 1 5 -9 5 -21 2 -27 -8 -48 -25 -31 -25 6 0 11
-11 11 -25 0 -19 -6 -25 -21 -25 -16 0 -18 3 -9 12 17 17 15 35 -4 42 -12 4
-15 2 -10 -9 8 -22 -4 -45 -28 -55 -22 -8 -35 -55 -13 -47 7 2 11 11 9 19 -1
9 4 18 13 22 8 3 15 1 15 -4 0 -6 -5 -10 -11 -10 -8 0 -8 -5 1 -15 10 -12 9
-15 -6 -16 -11 0 -14 -3 -6 -6 6 -2 12 -9 12 -14 0 -6 -4 -7 -10 -4 -6 3 -10
-4 -10 -16 0 -22 0 -22 15 -3 8 10 15 24 15 30 0 7 7 14 15 18 20 7 19 -4 -5
-34 -11 -14 -20 -33 -20 -42 0 -22 -12 -29 -30 -17 -12 7 -12 9 3 9 10 0 16 4
13 9 -5 8 -20 8 -44 2 -1 -1 2 -10 8 -22 8 -14 8 -24 1 -33 -6 -7 -7 -17 -3
-21 4 -5 2 -5 -4 -2 -6 4 -20 -1 -30 -9 -17 -14 -17 -15 -1 -10 10 3 17 0 17
-8 0 -9 -7 -12 -20 -9 -11 3 -20 13 -20 22 0 10 -3 21 -6 24 -9 9 -44 -11 -44
-25 0 -9 3 -9 12 0 17 17 28 15 28 -5 0 -14 -2 -15 -9 -4 -6 9 -11 10 -15 2
-4 -6 4 -13 19 -17 16 -4 23 -10 17 -16 -26 -26 -72 35 -53 71 10 18 15 19 32
10 12 -6 23 -8 27 -5 3 3 0 6 -6 6 -7 0 -12 7 -12 15 0 8 5 15 10 15 10 0 14
-21 11 -48 -2 -11 2 -11 20 -1 20 10 20 12 6 21 -22 12 -22 25 1 31 13 4 11 5
-5 6 -15 1 -23 7 -22 19 0 10 3 12 6 4 2 -6 9 -9 14 -6 6 3 5 11 -2 20 -10 12
-9 13 5 8 10 -4 15 -13 12 -23 -4 -11 -2 -10 9 3 11 15 15 16 16 5 1 -8 4 -3
8 11 9 29 4 41 -9 20 -8 -13 -11 -13 -22 -1 -8 9 -9 11 -1 7 6 -3 14 -2 18 4
3 5 2 10 -3 10 -5 0 -7 11 -4 25 2 14 9 25 14 25 6 0 8 9 5 20 -3 13 0 20 10
20 8 0 11 -4 8 -10 -3 -5 -1 -10 4 -10 11 0 15 15 11 35 -8 38 -7 45 3 51 7 4
9 4 5 -1 -4 -4 -3 -14 3 -22 10 -11 16 -11 35 2 13 9 24 12 24 9 0 -4 9 3 19
15 11 13 25 20 30 16 16 -9 13 -25 -3 -25 -17 0 -15 -32 2 -38 11 -3 17 22 14
61 -1 9 3 17 9 17 6 0 3 7 -5 16 -9 8 -16 20 -16 25 0 5 -11 9 -25 9 -14 0
-24 -3 -22 -7 1 -5 -2 -9 -8 -11 -5 -2 -11 1 -13 7 -2 6 11 14 28 17 27 6 29
9 18 21 -19 18 -40 9 -62 -27 -9 -17 -24 -30 -32 -30 -9 0 -14 -6 -11 -12 2
-7 11 -12 21 -10 9 2 16 -2 16 -8 0 -5 -9 -10 -21 -10 -11 0 -27 -6 -35 -14
-15 -16 -19 -30 -5 -22 5 3 11 -3 14 -15 4 -16 3 -18 -9 -8 -10 8 -14 8 -14 1
0 -6 -7 -9 -16 -5 -14 5 -15 3 -5 -16 7 -12 8 -27 4 -34 -4 -6 -8 -16 -8 -22
-2 -24 -53 -101 -56 -84 0 2 -2 12 -4 22 -2 9 3 17 11 17 8 0 14 5 14 10 0 7
-6 7 -19 0 -13 -7 -22 -7 -26 0 -3 6 4 10 17 10 14 0 18 3 11 8 -6 4 -10 19
-9 34 2 19 -1 25 -10 21 -10 -4 -13 3 -12 21 1 14 9 28 16 31 12 4 12 9 -1 28
-10 15 -12 29 -6 38 5 8 9 10 9 4 0 -5 5 -2 11 9 9 14 8 20 -2 27 -7 4 -16 6
-18 3 -3 -3 1 -9 9 -14 8 -6 11 -10 5 -10 -20 0 -34 16 -26 29 7 10 13 11 30
2 14 -8 21 -8 21 -1 0 5 5 10 10 10 7 0 7 -6 0 -20 -7 -14 -7 -20 0 -20 5 0
10 5 10 10 0 6 4 10 10 10 5 0 0 -16 -11 -35 -22 -37 -37 -49 -19 -15 12 23 5
26 -16 6 -12 -13 -12 -17 3 -32 16 -16 18 -15 27 5 5 11 13 21 18 21 5 0 7 -4
4 -9 -3 -5 0 -11 8 -14 23 -9 27 5 7 22 -17 15 -17 19 -5 36 13 17 16 18 25 5
8 -11 12 -12 16 -2 2 6 11 12 19 12 8 0 14 5 14 10 0 13 -17 13 -25 0 -8 -13
-25 -13 -25 0 0 6 7 10 15 10 8 0 15 5 15 11 0 6 -7 8 -16 5 -9 -3 -20 -6 -25
-6 -6 0 -7 -5 -4 -10 3 -6 -1 -10 -10 -10 -9 0 -14 4 -11 9 3 5 -3 11 -14 14
-11 3 -20 1 -20 -4 0 -5 -4 -9 -10 -9 -13 0 -13 11 0 30 8 13 11 13 19 1 5 -7
15 -11 22 -9 8 3 1 12 -19 23 -18 11 -32 22 -32 26 0 9 31 21 38 14 3 -3 0 -5
-6 -5 -7 0 -12 -5 -12 -11 0 -7 11 -8 29 -4 16 3 32 2 35 -4 4 -6 13 -8 21 -5
7 3 25 -2 38 -11 17 -11 27 -13 32 -5 3 6 3 10 -2 9 -22 -4 -93 35 -93 52 0
35 -78 76 -95 49 -3 -5 3 -10 14 -10 23 0 79 -45 69 -55 -4 -4 -28 7 -53 24
-26 17 -51 29 -56 25 -10 -6 -76 52 -68 60 2 2 14 7 27 10 19 6 22 4 22 -18 0
-14 5 -28 11 -31 7 -5 9 4 7 25 -4 43 -30 60 -56 37 -14 -13 -21 -14 -30 -5
-9 9 -10 -1 -6 -39 5 -39 0 -69 -22 -139 -16 -49 -35 -95 -41 -102 -16 -17
-17 -25 -2 -16 9 5 10 -1 5 -22 -16 -61 -27 -149 -22 -170 4 -14 12 -21 23
-20 10 2 12 1 5 -1 -11 -4 -11 -8 1 -21 8 -10 17 -28 21 -42 5 -23 5 -23 -7 3
-7 15 -16 24 -20 21 -4 -4 -3 -12 2 -18 16 -21 22 -64 8 -69 -6 -2 -9 -8 -5
-12 11 -11 59 -15 52 -4 -3 5 -9 7 -14 4 -5 -3 -11 -1 -14 4 -4 5 5 8 19 7 13
-2 22 1 19 6 -3 5 -12 7 -20 4 -8 -3 -14 1 -14 9 0 8 6 15 14 15 21 0 38 -27
31 -50 -6 -18 -15 -22 -62 -24 -10 -1 -20 -6 -23 -13 -3 -8 -20 -3 -52 17
l-48 30 0 -44 c0 -58 -8 -76 -32 -76 -14 0 -27 17 -48 62 -16 35 -33 78 -36
97 -7 33 -7 33 17 18 13 -8 38 -18 54 -21 17 -4 41 -15 55 -24 36 -24 42 -22
67 18 25 39 28 50 13 50 -5 0 -10 -6 -10 -13 0 -15 -31 -47 -45 -47 -5 0 1 10
13 23 12 13 19 27 15 30 -4 4 -17 -5 -30 -20 -12 -16 -22 -23 -23 -16 0 6 -20
15 -45 18 -24 4 -52 13 -62 21 -17 12 -16 13 7 15 25 1 24 1 -3 9 -16 5 -36 6
-45 3 -10 -3 -3 6 13 21 25 24 27 27 8 21 -12 -3 -24 -1 -28 5 -7 12 19 75 35
85 5 3 6 13 3 22 -4 11 -2 14 8 11 8 -2 15 -15 17 -27 3 -21 4 -22 17 -5 11
16 15 16 29 5 9 -8 15 -19 14 -25 -5 -19 44 -88 54 -78 7 7 3 20 -10 39 -11
15 -32 50 -47 76 -14 27 -33 51 -41 54 -30 11 -14 33 26 34 60 2 61 2 73 26 9
16 16 20 27 13 8 -5 20 -10 25 -9 6 0 -2 7 -17 15 -16 8 -28 21 -28 30 0 8 -6
17 -14 20 -8 3 -17 12 -20 19 -3 9 0 12 10 8 20 -7 107 53 129 89 14 24 14 34
5 63 -10 29 -9 38 4 51 18 17 23 89 6 79 -6 -4 -9 -12 -8 -18 2 -7 -2 -12 -7
-12 -6 0 -9 6 -9 12 1 7 -2 11 -6 8 -4 -2 -6 -28 -3 -57 3 -42 0 -56 -14 -65
-9 -7 -12 -13 -7 -13 6 0 15 5 22 12 18 18 14 -3 -6 -37 -25 -40 -83 -98 -91
-90 -3 4 2 12 12 19 9 7 17 18 17 24 0 6 6 15 13 19 12 8 19 53 8 53 -3 0 -16
-20 -29 -44 -13 -24 -34 -49 -48 -56 -27 -15 -29 -22 -12 -53 14 -25 18 -67 6
-67 -4 0 -8 11 -8 25 0 14 -4 25 -10 25 -15 0 -25 51 -11 59 7 4 9 15 5 25 -6
16 -16 17 -87 12 -69 -5 -78 -4 -73 10 3 9 6 25 6 37 1 20 2 19 16 -6 8 -15
19 -25 23 -23 11 7 -10 86 -24 86 -5 0 -11 20 -13 43 -3 43 -2 44 28 39 21 -3
30 -9 26 -18 -3 -8 -1 -14 4 -14 5 0 12 9 15 20 3 11 10 20 15 20 15 0 39 58
26 64 -6 2 0 5 13 5 17 1 22 -3 17 -14 -6 -17 13 -65 26 -65 4 0 8 -7 8 -15 0
-11 -11 -13 -50 -10 -28 2 -48 0 -45 -5 3 -5 -1 -12 -8 -17 -23 -14 -26 -39
-6 -51 21 -13 24 -6 9 18 -12 19 22 39 67 40 17 0 35 5 38 10 3 6 21 10 38 10
40 0 53 9 66 43 8 20 7 27 -2 28 -6 0 -3 4 7 8 18 7 16 9 -12 22 -18 8 -32 17
-32 21 0 11 8 10 33 -3 21 -11 21 -10 5 7 -15 16 -20 16 -43 4 -16 -9 -48 -13
-88 -10 -34 1 -87 3 -117 4 l-55 1 2 -88 c1 -67 -1 -86 -10 -79 -7 6 -42 9
-78 8 -46 -1 -72 4 -84 14 -17 13 -18 13 -11 0 4 -8 -1 -4 -13 10 -16 20 -23
23 -38 14 -10 -6 -19 -21 -21 -33 -2 -11 -11 -21 -20 -21 -12 0 -13 3 -4 12
14 14 16 32 3 24 -5 -4 -12 0 -15 6 -3 7 -3 3 0 -9 4 -16 1 -23 -9 -23 -21 0
-38 -48 -31 -88 6 -33 6 -35 -17 -28 -63 17 -69 18 -69 7 0 -6 7 -8 15 -5 8 4
15 2 15 -3 0 -5 14 -10 31 -11 24 -2 32 2 36 18 3 11 9 20 14 20 13 0 11 -17
-4 -32 -8 -7 -12 -19 -11 -26 1 -7 0 -8 -3 -2 -8 16 -31 12 -36 -7 -4 -14 -5
-13 -6 4 -1 16 -6 21 -16 17 -8 -4 -15 -1 -15 6 0 6 -4 9 -9 5 -6 -3 -14 3
-20 12 -5 10 -13 14 -17 10 -4 -4 7 -21 25 -38 32 -29 33 -33 27 -82 -3 -29
-6 -60 -6 -69 0 -10 -4 -18 -8 -18 -5 0 -5 27 0 61 4 35 4 68 -1 77 -17 32
-60 65 -75 59 -13 -5 -12 -12 9 -43 14 -20 26 -46 27 -58 4 -54 2 -106 -3
-106 -4 0 -14 -12 -24 -26 -16 -25 -16 -26 3 -20 20 7 52 -1 52 -13 0 -10 -62
-1 -77 11 -7 6 -11 21 -9 35 4 18 -1 26 -17 33 -12 5 -16 9 -9 9 15 1 16 26 0
51 -10 16 -10 23 5 37 10 11 17 13 17 5 0 -7 -4 -12 -8 -12 -13 0 -10 -29 3
-34 7 -2 11 -15 8 -29 -4 -19 0 -26 18 -30 13 -4 24 -5 25 -4 6 6 6 75 0 92
-31 88 -55 108 -122 103 -40 -2 -42 -8 -13 -34 22 -19 22 -19 10 4 -16 30 -7
28 31 -8 17 -16 26 -30 19 -30 -7 0 -10 -4 -7 -9 3 -5 -1 -12 -9 -15 -11 -4
-23 6 -37 30 -20 34 -22 35 -35 18 -19 -26 -16 -32 15 -36 21 -2 27 -8 27 -27
0 -35 -22 -37 -42 -3 -20 31 -44 33 -36 2 3 -11 0 -20 -6 -20 -14 0 -9 36 7
52 7 7 12 15 12 19 0 4 8 24 17 45 9 22 16 42 15 47 -1 4 3 7 8 7 6 0 10 6 10
14 0 7 7 19 15 26 8 7 13 16 10 20 -3 5 -2 10 3 12 15 6 65 78 50 73 -8 -3
-21 -17 -28 -31 -10 -18 -19 -23 -34 -18 -12 4 -34 8 -51 9 -16 0 -44 9 -61
18 -17 9 -35 13 -39 9 -12 -11 6 40 23 66 16 24 42 42 63 42 6 0 0 -9 -15 -21
-14 -11 -26 -27 -26 -34 0 -14 84 -45 120 -45 17 0 77 41 116 79 12 12 30 21
40 21 39 0 91 26 127 63 21 20 44 37 52 37 21 0 37 34 23 48 -18 18 -57 14
-94 -8 l-33 -21 11 29 c9 24 18 30 42 30 119 1 372 12 389 18 12 3 1 -7 -24
-24 -25 -16 -49 -37 -52 -45 -8 -21 20 -44 35 -29 6 6 17 8 24 5 8 -3 14 -1
14 5 0 11 -18 11 -37 -1 -24 -15 -35 4 -16 25 27 30 67 48 94 42 21 -4 22 -3
4 5 -15 7 -16 10 -4 10 8 1 19 -3 25 -8 12 -13 96 -22 88 -10 -3 5 -21 9 -40
9 -19 0 -34 5 -34 11 0 6 7 8 16 5 9 -3 30 -6 48 -6 22 0 44 -9 64 -27 64 -58
97 -178 52 -190 -16 -4 -18 -8 -9 -19 17 -21 35 9 41 67 7 59 -8 95 -58 140
l-40 35 111 2 c181 4 500 11 500 12 0 2 170 9 257 11 47 1 91 -2 96 -5 6 -3
13 -3 15 1 3 5 71 9 152 11 81 1 151 5 156 8 5 3 9 -1 9 -8 0 -8 3 -9 8 -3 4
6 50 11 107 12 135 0 195 5 195 15 0 11 40 11 -885 -17 -982 -29 -1377 -37
-1250 -25 50 5 288 13 530 19 1132 28 1614 45 1602 58 -7 6 -258 6 -264 -1 -3
-3 -14 -1 -24 5 -11 6 -19 6 -19 0 0 -5 -26 -9 -57 -8 -32 0 -150 -3 -263 -8
-113 -4 -261 -9 -330 -10 -69 -2 -217 -6 -330 -10 -113 -3 -290 -8 -395 -10
-104 -3 -261 -7 -347 -9 -118 -4 -158 -2 -158 7 0 7 14 36 30 66 22 39 27 58
19 67 -14 17 8 29 26 14 9 -7 29 -10 52 -6 21 3 44 2 51 -2 16 -11 64 -3 56 9
-7 12 1 11 42 -6 19 -8 32 -10 29 -5 -3 5 18 9 50 9 30 -1 62 4 70 11 11 9 18
10 29 1 10 -8 19 -7 37 8 19 14 24 28 23 60 0 22 2 41 6 41 10 0 9 33 -1 46
-6 7 -3 16 6 24 8 7 13 16 10 20 -3 4 2 13 10 20 12 10 15 9 15 -8 0 -11 6
-24 13 -30 16 -12 77 -21 77 -10 0 4 5 8 12 8 9 0 9 -3 0 -12 -7 -7 -12 -25
-12 -40 0 -31 -11 -36 -30 -13 -9 10 -17 12 -23 6 -5 -5 -16 -7 -23 -4 -24 9
-43 -22 -41 -68 2 -43 3 -44 39 -47 33 -3 40 1 57 29 l20 32 7 -27 c8 -34 39
-47 78 -33 21 7 34 7 48 -2 12 -7 24 -8 36 -2 10 5 59 8 110 7 51 -1 95 0 98
3 8 8 124 7 126 -1 2 -4 14 1 27 11 21 16 24 27 25 84 1 58 -2 68 -21 78 -11
6 -25 9 -30 6 -5 -3 -15 -2 -23 3 -10 6 -21 3 -33 -8 -30 -27 -52 -5 -48 51 1
29 -2 47 -8 47 -6 0 -11 -18 -11 -40 0 -29 -4 -40 -15 -40 -10 0 -15 11 -15
35 0 19 -4 35 -10 35 -5 0 -10 -16 -10 -35 0 -19 -4 -35 -10 -35 -5 0 -10 18
-10 40 0 36 -2 40 -25 40 -22 0 -25 -4 -25 -40 0 -30 -4 -40 -16 -40 -8 0 -12
5 -9 10 13 21 -6 70 -26 70 -16 0 -19 -7 -19 -46 0 -59 -24 -55 -28 4 -4 56
-22 54 -22 -3 0 -34 -4 -45 -16 -45 -12 0 -14 8 -9 48 5 34 4 43 -4 32 -6 -8
-11 -30 -11 -47 0 -51 -25 -41 -37 15 l-10 47 -2 -47 c-1 -61 -21 -63 -21 -3
0 43 -1 45 -30 45 -30 0 -30 0 -10 -20 35 -35 20 -74 -26 -68 -21 2 -30 9 -32
26 -2 15 2 22 12 22 9 0 16 -7 16 -15 0 -8 5 -15 10 -15 20 0 9 27 -20 48 -35
26 -42 27 -38 6 2 -10 -2 -19 -8 -21 -7 -2 -11 4 -10 14 1 15 -8 19 -51 21
-44 3 -52 1 -47 -12 4 -11 0 -16 -10 -16 -9 0 -16 6 -16 13 0 7 -14 13 -33 14
l-32 2 28 -15 c23 -13 28 -21 25 -47 -3 -28 -7 -32 -32 -32 -21 0 -31 6 -37
23 -6 16 -5 22 6 22 8 0 15 -7 15 -15 0 -16 16 -20 24 -6 11 17 -53 71 -84 71
-17 0 -30 -5 -30 -11 0 -6 9 -8 20 -4 14 5 20 2 20 -9 0 -9 -9 -16 -20 -16
-14 0 -20 -7 -20 -21 0 -18 4 -20 25 -15 18 5 25 2 25 -9 0 -11 -10 -15 -35
-15 l-35 0 0 50 c0 39 -3 50 -16 50 -13 0 -15 -9 -12 -50 2 -42 0 -50 -14 -50
-12 0 -20 13 -26 43 l-10 42 -1 -42 c-2 -65 -21 -64 -21 1 0 43 -3 56 -15 56
-11 0 -15 -12 -15 -49 0 -40 -4 -51 -19 -56 -37 -11 -51 4 -51 56 0 36 -4 49
-14 49 -11 0 -16 -15 -18 -52 -3 -49 -5 -53 -28 -53 -18 0 -26 6 -28 23 -2 12
1 22 7 22 6 0 11 -7 11 -15 0 -8 5 -15 10 -15 11 0 14 49 4 74 -8 22 -24 20
-24 -2z m560 -3 c0 -5 -6 -7 -12 -3 -9 5 -8 2 1 -10 16 -19 1 -43 -19 -31 -8
5 -9 10 -2 14 7 4 8 12 2 21 -7 11 -10 8 -15 -13 -9 -36 -25 -34 -25 3 0 28 3
30 35 30 19 0 35 -5 35 -11z m-93 -51 c-3 -8 -6 -5 -6 6 -1 11 2 17 5 13 3 -3
4 -12 1 -19z m82 -12 c-11 -9 -69 -14 -69 -6 0 6 17 10 37 10 20 0 34 -2 32
-4z m-85 -21 c-4 -8 -8 -15 -10 -15 -2 0 -4 7 -4 15 0 8 4 15 10 15 5 0 7 -7
4 -15z m436 5 c-20 -13 -33 -13 -25 0 3 6 14 10 23 10 15 0 15 -2 2 -10z m140
-11 c0 -6 -4 -7 -10 -4 -5 3 -10 11 -10 16 0 6 5 7 10 4 6 -3 10 -11 10 -16z
m-959 -13 c5 3 9 0 9 -6 0 -15 -23 -7 -26 8 -1 7 0 8 3 2 2 -5 9 -8 14 -4z
m94 4 c3 -5 1 -10 -4 -10 -6 0 -11 5 -11 10 0 6 2 10 4 10 3 0 8 -4 11 -10z
m100 0 c3 -5 1 -10 -4 -10 -6 0 -11 5 -11 10 0 6 2 10 4 10 3 0 8 -4 11 -10z
m131 -10 c23 0 34 -5 34 -14 0 -9 -7 -12 -20 -9 -15 4 -20 0 -20 -15 0 -15 5
-19 20 -15 14 4 20 0 20 -12 0 -12 -6 -16 -20 -12 -16 4 -20 0 -20 -19 0 -18
5 -23 21 -21 12 1 24 -4 26 -10 3 -9 -7 -13 -30 -13 l-35 0 -7 70 c-7 67 -19
89 -28 53 -4 -14 -5 -13 -6 4 -1 21 21 38 27 22 2 -5 19 -9 38 -9z m604 -50
c0 -57 -3 -70 -16 -70 -13 0 -15 9 -10 53 4 35 3 46 -3 32 -5 -11 -10 -34 -10
-51 -1 -18 -7 -34 -15 -37 -11 -4 -17 7 -24 46 l-10 52 -1 -52 c-1 -66 -21
-71 -21 -5 0 26 -3 57 -6 70 -5 18 -2 22 19 22 21 0 26 -6 33 -42 l8 -43 4 42
c2 34 7 43 25 46 12 2 23 5 25 6 1 0 2 -30 2 -69z m87 5 c7 -33 12 -63 13 -67
0 -13 -28 -9 -34 5 -5 10 -7 10 -12 0 -3 -7 -13 -13 -21 -13 -11 0 -14 7 -10
23 3 12 9 44 12 70 11 69 35 61 52 -18z m80 15 l13 -45 -6 48 c-4 38 -2 47 10
47 13 0 16 -13 16 -70 0 -56 -3 -70 -15 -70 -9 0 -17 6 -19 13 -2 6 -9 28 -15
47 -10 34 -11 34 -6 -12 4 -38 1 -48 -10 -48 -12 0 -15 15 -15 71 0 61 2 70
17 67 11 -2 22 -20 30 -48z m-447 -20 c0 -33 4 -60 10 -60 6 0 10 27 10 60 0
76 15 78 24 4 7 -65 -4 -87 -43 -82 -25 3 -26 6 -29 71 -2 55 0 67 13 67 12 0
15 -13 15 -60z m138 38 c4 -21 -24 -25 -31 -5 -2 6 -8 8 -13 4 -5 -5 3 -19 19
-31 22 -18 28 -30 25 -52 -3 -25 -7 -29 -33 -29 -23 0 -31 5 -33 23 -2 15 2
22 12 22 9 0 16 -7 16 -15 0 -8 5 -15 10 -15 19 0 10 30 -15 46 -24 16 -33 52
-18 68 13 13 58 1 61 -16z m-548 -48 c0 -53 2 -60 20 -60 11 0 20 -4 20 -10 0
-5 -16 -10 -35 -10 l-35 0 0 70 c0 56 3 70 15 70 12 0 15 -13 15 -60z m171 28
l1 -33 10 33 c6 17 17 32 23 32 10 0 10 -12 -1 -54 -8 -30 -13 -60 -12 -67 2
-6 -2 -13 -7 -15 -6 -2 -16 17 -22 43 -7 27 -15 58 -19 71 -5 16 -2 22 10 22
11 0 16 -10 17 -32z m-563 -27 c4 -52 22 -44 22 10 0 29 4 39 16 39 9 0 14 -6
11 -13 -3 -8 -8 -40 -12 -71 -6 -45 -11 -56 -24 -54 -10 2 -18 17 -22 43 -4
28 -7 32 -8 13 -4 -77 -34 -78 -50 -1 -14 71 -14 73 3 73 11 0 16 -14 18 -47
l4 -48 8 53 c10 63 30 65 34 3z m237 -21 l0 -65 -30 0 c-29 0 -30 2 -37 55 -7
63 3 82 41 78 25 -3 26 -6 26 -68z m103 11 c4 -60 -1 -68 -42 -73 l-28 -3 -5
68 -4 68 38 -3 38 -3 3 -54z m380 -8 c0 -26 -12 -38 -29 -27 -8 4 -8 9 -1 13
6 4 7 12 3 20 -6 9 -10 6 -15 -13 -9 -35 -26 -33 -26 4 0 27 3 29 34 28 28 -1
34 -5 34 -25z m-9 -47 c-11 -9 -69 -14 -69 -6 0 6 17 10 37 10 20 0 34 -2 32
-4z m-1299 -476 c0 -38 4 -50 15 -50 8 0 15 -4 15 -10 0 -5 -11 -10 -25 -10
-21 0 -25 5 -25 29 0 16 -3 43 -6 60 -5 24 -3 31 10 31 13 0 16 -11 16 -50z
m121 23 c1 -28 1 -28 8 -4 4 14 13 27 20 29 10 3 12 0 8 -13 -4 -9 -10 -34
-13 -56 -4 -21 -10 -39 -13 -39 -4 0 -13 22 -20 49 -10 41 -16 48 -32 44 -10
-3 -19 -11 -19 -19 0 -8 6 -11 15 -8 8 4 15 1 15 -5 0 -6 -7 -11 -15 -11 -8 0
-15 -9 -15 -20 0 -12 6 -20 13 -18 7 2 12 -1 12 -6 0 -5 -10 -10 -22 -11 -20
-1 -23 4 -23 41 0 23 -3 49 -6 58 -5 13 2 16 40 16 43 0 46 -2 47 -27z m159
17 c0 -5 -8 -10 -17 -10 -15 0 -16 2 -3 10 19 12 20 12 20 0z m-322 -34 c6
-53 -5 -76 -38 -76 -30 0 -30 1 -30 56 l0 55 33 -3 c27 -3 33 -7 35 -32z
m1062 13 c-12 -8 -10 -10 10 -5 24 5 24 4 6 -9 -17 -13 -17 -15 -3 -21 9 -3
24 0 34 6 16 10 16 11 1 6 -23 -7 -23 1 0 13 15 8 18 5 20 -14 2 -30 -20 -47
-55 -43 -24 3 -27 7 -29 41 0 28 3 37 15 37 14 0 14 -2 1 -11z m183 -16 c-5
-13 -2 -15 15 -11 12 4 22 2 22 -3 0 -8 -6 -10 -42 -13 -7 -1 -12 5 -10 12 1
6 -4 12 -10 13 -10 0 8 11 29 18 1 1 0 -6 -4 -16z m-211 -25 c-9 -9 -12 -7
-12 12 0 19 3 21 12 12 9 -9 9 -15 0 -24z m196 -14 c15 -10 22 -11 22 -3 0 7
10 9 25 7 13 -3 26 0 29 6 2 6 5 3 5 -6 2 -41 -88 -47 -109 -7 -13 23 -2 24
28 3z m-920 -59 c0 -14 -5 -25 -10 -25 -6 0 -8 9 -5 19 3 14 1 18 -9 14 -8 -3
-14 0 -14 6 0 6 8 11 19 11 13 0 19 -7 19 -25z m497 5 c-3 -5 -14 -10 -23 -10
-15 0 -15 2 -2 10 20 13 33 13 25 0z m-729 -63 c9 -46 9 -57 -2 -57 -7 0 -15
6 -18 13 -5 10 -7 10 -12 0 -13 -30 -25 -11 -19 30 15 97 33 102 51 14z m55
27 l7 -29 1 33 c2 52 21 37 21 -17 0 -61 7 -81 26 -74 9 3 14 -1 14 -11 0 -9
8 -20 19 -24 13 -5 16 -12 11 -27 -7 -19 -8 -18 -18 7 -15 36 -30 43 -53 22
-21 -19 -24 -13 -9 16 7 13 6 19 -5 24 -8 3 -15 13 -15 23 0 10 -5 25 -11 33
-7 11 -8 5 -3 -22 4 -24 2 -38 -4 -38 -10 0 -21 107 -13 116 11 11 27 -5 32
-32z m209 26 c0 -5 -4 -10 -10 -10 -5 0 -10 5 -10 10 0 6 5 10 10 10 6 0 10
-4 10 -10z m60 0 c0 -5 -6 -10 -14 -10 -8 0 -16 -4 -18 -9 -5 -15 -58 -25 -58
-11 0 7 7 10 15 6 8 -3 15 -2 15 2 0 7 36 28 53 31 4 0 7 -3 7 -9z m-120 -10
c0 -5 -4 -10 -10 -10 -5 0 -10 5 -10 10 0 6 5 10 10 10 6 0 10 -4 10 -10z
m560 -23 c11 -4 10 -7 -7 -12 -13 -4 -23 -11 -23 -16 0 -5 -7 -9 -17 -9 -9 0
-14 -3 -10 -6 3 -3 -3 -14 -14 -25 -19 -19 -21 -19 -37 -3 -12 13 -13 19 -4
22 17 5 15 22 -2 22 -18 0 -30 17 -17 24 5 4 16 0 24 -9 13 -13 16 -13 27 0
14 17 30 20 30 5 0 -5 -6 -10 -13 -10 -13 0 -42 -39 -34 -46 3 -3 19 9 36 27
31 31 30 47 -4 50 -5 0 -1 4 10 9 13 5 24 4 30 -4 6 -7 17 -15 25 -19z m-407
9 c4 -9 0 -12 -12 -9 -11 3 -21 -2 -24 -11 -4 -11 -1 -13 11 -9 14 5 15 3 5
-7 -10 -11 -15 -11 -28 0 -15 13 -14 15 7 32 28 21 34 22 41 4z m519 -24 c-6
-2 -8 -10 -5 -18 3 -8 0 -14 -7 -14 -13 0 -10 42 5 52 6 4 12 2 14 -4 2 -7 -1
-14 -7 -16z m44 1 c-3 -18 -36 -40 -36 -23 0 5 8 10 18 11 10 0 12 3 5 6 -7 2
-13 11 -13 19 0 7 6 11 14 8 8 -3 13 -12 12 -21z m-690 0 c16 -22 18 -36 3
-31 -6 2 -9 7 -7 10 2 4 -6 14 -17 22 -13 10 -15 15 -6 16 8 0 20 -8 27 -17z
m604 7 c11 -7 7 -9 -15 -7 -24 2 -29 -2 -27 -15 2 -10 -3 -18 -11 -18 -26 0
-28 14 -5 32 26 20 37 22 58 8z m140 -16 c0 -2 -9 -4 -20 -4 -11 0 -20 4 -20
9 0 5 9 7 20 4 11 -3 20 -7 20 -9z m-810 -4 c0 -5 -4 -10 -10 -10 -5 0 -10 5
-10 10 0 6 5 10 10 10 6 0 10 -4 10 -10z m120 0 c0 -5 -7 -10 -15 -10 -8 0
-15 5 -15 10 0 6 7 10 15 10 8 0 15 -4 15 -10z m540 -7 c0 -16 2 -16 11 -3 9
12 10 12 7 1 -7 -23 -26 -24 -38 -2 -9 17 -8 21 5 21 8 0 15 -8 15 -17z m-193
-12 c0 -11 -5 -17 -9 -15 -11 7 -10 34 1 34 6 0 9 -9 8 -19z m-331 -6 c-3 -8
0 -15 7 -15 8 0 7 -4 -3 -9 -23 -15 -32 0 -21 37 1 1 6 2 12 2 6 0 9 -7 5 -15z
m-126 -15 c0 -11 -4 -20 -10 -20 -5 0 -10 9 -10 20 0 11 5 20 10 20 6 0 10 -9
10 -20z m590 -5 c11 -21 11 -27 0 -38 -7 -6 -10 -7 -7 -2 7 14 -21 51 -30 40
-5 -4 -2 -10 5 -12 15 -6 16 -43 1 -43 -5 0 -8 4 -5 8 3 5 -4 15 -14 22 -18
13 -18 15 -2 31 24 25 36 23 52 -6z m-545 6 c7 -12 -12 -24 -25 -16 -11 7 -4
25 10 25 5 0 11 -4 15 -9z m45 -1 c0 -5 -7 -10 -15 -10 -8 0 -15 5 -15 10 0 6
7 10 15 10 8 0 15 -4 15 -10z m555 0 c3 -5 4 -10 1 -10 -2 0 -11 -3 -19 -6 -8
-3 -17 2 -20 10 -7 18 27 23 38 6z m533 -16 c9 -9 18 -24 19 -33 5 -26 13
-142 15 -205 0 -33 7 -71 14 -85 12 -22 11 -27 -3 -35 -15 -8 -15 -10 2 -22
14 -10 15 -16 6 -27 -11 -14 -6 -47 8 -47 4 0 12 5 19 12 16 16 16 1 0 -16 -9
-10 -17 -10 -37 0 -15 6 -39 15 -55 18 -26 6 -28 5 -17 -8 10 -12 10 -16 2
-16 -7 0 -10 -4 -7 -8 6 -11 -11 -38 -19 -30 -4 3 -2 15 4 26 10 19 6 32 -11
32 -5 0 -6 -5 -2 -12 4 -7 3 -8 -4 -4 -7 4 -12 14 -12 23 0 8 -9 26 -19 40
-15 18 -18 30 -12 46 5 12 9 27 9 32 5 77 32 180 63 238 6 11 11 36 11 58 0
44 3 46 26 23z m-1083 -14 c-3 -5 -14 -10 -23 -10 -15 0 -15 2 -2 10 20 13 33
13 25 0z m395 -10 c0 -5 -4 -10 -10 -10 -5 0 -10 5 -10 10 0 6 5 10 10 10 6 0
10 -4 10 -10z m30 -1 c0 -5 4 -8 9 -5 9 6 25 -23 17 -31 -5 -5 -46 33 -46 42
0 3 5 5 10 5 6 0 10 -5 10 -11z m-395 -9 c-3 -5 -16 -10 -28 -10 -30 0 -53
-15 -38 -24 14 -9 5 -26 -13 -26 -7 0 -13 12 -13 29 0 26 3 29 34 29 19 0 37
3 40 6 10 10 25 7 18 -4z m1142 4 c-3 -3 -12 -4 -19 -1 -8 3 -5 6 6 6 11 1 17
-2 13 -5z m-1247 -25 c0 -5 -7 -9 -15 -9 -15 0 -20 12 -9 23 8 8 24 -1 24 -14z
m250 -15 c0 -11 -5 -10 -18 4 -11 9 -17 21 -15 25 7 11 33 -13 33 -29z m-320
12 c0 -21 24 -38 37 -25 6 6 16 8 22 5 21 -13 11 -24 -23 -24 -25 0 -36 5 -39
19 -4 14 -14 19 -39 19 -25 0 -29 3 -18 10 22 14 60 12 60 -4z m960 4 c0 -5
-7 -10 -15 -10 -18 0 -20 -16 -2 -23 6 -3 2 -6 -10 -6 -25 -1 -30 18 -11 37
15 15 38 16 38 2z m340 0 c0 -5 -7 -10 -16 -10 -8 0 -12 5 -9 10 3 6 10 10 16
10 5 0 9 -4 9 -10z m-1154 -15 c-3 -23 -12 -26 -13 -5 -1 11 2 20 7 20 4 0 7
-7 6 -15z m367 -1 c15 3 27 0 27 -5 0 -16 -63 -6 -67 11 -4 12 -2 12 5 2 5 -8
20 -11 35 -8z m323 -6 l-6 -23 11 23 c8 15 21 22 41 22 15 0 28 -2 28 -3 0
-10 -41 -50 -46 -45 -3 3 2 13 11 22 15 14 15 16 1 16 -9 0 -16 -7 -16 -15 0
-15 -38 -40 -47 -31 -7 7 13 56 22 56 4 0 4 -10 1 -22z m-958 0 c16 -16 15
-28 -3 -28 -8 0 -15 5 -15 12 0 6 -3 8 -7 5 -3 -4 4 -19 17 -32 19 -21 22 -30
14 -43 -16 -25 -48 -22 -52 6 -2 12 1 22 7 22 6 0 11 -7 11 -16 0 -9 5 -12 12
-8 8 5 5 13 -10 25 -33 26 -28 63 9 68 3 1 10 -4 17 -11z m48 -14 c-3 -8 -1
-14 4 -14 6 0 10 -4 10 -10 0 -5 -6 -8 -12 -6 -7 1 -10 1 -5 -1 4 -3 7 -9 7
-14 0 -6 -4 -7 -10 -4 -5 3 -10 2 -10 -4 0 -5 6 -11 13 -14 16 -6 3 -20 -15
-15 -11 2 -12 14 -5 56 5 30 13 50 18 46 6 -3 8 -12 5 -20z m471 -5 c-1 -19
-2 -19 -14 -3 -17 23 -16 35 1 28 8 -3 14 -15 13 -25z m-617 -6 c0 -14 -7 -35
-17 -45 -15 -17 -15 -18 5 -18 12 0 22 -4 22 -10 0 -5 -13 -10 -30 -10 -23 0
-30 5 -30 19 0 10 7 24 15 31 8 7 15 20 15 29 0 14 -2 14 -10 1 -11 -18 -25
-7 -17 15 4 8 16 15 27 15 15 0 20 -7 20 -27z m206 -10 c-3 -27 0 -33 15 -33
11 0 19 -5 19 -11 0 -6 -7 -8 -16 -5 -9 3 -20 6 -25 6 -5 0 -7 14 -5 30 3 24
0 30 -15 30 -11 0 -19 4 -19 9 0 5 11 8 25 7 22 -1 24 -5 21 -33z m814 -10 c0
-30 41 -103 58 -103 6 0 12 -7 12 -16 0 -13 -3 -14 -15 -4 -11 9 -18 8 -36 -8
-11 -11 -19 -26 -17 -34 3 -7 -2 -18 -11 -25 -13 -9 -14 -16 -4 -31 7 -12 8
-23 2 -29 -15 -15 20 -74 52 -85 24 -8 30 -18 39 -64 7 -30 24 -79 39 -107
l28 -52 -177 -4 -177 -3 -5 47 c-6 46 5 110 20 119 4 2 14 -24 22 -59 9 -35
12 -61 8 -59 -11 7 -10 -8 2 -26 8 -12 10 -12 10 -1 0 11 3 11 17 0 15 -12 16
-12 8 6 -4 11 -13 40 -20 65 -7 25 -20 64 -30 87 -12 30 -14 47 -7 59 9 15 12
11 22 -25 6 -24 20 -51 29 -60 10 -9 26 -36 36 -61 21 -51 34 -70 46 -70 8 0
-30 79 -76 160 -8 14 -23 45 -34 70 -18 41 -18 47 -4 69 14 22 14 24 -2 17
-15 -5 -16 -2 -9 21 4 16 8 40 8 55 1 14 5 30 9 34 4 5 5 2 2 -7 -4 -10 1 -15
15 -16 19 -2 20 2 15 28 -4 17 -2 29 4 29 14 0 25 -63 18 -106 -3 -19 -2 -34
3 -34 14 0 23 46 16 83 -14 67 -15 97 -4 103 7 5 8 2 3 -7 -5 -8 1 -5 14 5 12
11 20 25 17 32 -6 15 18 37 28 27 4 -4 4 1 0 12 -7 18 -6 18 9 6 9 -7 17 -24
17 -38z m490 37 c0 -5 -4 -10 -10 -10 -5 0 -10 5 -10 10 0 6 5 10 10 10 6 0
10 -4 10 -10z m20 -10 c-6 -11 -17 -20 -25 -20 -12 0 -12 4 3 19 23 26 35 26
22 1z m-1200 -25 c-15 -19 4 -47 26 -38 8 3 14 -1 14 -11 0 -20 -14 -21 -29
-2 -7 8 -21 12 -31 9 -11 -3 -20 0 -20 6 0 6 5 11 11 11 6 0 9 6 6 14 -7 17 1
26 21 26 12 0 12 -3 2 -15z m230 8 c0 -14 -19 -38 -25 -32 -8 8 5 39 16 39 5
0 9 -3 9 -7z m625 -2 c-11 -9 -153 -26 -144 -16 3 3 33 9 65 14 83 12 89 12
79 2z m-940 -11 c3 -5 -1 -10 -9 -10 -9 0 -16 5 -16 10 0 6 4 10 9 10 6 0 13
-4 16 -10z m45 0 c0 -5 -7 -10 -15 -10 -8 0 -15 5 -15 10 0 6 7 10 15 10 8 0
15 -4 15 -10z m-258 -35 c2 -19 3 -35 1 -35 -8 0 -23 52 -17 61 9 15 12 11 16
-26z m540 17 c-7 -2 -10 -8 -6 -13 3 -5 0 -9 -5 -9 -13 0 -13 3 -5 24 3 9 11
13 17 9 8 -5 7 -8 -1 -11z m-398 -19 c-4 -21 -3 -24 5 -13 5 8 13 11 18 7 4
-5 3 -11 -2 -15 -11 -8 -14 -19 -24 -81 -9 -62 -27 -63 -40 -1 -13 61 -13 60
-2 60 4 0 13 -15 19 -32 l10 -33 1 33 c1 17 6 32 12 32 5 0 7 5 4 10 -4 6 -10
8 -14 6 -4 -3 -5 8 -3 25 2 16 8 29 13 29 5 0 7 -12 3 -27z m222 11 c-5 -14
-4 -15 9 -4 9 8 15 8 15 2 0 -6 -8 -17 -19 -24 -10 -7 -19 -17 -19 -21 0 -5
-3 -12 -7 -15 -7 -7 3 56 12 71 8 14 15 7 9 -9z m803 -11 c10 -19 9 -23 -4
-23 -10 0 -13 5 -9 13 5 8 2 8 -9 -2 -15 -12 -17 -11 -17 3 0 32 -18 15 -25
-24 -8 -48 -22 -60 -31 -26 -12 51 -2 71 41 76 22 3 41 6 41 5 1 0 7 -10 13
-22z m-919 7 c0 -5 -7 -10 -15 -10 -8 0 -15 5 -15 10 0 6 7 10 15 10 8 0 15
-4 15 -10z m801 -3 c-1 -4 -1 -15 -1 -24 0 -15 -2 -16 -10 -3 -13 20 -13 43 1
38 6 -2 10 -7 10 -11z m684 3 c3 -5 3 -15 -1 -21 -6 -11 -23 6 -24 24 0 10 18
9 25 -3z m-58 -27 c7 -15 11 -28 9 -31 -8 -7 -27 9 -21 18 3 4 -2 11 -11 14
-8 3 -12 10 -9 16 10 16 19 12 32 -17z m-1227 5 c0 -10 3 -9 9 1 5 7 11 9 14
5 3 -5 -1 -15 -9 -22 -12 -11 -15 -10 -20 2 -3 9 -10 13 -15 10 -15 -9 -10
-22 11 -29 21 -7 27 -30 10 -40 -6 -4 -24 -11 -41 -15 -27 -8 -29 -7 -18 6 9
12 10 17 0 27 -10 9 -11 8 -5 -7 5 -14 3 -17 -7 -14 -8 3 -14 11 -14 20 0 16
30 50 37 42 3 -2 11 2 18 11 15 18 30 20 30 3z m1260 -3 c0 -8 -4 -15 -10 -15
-5 0 -10 7 -10 15 0 8 5 15 10 15 6 0 10 -7 10 -15z m-1482 -2 c-10 -2 -26 -2
-35 0 -10 3 -2 5 17 5 19 0 27 -2 18 -5z m52 1 c0 -3 -5 -14 -10 -25 -8 -15
-7 -19 5 -19 27 0 16 -16 -20 -30 -37 -15 -51 -46 -15 -35 11 4 20 2 20 -4 0
-6 -13 -11 -30 -11 -27 0 -30 3 -30 30 0 17 4 30 9 30 5 0 8 11 6 25 -1 15 3
25 10 25 8 0 12 -10 10 -25 -1 -16 3 -25 12 -25 9 0 12 7 7 24 -3 14 -3 30 1
35 6 12 25 15 25 5z m30 -9 c0 -8 -7 -15 -15 -15 -9 0 -12 6 -9 15 4 8 10 15
15 15 5 0 9 -7 9 -15z m-237 -25 c-3 -11 -7 -20 -9 -20 -2 0 -4 9 -4 20 0 11
4 20 9 20 5 0 7 -9 4 -20z m122 10 c3 -5 2 -10 -4 -10 -5 0 -13 5 -16 10 -3 6
-2 10 4 10 5 0 13 -4 16 -10z m-158 -43 c0 -20 4 -44 7 -52 3 -9 0 -15 -9 -15
-9 0 -15 10 -15 25 0 14 -4 25 -10 25 -5 0 -10 -11 -10 -25 0 -14 -4 -25 -10
-25 -5 0 -10 25 -10 56 0 54 0 55 28 52 24 -3 27 -7 29 -41z m290 23 c-3 -10
0 -21 7 -24 8 -3 8 -5 0 -5 -16 -1 -37 26 -29 39 11 18 28 11 22 -10z m-135
-8 c-7 -2 -12 -21 -12 -43 0 -21 -4 -39 -10 -39 -5 0 -10 22 -10 49 0 46 1 49
22 43 12 -3 17 -7 10 -10z m1288 3 c0 -8 -2 -15 -4 -15 -2 0 -6 7 -10 15 -3 8
-1 15 4 15 6 0 10 -7 10 -15z m180 5 c0 -5 -4 -10 -10 -10 -5 0 -10 5 -10 10
0 6 5 10 10 10 6 0 10 -4 10 -10z m-1165 -21 c-10 -15 -25 -10 -19 6 4 8 10
12 15 9 5 -3 7 -10 4 -15z m-410 -9 c3 -5 -3 -10 -14 -10 -12 0 -21 5 -21 10
0 6 6 10 14 10 8 0 18 -4 21 -10z m1043 -4 c7 -4 12 -14 12 -22 0 -12 -4 -12
-20 -2 -15 10 -29 10 -62 1 -23 -6 -46 -9 -50 -7 -15 9 3 24 27 24 13 0 26 4
29 9 7 10 46 8 64 -3z m-822 -12 c-3 -9 -6 -20 -6 -25 0 -15 -17 -10 -24 7 -8
20 1 34 21 34 10 0 13 -6 9 -16z m1404 6 c0 -5 -4 -10 -10 -10 -5 0 -10 5 -10
10 0 6 5 10 10 10 6 0 10 -4 10 -10z m-1240 -10 c0 -5 -4 -10 -10 -10 -5 0
-10 5 -10 10 0 6 5 10 10 10 6 0 10 -4 10 -10z m-122 -12 c-6 -18 -28 -21 -28
-4 0 9 7 16 16 16 9 0 14 -5 12 -12z m732 -16 c0 -5 -12 -15 -27 -23 -16 -8
-31 -18 -34 -23 -4 -5 -12 -5 -18 -2 -20 13 -12 34 17 44 34 13 62 15 62 4z
m630 -7 c0 -8 -4 -15 -10 -15 -5 0 -10 7 -10 15 0 8 5 15 10 15 6 0 10 -7 10
-15z m-36 -31 c9 -22 -3 -32 -14 -14 -12 19 -12 30 -1 30 5 0 12 -7 15 -16z
m45 -3 c7 -5 9 -11 5 -14 -5 -3 -15 1 -22 9 -14 16 -5 18 17 5z m-669 -16 c0
-17 -46 -42 -56 -32 -7 7 35 46 49 47 4 0 7 -7 7 -15z m600 5 c0 -5 -4 -10
-10 -10 -5 0 -10 5 -10 10 0 6 5 10 10 10 6 0 10 -4 10 -10z m19 -47 c-18 -20
-20 -25 -6 -20 20 8 23 -8 3 -16 -8 -3 -17 -1 -20 6 -2 7 -5 4 -5 -5 -1 -10 6
-18 15 -18 24 0 11 -25 -15 -28 -17 -3 -21 0 -15 10 5 7 7 20 6 29 -2 8 9 28
24 42 35 35 45 35 13 0z m51 23 c0 -2 -6 -16 -14 -31 -9 -17 -16 -22 -18 -13
-5 14 12 48 24 48 5 0 8 -2 8 -4z m-677 -41 c0 -6 -7 -11 -16 -13 -12 -3 -15
1 -11 13 7 17 25 17 27 0z m447 -5 c0 -5 -2 -10 -4 -10 -3 0 -8 5 -11 10 -3 6
-1 10 4 10 6 0 11 -4 11 -10z m-25 -51 c11 -17 -13 -17 -30 1 -16 18 -16 18 4
13 12 -3 24 -9 26 -14z m-50 -16 c-4 -10 -8 -24 -8 -30 0 -15 -13 -17 -22 -3
-3 6 -1 10 4 10 6 0 10 3 10 8 -3 18 2 32 12 32 7 0 8 -7 4 -17z m25 -13 c0
-5 -4 -10 -10 -10 -5 0 -10 5 -10 10 0 6 5 10 10 10 6 0 10 -4 10 -10z m-709
-49 c-25 -48 -27 -68 -3 -26 l17 30 3 -44 c4 -51 -2 -71 -22 -71 -24 0 -26 69
-3 117 12 24 22 41 25 39 2 -2 -6 -22 -17 -45z m885 -14 c-1 -6 -5 -18 -9 -24
-5 -7 -6 -17 -3 -22 3 -4 -3 -16 -13 -25 -18 -17 -20 -17 -40 3 -17 17 -21 18
-21 5 0 -8 -5 -12 -10 -9 -14 9 7 35 27 35 10 0 13 -6 8 -17 -5 -14 -3 -15 6
-6 13 13 4 33 -17 33 -8 0 -14 5 -14 11 0 11 16 9 53 -6 13 -6 16 -3 11 9 -3
9 -1 16 6 16 6 0 8 5 4 12 -4 6 -3 8 4 5 5 -4 9 -13 8 -20z m-336 -68 c0 -4 3
-14 6 -23 4 -11 0 -16 -13 -16 -12 0 -25 13 -36 35 -24 51 -21 59 13 33 17
-12 30 -25 30 -29z m170 41 c0 -5 -4 -10 -10 -10 -5 0 -10 5 -10 10 0 6 5 10
10 10 6 0 10 -4 10 -10z m57 -30 c-5 -34 -17 -35 -17 -1 0 19 4 30 10 26 5 -3
8 -15 7 -25z m-30 5 c0 -10 -6 -14 -14 -10 -8 3 -18 5 -21 6 -4 0 2 4 13 9 11
5 20 9 21 9 0 1 1 -6 1 -14z m-244 -42 c7 -10 4 -13 -10 -13 -17 0 -19 5 -15
28 3 16 7 21 10 12 3 -8 9 -21 15 -27z m127 28 c0 -13 -36 -20 -51 -9 -11 8
-10 9 3 4 10 -3 20 -1 23 4 8 12 25 13 25 1z"/>
<path d="M1840 1816 c0 -14 5 -26 10 -26 6 0 10 9 10 19 0 11 -4 23 -10 26 -6
4 -10 -5 -10 -19z"/>
<path d="M900 1796 c0 -41 13 -68 23 -49 7 14 -5 93 -14 93 -5 0 -9 -20 -9
-44z"/>
<path d="M1000 1795 c0 -25 5 -45 10 -45 6 0 10 20 10 45 0 25 -4 45 -10 45
-5 0 -10 -20 -10 -45z"/>
<path d="M40 1259 c0 -22 4 -38 8 -35 8 5 4 76 -4 76 -2 0 -4 -18 -4 -41z"/>
<path d="M126 1115 c-3 -8 -1 -15 4 -15 6 0 10 7 10 15 0 8 -2 15 -4 15 -2 0
-6 -7 -10 -15z"/>
<path d="M1020 823 c0 -4 7 -17 15 -27 17 -23 34 -13 19 11 -12 19 -34 29 -34
16z"/>
<path d="M1010 754 c0 -7 9 -22 20 -35 10 -13 19 -19 20 -13 0 7 -9 22 -20 35
-10 13 -19 19 -20 13z"/>
<path d="M920 728 c0 -4 7 -8 15 -8 8 0 15 4 15 8 0 5 -7 9 -15 9 -8 0 -15 -4
-15 -9z"/>
<path d="M976 607 c3 -10 9 -15 12 -12 3 3 0 11 -7 18 -10 9 -11 8 -5 -6z"/>
<path d="M1035 450 c3 -5 13 -10 21 -10 8 0 12 5 9 10 -3 6 -13 10 -21 10 -8
0 -12 -4 -9 -10z"/>
<path d="M1166 411 c-4 -5 -2 -12 3 -15 5 -4 12 -2 15 3 4 5 2 12 -3 15 -5 4
-12 2 -15 -3z"/>
<path d="M500 819 c7 -11 14 -19 16 -16 7 7 -7 37 -17 37 -6 0 -5 -9 1 -21z"/>
<path d="M90 815 c0 -8 5 -15 10 -15 6 0 10 7 10 15 0 8 -4 15 -10 15 -5 0
-10 -7 -10 -15z"/>
<path d="M880 1961 c0 -40 13 -61 25 -41 9 15 -4 80 -15 80 -6 0 -10 -18 -10
-39z"/>
<path d="M1002 1980 c0 -14 2 -19 5 -12 2 6 2 18 0 25 -3 6 -5 1 -5 -13z"/>
<path d="M1537 1980 c3 -11 7 -20 9 -20 2 0 4 9 4 20 0 11 -4 20 -9 20 -5 0
-7 -9 -4 -20z"/>
<path d="M2258 1884 c3 -123 14 -170 34 -157 7 4 46 8 87 9 40 1 78 7 84 13 7
7 14 7 23 0 21 -17 68 -16 87 2 18 16 20 16 37 -1 15 -15 25 -17 49 -10 17 5
31 7 31 5 0 -3 11 0 25 5 14 5 25 6 25 1 0 -4 15 -6 33 -5 79 8 157 10 157 3
0 -4 8 -6 18 -4 9 2 25 4 34 4 13 1 17 9 16 36 -1 19 -2 34 -2 33 -1 -2 -8
-12 -16 -22 -12 -16 -12 -18 -1 -11 10 5 12 4 7 -3 -12 -19 -51 -14 -72 9 -23
25 -26 107 -5 132 21 26 70 22 81 -5 8 -22 9 -22 9 5 1 31 -27 48 -66 41 -18
-3 -23 0 -23 16 0 11 -4 20 -9 20 -5 0 -12 -37 -15 -82 -7 -93 -5 -128 6 -128
4 0 8 -4 8 -10 0 -5 -15 -10 -32 -10 l-33 0 0 112 0 113 -25 2 c-14 1 -19 0
-12 -3 6 -3 12 -13 12 -22 0 -13 -9 -17 -43 -17 -38 1 -42 3 -39 23 2 12 -1
22 -6 22 -15 0 -27 -197 -13 -214 15 -18 7 -22 -44 -25 -35 -1 -43 2 -58 28
-35 60 -15 141 35 141 17 0 20 5 16 30 -3 21 0 31 11 34 9 3 5 4 -9 3 -17 -1
-25 -8 -24 -20 2 -16 -9 -22 -31 -17 -5 1 -7 -2 -3 -6 4 -4 0 -12 -9 -19 -13
-9 -22 -9 -45 2 -16 8 -39 12 -51 9 -19 -4 -23 -1 -25 19 -1 16 3 25 13 25 8
0 15 -4 15 -10 0 -14 26 -12 38 3 9 10 0 13 -41 13 l-52 1 5 -118 5 -118 -25
-3 -25 -4 4 91 c3 100 -7 113 -15 17 -5 -67 -18 -112 -33 -112 -5 0 -17 35
-27 78 -19 87 -38 132 -27 62 5 -25 8 -62 8 -82 0 -21 3 -38 8 -38 4 0 7 -4 7
-10 0 -5 -12 -10 -26 -10 -20 0 -25 4 -20 17 11 27 -5 233 -18 233 -8 0 -10
-36 -8 -116z m541 39 c11 -10 24 -33 27 -52 l7 -33 -40 3 c-38 4 -40 3 -32
-17 4 -12 5 -25 2 -28 -4 -3 1 -6 10 -6 9 0 21 9 28 21 7 14 14 18 21 11 14
-14 -6 -49 -33 -57 -14 -5 -28 0 -45 16 -19 18 -24 32 -24 75 0 43 4 56 22 68
28 20 31 20 57 -1z m-247 -10 c10 -11 17 -42 19 -78 4 -57 3 -60 -24 -73 -26
-13 -31 -12 -53 9 -19 18 -24 33 -24 72 0 75 44 112 82 70z"/>
<path d="M2759 1918 c-1 -2 -3 -13 -4 -25 -2 -17 3 -23 16 -23 20 0 23 8 13
34 -5 14 -21 22 -25 14z"/>
<path d="M2509 1906 c-2 -2 -2 -32 -1 -66 4 -69 25 -79 30 -15 5 59 -10 100
-29 81z"/>
<path d="M2349 1929 c16 -71 24 -72 35 -4 4 22 9 47 12 57 4 13 -2 16 -29 16
l-33 0 15 -69z"/>
<path d="M2940 1930 c0 -3 -2 -33 -3 -68 -2 -51 1 -62 13 -60 21 4 26 87 6
113 -9 11 -16 18 -16 15z"/>
<path d="M2640 1900 c0 -20 -2 -22 -11 -10 -7 11 -8 6 -3 -20 4 -19 8 -45 8
-57 1 -13 7 -23 14 -23 13 0 15 6 12 70 -2 47 -20 83 -20 40z"/>
<path d="M800 1791 c0 -39 4 -51 16 -51 12 0 14 10 12 47 -4 66 -28 70 -28 4z"/>
<path d="M0 1779 c0 -11 4 -17 10 -14 5 3 10 13 10 21 0 8 -4 14 -10 14 -5 0
-10 -9 -10 -21z"/>
<path d="M654 1545 c-9 -14 -21 -25 -26 -25 -6 0 -5 6 2 14 10 13 8 13 -13 3
-14 -6 -23 -15 -21 -19 7 -10 65 -10 62 0 -1 4 3 17 10 30 17 30 6 28 -14 -3z"/>
<path d="M718 1503 c7 -3 16 -2 19 1 4 3 -2 6 -13 5 -11 0 -14 -3 -6 -6z"/>
<path d="M614 1491 c4 -6 1 -24 -7 -40 -13 -27 -13 -29 2 -23 14 5 14 4 2 -11
-12 -15 -12 -17 3 -11 18 7 17 6 19 53 1 21 -3 36 -12 39 -8 3 -11 0 -7 -7z"/>
<path d="M669 1443 l-34 -38 40 35 c22 19 42 36 44 38 2 1 0 2 -5 2 -6 0 -26
-17 -45 -37z"/>
<path d="M710 1449 c0 -5 5 -7 10 -4 6 3 10 8 10 11 0 2 -4 4 -10 4 -5 0 -10
-5 -10 -11z"/>
<path d="M1224 1445 c-18 -15 -18 -15 0 -8 13 4 17 3 12 -5 -4 -7 -5 -12 -2
-12 3 0 10 9 16 20 13 24 1 26 -26 5z"/>
<path d="M1286 1434 c-4 -9 -4 -19 -1 -22 2 -3 7 3 11 12 4 9 4 19 1 22 -2 3
-7 -3 -11 -12z"/>
<path d="M1347 1400 c3 -11 7 -20 9 -20 2 0 4 9 4 20 0 11 -4 20 -9 20 -5 0
-7 -9 -4 -20z"/>
<path d="M1380 1392 c0 -12 3 -12 15 -2 8 7 15 13 15 15 0 1 -7 2 -15 2 -8 0
-15 -7 -15 -15z"/>
<path d="M1123 1392 c-8 -5 -8 -12 2 -25 8 -12 15 -14 20 -8 3 6 1 11 -5 11
-7 0 -10 7 -6 15 6 17 5 18 -11 7z"/>
<path d="M1173 1384 c-26 -27 -9 -34 23 -8 10 8 14 13 7 10 -6 -4 -13 -2 -15
3 -1 5 -9 3 -15 -5z"/>
<path d="M1220 1364 c0 -8 5 -12 10 -9 6 4 8 11 5 16 -9 14 -15 11 -15 -7z"/>
<path d="M1258 1373 c6 -2 18 -2 25 0 6 3 1 5 -13 5 -14 0 -19 -2 -12 -5z"/>
<path d="M1335 1360 c3 -5 13 -10 21 -10 8 0 12 5 9 10 -3 6 -13 10 -21 10 -8
0 -12 -4 -9 -10z"/>
<path d="M560 1356 c0 -2 7 -6 15 -10 8 -3 15 -1 15 4 0 6 -7 10 -15 10 -8 0
-15 -2 -15 -4z"/>
<path d="M1148 1333 c12 -2 30 -2 40 0 9 3 -1 5 -23 4 -22 0 -30 -2 -17 -4z"/>
<path d="M1303 1323 c9 -2 23 -2 30 0 6 3 -1 5 -18 5 -16 0 -22 -2 -12 -5z"/>
<path d="M2715 1313 c-11 -3 -27 -11 -36 -19 -14 -13 -18 -12 -29 1 -12 15
-63 18 -54 3 11 -17 -26 -19 -50 -3 -21 14 -29 15 -40 5 -10 -7 -21 -8 -33 -2
-25 13 -43 5 -54 -25 -5 -13 -13 -21 -19 -18 -5 3 -10 1 -10 -5 0 -8 -6 -8
-21 0 -15 9 -24 8 -35 -1 -11 -9 -14 -8 -14 7 0 11 -4 25 -9 33 -11 17 -91 20
-108 4 -15 -14 -17 -79 -3 -88 6 -3 10 -14 10 -24 0 -11 9 -21 21 -24 28 -7
69 9 69 27 0 19 25 27 39 13 9 -9 16 -9 31 0 16 11 23 8 50 -17 18 -17 37 -27
42 -24 9 6 111 10 298 13 49 1 59 5 98 40 23 21 42 44 42 50 0 17 -30 26 -49
14 -12 -8 -22 -7 -35 3 -11 7 -23 11 -28 8 -5 -4 -16 3 -24 15 -8 12 -18 20
-22 20 -4 -1 -16 -4 -27 -6z m37 -68 c2 -32 -1 -55 -7 -55 -5 0 -11 25 -13 55
-2 30 1 55 7 55 5 0 11 -25 13 -55z m-452 5 c0 -22 -5 -40 -10 -40 -6 0 -9 12
-8 26 2 15 -2 29 -8 31 -6 2 -9 -11 -7 -34 1 -21 7 -39 13 -41 22 -8 8 -22
-22 -22 -25 0 -29 3 -20 12 14 14 16 88 2 88 -5 0 -14 -8 -19 -17 -9 -16 -10
-16 -11 4 0 17 7 23 33 26 17 2 38 5 45 5 8 1 12 -12 12 -38z m175 18 c12 -41
30 -78 37 -78 5 0 8 15 8 33 0 24 -3 28 -10 17 -8 -13 -10 -13 -10 2 0 31 12
48 34 47 11 0 15 -3 9 -6 -15 -6 -18 -93 -3 -93 6 0 10 14 10 30 0 36 24 50
47 27 10 -10 13 -24 9 -41 -6 -24 -10 -25 -64 -24 -56 2 -57 2 -69 37 l-13 36
3 -37 c2 -22 -1 -38 -8 -38 -6 0 -9 16 -7 40 2 23 -1 47 -8 55 -10 12 -9 15 8
15 13 0 23 -9 27 -22z m165 8 c0 -7 9 -16 20 -19 39 -10 20 -75 -22 -74 -13 0
-17 12 -20 54 -2 37 1 53 10 53 6 0 12 -6 12 -14z m70 4 c0 -5 -4 -10 -10 -10
-5 0 -10 5 -10 10 0 6 5 10 10 10 6 0 10 -4 10 -10z m104 -26 c19 -19 12 -34
-15 -34 -11 0 -17 -5 -14 -10 4 -6 16 -8 28 -5 22 6 22 6 2 -10 -19 -15 -21
-14 -37 5 -17 21 -14 48 6 62 14 10 12 10 30 -8z m60 -9 c-18 -28 -34 -33 -34
-10 0 8 7 15 16 15 8 0 12 5 9 10 -3 6 1 10 10 10 14 0 14 -2 -1 -25z m-162
-20 c2 -19 -1 -36 -7 -39 -7 -2 -11 11 -10 35 0 48 11 51 17 4z m-342 0 c0 -8
-7 -15 -15 -15 -8 0 -15 7 -15 15 0 8 7 15 15 15 8 0 15 -7 15 -15z m60 -1 c0
-17 -22 -14 -28 4 -2 7 3 12 12 12 9 0 16 -7 16 -16z m-190 -4 c0 -5 -7 -10
-15 -10 -8 0 -15 5 -15 10 0 6 7 10 15 10 8 0 15 -4 15 -10z"/>
<path d="M2564 1235 c-8 -19 2 -45 16 -45 5 0 10 14 10 30 0 31 -16 41 -26 15z"/>
<path d="M2640 1226 c0 -14 5 -28 10 -31 6 -4 10 7 10 24 0 17 -4 31 -10 31
-5 0 -10 -11 -10 -24z"/>
<path d="M2785 1249 c-10 -15 3 -25 16 -12 7 7 7 13 1 17 -6 3 -14 1 -17 -5z"/>
<path d="M1502 1242 c-1 -33 1 -43 8 -32 12 18 13 67 2 74 -4 2 -9 -17 -10
-42z"/>
<path d="M1425 1260 c-3 -5 -2 -10 4 -10 5 0 13 5 16 10 3 6 2 10 -4 10 -5 0
-13 -4 -16 -10z"/>
<path d="M1479 1263 c0 -5 -2 -18 -3 -30 -1 -12 1 -20 4 -18 8 5 11 55 4 55
-2 0 -4 -3 -5 -7z"/>
<path d="M1476 1184 c-4 -9 -4 -19 -1 -22 2 -3 7 3 11 12 4 9 4 19 1 22 -2 3
-7 -3 -11 -12z"/>
<path d="M1327 1169 c7 -7 15 -10 18 -7 3 3 -2 9 -12 12 -14 6 -15 5 -6 -5z"/>
<path d="M1361 1147 c-1 -25 1 -27 14 -13 16 16 20 30 6 22 -5 -4 -12 0 -14 6
-3 7 -6 0 -6 -15z"/>
<path d="M1958 1163 c7 -3 16 -2 19 1 4 3 -2 6 -13 5 -11 0 -14 -3 -6 -6z"/>
<path d="M1243 1153 c9 -2 23 -2 30 0 6 3 -1 5 -18 5 -16 0 -22 -2 -12 -5z"/>
<path d="M1300 1140 c8 -5 20 -10 25 -10 6 0 3 5 -5 10 -8 5 -19 10 -25 10 -5
0 -3 -5 5 -10z"/>
<path d="M2559 1146 c-4 -4 -114 -14 -211 -19 -10 -1 -18 -5 -18 -8 0 -4 -8
-9 -17 -12 -10 -2 5 -1 32 2 148 17 357 0 457 -38 l26 -10 -17 -34 c-9 -18
-27 -57 -40 -86 -12 -29 -24 -51 -26 -49 -3 2 4 33 15 69 11 35 20 69 20 76 0
12 -65 35 -148 52 -59 12 -261 13 -307 1 l-30 -8 35 -2 c19 -1 38 -2 41 -2 74
8 281 -7 295 -21 4 -3 -3 -18 -14 -32 -19 -24 -21 -24 -27 -6 -7 23 -61 33
-77 14 -9 -11 -15 -11 -35 2 -22 15 -27 15 -50 -1 -25 -16 -27 -16 -40 2 -7
10 -13 12 -13 5 0 -7 -4 -10 -9 -6 -15 9 -62 -17 -57 -31 3 -8 1 -16 -4 -19
-6 -4 -10 3 -10 14 0 24 -35 37 -55 21 -8 -7 -15 -21 -15 -31 0 -11 -7 -19
-16 -19 -16 0 -91 -62 -185 -153 -36 -34 -53 -44 -71 -40 -27 5 -87 -35 -69
-46 10 -6 14 -52 10 -101 -1 -8 2 -36 6 -62 6 -40 5 -48 -8 -48 -14 0 -14 -5
0 -48 9 -26 20 -51 25 -57 9 -10 208 -15 208 -5 0 3 -32 22 -71 43 -67 36 -72
37 -95 22 -13 -8 -24 -23 -25 -33 -1 -33 -18 21 -18 61 -1 32 2 37 22 37 21 1
21 1 -5 21 -34 25 -37 65 -9 101 23 29 25 74 4 56 -27 -22 -23 1 4 26 15 14
29 22 31 16 2 -6 9 -7 15 -3 7 3 3 -4 -8 -16 -11 -13 -19 -32 -17 -43 2 -11
-5 -30 -15 -42 -22 -26 -24 -79 -3 -84 12 -2 15 6 14 40 l-2 43 7 -40 c8 -45
17 -34 24 33 3 23 1 42 -3 42 -22 0 29 66 108 141 48 46 86 86 85 90 -1 3 8
15 20 25 18 16 20 16 8 2 -8 -11 -9 -18 -3 -18 6 0 15 7 20 17 8 13 32 17 141
21 152 5 133 14 286 -119 l105 -91 0 -71 0 -72 -57 -35 c-71 -43 -78 -46 -68
-30 5 9 4 11 -4 6 -6 -4 -9 -11 -6 -16 6 -10 -48 -51 -73 -55 -9 -1 -21 3 -25
9 -6 7 -7 6 -4 -4 2 -8 10 -14 16 -12 7 1 10 -2 6 -8 -10 -16 11 -12 25 5 7 8
18 15 24 15 11 -1 -15 -24 -48 -42 -12 -6 -16 -6 -12 0 3 5 0 12 -8 15 -16 6
-26 -1 -26 -18 0 -18 70 -12 85 8 6 9 15 14 18 10 4 -3 9 2 13 11 3 9 12 16
20 16 8 0 14 5 14 10 0 7 -7 7 -21 0 -11 -7 -23 -9 -26 -7 -8 9 87 59 102 54
8 -4 12 -1 9 7 -5 14 39 41 53 33 8 -5 12 27 17 135 0 14 5 24 11 20 18 -10
-56 58 -136 124 -44 36 -79 68 -79 71 0 3 19 -10 43 -29 23 -19 75 -60 115
-92 39 -32 72 -62 72 -67 0 -5 5 -9 12 -9 6 0 -1 14 -17 30 -16 17 -24 30 -18
30 18 0 48 -41 48 -66 1 -13 -3 -24 -7 -24 -4 0 -8 5 -8 10 0 6 -5 10 -12 10
-6 0 -1 -12 13 -26 l24 -26 7 29 c5 20 6 17 3 -12 -3 -22 -5 -50 -5 -61 0 -15
-8 -24 -25 -28 -24 -6 -35 -26 -14 -26 6 0 7 -5 2 -12 -11 -19 -14 -46 -4 -52
4 -3 7 6 5 19 -1 14 2 27 7 31 5 3 7 10 4 15 -4 5 -2 9 3 9 10 0 22 -116 14
-137 -5 -15 -147 -18 -156 -4 -3 5 14 19 37 31 42 22 44 22 77 5 l35 -18 -19
21 c-33 37 -52 36 -132 -10 l-76 -43 48 -7 c27 -3 81 -7 121 -7 63 -1 74 2 83
19 6 11 7 20 3 20 -4 0 -2 5 5 12 7 7 12 19 12 27 0 9 6 28 14 42 7 14 16 43
20 64 6 29 4 41 -11 54 -10 10 -23 16 -30 14 -7 -3 -8 10 -2 44 9 43 7 50 -12
66 -12 9 -33 20 -48 23 -46 10 -64 21 -171 104 -102 79 -128 110 -96 110 9 0
16 -6 16 -14 0 -8 5 -18 11 -22 8 -4 9 0 4 15 -4 12 -2 21 4 21 6 0 11 -11 11
-25 0 -29 38 -68 62 -62 9 3 19 0 21 -6 2 -6 9 -7 16 -3 9 6 7 12 -9 23 -18
13 -24 13 -31 2 -4 -7 -11 -11 -14 -7 -8 7 15 88 25 88 11 0 52 -110 47 -124
-8 -20 22 -29 39 -12 8 8 14 19 14 25 0 5 7 14 16 19 9 5 15 12 15 15 -2 19
13 67 20 67 11 0 12 41 1 56 -7 11 -37 25 -62 29 -8 2 -42 9 -75 17 -33 8 -72
14 -87 13 -16 -1 -28 2 -28 7 0 8 -14 11 -21 4z m179 -110 l23 -12 -20 -25
c-20 -24 -20 -24 -21 -2 0 12 -7 29 -16 37 -19 20 0 21 34 2z m-428 -40 c0 -7
-7 -13 -15 -13 -15 0 -20 18 -9 30 9 9 24 -2 24 -17z m107 8 c2 -6 -9 -11 -27
-11 -19 0 -30 5 -30 14 0 17 51 14 57 -3z m107 3 c10 -10 6 -12 -26 -12 -24 0
-38 4 -38 12 0 7 12 13 26 13 14 0 31 -6 38 -13z m57 -54 c13 -16 12 -17 -3
-4 -10 7 -18 15 -18 17 0 8 8 3 21 -13z m335 -349 c-4 -50 -9 -59 -30 -51 -11
4 -14 16 -10 44 8 56 12 63 28 57 11 -4 14 -18 12 -50z m-33 -99 c-7 -21 -12
-19 -10 4 0 11 5 18 9 15 4 -3 5 -11 1 -19z m-848 -45 c4 -6 10 -8 13 -6 4 2
19 -4 32 -15 l25 -19 -62 0 c-45 0 -63 4 -63 13 0 29 42 49 55 27z"/>
<path d="M1228 1133 c12 -2 22 -8 22 -13 0 -10 59 -19 66 -9 7 12 -6 16 -61
21 -27 3 -40 3 -27 1z"/>
<path d="M2260 1099 c0 -5 5 -7 10 -4 6 3 10 8 10 11 0 2 -4 4 -10 4 -5 0 -10
-5 -10 -11z"/>
<path d="M1163 1081 c-1 -15 8 -20 45 -25 26 -4 53 -7 60 -6 30 1 41 4 37 11
-3 3 3 13 12 20 9 8 17 12 19 9 1 -3 5 -2 9 2 4 3 0 5 -9 4 -8 -1 -18 -5 -22
-9 -4 -4 -19 -4 -33 -2 -21 4 -22 4 -6 -3 20 -9 20 -9 -2 -16 -28 -9 -75 3
-66 17 3 5 1 7 -5 3 -6 -3 -13 -2 -17 4 -10 16 -21 12 -22 -9z"/>
<path d="M720 1065 c0 -10 29 -24 34 -17 3 6 -3 12 -14 15 -11 3 -20 4 -20 2z"/>
<path d="M1640 980 c0 -5 7 -10 15 -10 8 0 15 5 15 10 0 6 -7 10 -15 10 -8 0
-15 -4 -15 -10z"/>
<path d="M1669 960 c-21 -17 -21 -19 -4 -13 11 3 23 11 26 16 3 4 14 1 23 -8
9 -10 20 -15 23 -11 6 6 -25 35 -38 36 -4 0 -17 -9 -30 -20z"/>
<path d="M2440 950 c96 -7 96 -12 0 -11 -36 1 -81 -3 -100 -9 -30 -8 -24 -9
40 -8 119 2 127 0 162 -34 18 -18 49 -46 69 -63 33 -28 35 -33 29 -70 l-7 -40
-2 36 c-1 34 -23 64 -61 84 -8 4 0 -6 18 -22 29 -26 46 -63 22 -48 -11 7 10
-46 21 -55 10 -8 19 -100 10 -100 -4 0 -41 -25 -81 -55 -73 -55 -74 -55 -149
-56 -42 -1 -89 -5 -106 -9 -20 -6 7 -8 77 -7 58 1 105 0 103 -3 -2 -3 5 -6 15
-6 10 0 16 6 13 13 -3 7 2 13 10 13 8 0 18 6 20 13 4 10 6 9 6 0 1 -19 18 -16
41 7 12 12 26 18 33 14 7 -4 9 -4 5 1 -10 10 29 38 41 30 5 -3 13 0 17 6 5 8
3 9 -6 4 -9 -6 -11 -4 -6 4 5 7 14 10 22 7 7 -3 16 0 20 6 4 7 3 8 -4 4 -7 -4
-12 -5 -12 -2 0 3 10 10 21 17 17 9 20 8 13 -3 -6 -11 -5 -11 9 1 13 10 17 29
17 76 l0 63 -87 82 c-49 45 -97 86 -108 92 -11 5 17 -25 63 -67 l82 -77 0 -74
c0 -68 -2 -74 -21 -74 -11 0 -18 -4 -15 -9 4 -5 -10 -19 -29 -31 -19 -12 -43
-33 -54 -46 -11 -14 -22 -21 -25 -16 -5 9 79 82 93 82 3 0 3 39 0 88 -3 48 -4
89 -2 92 3 3 11 -4 19 -14 8 -11 14 -15 14 -9 0 7 -38 46 -84 89 -51 46 -82
82 -79 90 4 11 -12 14 -83 12 l-89 -2 85 -6z m307 -316 c-3 -3 -12 -4 -19 -1
-8 3 -5 6 6 6 11 1 17 -2 13 -5z"/>
<path d="M2250 935 c-7 -9 -19 -14 -26 -11 -8 3 -13 1 -11 -3 1 -5 -40 -52
-91 -104 l-93 -95 3 -68 c2 -47 7 -69 17 -72 9 -3 11 0 6 9 -5 8 1 6 13 -5 12
-10 19 -23 15 -29 -3 -5 0 -7 8 -5 8 3 39 -14 69 -37 73 -55 80 -59 80 -43 0
13 -164 143 -180 143 -5 0 -12 4 -17 8 -4 5 -1 7 7 5 12 -2 16 10 18 58 2 46
8 66 22 79 21 19 28 7 8 -13 -6 -6 -9 -15 -5 -19 11 -10 19 3 21 33 1 31 129
169 147 159 10 -7 -34 -53 -107 -112 -21 -18 -34 -32 -27 -32 7 -1 41 25 75
57 35 33 72 64 83 70 17 10 18 11 3 12 -31 0 -19 19 15 23 l32 4 -36 1 c-22 1
-42 -4 -49 -13z"/>
<path d="M485 930 c3 -5 8 -10 11 -10 2 0 4 5 4 10 0 6 -5 10 -11 10 -5 0 -7
-4 -4 -10z"/>
<path d="M2315 900 c-3 -5 -2 -10 4 -10 5 0 13 5 16 10 3 6 2 10 -4 10 -5 0
-13 -4 -16 -10z"/>
<path d="M2445 900 c-3 -5 -25 -10 -48 -10 -23 0 -56 -4 -74 -9 -21 -6 -35 -5
-43 2 -10 9 -11 8 -6 -7 5 -14 2 -17 -9 -12 -9 3 -15 0 -15 -9 0 -8 -3 -14 -7
-14 -20 3 -24 -2 -13 -16 7 -8 22 -15 34 -14 20 0 20 1 1 8 -19 8 -19 8 4 20
28 15 284 26 261 11 -13 -8 -12 -10 3 -10 9 0 17 4 17 8 0 11 -44 52 -56 52
-5 0 -2 -4 6 -10 25 -16 4 -21 -25 -6 -23 12 -24 15 -8 19 15 4 15 5 1 6 -9 0
-20 -3 -23 -9z"/>
<path d="M1660 884 c0 -10 28 -33 33 -27 3 3 0 12 -8 19 -14 15 -25 18 -25 8z"/>
<path d="M1336 829 c-13 -21 -21 -27 -30 -20 -8 7 -12 4 -12 -10 0 -13 7 -19
21 -19 16 0 25 10 33 37 14 47 11 51 -12 12z"/>
<path d="M1626 824 c-3 -9 -10 -12 -16 -9 -18 11 -23 -27 -7 -55 12 -20 13
-30 5 -38 -9 -9 -9 -15 0 -24 13 -13 22 -8 26 14 1 7 5 19 9 25 9 15 -10 56
-23 48 -5 -3 -11 -1 -15 4 -3 6 4 8 16 6 15 -3 19 0 15 10 -3 8 -1 15 4 15 6
0 10 -4 10 -10 0 -5 4 -10 10 -10 13 0 1 27 -15 34 -7 2 -16 -2 -19 -10z m9
-63 c3 -5 2 -12 -3 -15 -5 -3 -9 1 -9 9 0 17 3 19 12 6z"/>
<path d="M3 790 c0 -25 2 -35 4 -22 2 12 2 32 0 45 -2 12 -4 2 -4 -23z"/>
<path d="M607 811 c-4 -17 -3 -21 5 -13 5 5 8 16 6 23 -3 8 -7 3 -11 -10z"/>
<path d="M2316 819 c6 -10 -62 -23 -75 -14 -6 3 -11 2 -11 -3 0 -5 -19 -12
-42 -15 -54 -7 -68 -27 -68 -99 0 -55 1 -58 19 -48 11 5 32 10 48 10 l27 0
-23 16 c-19 14 -25 14 -32 3 -10 -15 -11 -11 -11 41 0 52 1 57 10 42 7 -10 14
-8 34 8 32 25 42 25 34 3 -4 -12 0 -11 12 5 14 18 20 20 30 10 9 -9 12 -9 12
0 0 7 13 12 31 12 21 0 28 -4 23 -12 -6 -10 -4 -10 7 0 7 6 31 12 54 12 29 0
36 -3 25 -10 -8 -5 -10 -10 -4 -10 5 0 19 7 30 15 30 23 34 18 18 -21 -8 -20
-13 -41 -12 -46 2 -6 10 8 16 31 12 39 15 41 52 41 21 0 42 -4 45 -10 3 -5 0
-10 -8 -10 -8 0 -17 -6 -20 -14 -5 -11 -1 -11 24 1 54 27 40 38 -59 48 -50 4
-62 3 -56 -7 6 -10 5 -10 -7 -2 -8 6 -27 9 -42 7 -19 -2 -26 0 -22 7 4 7 39 9
95 7 49 -2 86 1 84 5 -3 5 -59 7 -124 6 -65 -1 -117 -5 -114 -9z m44 -8 c0
-17 -18 -21 -24 -6 -3 9 0 15 9 15 8 0 15 -4 15 -9z"/>
<path d="M1311 761 c-7 -5 -12 -14 -10 -20 2 -6 10 -2 17 9 14 22 13 23 -7 11z"/>
<path d="M2317 757 c7 -11 -17 -77 -28 -77 -5 0 -9 -4 -9 -10 0 -13 47 -13 55
0 3 6 -1 7 -9 4 -20 -8 -20 -5 0 41 13 33 18 36 42 31 56 -13 72 -13 72 0 0 8
-21 13 -64 16 -35 1 -62 0 -59 -5z"/>
<path d="M2503 755 c-3 -9 -3 -18 -1 -21 3 -3 8 4 11 16 6 23 -1 27 -10 5z"/>
<path d="M794 748 c-4 -6 -3 -8 3 -5 6 4 13 -3 16 -15 4 -12 8 -20 11 -17 8 7
-5 49 -15 49 -4 0 -11 -5 -15 -12z"/>
<path d="M2252 728 c-4 -18 -14 -34 -20 -34 -7 -1 -17 -2 -24 -3 -6 0 -9 -4
-6 -7 9 -8 78 7 78 18 0 5 -5 6 -11 2 -8 -4 -9 3 -4 25 9 41 -2 40 -13 -1z"/>
<path d="M1331 724 c0 -11 3 -14 6 -6 3 7 2 16 -1 19 -3 4 -6 -2 -5 -13z"/>
<path d="M2165 730 c-3 -5 0 -10 7 -10 10 0 9 -3 -2 -10 -8 -5 -11 -12 -7 -17
9 -8 27 15 27 35 0 14 -16 16 -25 2z"/>
<path d="M667 693 l-18 -38 20 25 c18 22 28 50 18 50 -2 0 -11 -17 -20 -37z"/>
<path d="M1245 720 c3 -5 8 -10 11 -10 2 0 4 5 4 10 0 6 -5 10 -11 10 -5 0 -7
-4 -4 -10z"/>
<path d="M1183 701 c1 -22 12 -28 21 -12 3 5 -1 14 -9 21 -11 9 -14 8 -12 -9z"/>
<path d="M2368 695 c-23 -30 -23 -42 -2 -20 11 11 25 14 44 10 17 -4 31 -1 36
6 5 8 3 9 -6 4 -10 -6 -12 -4 -7 8 4 11 1 17 -9 17 -8 0 -12 -5 -8 -11 4 -8 1
-8 -12 -1 -15 8 -23 5 -36 -13z"/>
<path d="M2478 708 c-10 -7 -10 -9 2 -7 8 1 29 0 45 -1 l30 -2 -30 -8 -30 -9
30 2 c42 3 41 32 -2 33 -17 1 -38 -3 -45 -8z"/>
<path d="M2596 711 c-3 -5 0 -11 8 -14 8 -3 16 -16 19 -29 l4 -23 2 23 c1 25
-24 58 -33 43z"/>
<path d="M1230 706 c0 -2 8 -10 18 -17 15 -13 16 -12 3 4 -13 16 -21 21 -21
13z"/>
<path d="M2820 693 c0 -7 5 -15 10 -18 14 -9 13 -55 -2 -55 -6 0 -9 -2 -6 -5
13 -13 36 8 33 32 -2 25 -35 68 -35 46z"/>
<path d="M2248 663 c7 -3 16 -2 19 1 4 3 -2 6 -13 5 -11 0 -14 -3 -6 -6z"/>
<path d="M1255 632 c17 -15 35 -27 40 -25 6 2 11 -6 12 -17 1 -11 -3 -20 -8
-20 -6 0 -7 -5 -4 -10 11 -18 33 8 28 33 -3 15 -20 30 -51 45 l-47 23 30 -29z"/>
<path d="M2208 641 c-15 -13 -15 -15 5 -32 18 -15 19 -18 5 -19 -9 0 -20 5
-23 10 -3 6 -15 10 -27 10 -15 0 -3 -13 43 -50 l64 -50 99 0 98 0 67 52 c91
71 87 66 72 81 -19 19 -380 17 -403 -2z m397 -11 c-3 -5 -10 -10 -14 -10 -5 0
-25 -16 -46 -35 -21 -19 -42 -32 -46 -29 -4 2 -10 -4 -13 -13 -5 -15 -21 -18
-108 -21 l-103 -3 21 21 c25 25 74 34 74 13 0 -9 -7 -12 -24 -7 -13 3 -26 1
-30 -4 -7 -13 85 -14 104 -2 10 6 11 10 3 10 -7 0 -13 5 -13 11 0 7 10 9 25 5
15 -4 34 0 49 9 19 13 25 13 29 3 3 -7 5 -4 4 7 -1 19 -5 20 -76 13 -115 -10
-193 -9 -186 2 3 5 0 7 -8 4 -8 -3 -18 -1 -21 4 -7 11 143 24 243 21 39 -1 74
1 78 4 11 11 65 8 58 -3z m-340 -56 c25 -16 33 -34 16 -34 -5 0 -16 7 -25 15
-8 8 -20 15 -26 15 -6 0 -8 5 -5 10 8 13 11 13 40 -6z m131 -31 c-11 -11 -17
4 -9 23 7 18 8 18 11 1 2 -10 1 -21 -2 -24z"/>
<path d="M2530 600 c0 -5 5 -10 11 -10 5 0 7 5 4 10 -3 6 -8 10 -11 10 -2 0
-4 -4 -4 -10z"/>
<path d="M1333 633 c-6 -16 14 -43 33 -43 16 0 19 26 4 35 -6 4 -8 10 -6 14 3
4 -2 8 -10 8 -9 0 -18 -6 -21 -14z"/>
<path d="M1205 630 c-3 -6 1 -7 9 -4 18 7 21 14 7 14 -6 0 -13 -4 -16 -10z"/>
<path d="M2155 630 c-3 -5 -2 -10 4 -10 5 0 13 5 16 10 3 6 2 10 -4 10 -5 0
-13 -4 -16 -10z"/>
<path d="M1840 626 c0 -2 7 -6 15 -10 8 -3 15 -1 15 4 0 6 -7 10 -15 10 -8 0
-15 -2 -15 -4z"/>
<path d="M846 605 c-9 -26 -7 -32 5 -12 6 10 9 21 6 23 -2 3 -7 -2 -11 -11z"/>
<path d="M2116 591 c5 -4 35 -27 67 -50 32 -24 61 -49 64 -57 6 -17 23 -19 22
-1 0 14 -132 117 -150 117 -8 0 -9 -3 -3 -9z"/>
<path d="M2006 583 c-11 -12 -6 -20 21 -32 15 -7 65 -37 111 -68 62 -40 81
-58 71 -64 -10 -6 -6 -9 14 -9 15 0 27 -5 27 -10 0 -11 243 -7 273 5 17 7 17
8 0 21 -19 14 -200 14 -255 -1 -22 -6 -28 -4 -28 8 0 9 -10 17 -22 19 -13 2
-23 8 -23 15 0 6 -4 15 -9 20 -5 5 -6 3 -2 -4 4 -7 3 -13 -3 -13 -10 0 -26 19
-26 32 0 3 -4 10 -9 15 -5 5 -6 3 -2 -4 4 -7 3 -13 -2 -13 -11 0 -30 21 -30
33 0 5 -4 12 -8 15 -4 4 -4 1 0 -5 11 -20 -2 -15 -48 17 -24 16 -46 26 -50 23z
m411 -169 c-10 -10 -116 -13 -122 -3 -4 5 22 9 61 9 37 0 65 -3 61 -6z m61 -1
c-10 -2 -26 -2 -35 0 -10 3 -2 5 17 5 19 0 27 -2 18 -5z"/>
<path d="M1805 570 c3 -5 8 -10 11 -10 2 0 4 5 4 10 0 6 -5 10 -11 10 -5 0 -7
-4 -4 -10z"/>
<path d="M610 528 c0 -4 4 -8 9 -8 6 0 12 4 15 8 3 5 -1 9 -9 9 -8 0 -15 -4
-15 -9z"/>
<path d="M2694 525 c-18 -14 -18 -14 4 -8 12 3 22 9 22 14 0 12 -3 11 -26 -6z"/>
<path d="M1968 518 c5 -5 16 -8 23 -6 8 3 3 7 -10 11 -17 4 -21 3 -13 -5z"/>
<path d="M1810 510 c0 -5 5 -10 10 -10 6 0 10 -6 10 -14 0 -13 -39 -30 -49
-21 -2 3 1 5 8 5 7 0 9 5 6 11 -5 6 -12 4 -21 -8 -8 -11 -13 -13 -14 -5 0 6
-7 12 -16 12 -14 0 -14 -3 -4 -15 11 -14 7 -19 -12 -16 -4 0 -6 -13 -6 -29 1
-16 5 -27 10 -24 5 3 14 1 21 -4 17 -14 59 -18 76 -8 8 5 16 4 21 -4 5 -9 9
-9 14 -1 4 6 2 11 -4 11 -6 0 -8 5 -5 10 3 6 1 10 -5 10 -13 0 -9 32 4 42 6 4
4 13 -3 22 -8 9 -10 16 -5 16 5 0 18 -13 28 -27 16 -22 17 -25 4 -20 -10 3
-19 0 -22 -9 -3 -9 -1 -12 4 -9 6 3 10 -1 10 -9 0 -11 9 -16 30 -16 17 0 30 4
30 10 0 17 -23 60 -32 60 -5 0 -7 4 -4 9 3 5 -12 16 -34 25 -47 19 -50 19 -50
6z m0 -67 c0 -3 -7 -15 -17 -25 -20 -23 -10 -24 12 -1 14 13 18 14 25 2 11
-17 11 -17 -31 -24 -30 -5 -35 -3 -34 12 0 10 4 24 9 31 8 13 36 17 36 5z"/>
<path d="M1226 491 c-4 -7 -5 -15 -2 -18 9 -9 19 4 14 18 -4 11 -6 11 -12 0z"/>
<path d="M2102 477 c10 -8 14 -18 10 -22 -4 -5 -1 -5 6 -1 17 10 15 14 -10 26
-21 10 -21 10 -6 -3z"/>
<path d="M2311 454 c0 -11 3 -14 6 -6 3 7 2 16 -1 19 -3 4 -6 -2 -5 -13z"/>
<path d="M2331 454 c0 -11 3 -14 6 -6 3 7 2 16 -1 19 -3 4 -6 -2 -5 -13z"/>
<path d="M2160 438 c25 -24 38 -29 25 -9 -3 6 -16 16 -28 22 -20 11 -20 9 3
-13z"/>
<path d="M2285 450 c-3 -5 -1 -10 4 -10 6 0 11 5 11 10 0 6 -2 10 -4 10 -3 0
-8 -4 -11 -10z"/>
<path d="M600 426 c0 -9 5 -16 10 -16 6 0 10 4 10 9 0 6 -4 13 -10 16 -5 3
-10 -1 -10 -9z"/>
<path d="M272 419 c-29 -4 -58 -12 -65 -18 -9 -7 -17 -7 -23 -1 -17 17 -184
17 -184 0 0 -6 37 -10 90 -10 50 0 90 -3 90 -6 0 -3 -4 -13 -10 -23 -7 -15
-24 -18 -87 -20 -43 -1 -79 -4 -82 -7 -12 -11 14 -16 81 -14 40 1 129 3 197 5
106 2 126 5 138 21 16 22 17 49 1 62 -18 13 -82 18 -146 11z m138 -28 c0 -37
-12 -41 -111 -41 -95 0 -99 1 -89 19 5 11 22 22 37 24 55 8 163 7 163 -2z"/>
<path d="M720 421 c-8 -6 -18 -7 -22 -5 -4 3 -8 0 -8 -5 0 -16 26 -13 40 4 14
17 11 19 -10 6z"/>
<path d="M750 401 c-12 -24 -13 -31 -1 -31 5 0 11 11 13 25 6 30 2 32 -12 6z"/>
<path d="M2891 416 c8 -8 79 -14 79 -7 0 4 -19 8 -42 9 -23 1 -39 0 -37 -2z"/>
<path d="M2585 169 c-4 -6 -5 -12 -2 -15 2 -3 7 2 10 11 7 17 1 20 -8 4z"/>
<path d="M2450 150 c0 -5 5 -10 11 -10 5 0 7 5 4 10 -3 6 -8 10 -11 10 -2 0
-4 -4 -4 -10z"/>
<path d="M2578 73 c7 -3 16 -2 19 1 4 3 -2 6 -13 5 -11 0 -14 -3 -6 -6z"/>
</g>
</svg>
