<?xml version="1.0" standalone="no"?>
<!DOCTYPE svg PUBLIC "-//W3C//DTD SVG 20010904//EN"
 "http://www.w3.org/TR/2001/REC-SVG-20010904/DTD/svg10.dtd">
<svg version="1.0" xmlns="http://www.w3.org/2000/svg"
 width="1350.000000pt" height="198.000000pt" viewBox="0 0 1350.000000 198.000000"
 preserveAspectRatio="xMidYMid meet">
<metadata>
Created by potrace 1.10, written by Peter Selinger 2001-2011
</metadata>
<g transform="translate(0.000000,198.000000) scale(0.100000,-0.100000)"
fill="#000000" stroke="none">
<path d="M0 1900 c0 -102 16 -133 65 -124 42 8 89 -20 76 -45 -5 -9 -11 -39
-15 -67 -6 -48 -5 -51 19 -62 14 -7 37 -12 50 -12 14 0 25 -6 25 -13 0 -27
-22 -35 -79 -31 -89 8 -100 13 -121 47 -20 32 -20 32 -20 -730 0 -735 1 -763
18 -763 11 0 34 -7 51 -16 36 -18 64 -14 196 26 39 12 80 24 92 27 35 8 71 -5
78 -30 11 -34 46 -67 72 -67 21 0 23 4 23 53 0 66 8 94 28 102 25 9 37 -12 13
-24 -26 -15 -27 -35 -1 -76 l20 -33 -20 -5 c-28 -7 -25 -26 6 -37 32 -12 233
-2 252 13 9 7 18 5 30 -6 26 -23 189 -13 216 13 16 16 17 22 7 34 -13 16 -9
46 6 46 4 0 14 -12 20 -27 10 -20 10 -29 2 -34 -20 -12 -1 -39 28 -40 15 0 86
-1 157 -2 l129 -2 22 40 c15 26 39 48 69 64 47 24 55 43 20 49 -10 2 -23 7
-27 12 -9 8 20 107 34 116 5 3 9 13 9 23 0 20 30 51 48 51 8 0 12 -18 12 -47
1 -27 7 -59 14 -72 15 -28 10 -158 -7 -180 -6 -7 -21 -17 -34 -22 -37 -14 -27
-29 20 -29 118 -1 176 0 217 2 l45 3 8 55 c4 30 12 59 17 64 5 5 5 16 -1 27
-7 14 -5 21 12 30 34 18 42 -1 28 -71 l-12 -62 29 -24 c21 -17 42 -23 77 -24
26 0 47 4 47 9 0 5 -16 19 -35 31 -34 21 -35 24 -35 80 0 48 3 59 18 62 9 2
169 2 355 0 310 -4 341 -3 378 13 24 11 43 15 49 9 5 -5 10 -37 12 -72 l3 -63
-55 -24 c-54 -23 -81 -47 -67 -61 3 -4 32 5 63 20 65 31 88 30 92 -2 l3 -22
295 0 c279 0 294 1 294 18 0 11 9 27 19 36 26 24 241 126 266 126 16 0 17 2 5
10 -28 18 -79 10 -147 -25 -81 -41 -91 -36 -75 36 7 28 12 66 12 84 0 19 5 37
12 41 7 5 5 11 -7 21 -27 19 -6 39 24 24 12 -7 21 -16 21 -22 0 -5 35 -9 88
-7 125 3 365 -42 394 -74 33 -36 13 -48 -86 -50 l-91 -2 94 -5 95 -6 12 -55
c7 -30 13 -76 14 -102 l0 -48 185 0 185 0 0 49 c0 28 5 53 12 57 7 4 31 -15
62 -49 l51 -57 272 0 273 0 -12 28 c-31 77 -48 107 -93 167 -17 22 -36 52 -43
68 -6 15 -16 27 -21 27 -13 0 -112 120 -106 130 3 4 20 11 38 14 25 5 39 16
55 45 12 21 22 45 22 53 0 7 9 21 20 31 23 20 22 10 24 197 l1 145 55 7 c30 3
110 6 176 7 92 1 124 4 133 15 10 12 15 187 10 326 -3 67 5 299 10 306 3 5 22
9 42 10 19 0 43 3 53 7 15 6 16 10 6 22 -10 12 -10 21 -2 38 5 12 13 29 15 38
5 14 27 18 124 24 65 3 129 10 143 15 31 12 351 22 366 12 13 -9 10 -88 -5
-128 -14 -37 -40 -47 -75 -29 -24 13 -27 11 -46 -15 -11 -15 -20 -36 -20 -47
0 -10 -6 -30 -14 -45 -25 -47 -56 -138 -56 -163 0 -32 46 -73 90 -81 19 -4 38
-8 42 -11 10 -6 -12 -54 -39 -84 -13 -14 -23 -34 -23 -45 0 -11 -14 -36 -30
-54 -20 -23 -27 -37 -20 -44 25 -25 7 -89 -37 -134 -7 -7 -20 -39 -29 -70 -16
-58 -60 -136 -101 -180 -27 -29 -29 -45 -8 -62 13 -11 25 -7 70 25 48 33 55
42 55 71 0 55 17 84 98 164 42 43 90 94 105 114 16 20 34 36 39 36 6 0 30 16
54 35 23 19 46 35 51 35 14 0 43 -67 43 -100 0 -24 6 -31 45 -45 41 -16 46
-22 60 -70 8 -29 15 -56 15 -60 0 -4 14 -24 30 -45 17 -21 30 -42 30 -48 0 -5
13 -25 30 -43 16 -19 28 -38 27 -42 -1 -5 -41 -24 -87 -43 -47 -19 -94 -39
-105 -43 -11 -5 -40 -16 -65 -26 -64 -25 -92 -37 -213 -95 -121 -58 -121 -58
-322 -24 -113 19 -249 42 -296 49 -29 4 -38 2 -43 -12 -11 -27 15 -41 99 -52
113 -14 209 -30 286 -47 87 -18 162 -18 207 2 21 8 51 21 67 28 17 7 46 20 65
28 19 9 60 26 90 38 30 12 119 53 196 91 78 38 144 69 147 69 3 0 29 -30 56
-67 58 -77 66 -117 29 -149 -25 -21 -91 -54 -111 -54 -14 -1 -57 -35 -57 -45
0 -4 30 -4 68 -1 72 6 78 6 192 3 l75 -2 0 52 c1 62 7 70 39 55 16 -7 29 -25
37 -52 7 -23 20 -45 28 -49 9 -5 230 -9 491 -10 l475 -1 -45 39 c-53 45 -58
51 -110 114 -22 27 -40 52 -40 57 0 4 -16 27 -35 50 -19 23 -35 52 -35 65 0
13 -4 26 -9 29 -10 7 11 92 27 108 7 7 12 17 12 23 0 5 10 23 23 38 l23 29 79
-10 c44 -6 125 -16 180 -23 155 -18 145 -9 145 -141 0 -76 5 -122 14 -139 11
-22 11 -30 0 -50 -7 -13 -13 -44 -14 -68 l0 -43 43 6 c23 3 110 10 192 16 83
5 220 16 305 24 298 29 285 29 335 -13 45 -37 54 -58 33 -79 -13 -13 5 -42 28
-42 26 0 24 -20 -10 -76 -19 -32 -33 -61 -30 -66 3 -4 408 -8 900 -8 708 0
894 3 895 13 4 72 -2 318 -9 337 l-9 24 -7 -30 c-4 -16 -12 -35 -18 -41 -17
-20 -54 -15 -71 9 -8 13 -32 41 -53 62 -34 35 -38 44 -35 83 1 25 9 68 16 96
11 44 11 56 -1 79 -16 31 -28 34 -64 13 -14 -7 -37 -11 -51 -8 -15 3 -36 0
-47 -6 -15 -8 -23 -7 -32 5 -11 13 -15 12 -32 -6 -18 -20 -30 -24 -55 -21 -7
1 -30 -16 -51 -39 -22 -22 -48 -40 -60 -40 -11 0 -27 -8 -34 -18 -12 -17 -49
-42 -62 -42 -2 0 -6 10 -8 23 -2 17 -11 23 -37 27 -49 7 -60 30 -32 69 26 36
23 39 -56 44 -29 2 -62 11 -75 19 -13 8 -39 18 -58 22 -19 3 -43 15 -55 26
-24 22 -91 29 -120 11 -16 -10 -27 -9 -57 3 -21 9 -38 19 -38 22 0 15 42 74
53 74 6 0 19 -8 29 -17 16 -14 20 -14 31 -2 6 8 38 32 70 53 64 43 87 70 87
101 0 21 35 49 50 40 22 -14 60 19 75 66 17 49 37 63 49 33 11 -28 6 -51 -14
-69 -26 -24 -25 -50 2 -69 29 -20 97 -21 125 -1 12 9 50 17 85 20 35 2 83 9
108 15 128 30 154 26 176 -25 l14 -34 82 -3 83 -3 5 -30 c5 -26 10 -30 35 -28
16 1 42 11 57 23 15 11 37 20 50 21 13 0 32 4 43 9 19 7 18 8 -5 14 -14 3 -34
5 -45 3 -20 -2 -20 4 -20 268 l0 270 35 6 c19 3 91 18 160 32 94 19 172 27
315 32 105 4 198 11 207 16 27 14 68 55 68 68 0 6 17 11 40 11 31 0 48 7 77
34 21 18 65 48 97 67 50 28 72 33 141 37 101 5 128 -6 123 -51 -2 -27 1 -33
20 -35 26 -4 29 13 5 27 -14 8 -15 12 -6 22 10 10 19 8 45 -11 25 -18 34 -21
47 -11 9 6 26 16 39 23 12 6 25 21 28 32 7 31 64 66 106 66 41 0 88 -32 88
-61 0 -14 -7 -19 -27 -19 -16 -1 -45 -7 -65 -14 -27 -10 -40 -10 -48 -2 -8 8
-15 6 -24 -6 -7 -10 -20 -18 -28 -18 -23 0 -29 -12 -16 -28 13 -15 36 -71 45
-109 4 -19 1 -23 -20 -23 -17 0 -31 -8 -38 -22 -7 -13 -21 -29 -31 -36 -16
-11 -17 -16 -6 -29 22 -27 -17 -44 -98 -41 -57 2 -76 -1 -91 -14 -20 -19 -53
-24 -53 -10 0 5 9 17 20 27 25 23 25 35 1 35 -11 0 -29 -12 -40 -26 -20 -25
-24 -26 -79 -19 -110 16 -144 7 -163 -42 -7 -18 -16 -23 -45 -23 -33 0 -45 8
-104 70 -64 67 -99 85 -115 60 -3 -5 -15 -10 -26 -10 -23 0 -25 -19 -2 -35 15
-11 15 -13 -5 -24 -12 -6 -22 -18 -22 -26 0 -21 -27 -19 -46 4 -16 18 -17 18
-49 0 -46 -28 -129 -149 -147 -217 -6 -20 -11 -65 -13 -100 -3 -65 -16 -92
-43 -92 -13 0 -12 -3 2 -19 10 -11 15 -25 11 -30 -12 -20 5 -49 34 -59 27 -9
28 -13 39 -118 17 -159 14 -217 -20 -304 -7 -17 -6 -26 1 -28 26 -9 6 -42 -68
-115 -49 -48 -77 -70 -74 -58 7 29 -16 27 -45 -3 -14 -15 -20 -30 -16 -41 5
-11 1 -21 -9 -27 -10 -5 -17 -18 -17 -29 0 -11 -7 -22 -15 -25 -35 -14 -8 -21
93 -27 111 -6 152 4 152 37 0 8 14 26 30 39 17 14 30 30 30 36 0 5 25 31 55
57 33 28 66 68 81 98 49 97 57 111 89 156 30 42 66 112 79 153 7 23 29 21 63
-5 48 -39 92 -68 101 -68 5 0 15 -7 22 -15 15 -18 -1 -115 -36 -221 -31 -92
-31 -118 1 -132 14 -7 32 -12 39 -12 8 0 19 -7 26 -15 11 -13 7 -15 -28 -15
-47 0 -76 -24 -42 -35 27 -8 107 3 115 16 4 5 91 9 203 9 182 0 200 -2 237
-21 37 -20 43 -21 145 -9 129 16 191 9 205 -23 9 -19 20 -23 85 -27 98 -7 182
-1 177 13 -2 7 -14 14 -28 18 l-24 6 27 7 c34 10 67 -1 95 -30 12 -13 27 -24
32 -24 5 0 25 19 43 41 58 73 75 88 94 83 31 -7 48 10 35 34 -22 41 -16 44 87
42 86 -2 186 11 201 25 11 12 -20 28 -66 32 -26 3 -53 11 -58 18 -6 6 -21 16
-35 20 -57 17 -70 59 -21 68 17 4 32 14 36 26 3 11 16 23 28 26 53 15 90 42
108 79 23 48 23 58 3 98 -29 56 -51 67 -135 68 -84 0 -99 8 -102 57 -2 23 3
29 22 31 13 2 39 -4 57 -12 19 -9 51 -24 71 -33 21 -9 45 -20 53 -25 8 -4 22
-11 30 -14 8 -3 29 -11 45 -18 102 -45 105 -45 105 -6 0 23 -5 30 -19 30 -11
0 -23 4 -26 10 -3 5 -15 10 -25 10 -11 0 -36 7 -57 16 -69 30 -78 34 -148 60
-87 32 -96 40 -141 128 -41 78 -53 166 -28 187 8 6 14 17 14 23 0 9 188 235
234 281 36 37 108 85 125 85 27 0 38 -20 17 -32 -33 -19 -13 -48 35 -48 18 0
19 10 19 225 l0 225 -1145 0 -1145 0 0 -35 0 -36 -82 3 -82 3 -10 33 -9 32
-2490 0 -2490 0 7 -55 c5 -45 3 -57 -9 -61 -27 -11 -45 16 -45 67 l0 49 -1740
0 c-1553 0 -1740 -2 -1740 -15 0 -22 -48 -39 -66 -24 -8 6 -14 18 -14 25 0 12
-141 14 -910 14 -797 0 -910 -2 -910 -15 0 -8 -4 -15 -10 -15 -5 0 -10 7 -10
15 0 13 -40 15 -300 15 l-300 0 0 -80z m832 43 c23 -20 23 -51 1 -75 -16 -18
-17 -18 -40 4 -27 25 -29 45 -6 70 20 22 22 22 45 1z m838 -37 c0 -8 -4 -18
-10 -21 -5 -3 -10 -4 -10 -1 0 2 -3 11 -6 20 -4 11 -1 16 10 16 9 0 16 -6 16
-14z m4702 -94 c21 -20 37 -41 38 -46 0 -4 -37 -6 -83 -5 -103 5 -147 27 -124
62 32 49 115 43 169 -11z m2819 14 c59 -24 119 -86 126 -128 l5 -36 -43 -7
c-24 -3 -57 -6 -74 -5 -48 1 -103 0 -132 -1 -30 -2 -153 40 -165 56 -17 22 -7
54 23 76 80 57 112 69 169 64 31 -2 72 -11 91 -19z m-4319 -40 c25 -19 48 -42
52 -51 19 -49 -11 -82 -64 -70 -16 4 -39 3 -51 0 l-21 -7 21 -15 c12 -8 19
-19 16 -24 -11 -17 -52 -9 -68 14 l-16 22 -19 -23 c-15 -20 -24 -23 -55 -17
-32 6 -36 10 -31 29 4 17 -1 27 -20 40 -15 9 -26 26 -26 38 0 24 36 68 56 68
6 0 17 7 24 15 9 11 33 15 85 15 67 0 75 -3 117 -34z m2181 -103 c-11 -65 -18
-135 -16 -155 5 -33 10 -39 47 -52 22 -9 67 -18 99 -20 59 -3 73 -8 64 -23 -8
-13 -163 -8 -179 5 -8 6 -65 18 -128 26 -63 9 -129 19 -147 22 -24 5 -36 1
-53 -16 -20 -20 -29 -22 -79 -16 -41 5 -61 12 -76 29 -13 15 -41 28 -77 36
-45 10 -58 17 -63 34 -3 12 -11 39 -17 59 -7 25 -8 48 -2 70 l10 33 106 -4
c60 -2 108 1 111 6 8 13 148 14 211 2 37 -7 57 -17 76 -41 23 -27 29 -29 48
-19 17 9 22 21 22 51 0 45 37 117 52 102 7 -7 3 -52 -9 -129z m5864 102 c3 -9
4 -18 1 -20 -8 -8 -78 8 -72 16 3 5 9 7 13 5 4 -3 13 -1 21 5 21 13 30 11 37
-6z m93 -10 c0 -8 -7 -15 -15 -15 -8 0 -15 7 -15 15 0 8 7 15 15 15 8 0 15 -7
15 -15z m-35 -95 c5 -22 17 -36 42 -48 37 -17 70 -71 37 -58 -8 3 -26 6 -39 6
-16 0 -25 7 -29 25 -4 17 -15 26 -34 30 -15 3 -43 11 -62 17 -19 6 -56 11 -82
11 -27 0 -48 3 -48 7 0 12 28 32 37 27 6 -3 138 6 165 12 3 0 9 -13 13 -29z
m-441 1 c3 -5 -1 -14 -9 -21 -13 -10 -15 -9 -15 9 0 21 14 28 24 12z m206 -6
c0 -8 -6 -15 -14 -15 -17 0 -28 14 -19 24 12 12 33 6 33 -9z m-8882 -33 c3
-16 -2 -22 -17 -22 -24 0 -35 15 -27 36 9 23 40 13 44 -14z m1610 16 c-7 -20
-68 -23 -68 -4 0 12 10 16 36 16 24 0 34 -4 32 -12z m7479 -57 c3 -11 12 -22
20 -25 21 -8 6 -26 -22 -26 -19 0 -26 -7 -30 -27 -15 -72 -27 -101 -50 -123
-26 -25 -33 -56 -13 -62 12 -4 -52 -150 -71 -163 -6 -3 -11 -19 -11 -34 0 -39
-27 -101 -44 -101 -13 0 -86 101 -86 119 0 5 -16 12 -35 15 -28 6 -38 14 -49
40 -8 19 -30 52 -50 74 -20 22 -36 50 -36 63 -1 13 -18 43 -39 66 -34 38 -42
42 -70 37 -35 -7 -55 5 -78 49 -11 22 -12 32 -3 41 8 8 14 7 23 -5 7 -9 23
-22 36 -29 23 -12 27 -10 58 23 61 67 59 66 283 68 113 1 214 5 225 10 31 12
36 11 42 -10z m-5508 -70 c29 -22 25 -53 -9 -61 -20 -5 -26 -14 -31 -45 -8
-49 -5 -55 31 -55 21 0 33 8 47 30 9 17 23 30 30 30 20 0 28 -30 15 -51 -7
-10 -12 -31 -12 -47 0 -24 6 -30 49 -45 27 -9 65 -17 85 -17 30 0 38 5 48 28
7 15 28 45 47 67 37 42 52 45 103 20 15 -7 42 -17 60 -20 18 -4 38 -11 43 -15
6 -4 25 -11 44 -15 19 -4 48 -15 65 -25 l31 -17 3 -186 c2 -146 0 -187 -10
-186 -7 0 -51 58 -97 130 -47 72 -91 129 -100 130 -43 2 -78 12 -94 27 -15 13
-21 14 -35 4 -9 -7 -29 -18 -44 -25 -16 -6 -28 -17 -28 -23 0 -19 -50 -54 -75
-54 -28 0 -36 18 -29 62 3 20 0 40 -9 52 -14 19 -16 19 -50 3 -19 -10 -45 -30
-56 -45 -16 -22 -22 -25 -32 -14 -18 17 -38 15 -86 -10 -40 -21 -44 -22 -98
-8 -31 8 -56 20 -56 25 0 6 21 12 46 15 46 5 94 35 79 50 -5 4 -43 15 -84 23
-77 16 -110 10 -110 -17 0 -28 -74 -102 -138 -139 -36 -21 -79 -49 -95 -63
-33 -28 -52 -31 -61 -8 -11 30 -31 7 -37 -42 -8 -67 10 -104 54 -105 58 -2 69
2 142 57 39 30 77 54 83 54 8 0 12 -29 12 -94 0 -93 -1 -95 -29 -115 -16 -12
-34 -21 -41 -21 -7 0 -24 -6 -38 -13 -26 -14 -76 -36 -137 -62 -16 -7 -60 -26
-97 -44 -37 -17 -74 -31 -82 -31 -8 0 -30 19 -50 41 -39 47 -64 117 -76 224
-12 94 -38 226 -50 247 -6 10 -10 30 -10 45 0 16 -4 34 -9 42 -18 28 36 146
82 176 24 15 30 15 197 -18 l64 -13 1 -65 c0 -41 5 -72 14 -82 8 -11 11 -28 7
-47 -4 -25 -2 -30 14 -30 10 0 22 5 26 12 5 8 11 6 20 -6 10 -14 17 -15 32 -7
59 32 102 127 83 184 -12 33 0 52 27 42 8 -3 18 -5 23 -5 5 0 9 -11 9 -25 0
-32 26 -33 50 -2 10 12 38 33 63 47 44 23 47 23 65 7 18 -17 84 -23 116 -11
13 5 12 10 -7 36 -12 16 -21 40 -19 54 2 16 -1 24 -12 24 -28 0 -17 20 15 27
17 3 33 12 36 19 7 19 44 17 72 -5z m2835 -22 c19 -23 26 -42 26 -75 l0 -44
-39 26 c-32 21 -46 24 -76 18 -30 -5 -37 -4 -33 7 3 9 17 13 37 11 31 -2 31
-1 31 43 0 55 17 59 54 14z m-9195 11 c46 -13 81 -48 81 -80 0 -14 5 -31 12
-38 9 -9 7 -13 -6 -18 -17 -7 -46 2 -134 42 -29 13 -57 24 -62 24 -18 0 -20
20 -5 44 23 35 57 43 114 26z m11930 -4 c12 -15 5 -46 -11 -46 -12 0 -38 26
-38 38 0 9 15 19 31 21 4 1 12 -5 18 -13z m-11579 -6 c0 -5 -16 -25 -35 -45
-33 -32 -55 -44 -55 -29 0 9 74 83 83 84 4 0 7 -4 7 -10z m3314 -16 c10 -27 7
-34 -18 -34 -29 0 -39 12 -30 34 8 21 40 21 48 0z m5396 -23 c0 -16 -20 -23
-46 -17 -36 9 -29 26 11 26 19 0 35 -4 35 -9z m-6410 -27 c0 -31 -23 -28 -28
4 -2 15 2 22 12 22 11 0 16 -9 16 -26z m6310 -10 c0 -28 -15 -32 -29 -6 -7 13
-7 22 1 30 16 16 28 5 28 -24z m-9570 -26 c0 -38 -3 -49 -10 -38 -13 20 -13
90 0 90 6 0 10 -24 10 -52z m4065 42 c3 -5 0 -18 -6 -28 -10 -17 -8 -25 12
-50 13 -17 32 -32 42 -35 19 -6 23 -27 5 -27 -7 1 -24 7 -38 15 -31 18 -67 19
-72 3 -3 -8 -13 -6 -34 8 -27 19 -34 20 -99 9 -38 -7 -72 -11 -74 -9 -12 10
13 31 55 47 27 10 76 32 109 48 63 30 90 36 100 19z m5450 0 c6 -10 -75 -53
-84 -44 -8 8 47 54 64 54 8 0 16 -4 20 -10z m-6189 -74 c-7 -42 -25 -64 -27
-33 -2 25 3 82 8 90 13 22 25 -15 19 -57z m-1972 35 c10 -11 16 -28 14 -38 -3
-15 -12 -18 -61 -15 -54 2 -57 1 -57 -21 0 -13 5 -28 12 -35 9 -9 7 -13 -6
-18 -11 -4 -25 1 -38 14 -20 20 -20 20 -1 31 18 9 29 29 47 84 8 24 68 23 90
-2z m7354 -63 c-19 -11 -76 -10 -83 2 -4 6 4 19 16 29 23 18 24 18 51 -2 20
-15 25 -23 16 -29z m-945 30 c7 -21 -4 -38 -23 -38 -23 0 -32 13 -24 34 7 19
40 21 47 4z m2057 -54 c-16 -18 -29 -18 -36 1 -4 9 4 23 17 34 24 19 24 19 27
0 2 -11 -2 -27 -8 -35z m-781 4 c53 -35 67 -39 82 -30 26 17 114 15 182 -3 32
-8 69 -15 83 -15 17 0 27 -8 34 -24 5 -13 14 -27 19 -31 6 -3 11 -16 11 -27 0
-18 -4 -17 -35 15 -40 41 -85 49 -116 21 -25 -23 -52 -11 -44 18 4 13 3 18 -2
12 -12 -17 -82 -44 -112 -43 -14 0 -57 8 -96 18 -53 13 -71 22 -74 37 -4 27
-28 51 -57 58 -42 11 -29 36 19 36 33 0 56 -9 106 -42z m-8602 14 c18 -12 27
-60 13 -77 -28 -34 -90 -7 -90 40 0 35 46 57 77 37z m5203 -17 c0 -8 -7 -15
-15 -15 -8 0 -15 7 -15 15 0 8 7 15 15 15 8 0 15 -7 15 -15z m-4646 -15 c17
-17 -5 -40 -60 -65 -31 -14 -63 -25 -70 -25 -7 0 -18 -9 -24 -20 -6 -11 -19
-20 -29 -20 -22 0 -56 -36 -66 -70 -9 -28 -53 -90 -65 -90 -9 0 -50 75 -50 90
0 34 115 110 168 110 20 0 44 15 87 55 59 54 81 61 109 35z m2323 -17 c-3 -10
-8 -30 -11 -44 -6 -27 -36 -42 -62 -32 -11 4 -13 14 -8 37 9 44 13 48 40 42
14 -4 24 -2 24 4 0 5 5 10 11 10 6 0 8 -8 6 -17z m1196 -14 c31 -26 37 -38 37
-70 0 -37 -12 -51 -25 -30 -3 5 -18 12 -35 16 -16 3 -41 16 -56 27 l-26 21 7
-44 c4 -24 8 -48 9 -53 2 -14 -54 -30 -66 -18 -14 14 9 89 31 101 10 6 29 26
42 45 13 20 29 36 35 36 6 0 27 -14 47 -31z m7294 10 c53 -25 86 -65 80 -96
-3 -15 1 -23 9 -23 12 0 134 -113 134 -124 0 -2 -39 -6 -87 -8 -92 -5 -123 5
-179 54 -11 10 -27 16 -35 13 -8 -2 -25 4 -39 15 -21 16 -23 22 -13 38 6 11 8
23 3 28 -4 5 -11 27 -14 49 -7 39 -6 40 31 57 51 22 60 21 110 -3z m-6090 -36
c-3 -10 -5 -2 -5 17 0 19 2 27 5 18 2 -10 2 -26 0 -35z m728 27 c0 -22 -29
-18 -33 3 -3 14 1 18 15 15 10 -2 18 -10 18 -18z m1961 12 c6 -4 16 -20 21
-37 6 -16 14 -38 18 -47 7 -18 -20 -33 -104 -59 -43 -13 -44 -13 -67 16 -18
23 -21 33 -12 49 16 32 60 65 86 66 12 0 22 5 22 10 0 12 20 13 36 2z m-4199
-17 c6 -18 -23 -55 -44 -55 -17 0 -17 15 3 45 19 29 32 32 41 10z m2183 0 c0
-8 -7 -15 -15 -15 -16 0 -20 12 -8 23 11 12 23 8 23 -8z m3300 -29 c0 -12 5
-27 12 -34 22 -22 -16 -14 -40 8 -24 23 -29 46 -9 53 21 7 37 -4 37 -27z
m-9650 -19 c17 -8 37 -25 44 -38 11 -23 15 -24 153 -27 l142 -3 27 31 c31 34
51 27 33 -13 -14 -31 -6 -70 20 -96 27 -27 38 -50 46 -98 5 -35 4 -43 -14 -52
-11 -6 -34 -11 -51 -11 -26 0 -33 6 -45 34 -21 51 -62 79 -105 72 -82 -12
-103 -19 -107 -37 -6 -21 -20 -23 -57 -9 -32 12 -43 -3 -26 -35 9 -16 9 -32 3
-52 -14 -42 -35 -39 -58 9 -15 31 -28 44 -52 50 -48 12 -56 36 -30 86 20 40
41 54 49 31 5 -15 58 7 58 24 0 7 -15 27 -32 44 -61 57 -67 70 -46 91 15 15 9
15 48 -1z m2632 -49 c8 -94 3 -171 -10 -176 -13 -4 -17 -42 -4 -42 4 1 16 15
27 33 14 22 28 32 45 32 39 0 27 -28 -45 -100 -69 -69 -72 -70 -147 -35 -34
16 -35 25 -2 86 19 36 24 57 20 84 -6 41 22 111 61 153 40 41 49 35 55 -35z
m6508 3 c0 -10 -9 -29 -19 -42 -14 -17 -16 -29 -10 -41 11 -21 -4 -32 -35 -24
-16 4 -29 -1 -41 -14 -29 -32 -45 -25 -45 18 1 31 6 40 36 60 20 12 42 22 50
22 8 0 22 9 31 20 22 25 33 25 33 1z m-9204 -40 c-9 -14 -33 -14 -41 -1 -4 6
-1 18 6 26 11 13 14 13 27 0 8 -8 11 -19 8 -25z m1555 -7 c-27 -44 -28 -49
-16 -94 7 -25 20 -59 30 -74 12 -18 15 -30 8 -37 -15 -15 -57 5 -76 35 -10 14
-24 26 -32 26 -21 0 -37 36 -33 73 2 24 8 33 26 35 36 5 26 30 -13 34 -64 6
-37 23 37 24 46 0 73 5 76 12 2 7 8 12 13 12 5 0 -4 -21 -20 -46z m1844 5 c5
-5 17 -9 26 -9 41 0 152 -71 136 -87 -3 -3 -20 0 -39 5 -58 18 -152 31 -180
25 -38 -7 -63 31 -48 74 l11 30 42 -14 c23 -8 46 -19 52 -24z m6409 26 c5 -15
-9 -65 -19 -65 -2 0 -14 8 -25 17 -20 17 -26 44 -13 56 12 13 51 7 57 -8z
m-7934 -10 c0 -11 -11 -15 -40 -15 -38 0 -49 8 -33 23 3 4 21 7 40 7 23 0 33
-5 33 -15z m1966 -3 c28 -19 25 -72 -3 -72 -10 0 -14 7 -10 20 3 11 1 23 -4
26 -11 6 -12 34 -1 34 4 0 12 -4 18 -8z m417 -3 c18 -1 16 -2 -7 -9 -31 -10
-46 -6 -46 12 0 5 7 7 16 4 9 -3 25 -6 37 -7z m-123 -13 c0 -8 -4 -18 -10 -21
-5 -3 -10 -4 -10 -1 0 2 -3 11 -6 20 -4 11 -1 16 10 16 9 0 16 -6 16 -14z
m4356 -17 c12 -24 13 -37 5 -58 -6 -14 -10 -39 -8 -56 2 -27 -1 -30 -23 -27
-14 1 -33 11 -42 22 -9 11 -20 20 -25 19 -20 -4 -22 3 -9 29 13 26 75 102 83
102 1 0 10 -14 19 -31z m2512 -83 c3 -21 -1 -26 -18 -26 -21 0 -41 35 -33 57
8 21 48 -2 51 -31z m-6843 18 c30 -20 31 -31 4 -64 l-21 -25 5 37 c5 32 3 37
-15 40 -25 4 -37 28 -13 28 8 0 27 -7 40 -16z m3259 -36 c8 -11 34 -42 58 -67
24 -25 49 -58 56 -73 6 -16 17 -28 24 -28 7 0 19 -9 25 -20 11 -17 10 -21 -8
-30 -24 -13 -49 -7 -49 12 0 17 -36 48 -55 48 -22 0 -18 -18 6 -31 19 -9 19
-13 7 -25 -18 -19 -42 -10 -56 21 -6 13 -20 26 -31 30 -27 8 -27 26 1 49 20
17 22 17 33 2 14 -19 59 -22 53 -3 -3 6 -14 13 -26 15 -12 2 -22 9 -22 15 -1
16 -49 51 -58 42 -4 -4 1 -12 11 -19 23 -17 22 -36 -2 -36 -20 0 -39 48 -23
59 5 3 12 18 16 34 8 33 20 34 40 5z m-5743 -10 c28 -35 24 -56 -6 -28 -14 13
-25 29 -25 37 0 19 9 16 31 -9z m3049 13 c0 -9 -24 -21 -41 -21 -5 0 -9 7 -9
15 0 9 9 15 25 15 14 0 25 -4 25 -9z m6832 -18 c10 -9 18 -30 18 -49 0 -18 5
-45 11 -61 22 -55 38 -138 28 -147 -6 -6 -28 -5 -61 2 -29 7 -65 15 -81 19
-15 3 -29 8 -31 12 -7 11 18 93 46 151 14 30 29 63 32 73 7 21 14 21 38 0z
m587 -62 c39 -39 80 -73 91 -76 22 -7 55 -68 45 -84 -3 -6 -14 -11 -24 -11
-23 0 -45 -25 -36 -41 5 -8 1 -9 -14 -4 -12 4 -21 2 -21 -4 0 -6 7 -11 15 -11
11 0 12 -5 6 -22 -9 -25 -17 -25 -73 -6 -41 14 -50 28 -18 28 25 0 25 4 0 38
-19 26 -26 28 -76 25 -66 -3 -70 -5 -77 -42 -4 -19 -15 -32 -29 -37 -30 -10
-45 -7 -80 19 -26 19 -27 23 -13 33 10 8 12 14 6 19 -23 13 -9 45 34 82 26 21
52 50 59 65 13 24 12 29 -10 49 -43 40 -32 49 60 49 l83 0 72 -69z m-11201 27
c-3 -36 -31 -50 -42 -22 -10 26 3 54 25 54 17 0 20 -6 17 -32z m2945 -5 c-7
-42 -17 -53 -50 -53 -14 0 -23 6 -23 16 0 25 40 74 60 74 16 0 18 -5 13 -37z
m513 -1 c-3 -5 -15 -12 -26 -15 -25 -6 -27 18 -2 32 18 11 38 -1 28 -17z
m3986 13 c0 -5 -5 -11 -11 -13 -6 -2 -11 4 -11 13 0 9 5 15 11 13 6 -2 11 -8
11 -13z m2835 -20 c76 -19 86 -30 64 -73 -5 -9 -12 -25 -15 -35 -5 -16 -16
-17 -88 -15 l-83 3 1 59 c2 63 22 93 54 80 8 -4 38 -12 67 -19z m1293 -5 c21
-21 19 -30 -17 -79 -2 -2 -12 4 -23 14 -18 17 -21 17 -46 1 -24 -17 -27 -17
-45 0 -18 16 -18 18 -2 36 9 10 34 21 55 24 21 4 38 10 38 15 0 15 19 10 40
-11z m-8160 -27 c-1 -20 -56 -68 -64 -55 -7 12 34 62 51 62 7 0 13 -3 13 -7z
m-1900 -31 c0 -24 -35 -52 -64 -52 -17 0 -29 -9 -39 -30 l-15 -29 29 6 c29 5
29 5 29 -45 0 -27 -7 -80 -15 -118 -9 -38 -19 -134 -23 -214 -7 -139 -8 -145
-29 -148 -12 -2 -27 -10 -33 -18 -7 -8 -21 -14 -31 -14 -15 0 -19 8 -20 38 -1
20 -2 46 -3 56 -2 33 -26 31 -26 -3 0 -36 -13 -46 -41 -30 -19 10 -21 17 -15
56 7 55 20 73 52 73 13 0 25 1 26 3 2 3 17 340 17 398 0 50 19 76 47 65 9 -4
22 -2 28 3 10 8 29 12 109 19 10 1 17 -5 17 -16z m395 -7 c0 -17 9 -21 65 -25
62 -5 118 -26 147 -56 14 -13 37 -10 61 10 11 8 13 5 10 -14 l-3 -25 -170 -3
-170 -4 -42 37 c-24 20 -43 41 -43 46 0 14 66 40 83 33 8 -3 17 2 21 11 8 23
41 14 41 -10z m415 0 c0 -18 -7 -26 -27 -32 -28 -7 -28 -7 8 -13 20 -4 67 -3
105 1 128 14 280 11 318 -8 36 -17 53 -40 39 -54 -4 -4 -76 -11 -160 -15 -83
-4 -157 -10 -163 -14 -27 -17 -2 -46 79 -95 9 -5 32 -22 52 -37 42 -33 56 -34
88 -8 30 26 21 50 -18 50 -31 0 -52 17 -29 24 7 3 45 10 84 16 68 11 73 13
103 56 37 50 52 54 75 19 23 -35 20 -64 -8 -74 -30 -12 -86 -83 -86 -110 0
-16 -6 -21 -25 -21 -20 0 -25 -5 -25 -25 0 -30 -24 -43 -45 -25 -14 11 -62 8
-101 -7 -8 -3 -17 4 -23 18 -11 30 -38 55 -76 69 -26 10 -31 8 -46 -11 -10
-14 -22 -20 -33 -16 -18 7 -21 28 -6 43 21 21 -15 57 -84 86 -10 5 -28 20 -40
35 -11 16 -29 36 -40 46 -15 16 -16 24 -7 43 9 21 8 26 -7 31 -18 7 -41 32
-42 46 0 4 32 7 70 7 68 0 70 -1 70 -25z m-1656 -21 c9 -24 -2 -34 -40 -34
-41 0 -43 9 -6 32 35 21 39 21 46 2z m-896 -14 c43 0 22 -19 -25 -22 -33 -2
-49 -8 -51 -18 -2 -12 7 -14 49 -11 40 2 50 0 47 -10 -4 -10 -26 -14 -82 -14
-82 0 -95 5 -71 25 8 7 15 18 15 24 0 24 25 38 60 32 19 -3 45 -6 58 -6z
m7522 0 c-1 -13 -19 -32 -27 -27 -5 3 -23 -1 -41 -10 -38 -19 -49 -12 -35 20
10 20 18 24 57 23 25 -1 46 -3 46 -6z m-6800 -12 c-1 -25 -47 -71 -64 -65 -15
6 -15 9 -2 36 9 16 21 31 28 34 23 10 38 7 38 -5z m130 -53 c8 -7 24 -15 35
-17 11 -2 21 -11 23 -19 8 -41 -129 -24 -145 18 -14 37 49 50 87 18z m6670 -1
c0 -8 -4 -14 -10 -14 -5 0 -10 9 -10 21 0 11 5 17 10 14 6 -3 10 -13 10 -21z
m-7290 7 c0 -12 -20 -25 -27 -18 -7 7 6 27 18 27 5 0 9 -4 9 -9z m-770 -31 c0
-11 -4 -20 -9 -20 -14 0 -23 18 -16 30 10 17 25 11 25 -10z m1707 -6 c5 -15
-32 -64 -49 -64 -12 0 -9 55 4 68 17 17 37 15 45 -4z m5753 1 c0 -10 -11 -15
-35 -15 -24 0 -35 5 -35 15 0 10 11 15 35 15 24 0 35 -5 35 -15z m5022 -2 c23
-21 23 -45 0 -67 -18 -15 -19 -15 -30 9 -6 14 -20 25 -29 25 -10 0 -24 9 -30
19 -11 18 -9 20 25 24 20 2 39 4 41 5 3 1 13 -5 23 -15z m-6032 -38 c0 -26 -9
-63 -20 -85 -19 -36 -24 -40 -60 -40 -72 0 -101 -24 -112 -94 -5 -33 -25 -29
-72 14 -44 41 -45 41 -76 25 -38 -19 -50 -13 -50 26 0 27 6 33 58 55 74 33
137 61 187 84 73 34 130 59 138 59 4 1 7 -19 7 -44z m2530 -2 c0 -4 -12 -25
-27 -47 -24 -34 -28 -49 -28 -115 -1 -75 -1 -76 -34 -98 -44 -30 -84 -30 -103
-1 -13 19 -18 21 -31 10 -9 -8 -19 -27 -22 -43 -8 -37 -24 -46 -75 -41 -32 3
-40 8 -40 24 0 27 37 78 118 162 91 93 152 143 183 149 40 7 59 7 59 0z
m-8960 -45 c22 -48 25 -90 10 -119 -15 -27 -25 -24 -44 15 -16 35 -20 84 -10
124 9 33 23 27 44 -20z m11563 22 c58 -46 87 -74 87 -83 0 -12 -40 -57 -51
-57 -4 0 -12 12 -18 28 -7 15 -20 43 -31 62 -29 53 -22 78 13 50z m-3615 -25
c3 -2 -1 -12 -8 -21 -10 -11 -23 -14 -49 -9 -42 8 -56 19 -46 35 7 12 91 7
103 -5z m-6282 -57 c-12 -76 -46 -78 -46 -2 0 41 2 44 26 44 26 0 26 -2 20
-42z m10514 10 c0 -30 0 -31 -20 -13 -11 10 -20 24 -20 32 0 7 9 13 20 13 16
0 20 -7 20 -32z m-900 -56 c47 -34 90 -80 90 -97 0 -14 21 -25 51 -25 26 0 24
-19 -4 -29 -13 -5 -29 -16 -36 -24 -11 -14 -16 -14 -44 -2 -18 8 -67 17 -110
20 -72 6 -79 9 -88 32 -10 27 -2 116 13 146 8 15 17 17 51 12 23 -4 58 -19 77
-33z m-10762 -65 c4 -18 -39 -34 -59 -22 -8 6 -5 13 12 26 27 21 43 20 47 -4z
m-519 -1 c15 -18 10 -108 -6 -113 -16 -6 -37 68 -29 101 7 29 18 33 35 12z
m4179 -28 c17 -17 15 -28 -7 -28 -22 0 -35 15 -26 30 8 13 18 13 33 -2z m3622
-30 c0 -21 -39 -25 -58 -6 -20 20 -14 36 16 40 29 3 42 -7 42 -34z m-130 6
c13 -13 13 -19 -5 -52 -15 -27 -27 -37 -44 -37 -31 0 -40 25 -12 32 25 6 28
41 6 50 -9 3 -24 -2 -34 -11 -22 -20 -37 -20 -45 0 -8 20 -11 18 39 31 45 12
73 8 95 -13z m-6472 -6 c17 -17 15 -63 -3 -78 -23 -19 -45 -4 -45 29 0 56 20
77 48 49z m545 -5 c88 -3 127 -8 126 -16 -2 -31 -18 -52 -40 -53 -13 -1 -101
-5 -194 -9 -191 -9 -199 -7 -189 56 l6 34 81 -4 c45 -2 139 -5 210 -8z m-1015
-71 c2 -61 0 -74 -18 -92 -11 -11 -25 -18 -31 -15 -14 9 -35 64 -42 111 -7 40
-6 42 31 57 20 8 42 14 47 13 6 -2 11 -35 13 -74z m5987 38 c4 -6 -7 -10 -27
-9 -31 1 -32 1 -8 9 14 4 26 8 27 9 1 1 5 -3 8 -9z m5138 4 c30 -5 37 -11 37
-30 0 -12 -3 -25 -7 -27 -5 -2 -47 1 -95 7 -91 11 -132 30 -87 40 69 15 104
17 152 10z m-4310 -27 c3 -8 1 -20 -4 -28 -7 -12 -11 -11 -25 3 -17 17 -12 38
11 38 7 0 15 -6 18 -13z m3926 -21 c18 -21 -10 -32 -93 -39 -38 -3 -71 -10
-75 -15 -10 -17 -57 -31 -80 -25 -36 9 -24 31 22 38 23 4 47 11 52 15 6 5 37
13 69 19 33 6 62 13 64 16 10 9 30 5 41 -9z m-11450 -15 c17 -11 7 -41 -13
-41 -19 0 -29 17 -22 35 6 17 15 18 35 6z m1150 -35 c11 -13 11 -120 -1 -131
-3 -3 -15 6 -27 21 -20 26 -30 102 -14 117 11 11 30 8 42 -7z m371 -1 c0 -14
-108 -27 -124 -14 -18 16 6 26 64 27 44 1 60 -3 60 -13z m217 1 c16 -16 -26
-26 -100 -23 -81 4 -94 8 -82 28 8 12 169 9 182 -5z m10158 -6 c0 -8 -5 -14
-12 -13 -6 2 -44 -1 -84 -7 -49 -6 -79 -5 -93 2 -19 10 -19 11 0 25 27 20 189
14 189 -7z m-11746 -94 l-13 -66 -50 -15 c-59 -18 -56 -18 -56 -5 0 6 11 10
25 10 18 0 26 7 31 24 8 32 1 42 -35 49 -32 7 -47 33 -30 54 9 10 24 12 54 7
31 -4 46 -2 56 9 25 27 32 1 18 -67z m3441 69 c0 -8 -9 -15 -20 -15 -11 0 -20
7 -20 15 0 8 9 15 20 15 11 0 20 -7 20 -15z m-2942 -87 c-3 -7 -11 -13 -18
-13 -7 0 -15 6 -17 13 -3 7 4 12 17 12 13 0 20 -5 18 -12z m-1121 -10 l28 -11
-48 -10 c-46 -9 -77 0 -77 24 0 13 64 11 97 -3z m1629 -114 c-4 -14 -11 -22
-16 -19 -11 7 -13 58 -3 69 12 11 25 -24 19 -50z m3149 6 c3 -6 -1 -13 -10
-16 -19 -8 -30 0 -20 15 8 14 22 14 30 1z m-102 -37 c-13 -2 -35 -2 -50 0 -16
2 -5 4 22 4 28 0 40 -2 28 -4z"/>
<path d="M12650 1390 c-35 -45 -32 -70 5 -43 14 10 25 23 25 30 0 7 7 16 16
21 16 9 12 32 -6 32 -4 0 -23 -18 -40 -40z"/>
<path d="M12732 1376 c-12 -6 -21 -17 -20 -25 5 -26 23 -22 35 9 6 16 11 29
10 29 -1 -1 -12 -7 -25 -13z"/>
<path d="M7410 1265 c0 -16 9 -19 34 -9 20 8 11 24 -15 24 -10 0 -19 -7 -19
-15z"/>
<path d="M12208 1173 c23 -2 61 -2 85 0 23 2 4 4 -43 4 -47 0 -66 -2 -42 -4z"/>
<path d="M12313 1095 c-3 -9 -3 -19 1 -22 8 -9 56 14 56 27 0 16 -50 12 -57
-5z"/>
<path d="M563 1117 c-2 -4 8 -25 24 -47 24 -34 33 -40 65 -40 39 0 60 15 83
61 15 28 15 29 -7 30 -75 5 -161 3 -165 -4z"/>
<path d="M12447 893 c-10 -10 -8 -91 2 -97 12 -8 28 13 36 44 4 19 1 31 -13
43 -10 9 -22 14 -25 10z"/>
<path d="M5540 1661 c0 -11 25 -21 50 -21 11 0 24 -9 30 -19 8 -16 17 -18 52
-14 24 3 45 8 48 10 3 3 -8 16 -23 29 -23 20 -39 24 -93 24 -35 0 -64 -4 -64
-9z"/>
<path d="M5530 1590 c8 -5 24 -10 35 -10 11 0 27 5 35 10 11 7 1 10 -35 10
-36 0 -46 -3 -35 -10z"/>
<path d="M11235 1550 c-4 -6 -13 -9 -21 -6 -8 3 -23 2 -35 -2 -19 -7 -19 -9
-5 -22 14 -10 24 -11 57 -1 22 7 39 17 37 23 -6 17 -25 21 -33 8z"/>
<path d="M13165 1159 c-8 -12 11 -29 32 -29 12 0 69 -23 107 -42 11 -6 31 -14
45 -18 14 -5 51 -18 81 -29 69 -26 70 -26 70 4 0 19 -5 25 -21 25 -12 0 -35 6
-52 14 -18 7 -51 21 -74 30 -24 9 -60 23 -80 30 -59 23 -100 29 -108 15z"/>
<path d="M10998 1143 c12 -2 30 -2 40 0 9 3 -1 5 -23 4 -22 0 -30 -2 -17 -4z"/>
<path d="M10866 1121 c-19 -7 -19 -8 2 -13 31 -8 68 2 50 13 -15 10 -26 10
-52 0z"/>
<path d="M10936 1001 c-30 -12 -2 -24 36 -16 22 5 27 9 17 16 -16 10 -27 10
-53 0z"/>
<path d="M10200 772 c0 -14 15 -28 49 -45 27 -14 51 -23 55 -20 3 4 6 19 6 34
0 23 -5 28 -32 32 -18 3 -43 8 -55 12 -19 6 -23 4 -23 -13z"/>
<path d="M10754 559 c-3 -6 -1 -16 5 -22 8 -8 11 -5 11 11 0 24 -5 28 -16 11z"/>
<path d="M5123 453 c31 -2 83 -2 115 0 31 2 5 3 -58 3 -63 0 -89 -1 -57 -3z"/>
<path d="M10975 360 c-8 -13 4 -32 16 -25 12 8 12 35 0 35 -6 0 -13 -4 -16
-10z"/>
<path d="M5125 311 l-60 -6 46 -6 c62 -8 216 2 174 12 -35 8 -77 8 -160 0z"/>
<path d="M5402 268 c7 -21 50 -37 121 -44 57 -6 67 -4 67 9 0 19 -35 27 -113
28 -31 1 -57 5 -57 10 0 5 -5 9 -11 9 -6 0 -9 -6 -7 -12z"/>
<path d="M11450 250 c0 -5 12 -10 28 -10 21 0 24 2 12 10 -20 13 -40 13 -40 0z"/>
<path d="M8730 225 c-63 -8 -149 -14 -190 -14 -89 -1 -104 -8 -94 -44 3 -15 9
-27 13 -27 3 0 17 -17 31 -38 14 -20 29 -40 35 -44 13 -10 314 -9 340 1 19 8
19 9 -5 16 -14 5 -63 9 -110 10 -109 3 -110 3 -110 15 0 6 28 10 63 11 34 0
97 8 141 17 75 17 79 20 97 56 10 21 16 43 13 47 -7 12 -84 10 -224 -6z"/>
<path d="M11540 220 c0 -5 14 -10 31 -10 17 0 28 4 24 10 -3 6 -17 10 -31 10
-13 0 -24 -4 -24 -10z"/>
<path d="M2 71 c4 -18 39 -22 45 -5 2 6 -8 14 -22 16 -20 4 -25 2 -23 -11z"/>
</g>
</svg>
