<?xml version="1.0" standalone="no"?>
<!DOCTYPE svg PUBLIC "-//W3C//DTD SVG 20010904//EN"
 "http://www.w3.org/TR/2001/REC-SVG-20010904/DTD/svg10.dtd">
<svg version="1.0" xmlns="http://www.w3.org/2000/svg"
 width="300.000000pt" height="221.000000pt" viewBox="0 0 300.000000 221.000000"
 preserveAspectRatio="xMidYMid meet">
<metadata>
Created by potrace 1.10, written by Peter Selinger 2001-2011
</metadata>
<g transform="translate(0.000000,221.000000) scale(0.100000,-0.100000)"
fill="#000000" stroke="none">
<path d="M1132 2201 c-11 -7 -11 -9 1 -14 9 -3 21 1 27 9 10 11 10 14 -1 14
-8 0 -20 -4 -27 -9z"/>
<path d="M1230 2195 c-11 -13 -10 -14 4 -9 9 3 16 10 16 15 0 13 -6 11 -20 -6z"/>
<path d="M1460 2196 c7 -7 13 -7 20 0 6 6 3 10 -10 10 -13 0 -16 -4 -10 -10z"/>
<path d="M1690 2206 c0 -2 7 -6 15 -10 8 -3 15 -1 15 4 0 6 -7 10 -15 10 -8 0
-15 -2 -15 -4z"/>
<path d="M1868 2203 c7 -3 16 -2 19 1 4 3 -2 6 -13 5 -11 0 -14 -3 -6 -6z"/>
<path d="M1948 2203 c7 -3 16 -2 19 1 4 3 -2 6 -13 5 -11 0 -14 -3 -6 -6z"/>
<path d="M2028 2203 c7 -3 16 -2 19 1 4 3 -2 6 -13 5 -11 0 -14 -3 -6 -6z"/>
<path d="M483 2179 c-2 -23 3 -25 10 -4 4 8 3 16 -1 19 -4 3 -9 -4 -9 -15z"/>
<path d="M1049 2187 c7 -7 14 -8 21 -1 6 6 2 10 -12 11 -16 2 -18 -1 -9 -10z"/>
<path d="M2390 2191 c0 -5 5 -13 10 -16 6 -3 10 -2 10 4 0 5 -4 13 -10 16 -5
3 -10 2 -10 -4z"/>
<path d="M2476 2187 c3 -10 9 -15 12 -12 3 3 0 11 -7 18 -10 9 -11 8 -5 -6z"/>
<path d="M2540 2185 c-9 -10 -9 -15 -1 -15 6 0 11 5 11 11 0 5 5 7 12 3 7 -4
8 -3 4 4 -9 15 -11 15 -26 -3z"/>
<path d="M2615 2189 c-4 -6 -4 -13 -1 -16 3 -4 6 0 6 8 0 11 2 11 10 -1 8 -13
10 -12 10 3 0 19 -15 23 -25 6z"/>
<path d="M2790 2191 c0 -7 -5 -9 -12 -5 -7 5 -8 3 -3 -5 5 -9 10 -10 18 -2 6
6 8 14 4 18 -4 3 -7 1 -7 -6z"/>
<path d="M2865 2190 c3 -5 8 -10 11 -10 2 0 4 5 4 10 0 6 -5 10 -11 10 -5 0
-7 -4 -4 -10z"/>
<path d="M1995 2180 c3 -5 8 -10 11 -10 2 0 4 5 4 10 0 6 -5 10 -11 10 -5 0
-7 -4 -4 -10z"/>
<path d="M2070 2186 c0 -2 7 -9 15 -16 9 -7 15 -8 15 -2 0 5 -7 12 -15 16 -8
3 -15 4 -15 2z"/>
<path d="M2140 2174 c-10 -11 -10 -14 1 -14 8 0 20 4 27 9 11 7 11 9 -1 14 -9
3 -21 -1 -27 -9z"/>
<path d="M2226 2181 c-4 -5 -2 -12 3 -15 5 -4 12 -2 15 3 4 5 2 12 -3 15 -5 4
-12 2 -15 -3z"/>
<path d="M2301 2181 c-9 -6 -10 -11 -2 -15 13 -8 31 1 31 15 0 11 -11 11 -29
0z"/>
<path d="M1594 2173 c5 -8 1 -13 -11 -13 -15 0 -16 -2 -3 -10 21 -13 38 6 21
23 -11 10 -13 10 -7 0z"/>
<path d="M1662 2167 c-8 -10 -6 -13 9 -14 19 -2 26 11 10 21 -5 3 -14 0 -19
-7z"/>
<path d="M1821 2171 c-9 -6 -10 -11 -2 -15 6 -4 11 -2 11 4 0 6 5 8 12 4 7 -4
8 -3 4 4 -8 14 -7 14 -25 3z"/>
<path d="M1917 2166 c-4 -10 -1 -13 8 -9 8 3 12 9 9 14 -7 12 -11 11 -17 -5z"/>
<path d="M1010 2166 c0 -2 8 -10 18 -17 15 -13 16 -12 3 4 -13 16 -21 21 -21
13z"/>
<path d="M1177 2157 c-3 -8 1 -14 9 -14 16 0 19 13 5 21 -5 3 -11 0 -14 -7z"/>
<path d="M1260 2160 c-12 -7 -12 -12 -3 -21 15 -15 26 -7 21 15 -2 11 -7 13
-18 6z"/>
<path d="M1350 2154 c0 -8 5 -12 10 -9 6 4 8 11 5 16 -9 14 -15 11 -15 -7z"/>
<path d="M1415 2161 c-7 -12 12 -24 25 -16 11 7 4 25 -10 25 -5 0 -11 -4 -15
-9z"/>
<path d="M1516 2158 c5 -8 1 -9 -12 -4 -14 5 -16 4 -7 -5 6 -6 16 -8 22 -5 14
9 14 26 0 26 -5 0 -7 -5 -3 -12z"/>
<path d="M1980 2160 c0 -5 5 -10 11 -10 5 0 7 5 4 10 -3 6 -8 10 -11 10 -2 0
-4 -4 -4 -10z"/>
<path d="M2820 2151 c0 -5 5 -13 10 -16 6 -3 10 -2 10 4 0 5 -4 13 -10 16 -5
3 -10 2 -10 -4z"/>
<path d="M594 2138 c-4 -6 -3 -8 4 -4 5 3 13 0 15 -6 3 -8 6 -6 6 5 1 19 -14
23 -25 5z"/>
<path d="M940 2140 c-9 -6 -10 -10 -3 -10 6 0 15 5 18 10 8 12 4 12 -15 0z"/>
<path d="M2186 2133 c-8 -21 -1 -27 17 -16 12 6 13 10 2 20 -10 10 -15 9 -19
-4z"/>
<path d="M2262 2137 c-8 -10 -6 -13 9 -14 19 -2 26 11 10 21 -5 3 -14 0 -19
-7z"/>
<path d="M2497 2136 c-3 -8 0 -13 6 -12 15 2 22 19 9 24 -5 1 -12 -4 -15 -12z"/>
<path d="M2740 2134 c0 -8 5 -12 10 -9 6 3 10 10 10 16 0 5 -4 9 -10 9 -5 0
-10 -7 -10 -16z"/>
<path d="M1953 2126 c6 -16 5 -17 -8 -6 -9 8 -15 8 -15 2 0 -17 18 -24 36 -14
14 8 13 10 -2 23 -16 13 -17 12 -11 -5z"/>
<path d="M2023 2125 c-3 -9 -3 -19 1 -22 3 -4 6 1 6 11 0 10 5 14 12 10 7 -4
8 -3 4 4 -10 16 -15 15 -23 -3z"/>
<path d="M2102 2131 c-10 -6 -9 -11 4 -22 10 -8 15 -9 11 -2 -4 6 -2 13 5 15
7 3 8 7 2 11 -5 3 -16 2 -22 -2z"/>
<path d="M2347 2133 c-12 -12 -7 -22 8 -17 8 4 15 10 15 15 0 11 -14 12 -23 2z"/>
<path d="M1461 2117 c-6 -8 -8 -17 -4 -20 11 -12 19 -7 20 13 2 24 -1 25 -16
7z"/>
<path d="M1542 2118 c-7 -7 -12 -16 -12 -20 0 -12 28 -10 36 3 10 17 -10 31
-24 17z"/>
<path d="M1622 2118 c-7 -7 -12 -16 -12 -20 0 -12 28 -10 36 3 10 17 -10 31
-24 17z"/>
<path d="M1710 2121 c0 -5 5 -13 10 -16 6 -3 10 -2 10 4 0 5 -4 13 -10 16 -5
3 -10 2 -10 -4z"/>
<path d="M1781 2121 c-10 -6 -9 -10 3 -14 8 -3 18 -2 21 3 8 13 -9 20 -24 11z"/>
<path d="M1867 2124 c-11 -11 3 -24 18 -18 8 4 12 10 9 15 -6 11 -18 12 -27 3z"/>
<path d="M1066 2107 c3 -10 9 -15 12 -12 3 3 0 11 -7 18 -10 9 -11 8 -5 -6z"/>
<path d="M1216 2103 c-9 -23 2 -29 20 -11 14 13 14 16 1 21 -9 3 -18 -1 -21
-10z"/>
<path d="M1313 2105 c0 -8 4 -12 9 -9 5 3 6 10 3 15 -9 13 -12 11 -12 -6z"/>
<path d="M1375 2110 c-11 -17 5 -31 19 -17 14 12 12 27 -4 27 -5 0 -12 -4 -15
-10z"/>
<path d="M900 2101 c0 -5 5 -13 10 -16 6 -3 10 -2 10 4 0 5 -4 13 -10 16 -5 3
-10 2 -10 -4z"/>
<path d="M2780 2101 c0 -7 -4 -9 -10 -6 -5 3 -10 1 -10 -4 0 -6 4 -11 9 -11
13 0 25 20 17 27 -3 4 -6 1 -6 -6z"/>
<path d="M2847 2095 c-4 -8 -1 -17 5 -21 7 -5 8 -2 3 6 -6 10 -4 12 10 6 15
-5 16 -4 5 9 -15 19 -16 19 -23 0z"/>
<path d="M653 2085 c0 -8 4 -12 9 -9 5 3 6 10 3 15 -9 13 -12 11 -12 -6z"/>
<path d="M736 2083 c-6 -14 -5 -15 5 -6 7 7 10 15 7 18 -3 3 -9 -2 -12 -12z"/>
<path d="M2397 2083 c5 -14 3 -16 -7 -6 -9 9 -17 9 -31 0 -14 -9 -21 -9 -30 0
-8 8 -20 8 -41 1 -22 -8 -32 -8 -37 1 -9 14 -37 5 -45 -15 -3 -8 -14 -14 -25
-14 -10 0 -22 -7 -25 -15 -4 -12 -10 -13 -25 -6 -23 13 -52 -11 -30 -25 8 -5
5 -12 -11 -24 -23 -17 -31 -44 -34 -110 -1 -35 -18 -56 -36 -45 -6 3 -10 2
-10 -4 0 -5 4 -12 9 -15 6 -4 5 -21 -1 -43 -8 -29 -7 -42 6 -64 20 -33 1 -53
-21 -23 -12 16 -15 17 -23 4 -5 -8 -10 -18 -10 -22 0 -5 -6 -8 -14 -8 -7 0
-20 -7 -27 -16 -13 -16 -54 -37 -74 -39 -5 0 -23 -6 -40 -12 -16 -6 -41 -11
-55 -10 -15 1 -24 -3 -23 -10 2 -7 -6 -17 -17 -23 -11 -6 -20 -16 -20 -21 0
-6 -11 -24 -25 -40 -13 -16 -22 -36 -18 -44 4 -11 1 -13 -11 -9 -14 6 -18 0
-15 -23 1 -5 5 -7 10 -6 14 4 10 -31 -6 -53 -8 -10 -15 -26 -15 -35 0 -9 -6
-22 -14 -28 -10 -9 -12 -21 -5 -49 12 -53 11 -58 -10 -58 -13 0 -17 5 -13 16
5 12 3 13 -9 3 -11 -9 -22 -8 -47 4 -18 9 -29 20 -25 27 3 6 2 8 -2 3 -10 -9
-45 21 -45 40 0 7 -5 13 -11 13 -5 0 -7 -4 -4 -10 6 -10 -58 10 -91 29 -11 5
-40 13 -66 16 l-48 6 0 44 c0 30 5 47 16 53 12 7 16 29 19 93 2 46 6 101 10
122 5 29 3 37 -8 37 -22 0 -42 -29 -29 -42 6 -6 7 -20 1 -37 -13 -38 -17 -123
-8 -148 13 -36 -18 -29 -41 10 -21 34 -26 52 -11 43 4 -3 6 5 4 17 -2 12 0 51
5 87 5 36 6 67 2 70 -4 3 -17 22 -29 43 -16 29 -19 43 -11 57 12 22 13 30 3
29 -22 -4 -32 3 -39 24 -5 12 -7 26 -6 30 1 5 -6 6 -16 3 -14 -5 -22 1 -31 20
-10 24 -10 26 6 20 14 -6 15 -5 6 5 -10 10 -15 10 -27 0 -18 -15 -70 8 -86 40
-7 13 -17 18 -29 14 -28 -8 -126 21 -123 37 1 7 -4 5 -12 -6 -11 -13 -20 -16
-33 -10 -26 11 -53 13 -53 3 0 -5 -11 -9 -24 -9 -13 0 -29 -7 -36 -15 -7 -8
-18 -15 -25 -15 -6 0 -17 -12 -23 -26 -7 -14 -15 -23 -20 -20 -4 2 -16 -2 -27
-10 -10 -8 -15 -14 -9 -14 5 0 -4 -11 -19 -24 -16 -14 -28 -27 -28 -30 3 -20
-1 -25 -20 -31 -15 -5 -18 -10 -10 -18 6 -6 11 -20 11 -31 0 -10 13 8 30 41
33 66 105 139 162 165 67 30 219 10 299 -39 20 -13 42 -23 49 -23 20 0 123
-111 112 -122 -6 -6 -5 -19 4 -36 21 -42 39 -132 28 -140 -14 -9 -27 -45 -14
-37 17 10 11 -7 -7 -22 -17 -14 -17 -14 1 -9 14 5 17 2 12 -11 -4 -10 5 -33
24 -60 36 -49 47 -108 23 -122 -12 -6 -2 -12 36 -21 94 -22 180 -58 227 -94
26 -20 65 -41 88 -46 109 -28 174 -65 163 -94 -4 -10 -11 -14 -17 -11 -5 3 -8
0 -5 -7 3 -7 -4 -27 -15 -45 -22 -37 -79 -54 -106 -32 -11 9 -53 13 -132 14
-65 1 -121 3 -127 4 -5 2 -17 3 -25 2 -13 -1 -13 -2 0 -11 29 -18 -43 -11 -87
10 -24 10 -42 16 -42 12 5 -31 -2 -34 -61 -30 -37 3 -61 0 -63 -6 -2 -6 -20 4
-41 22 -36 32 -53 41 -41 23 3 -5 0 -11 -7 -14 -7 -2 -5 -3 5 -1 19 2 42 -30
32 -46 -3 -6 -3 -15 1 -21 4 -8 9 -7 15 2 4 7 9 11 11 9 2 -3 16 -24 31 -48
26 -40 26 -42 7 -32 -12 6 -24 9 -26 7 -3 -3 9 -11 25 -18 17 -8 31 -21 31
-30 0 -9 9 -19 21 -22 18 -5 20 -10 14 -38 -5 -22 -4 -29 4 -25 6 4 11 14 11
22 0 8 5 14 10 14 17 0 11 17 -16 41 -22 21 -94 122 -94 133 0 2 30 3 67 3 38
-1 156 2 264 6 188 8 197 8 231 -13 21 -12 38 -31 40 -45 5 -22 1 -25 -36 -30
-23 -3 -114 -7 -202 -8 -140 -2 -161 -4 -154 -17 20 -38 106 -103 208 -157
l33 -17 35 38 c28 31 40 37 64 34 16 -2 27 -1 24 4 -3 4 -12 8 -20 8 -8 0 -12
5 -8 11 3 6 -7 4 -23 -4 -23 -12 -44 -14 -107 -7 -43 5 -85 15 -93 22 -8 7
-22 13 -30 14 -16 3 -46 38 -35 41 29 7 110 8 106 2 -3 -5 7 -4 21 1 33 13
206 13 185 0 -14 -8 -152 -23 -212 -23 -16 0 -28 -4 -28 -8 0 -10 172 -12 219
-3 41 9 117 109 82 109 -5 0 -13 3 -17 8 -4 4 5 7 19 7 15 0 27 5 27 11 0 5
-4 7 -10 4 -5 -3 -3 7 5 22 8 15 22 47 31 70 10 23 21 40 25 37 4 -2 14 3 23
12 9 8 19 13 23 11 5 -3 8 6 8 19 0 24 -1 24 -28 -8 -19 -22 -26 -26 -22 -13
17 47 18 58 7 51 -7 -4 -12 -14 -12 -23 0 -13 -2 -13 -17 -2 -9 8 -18 13 -19
12 -2 -1 -14 2 -26 7 -22 8 -21 9 7 11 17 0 37 1 47 0 23 -3 30 13 18 44 -14
38 4 69 36 61 27 -7 30 -1 11 18 -10 11 -15 10 -25 -1 -20 -21 -34 -16 -22 7
7 14 7 20 0 20 -5 0 -10 9 -10 20 0 11 -4 20 -10 20 -5 0 -9 -10 -7 -22 1 -17
-3 -22 -17 -20 -11 2 -15 -1 -11 -8 4 -6 13 -9 21 -6 8 3 14 1 14 -4 0 -6 -5
-10 -11 -10 -6 0 -7 -5 -2 -12 11 -19 14 -48 5 -48 -5 0 -15 11 -22 25 -7 14
-15 23 -18 21 -5 -5 37 -67 53 -78 5 -4 8 -8 5 -9 -3 0 -17 -2 -32 -4 -16 -2
-37 -6 -48 -10 -44 -14 -53 87 -16 168 13 29 26 67 30 85 16 87 68 140 161
164 28 7 63 22 78 35 27 22 85 43 120 43 23 0 33 26 17 45 -12 14 -15 61 -6
100 2 11 5 22 5 24 2 9 31 -23 30 -33 -4 -36 3 -44 43 -50 27 -5 44 -3 49 5 8
13 45 -8 44 -26 0 -16 -38 -61 -63 -74 -18 -10 -24 -8 -39 9 -10 11 -23 35
-30 53 -11 31 -12 31 -12 6 -1 -15 5 -32 13 -39 8 -6 12 -18 9 -26 -3 -9 2
-14 15 -14 12 0 23 -4 27 -9 3 -6 18 -6 36 -1 23 7 35 6 46 -5 16 -17 88 -20
98 -6 3 6 -4 15 -15 21 -13 7 -20 7 -20 0 0 -5 -5 -10 -11 -10 -5 0 -7 4 -4
10 3 5 -2 9 -12 8 -40 -3 -54 2 -51 20 2 9 10 16 17 14 6 -1 11 3 9 10 -4 21
25 58 45 58 13 0 17 -5 14 -15 -4 -8 -2 -17 3 -20 6 -4 10 2 10 12 0 15 2 16
10 3 15 -22 12 -28 -12 -32 l-23 -3 23 -20 c12 -11 22 -25 22 -32 0 -20 20
-26 27 -8 3 10 0 21 -7 25 -7 4 -14 22 -15 38 -1 27 2 31 32 35 18 3 46 2 63
-3 16 -5 32 -5 35 0 6 10 -30 20 -73 20 -18 0 -31 4 -28 8 2 4 -16 7 -42 6
-53 -1 -82 10 -82 31 0 8 -5 15 -11 15 -5 0 -8 -4 -4 -9 3 -6 -7 -6 -27 0 -44
12 -51 12 -74 -7 -18 -15 -18 -15 6 -10 14 3 32 1 40 -4 13 -9 13 -10 0 -11
-57 -7 -70 -4 -70 14 0 11 12 31 28 45 18 17 21 22 9 18 -10 -3 -23 -6 -28 -6
-5 0 -9 -8 -9 -17 0 -15 -2 -16 -10 -3 -16 25 -10 93 13 140 42 85 178 134
280 101 42 -14 112 -73 132 -112 19 -37 19 -129 0 -155 -8 -10 -15 -14 -15 -7
0 6 -8 13 -17 16 -15 3 -14 6 7 16 l25 12 -25 -6 c-14 -2 -31 -5 -38 -5 -11 0
-11 -2 0 -13 26 -26 53 -36 71 -26 24 14 37 3 37 -31 0 -41 -21 -84 -32 -68
-7 10 -8 9 -5 -2 6 -22 -13 -56 -23 -40 -5 8 -11 -8 -15 -39 -5 -35 -11 -49
-18 -44 -29 17 23 -33 75 -74 81 -62 92 -87 93 -205 0 -62 3 -94 10 -89 18 14
55 20 55 8 0 -8 4 -7 12 1 15 15 55 16 63 2 5 -8 11 -8 20 0 7 6 28 10 46 10
19 -1 46 1 62 4 16 4 27 2 27 -4 0 -7 6 -8 19 0 11 5 29 10 40 10 12 0 21 5
21 10 0 12 2 12 -37 1 -31 -9 -57 2 -31 12 9 4 10 6 1 6 -6 1 -15 -3 -18 -9
-8 -14 -52 -13 -61 1 -5 8 -9 7 -15 -4 -8 -14 -42 -15 -124 -3 -11 2 -26 -1
-32 -6 -14 -11 -47 -3 -39 10 11 18 14 62 5 62 -8 0 -8 32 0 70 1 3 5 0 9 -6
11 -17 49 -26 57 -15 3 6 0 8 -9 5 -8 -3 -19 3 -26 15 -9 18 -14 19 -32 10
-20 -11 -21 -9 -15 21 6 26 3 33 -13 37 -11 3 -20 13 -20 23 0 11 -10 20 -26
24 -20 5 -24 11 -19 29 4 15 3 18 -3 8 -7 -10 -11 -10 -17 -1 -4 6 -13 9 -20
6 -7 -2 -16 2 -19 10 -3 9 -1 12 4 9 6 -3 10 3 10 14 0 12 -4 21 -10 21 -17 0
-11 39 8 49 9 5 25 27 36 48 10 21 22 46 27 56 6 10 7 22 4 27 -3 6 2 7 12 4
13 -4 12 -1 -4 12 -13 9 -23 22 -23 30 0 7 -7 17 -15 21 -12 7 -13 16 -5 42
12 41 -18 105 -79 169 -38 40 -60 55 -45 30 4 -7 3 -8 -5 -4 -6 4 -9 16 -6 26
3 10 1 21 -4 25 -7 4 -8 -1 -4 -12z m-1192 -1113 c-3 -5 -10 -10 -16 -10 -5 0
-9 5 -9 10 0 6 7 10 16 10 8 0 12 -4 9 -10z m289 -249 c2 -3 -3 -13 -12 -21
-14 -13 -15 -13 -10 1 5 12 1 15 -18 11 -16 -3 -24 0 -24 10 0 10 8 13 30 10
17 -2 32 -7 34 -11z"/>
<path d="M2455 2090 c-11 -17 5 -31 19 -17 14 12 12 27 -4 27 -5 0 -12 -4 -15
-10z"/>
<path d="M2537 2094 c-9 -9 4 -35 14 -28 5 3 9 12 9 20 0 14 -12 19 -23 8z"/>
<path d="M2690 2092 c0 -5 7 -9 15 -9 8 0 12 4 9 9 -3 4 -9 8 -15 8 -5 0 -9
-4 -9 -8z"/>
<path d="M2940 2092 c0 -6 -8 -9 -17 -6 -15 5 -16 4 -3 -5 16 -11 40 3 27 16
-4 3 -7 1 -7 -5z"/>
<path d="M485 2080 c3 -5 8 -10 11 -10 2 0 4 5 4 10 0 6 -5 10 -11 10 -5 0 -7
-4 -4 -10z"/>
<path d="M808 2083 c7 -3 16 -2 19 1 4 3 -2 6 -13 5 -11 0 -14 -3 -6 -6z"/>
<path d="M1914 2083 c5 -8 1 -13 -11 -13 -15 0 -16 -2 -3 -10 21 -13 38 6 21
23 -11 10 -13 10 -7 0z"/>
<path d="M1993 2075 c0 -8 4 -12 9 -9 5 3 6 10 3 15 -9 13 -12 11 -12 -6z"/>
<path d="M2067 2077 c-3 -8 1 -14 9 -14 16 0 19 13 5 21 -5 3 -11 0 -14 -7z"/>
<path d="M50 2076 c0 -2 7 -7 16 -10 8 -3 12 -2 9 4 -6 10 -25 14 -25 6z"/>
<path d="M1417 2067 c-9 -23 8 -41 22 -24 9 11 8 17 -3 26 -10 9 -15 8 -19 -2z"/>
<path d="M1664 2071 c4 -5 0 -12 -6 -14 -8 -3 -6 -6 5 -6 9 -1 17 6 17 14 0 8
-5 15 -11 15 -5 0 -8 -4 -5 -9z"/>
<path d="M1821 2071 c-9 -6 -10 -11 -2 -15 6 -4 11 -2 11 4 0 6 5 8 10 5 6 -3
10 -1 10 4 0 13 -10 14 -29 2z"/>
<path d="M1101 2057 c-1 -12 -6 -16 -13 -11 -10 5 -10 4 -1 -6 17 -18 32 -8
22 15 -7 18 -8 18 -8 2z"/>
<path d="M1183 2052 c2 -12 7 -25 12 -29 4 -5 5 -3 2 4 -4 6 -2 13 4 15 7 2 5
9 -5 17 -14 12 -16 11 -13 -7z"/>
<path d="M1260 2060 c-12 -7 -12 -12 -3 -21 10 -10 14 -9 19 5 8 22 2 27 -16
16z"/>
<path d="M1345 2059 c-10 -15 3 -25 16 -12 7 7 7 13 1 17 -6 3 -14 1 -17 -5z"/>
<path d="M1497 2064 c-8 -8 1 -24 14 -24 5 0 9 7 9 15 0 15 -12 20 -23 9z"/>
<path d="M763 2046 c-10 -11 -9 -15 2 -20 10 -4 15 1 15 14 0 23 -1 24 -17 6z"/>
<path d="M1005 2050 c-3 -6 1 -7 9 -4 18 7 21 14 7 14 -6 0 -13 -4 -16 -10z"/>
<path d="M2890 2056 c0 -2 8 -10 18 -17 15 -13 16 -12 3 4 -13 16 -21 21 -21
13z"/>
<path d="M526 2037 c3 -10 9 -15 12 -12 3 3 0 11 -7 18 -10 9 -11 8 -5 -6z"/>
<path d="M596 2042 c-2 -4 4 -8 14 -8 10 0 16 4 14 8 -3 4 -9 8 -14 8 -5 0
-11 -4 -14 -8z"/>
<path d="M676 2042 c-2 -4 4 -8 14 -8 10 0 16 4 14 8 -3 4 -9 8 -14 8 -5 0
-11 -4 -14 -8z"/>
<path d="M2495 2039 c-4 -6 -5 -13 -2 -16 7 -7 27 6 27 18 0 12 -17 12 -25 -2z"/>
<path d="M2585 2040 c3 -5 8 -10 11 -10 2 0 4 5 4 10 0 6 -5 10 -11 10 -5 0
-7 -4 -4 -10z"/>
<path d="M2732 2039 c2 -6 8 -10 13 -10 5 0 11 4 13 10 2 6 -4 11 -13 11 -9 0
-15 -5 -13 -11z"/>
<path d="M94 2020 c0 -13 4 -16 10 -10 7 7 7 13 0 20 -6 6 -10 3 -10 -10z"/>
<path d="M1860 2025 c-9 -11 -8 -14 9 -12 22 1 28 12 12 21 -5 3 -14 -1 -21
-9z"/>
<path d="M1956 2027 c3 -10 9 -15 12 -12 3 3 0 11 -7 18 -10 9 -11 8 -5 -6z"/>
<path d="M1625 2020 c3 -5 11 -10 16 -10 6 0 7 5 4 10 -3 6 -11 10 -16 10 -6
0 -7 -4 -4 -10z"/>
<path d="M1700 2015 c-10 -12 -10 -15 3 -15 19 0 31 16 18 24 -5 3 -14 -1 -21
-9z"/>
<path d="M1785 2019 c-10 -15 3 -25 16 -12 7 7 7 13 1 17 -6 3 -14 1 -17 -5z"/>
<path d="M2304 2009 c-16 -17 -19 -18 -40 -4 -26 17 -39 6 -29 -26 5 -15 4
-19 -4 -15 -6 4 -11 3 -11 -3 0 -5 9 -9 19 -8 16 1 17 5 10 25 -11 30 -11 41
0 23 11 -18 51 -25 51 -10 0 6 6 9 14 6 8 -3 19 0 26 7 18 23 -16 27 -36 5z"/>
<path d="M1143 2002 c1 -14 5 -18 11 -12 7 7 6 14 -1 21 -9 9 -12 7 -10 -9z"/>
<path d="M1223 2006 c3 -8 1 -17 -6 -20 -7 -2 -5 -5 4 -5 22 -1 32 26 12 33
-10 4 -14 2 -10 -8z"/>
<path d="M1310 2009 c0 -5 -4 -7 -10 -4 -6 3 -7 -1 -4 -10 5 -12 10 -13 20 -4
8 6 11 15 8 20 -7 12 -14 11 -14 -2z"/>
<path d="M1375 2009 c-4 -6 -4 -13 -1 -16 3 -4 6 0 6 8 0 11 2 11 10 -1 8 -13
10 -12 10 3 0 19 -15 23 -25 6z"/>
<path d="M1460 2010 c-8 -5 -11 -13 -6 -17 5 -4 11 -2 13 5 3 6 10 9 15 6 7
-4 8 -2 4 4 -9 14 -7 14 -26 2z"/>
<path d="M1549 2003 c-13 -16 -12 -17 4 -4 9 7 17 15 17 17 0 8 -8 3 -21 -13z"/>
<path d="M894 1998 c3 -15 26 -23 26 -8 0 6 -4 9 -9 6 -5 -4 -12 -1 -14 4 -3
6 -4 5 -3 -2z"/>
<path d="M1055 2001 c-6 -11 13 -26 22 -17 4 3 0 6 -8 6 -11 0 -11 2 1 10 9 6
10 10 3 10 -6 0 -14 -4 -18 -9z"/>
<path d="M2701 1994 c0 -11 3 -14 6 -6 3 7 2 16 -1 19 -3 4 -6 -2 -5 -13z"/>
<path d="M972 1983 c6 -7 14 -10 19 -7 15 9 10 20 -10 20 -15 0 -17 -3 -9 -13z"/>
<path d="M2343 1985 c-8 -9 -9 -16 -3 -20 6 -3 10 -1 10 4 0 6 5 11 11 11 5 0
7 -4 4 -10 -3 -5 -1 -10 4 -10 15 0 14 15 -1 28 -9 7 -17 6 -25 -3z"/>
<path d="M2536 1992 c-3 -5 1 -9 9 -9 8 0 12 4 9 9 -3 4 -7 8 -9 8 -2 0 -6 -4
-9 -8z"/>
<path d="M290 1980 c-9 -6 -10 -10 -3 -10 6 0 15 5 18 10 8 12 4 12 -15 0z"/>
<path d="M1910 1981 c0 -6 4 -13 10 -16 6 -3 7 1 4 9 -7 18 -14 21 -14 7z"/>
<path d="M2174 1982 c3 -5 0 -13 -6 -15 -9 -4 -10 -6 -1 -6 17 -1 25 16 12 25
-7 4 -9 3 -5 -4z"/>
<path d="M2605 1980 c3 -5 8 -10 11 -10 2 0 4 5 4 10 0 6 -5 10 -11 10 -5 0
-7 -4 -4 -10z"/>
<path d="M1500 1965 c-7 -9 -10 -18 -6 -22 3 -3 6 -1 6 6 0 7 7 11 14 8 10 -4
13 -1 9 9 -6 18 -8 18 -23 -1z"/>
<path d="M1577 1960 c-3 -13 0 -20 9 -20 8 0 14 9 14 20 0 11 -4 20 -9 20 -5
0 -11 -9 -14 -20z"/>
<path d="M1740 1970 c-20 -12 -10 -19 14 -10 11 3 15 9 10 13 -6 3 -16 2 -24
-3z"/>
<path d="M1816 1971 c-3 -5 1 -11 9 -15 15 -6 29 7 18 18 -9 9 -21 8 -27 -3z"/>
<path d="M1331 1961 c-9 -6 -7 -10 8 -14 12 -3 21 -1 21 3 0 14 -15 19 -29 11z"/>
<path d="M1416 1961 c-3 -5 1 -14 8 -20 12 -10 13 -8 9 8 -6 23 -9 25 -17 12z"/>
<path d="M1656 1961 c-4 -5 1 -8 9 -7 21 3 31 16 12 16 -9 0 -18 -4 -21 -9z"/>
<path d="M1978 1963 c7 -3 16 -2 19 1 4 3 -2 6 -13 5 -11 0 -14 -3 -6 -6z"/>
<path d="M1103 1945 c0 -8 4 -12 9 -9 5 3 6 10 3 15 -9 13 -12 11 -12 -6z"/>
<path d="M1247 1940 c-3 -12 -14 -20 -26 -20 -12 0 -21 -6 -21 -13 0 -8 -9
-24 -20 -37 -12 -13 -18 -30 -15 -38 3 -7 5 -16 5 -18 0 -2 6 -4 14 -4 8 0 12
8 9 23 -5 27 37 77 66 77 52 0 82 -28 95 -91 3 -14 12 -26 21 -26 10 0 14 6
10 14 -3 8 -5 21 -5 29 0 19 -69 94 -86 94 -8 0 -14 7 -14 15 0 22 -27 18 -33
-5z"/>
<path d="M1170 1936 c7 -7 13 -7 20 0 6 6 3 10 -10 10 -13 0 -16 -4 -10 -10z"/>
<path d="M2195 1940 c-3 -5 -1 -10 4 -10 6 0 11 5 11 10 0 6 -2 10 -4 10 -3 0
-8 -4 -11 -10z"/>
<path d="M2336 1942 c-3 -5 1 -9 9 -9 8 0 12 4 9 9 -3 4 -7 8 -9 8 -2 0 -6 -4
-9 -8z"/>
<path d="M2031 1932 c-1 -8 -6 -10 -13 -6 -10 5 -10 4 -1 -6 15 -16 28 -8 20
12 -4 11 -6 11 -6 0z"/>
<path d="M2370 1925 c0 -8 4 -15 10 -15 5 0 7 7 4 15 -4 8 -8 15 -10 15 -2 0
-4 -7 -4 -15z"/>
<path d="M2430 1930 c0 -5 5 -10 11 -10 5 0 7 5 4 10 -3 6 -8 10 -11 10 -2 0
-4 -4 -4 -10z"/>
<path d="M730 1920 c0 -5 5 -10 10 -10 6 0 10 5 10 10 0 6 -4 10 -10 10 -5 0
-10 -4 -10 -10z"/>
<path d="M1623 1915 c-16 -17 1 -30 23 -17 12 7 13 10 2 19 -9 8 -16 7 -25 -2z"/>
<path d="M1695 1919 c-10 -14 -1 -21 19 -13 9 3 13 10 10 15 -7 12 -21 11 -29
-2z"/>
<path d="M1875 1920 c3 -5 8 -10 11 -10 2 0 4 5 4 10 0 6 -5 10 -11 10 -5 0
-7 -4 -4 -10z"/>
<path d="M2158 1923 c6 -2 9 -10 6 -15 -4 -7 -2 -8 5 -4 13 9 5 26 -12 25 -9
0 -8 -2 1 -6z"/>
<path d="M2234 1913 c-18 -14 -18 -14 1 -11 14 2 19 -2 17 -12 -3 -12 -1 -12
9 -3 32 32 9 53 -27 26z"/>
<path d="M770 1905 c7 -9 15 -13 17 -11 7 7 -7 26 -19 26 -6 0 -6 -6 2 -15z"/>
<path d="M1375 1909 c-10 -15 1 -23 20 -15 9 3 13 10 10 16 -8 13 -22 13 -30
-1z"/>
<path d="M1457 1914 c-11 -11 3 -24 18 -18 8 4 12 10 9 15 -6 11 -18 12 -27 3z"/>
<path d="M1780 1910 c0 -5 5 -10 11 -10 5 0 7 5 4 10 -3 6 -8 10 -11 10 -2 0
-4 -4 -4 -10z"/>
<path d="M2119 1916 c-1 -3 -2 -9 -3 -13 -1 -5 -5 -14 -9 -20 -5 -7 -5 -13 -1
-13 3 0 1 -7 -6 -15 -7 -8 -9 -15 -5 -15 4 0 14 8 22 18 10 12 16 14 19 5 7
-15 24 -17 24 -4 0 5 -9 13 -21 16 -15 5 -17 10 -9 20 8 9 8 15 0 20 -5 3 -11
4 -11 1z"/>
<path d="M2850 1911 c0 -6 4 -13 10 -16 6 -3 7 1 4 9 -7 18 -14 21 -14 7z"/>
<path d="M655 1900 c-3 -5 -1 -10 4 -10 6 0 11 5 11 10 0 6 -2 10 -4 10 -3 0
-8 -4 -11 -10z"/>
<path d="M833 1903 c-13 -3 -23 -9 -23 -14 0 -13 24 -11 38 3 6 6 14 9 17 6 3
-3 -1 -13 -10 -21 -8 -9 -11 -18 -6 -22 5 -3 12 4 16 15 3 11 13 20 20 20 8 0
16 4 19 8 6 9 -32 11 -71 5z"/>
<path d="M700 1883 c-14 -7 -21 -13 -16 -13 6 0 1 -7 -10 -15 -10 -8 -14 -15
-7 -15 14 0 70 46 63 52 -3 3 -16 -1 -30 -9z"/>
<path d="M2910 1890 c0 -5 10 -10 23 -10 18 0 19 2 7 10 -19 13 -30 13 -30 0z"/>
<path d="M1990 1881 c0 -7 -4 -9 -10 -6 -5 3 -10 1 -10 -4 0 -6 4 -11 9 -11
13 0 25 20 17 27 -3 4 -6 1 -6 -6z"/>
<path d="M2166 1875 c4 -8 16 -15 28 -15 12 0 27 -5 32 -10 8 -8 15 -6 24 5
11 13 10 14 -5 9 -14 -6 -16 -4 -10 6 5 8 4 11 -3 6 -5 -3 -13 0 -16 6 -5 10
-7 10 -12 1 -4 -9 -11 -10 -25 -3 -15 8 -17 7 -13 -5z"/>
<path d="M2313 1879 c9 -5 17 -15 17 -21 0 -6 -7 -5 -17 3 -16 12 -16 12 -6
-1 7 -9 26 -15 50 -14 21 1 51 -5 67 -13 15 -8 25 -10 22 -5 -3 6 0 13 6 15 7
3 -2 6 -19 6 -18 1 -33 6 -33 12 0 7 -12 9 -31 7 -20 -3 -33 0 -36 9 -3 7 -13
13 -22 13 -14 -1 -14 -2 2 -11z"/>
<path d="M760 1861 c-13 -11 -28 -17 -32 -15 -4 2 -10 -2 -15 -9 -4 -8 -15
-17 -23 -20 -11 -4 -9 -6 6 -6 11 -1 25 -6 31 -12 9 -9 11 -7 7 7 -3 14 4 23
28 35 17 8 34 21 36 27 5 17 -9 14 -38 -7z"/>
<path d="M890 1870 c-13 -8 -12 -10 3 -10 9 0 17 5 17 10 0 12 -1 12 -20 0z"/>
<path d="M1577 1866 c-3 -8 0 -17 8 -19 17 -7 25 1 18 19 -7 18 -19 18 -26 0z"/>
<path d="M1740 1860 c0 -19 3 -21 12 -12 9 9 9 15 0 24 -9 9 -12 7 -12 -12z"/>
<path d="M1831 1864 c0 -11 3 -14 6 -6 3 7 2 16 -1 19 -3 4 -6 -2 -5 -13z"/>
<path d="M2275 1870 c3 -5 8 -10 11 -10 2 0 4 5 4 10 0 6 -5 10 -11 10 -5 0
-7 -4 -4 -10z"/>
<path d="M920 1858 c0 -14 48 -13 64 2 4 4 -8 8 -28 7 -20 -1 -36 -5 -36 -9z"/>
<path d="M1415 1861 c3 -6 10 -9 15 -6 4 3 11 0 13 -5 3 -6 4 -5 3 2 -1 7 -11
15 -21 16 -11 3 -15 0 -10 -7z"/>
<path d="M1510 1860 c0 -6 -6 -8 -12 -4 -10 6 -10 4 0 -7 9 -9 15 -10 23 -2 8
8 8 13 0 17 -6 4 -11 2 -11 -4z"/>
<path d="M2870 1850 c-8 -15 -8 -20 3 -20 7 0 13 9 14 20 1 11 0 20 -2 20 -2
0 -9 -9 -15 -20z"/>
<path d="M2962 1858 c2 -6 10 -14 16 -16 7 -2 10 2 6 12 -7 18 -28 22 -22 4z"/>
<path d="M588 1853 c6 -2 18 -2 25 0 6 3 1 5 -13 5 -14 0 -19 -2 -12 -5z"/>
<path d="M1300 1850 c0 -5 5 -10 11 -10 5 0 7 5 4 10 -3 6 -8 10 -11 10 -2 0
-4 -4 -4 -10z"/>
<path d="M1660 1850 c-8 -5 -10 -10 -5 -10 6 0 17 5 25 10 8 5 11 10 5 10 -5
0 -17 -5 -25 -10z"/>
<path d="M2470 1843 c0 -17 4 -20 22 -15 16 4 18 7 8 10 -8 3 -18 10 -22 16
-5 6 -8 2 -8 -11z"/>
<path d="M986 1835 c-15 -8 -40 -15 -55 -15 -23 -1 -24 -2 -8 -11 21 -12 67
-4 67 11 0 6 9 10 20 10 11 0 20 5 20 10 0 14 -10 12 -44 -5z"/>
<path d="M2267 1836 c-18 -14 -22 -26 -9 -26 15 0 45 27 36 33 -5 3 -17 0 -27
-7z"/>
<path d="M620 1824 c0 -14 3 -14 15 -4 8 7 15 14 15 16 0 2 -7 4 -15 4 -8 0
-15 -7 -15 -16z"/>
<path d="M888 1833 c7 -3 16 -2 19 1 4 3 -2 6 -13 5 -11 0 -14 -3 -6 -6z"/>
<path d="M1790 1831 c0 -6 4 -13 10 -16 6 -3 7 1 4 9 -7 18 -14 21 -14 7z"/>
<path d="M796 1821 c-13 -5 -16 -10 -9 -14 7 -4 14 -3 18 3 10 16 28 12 21 -5
-4 -13 -2 -14 14 -5 43 23 5 40 -44 21z"/>
<path d="M1035 1820 c-9 -15 2 -27 30 -32 13 -3 22 -1 19 3 -3 5 -12 9 -20 9
-8 0 -13 4 -9 9 3 5 1 12 -4 15 -5 4 -12 2 -16 -4z"/>
<path d="M1454 1819 c-3 -5 0 -17 7 -25 10 -12 14 -12 20 -2 5 7 9 16 9 19 0
12 -29 18 -36 8z"/>
<path d="M1623 1823 c-7 -3 -13 -8 -13 -13 0 -10 24 -7 28 4 5 11 -1 14 -15 9z"/>
<path d="M1696 1822 c-9 -14 9 -31 23 -23 7 5 10 14 7 20 -8 13 -23 14 -30 3z"/>
<path d="M1950 1820 c-9 -6 -10 -10 -3 -10 6 0 15 5 18 10 8 12 4 12 -15 0z"/>
<path d="M2155 1820 c3 -5 16 -15 28 -21 l22 -11 -22 21 c-23 22 -39 28 -28
11z"/>
<path d="M2400 1826 c0 -2 7 -7 16 -10 8 -3 12 -2 9 4 -6 10 -25 14 -25 6z"/>
<path d="M640 1810 c0 -5 5 -10 11 -10 5 0 7 5 4 10 -3 6 -8 10 -11 10 -2 0
-4 -4 -4 -10z"/>
<path d="M1537 1814 c-8 -8 1 -24 14 -24 5 0 9 7 9 15 0 15 -12 20 -23 9z"/>
<path d="M2373 1805 c0 -8 4 -15 9 -15 4 0 8 4 8 9 0 6 -4 12 -8 15 -5 3 -9
-1 -9 -9z"/>
<path d="M2857 1803 c5 -12 3 -14 -8 -8 -10 6 -10 3 2 -11 9 -10 19 -27 22
-37 4 -10 12 -15 18 -12 7 5 5 13 -5 24 -9 10 -16 27 -16 39 0 12 -4 22 -10
22 -5 0 -6 -7 -3 -17z"/>
<path d="M1255 1799 c-4 -6 -14 -8 -22 -4 -13 4 -14 3 -3 -10 8 -10 16 -12 24
-6 7 6 23 8 37 4 23 -5 24 -5 4 10 -24 19 -32 21 -40 6z"/>
<path d="M2620 1801 c0 -7 -5 -9 -12 -5 -7 5 -8 3 -3 -5 5 -9 10 -10 18 -2 6
6 8 14 4 18 -4 3 -7 1 -7 -6z"/>
<path d="M2693 1795 c0 -8 4 -12 9 -9 5 3 6 10 3 15 -9 13 -12 11 -12 -6z"/>
<path d="M880 1785 c8 -7 28 -16 44 -19 39 -7 21 11 -24 24 -30 8 -32 8 -20
-5z"/>
<path d="M2333 1781 c-22 -18 -22 -34 1 -25 6 2 33 0 59 -5 26 -4 49 -5 52 -1
7 11 -35 23 -74 21 -30 -2 -33 0 -21 14 17 20 10 19 -17 -4z"/>
<path d="M2983 1786 c-10 -11 -9 -15 2 -20 10 -4 15 1 15 14 0 23 -1 24 -17 6z"/>
<path d="M1895 1779 c-4 -6 -3 -15 3 -21 6 -6 11 -4 15 6 7 18 -9 31 -18 15z"/>
<path d="M1975 1779 c-10 -14 -1 -21 19 -13 9 3 13 10 10 15 -7 12 -21 11 -29
-2z"/>
<path d="M2277 1769 c3 -10 9 -16 14 -13 13 8 11 21 -5 27 -10 4 -12 0 -9 -14z"/>
<path d="M995 1769 c-3 -4 -12 -6 -20 -2 -8 3 -15 0 -15 -6 0 -6 6 -11 13 -11
6 0 21 -3 32 -6 13 -3 24 2 31 13 9 15 7 18 -13 19 -13 1 -25 -2 -28 -7z"/>
<path d="M1501 1766 c-9 -10 -9 -16 -1 -21 16 -10 31 7 21 23 -6 10 -10 10
-20 -2z"/>
<path d="M1590 1760 c0 -19 3 -21 12 -12 9 9 9 15 0 24 -9 9 -12 7 -12 -12z"/>
<path d="M1655 1770 c-4 -7 -2 -17 5 -23 10 -10 12 -8 6 7 -6 17 -5 17 10 5
15 -12 17 -12 13 0 -7 19 -25 25 -34 11z"/>
<path d="M2240 1771 c0 -5 7 -11 14 -14 10 -4 13 -1 9 9 -6 15 -23 19 -23 5z"/>
<path d="M1074 1755 c21 -16 32 -13 21 4 -3 6 -14 11 -23 11 -15 -1 -15 -2 2
-15z"/>
<path d="M1815 1760 c4 -6 11 -8 16 -5 14 9 11 15 -7 15 -8 0 -12 -5 -9 -10z"/>
<path d="M1160 1750 c0 -5 9 -14 20 -20 11 -6 20 -17 20 -24 0 -17 33 -26 51
-15 10 6 7 9 -11 9 -17 0 -32 10 -45 30 -20 30 -35 39 -35 20z"/>
<path d="M1223 1749 c-16 -7 -16 -8 2 -8 11 -1 30 -8 43 -16 20 -15 21 -15 15
1 -5 13 -3 16 10 11 9 -3 17 -3 17 2 0 12 -64 19 -87 10z"/>
<path d="M1345 1746 c-28 -12 -29 -13 -8 -18 13 -4 27 0 34 8 17 21 8 24 -26
10z"/>
<path d="M2734 1751 c4 -5 1 -12 -4 -14 -6 -3 -5 -4 2 -3 15 3 23 26 8 26 -6
0 -9 -4 -6 -9z"/>
<path d="M2057 1743 c-4 -3 -7 -11 -7 -17 0 -6 5 -5 12 2 6 6 9 14 7 17 -3 3
-9 2 -12 -2z"/>
<path d="M2515 1740 c-3 -5 -2 -10 4 -10 5 0 13 5 16 10 3 6 2 10 -4 10 -5 0
-13 -4 -16 -10z"/>
<path d="M1947 1729 c7 -7 15 -10 18 -7 3 3 -2 9 -12 12 -14 6 -15 5 -6 -5z"/>
<path d="M448 1723 c6 -2 9 -10 6 -15 -4 -7 -2 -8 5 -4 13 9 5 26 -12 25 -9 0
-8 -2 1 -6z"/>
<path d="M1090 1721 c0 -8 -31 -16 -95 -27 -5 -1 -14 -3 -20 -4 -5 -2 -16 -4
-24 -4 -19 -1 -27 -26 -9 -26 8 0 40 7 71 15 32 8 66 15 76 15 10 0 21 9 24
20 3 13 0 20 -9 20 -8 0 -14 -4 -14 -9z"/>
<path d="M1772 1718 c5 -15 28 -18 29 -3 0 6 -7 12 -17 13 -10 3 -15 -1 -12
-10z"/>
<path d="M1850 1720 c0 -5 7 -7 15 -4 8 4 15 8 15 10 0 2 -7 4 -15 4 -8 0 -15
-4 -15 -10z"/>
<path d="M1394 1701 c0 -11 6 -17 13 -14 6 3 9 11 6 19 -7 20 -19 17 -19 -5z"/>
<path d="M1455 1709 c-10 -15 1 -23 20 -15 9 3 13 10 10 16 -8 13 -22 13 -30
-1z"/>
<path d="M1535 1709 c-4 -6 -4 -13 -1 -16 8 -8 36 5 36 17 0 13 -27 13 -35 -1z"/>
<path d="M1615 1711 c-3 -5 -1 -12 5 -16 5 -3 10 -1 10 5 0 6 5 8 10 5 6 -3
10 -1 10 4 0 13 -27 14 -35 2z"/>
<path d="M2165 1710 c-18 -8 -17 -9 8 -9 16 -1 26 3 22 9 -3 6 -7 10 -8 9 -1
0 -11 -4 -22 -9z"/>
<path d="M2490 1711 c0 -5 7 -14 15 -21 16 -14 18 -10 9 14 -6 17 -24 22 -24
7z"/>
<path d="M2762 1704 c-7 -8 -8 -14 -3 -14 10 0 25 19 20 25 -2 1 -10 -3 -17
-11z"/>
<path d="M2930 1704 c0 -8 5 -12 10 -9 6 4 8 11 5 16 -9 14 -15 11 -15 -7z"/>
<path d="M2370 1700 c-24 -8 -23 -8 8 -9 20 -1 31 3 27 9 -3 6 -7 10 -8 9 -1
-1 -13 -5 -27 -9z"/>
<path d="M2616 1695 c4 -8 8 -15 10 -15 2 0 4 7 4 15 0 8 -4 15 -10 15 -5 0
-7 -7 -4 -15z"/>
<path d="M2845 1700 c-3 -5 -1 -10 4 -10 6 0 11 5 11 10 0 6 -2 10 -4 10 -3 0
-8 -4 -11 -10z"/>
<path d="M2986 1693 c-6 -14 -5 -15 5 -6 7 7 10 15 7 18 -3 3 -9 -2 -12 -12z"/>
<path d="M469 1684 c-1 -10 -1 -22 0 -26 0 -4 -4 -19 -9 -32 -5 -14 -5 -28 -1
-31 10 -6 26 93 17 102 -3 4 -7 -2 -7 -13z"/>
<path d="M1320 1689 c0 -5 5 -7 10 -4 6 3 10 8 10 11 0 2 -4 4 -10 4 -5 0 -10
-5 -10 -11z"/>
<path d="M2471 1693 c3 -18 -1 -36 -8 -30 -3 4 -12 2 -20 -4 -7 -6 -26 -9 -43
-6 -23 5 -28 3 -23 -9 6 -16 49 -17 71 -1 8 7 12 4 12 -9 0 -17 1 -17 15 2 17
22 19 50 5 59 -6 4 -10 3 -9 -2z"/>
<path d="M730 1681 c0 -6 4 -13 10 -16 6 -3 7 1 4 9 -7 18 -14 21 -14 7z"/>
<path d="M1733 1683 c-7 -2 -13 -12 -13 -21 0 -8 -7 -24 -17 -34 -9 -10 -14
-21 -10 -24 7 -8 42 26 50 48 4 11 12 15 22 12 19 -8 19 -28 0 -44 -20 -17
-19 -30 3 -30 14 0 15 2 2 10 -9 6 -10 10 -3 10 6 0 19 7 28 16 14 15 14 18
-10 40 -27 25 -31 26 -52 17z"/>
<path d="M1905 1683 c3 -7 1 -13 -6 -13 -10 0 -10 -3 -2 -11 20 -20 35 -6 18
16 -9 11 -14 14 -10 8z"/>
<path d="M2151 1681 c-22 -6 -43 -31 -26 -31 10 0 65 30 65 35 0 6 -7 5 -39
-4z"/>
<path d="M306 1672 c-2 -4 4 -8 14 -8 10 0 16 4 14 8 -3 4 -9 8 -14 8 -5 0
-11 -4 -14 -8z"/>
<path d="M1581 1667 c-9 -12 -8 -16 3 -20 19 -7 32 11 19 24 -6 6 -14 5 -22
-4z"/>
<path d="M1657 1666 c-6 -16 2 -28 14 -20 12 7 11 34 0 34 -5 0 -11 -6 -14
-14z"/>
<path d="M1810 1669 c0 -5 5 -9 10 -9 6 0 12 0 15 0 14 0 8 13 -7 16 -10 1
-18 -2 -18 -7z"/>
<path d="M1330 1655 c-7 -9 -14 -41 -15 -73 -1 -31 -8 -86 -14 -121 -12 -63
-8 -89 9 -61 8 13 10 13 10 1 0 -8 3 -11 6 -8 4 4 1 13 -5 21 -9 11 -9 22 3
49 8 20 12 45 9 55 -2 11 0 22 5 26 6 4 7 21 1 47 -8 34 -7 45 7 60 9 11 12
19 7 19 -6 0 -16 -7 -23 -15z"/>
<path d="M1490 1661 c0 -10 30 -24 37 -17 3 3 2 9 -2 15 -8 13 -35 15 -35 2z"/>
<path d="M2873 1655 c-3 -9 -3 -18 0 -21 9 -9 27 6 27 22 0 19 -19 18 -27 -1z"/>
<path d="M1081 1634 c-21 -21 -31 -24 -67 -18 -32 5 -42 2 -47 -10 -7 -17 8
-22 18 -6 7 12 35 14 35 2 0 -4 -12 -15 -27 -25 -36 -24 -23 -19 58 20 37 18
69 39 72 48 9 23 -14 16 -42 -11z"/>
<path d="M2656 1643 c-6 -14 -5 -15 5 -6 7 7 10 15 7 18 -3 3 -9 -2 -12 -12z"/>
<path d="M2800 1650 c-13 -8 -12 -10 3 -10 9 0 17 5 17 10 0 12 -1 12 -20 0z"/>
<path d="M2055 1628 c-4 -13 -6 -32 -6 -43 2 -15 0 -17 -7 -6 -6 8 -15 10 -23
6 -7 -5 -38 -7 -68 -6 -31 2 -53 -1 -49 -4 4 -4 34 -9 66 -10 62 -3 85 -12
140 -53 32 -24 33 -28 27 -71 -6 -41 -5 -44 10 -31 9 7 13 20 10 29 -3 8 -3
12 1 8 4 -4 13 -2 20 4 19 15 44 4 44 -20 0 -21 -15 -37 -23 -24 -2 5 -2 2 -1
-5 2 -7 -2 -23 -8 -37 -8 -18 -8 -28 1 -38 18 -22 -18 -115 -40 -101 -5 3 -2
16 7 29 12 19 14 37 9 75 -8 55 -25 78 -25 33 0 -16 -6 -35 -12 -42 -22 -21
-16 -92 10 -118 13 -13 20 -28 16 -35 -7 -11 -22 3 -43 41 -7 11 -13 10 -38
-2 -16 -9 -35 -23 -42 -31 -11 -13 -10 -17 3 -22 9 -4 26 -24 37 -46 11 -21
27 -42 35 -45 24 -9 88 41 114 90 l24 45 18 -23 c12 -16 27 -22 44 -20 33 3
29 -27 -5 -32 -20 -3 -22 -1 -11 11 10 13 8 15 -9 11 -12 -2 -19 0 -16 5 3 5
1 11 -4 14 -5 4 -12 2 -15 -2 -7 -12 40 -56 53 -48 5 4 12 2 15 -3 13 -21 -16
-21 -50 -1 l-35 22 -23 -25 c-22 -24 -23 -27 -7 -40 9 -7 24 -12 34 -9 18 4
18 5 1 23 -21 23 -3 26 35 5 l23 -13 -30 -21 c-37 -27 -40 -27 -68 -1 l-23 21
-36 -22 c-36 -22 -42 -39 -8 -25 29 12 62 14 68 4 4 -5 15 -9 26 -9 15 0 19
-7 19 -31 0 -23 5 -32 21 -36 21 -6 21 -6 -2 -19 l-24 -13 30 -1 c35 0 78 26
69 42 -4 6 -2 8 4 4 6 -3 18 4 26 16 18 25 21 53 6 43 -5 -3 -10 -2 -10 4 0 5
4 12 9 15 5 3 5 22 1 42 -5 20 -4 47 1 60 13 36 21 29 14 -13 -5 -30 -4 -35 5
-23 10 12 11 10 5 -10 -12 -49 -12 -55 7 -98 19 -42 18 -99 -1 -88 -5 3 -8 -2
-7 -11 2 -23 -60 -63 -97 -63 -17 0 -39 8 -50 17 -11 10 -17 12 -12 4 6 -10 2
-12 -15 -6 -15 5 -20 4 -16 -4 4 -6 16 -11 27 -11 18 0 19 -5 13 -52 -4 -29
-13 -63 -21 -75 -13 -19 -12 -21 4 -19 14 2 20 17 27 69 l8 67 35 0 c44 0 85
22 108 56 l18 28 16 -34 c12 -27 28 -39 66 -53 54 -20 68 -34 56 -55 -5 -8 -4
-29 1 -46 13 -41 -5 -94 -26 -77 -16 14 -22 7 -24 -32 -3 -43 -30 -76 -70 -83
-26 -5 -38 -3 -46 8 -12 17 -100 62 -90 47 3 -5 -2 -9 -10 -9 -22 0 -35 -30
-30 -70 3 -19 6 -47 7 -62 2 -27 2 -27 17 -8 13 17 18 18 28 8 11 -11 13 -10
10 2 -2 8 5 14 17 15 24 0 25 -15 8 -74 -7 -24 -11 -46 -8 -49 5 -5 19 26 32
72 l9 28 37 -37 c20 -20 37 -41 37 -46 0 -5 7 -9 15 -9 8 0 24 -15 35 -32 10
-18 24 -39 30 -46 6 -7 8 -18 4 -25 -4 -6 -4 -9 1 -5 14 13 70 -65 61 -87 -3
-8 -1 -17 4 -20 4 -3 11 1 13 7 4 8 6 7 6 -4 1 -9 -5 -19 -11 -22 -7 -3 -5 -4
6 -3 10 1 25 -8 33 -21 15 -21 14 -22 -2 -16 -14 6 -16 4 -10 -7 7 -11 5 -11
-10 1 -10 8 -16 10 -12 3 8 -13 -39 -43 -66 -43 -8 0 -20 -7 -27 -16 -12 -14
26 -2 133 41 13 5 17 2 17 -12 0 -21 18 -43 36 -43 7 0 -4 31 -25 73 -54 104
-61 115 -113 184 -27 35 -48 64 -48 65 0 2 21 3 48 3 26 1 129 7 230 15 165
12 205 20 189 37 -6 5 -424 -24 -461 -32 -12 -2 -33 12 -64 46 -26 27 -52 49
-58 49 -6 0 -17 7 -24 15 -15 18 -7 19 23 4 21 -10 21 -10 3 5 -11 9 -24 16
-29 16 -5 0 -7 7 -4 15 4 8 2 17 -3 20 -6 4 -10 -3 -10 -14 0 -12 -4 -21 -10
-21 -5 0 -10 5 -10 11 0 6 -9 9 -20 6 -14 -4 -20 0 -21 11 0 10 -3 12 -5 5 -3
-7 -1 -20 5 -31 8 -14 7 -19 -5 -19 -12 0 -14 11 -12 50 3 52 28 81 28 33 0
-14 5 -26 11 -26 6 0 9 9 6 20 -7 27 5 25 33 -5 45 -48 139 -23 160 42 7 21
24 48 36 60 24 22 24 24 21 207 -1 102 0 186 3 186 30 0 335 21 368 26 43 5
48 10 33 33 -9 13 -88 20 -107 9 -5 -3 -42 -6 -83 -6 -40 -1 -75 -3 -78 -6 -2
-2 -18 0 -34 4 -18 6 -29 5 -29 -1 0 -6 -17 -9 -37 -7 -33 3 -38 0 -41 -20 -2
-13 -14 -28 -28 -34 -25 -12 -30 -23 -15 -32 5 -4 12 0 14 6 3 8 6 4 7 -7 2
-11 4 -31 6 -45 1 -14 -2 -39 -7 -56 -13 -41 -64 -54 -91 -23 -20 24 -43 124
-31 141 4 7 15 33 23 58 13 39 19 45 40 42 17 -1 21 1 12 7 -8 4 -13 11 -13
15 3 17 -1 18 -19 1 -11 -10 -20 -24 -20 -31 0 -9 -5 -10 -25 -1 -19 9 -25 20
-25 45 0 30 -22 84 -50 122 -9 12 -10 11 -5 -8 6 -20 4 -21 -20 -12 -34 13
-42 13 -28 -1 6 -6 9 -17 7 -24 -3 -7 -1 -16 5 -20 6 -3 11 -1 11 6 0 6 9 0
21 -15 22 -28 17 -55 -7 -35 -7 6 -11 15 -8 20 3 5 -2 6 -10 3 -19 -7 -39 29
-25 43 7 7 5 12 -5 16 -8 3 -18 2 -21 -3 -4 -6 -2 -10 3 -10 5 0 9 -6 9 -12 0
-7 4 -22 8 -33 7 -18 5 -17 -19 4 -19 18 -23 27 -14 33 10 6 10 8 -1 8 -8 0
-4 8 10 20 14 11 18 19 11 20 -9 0 -11 7 -7 20 4 14 1 22 -10 26 -9 4 -14 12
-11 19 3 8 -4 10 -20 7 -30 -6 -30 6 0 39 23 25 23 27 8 44 -13 13 -14 19 -4
22 6 3 10 9 7 14 -4 5 0 6 8 4 7 -3 27 2 43 10 l29 17 -49 -5 c-48 -5 -74 3
-104 31 -17 15 -7 15 43 -2 45 -16 138 -8 100 8 -11 5 -39 8 -62 7 -27 -2 -43
2 -43 9 0 7 -8 9 -22 4 -19 -6 -21 -5 -11 8 7 8 10 18 6 21 -8 9 -32 -24 -33
-45 0 -25 -19 -22 -30 5 -5 12 -9 18 -10 12 -2 -23 -29 43 -30 73 0 37 -14 43
-25 10z m12 -55 c-3 -10 -5 -4 -5 12 0 17 2 24 5 18 2 -7 2 -21 0 -30z m123
-94 c0 -5 -7 -9 -15 -9 -9 0 -15 9 -15 21 0 18 2 19 15 9 8 -7 15 -16 15 -21z
m70 -190 c0 -4 -6 -14 -13 -21 -6 -7 -13 -26 -14 -42 0 -16 -10 -38 -22 -49
l-20 -20 3 24 c1 14 6 31 10 38 4 7 8 29 8 49 0 20 5 40 11 44 12 7 37 -8 37
-23z m-103 -1 c-3 -8 -6 -5 -6 6 -1 11 2 17 5 13 3 -3 4 -12 1 -19z m-42 -108
c19 -21 13 -42 -7 -22 -7 7 -17 8 -29 2 -25 -14 -37 9 -14 27 25 17 29 17 50
-7z m62 -40 c9 -13 9 -21 2 -26 -6 -4 -15 -1 -19 7 -11 17 -41 -6 -33 -27 8
-22 -15 -17 -27 6 -9 17 -6 23 22 40 40 24 40 24 55 0z m178 -71 c-3 -24 -1
-47 6 -55 6 -8 9 -15 5 -15 -10 -2 -25 -6 -33 -9 -5 -1 -11 -2 -15 -2 -3 1
-12 -5 -18 -13 -18 -21 -27 -19 -34 10 -10 38 4 52 21 24 14 -24 14 -24 9 8
-3 18 -1 35 3 38 10 6 21 -18 21 -46 0 -11 4 -18 9 -15 5 3 7 15 4 25 -3 10 1
30 8 42 11 22 11 23 -4 10 -22 -17 -22 -3 0 21 22 25 24 24 18 -23z m91 17 c3
-7 -2 -31 -11 -52 l-17 -39 -10 29 c-8 21 -7 30 2 36 6 4 11 10 11 14 -4 28
15 38 25 12z m125 -213 c-12 -20 -14 -14 -5 12 4 9 9 14 11 11 3 -2 0 -13 -6
-23z m-1 -41 c0 -9 -7 -11 -22 -7 -38 12 -44 25 -10 22 19 -1 32 -8 32 -15z"/>
<path d="M360 1633 c0 -15 18 -35 23 -27 3 5 -1 15 -9 22 -8 7 -14 9 -14 5z"/>
<path d="M1115 1610 c-10 -11 -24 -20 -31 -20 -7 0 -16 -5 -20 -11 -10 -17 38
0 60 22 11 10 17 21 15 24 -3 3 -14 -4 -24 -15z"/>
<path d="M1462 1605 c6 -13 15 -22 19 -19 15 9 10 31 -7 38 -24 9 -24 8 -12
-19z"/>
<path d="M1546 1614 c-8 -22 1 -31 16 -16 9 9 9 15 1 23 -7 7 -12 5 -17 -7z"/>
<path d="M1621 1616 c-9 -10 -9 -16 -1 -21 17 -10 37 12 24 25 -8 8 -15 6 -23
-4z"/>
<path d="M2360 1615 c0 -16 22 -35 40 -35 11 1 10 4 -5 12 -11 6 -23 16 -27
22 -5 7 -8 8 -8 1z"/>
<path d="M2834 1609 c-10 -17 10 -29 23 -14 10 10 9 14 -2 19 -8 3 -17 0 -21
-5z"/>
<path d="M2915 1609 c-4 -6 -4 -13 -1 -16 3 -4 6 -1 6 6 0 7 5 9 12 5 7 -4 8
-3 4 4 -9 15 -13 15 -21 1z"/>
<path d="M2986 1603 c-6 -14 -5 -15 5 -6 7 7 10 15 7 18 -3 3 -9 -2 -12 -12z"/>
<path d="M906 1593 c-6 -14 -5 -15 5 -6 7 7 10 15 7 18 -3 3 -9 -2 -12 -12z"/>
<path d="M2527 1603 c-12 -12 -7 -22 8 -17 8 4 15 10 15 15 0 11 -14 12 -23 2z"/>
<path d="M406 1565 c4 -8 10 -12 15 -9 11 6 2 24 -11 24 -5 0 -7 -7 -4 -15z"/>
<path d="M470 1566 c0 -9 5 -16 10 -16 6 0 10 4 10 9 0 6 -4 13 -10 16 -5 3
-10 -1 -10 -9z"/>
<path d="M1581 1566 c-15 -18 2 -31 25 -18 13 7 13 10 1 20 -11 10 -17 9 -26
-2z"/>
<path d="M1660 1565 c-10 -12 -10 -15 3 -15 19 0 31 16 18 24 -5 3 -14 -1 -21
-9z"/>
<path d="M2213 1573 c9 -2 23 -2 30 0 6 3 -1 5 -18 5 -16 0 -22 -2 -12 -5z"/>
<path d="M2260 1571 c0 -6 11 -11 24 -11 28 0 68 -44 59 -66 -3 -8 0 -14 7
-14 20 0 6 52 -20 71 -33 23 -70 33 -70 20z"/>
<path d="M1015 1556 c-18 -13 -18 -14 8 -9 15 3 27 9 27 14 0 13 -13 11 -35
-5z"/>
<path d="M1507 1563 c-12 -11 -8 -23 8 -23 8 0 15 7 15 15 0 16 -12 20 -23 8z"/>
<path d="M2795 1561 c-7 -12 12 -24 25 -16 11 7 4 25 -10 25 -5 0 -11 -4 -15
-9z"/>
<path d="M2957 1564 c-11 -11 3 -24 18 -18 8 4 12 10 9 15 -6 11 -18 12 -27 3z"/>
<path d="M2573 1545 c0 -8 4 -12 9 -9 4 3 8 9 8 15 0 5 -4 9 -8 9 -5 0 -9 -7
-9 -15z"/>
<path d="M2735 1550 c-3 -5 -1 -10 4 -10 6 0 11 5 11 10 0 6 -2 10 -4 10 -3 0
-8 -4 -11 -10z"/>
<path d="M2233 1543 c9 -2 25 -2 35 0 9 3 1 5 -18 5 -19 0 -27 -2 -17 -5z"/>
<path d="M2650 1540 c0 -5 5 -10 11 -10 5 0 7 5 4 10 -3 6 -8 10 -11 10 -2 0
-4 -4 -4 -10z"/>
<path d="M444 1529 c-3 -6 -2 -15 3 -20 5 -5 9 -1 10 11 2 22 -2 25 -13 9z"/>
<path d="M1060 1519 c-14 -11 -35 -24 -47 -29 -13 -5 -23 -14 -23 -19 0 -13
29 -3 53 17 15 14 17 13 17 -4 0 -32 -13 -40 -64 -41 -27 -1 -54 -7 -60 -14
-8 -9 0 -10 38 -5 27 3 57 6 68 6 11 0 23 11 28 26 8 19 14 23 23 16 6 -5 19
-9 28 -9 14 0 14 4 3 26 -8 14 -14 32 -14 39 0 18 -22 14 -50 -9z m40 -9 c0
-5 -5 -10 -11 -10 -5 0 -7 5 -4 10 3 6 8 10 11 10 2 0 4 -4 4 -10z"/>
<path d="M1825 1525 c-27 -7 -54 -11 -59 -8 -5 4 -6 1 -2 -6 5 -7 15 -10 23
-6 13 4 14 3 3 -10 -13 -16 -6 -105 9 -105 4 0 6 14 3 30 -5 35 14 42 21 8 4
-19 4 -18 6 5 1 20 5 26 14 21 6 -4 4 2 -5 13 -26 28 -24 47 3 33 11 -6 33
-12 48 -12 22 -1 27 -5 24 -19 -3 -10 -2 -26 1 -35 5 -13 9 -14 20 -5 10 8 16
9 21 1 3 -6 10 -8 15 -5 5 3 -2 16 -16 30 -31 31 -32 56 -1 27 13 -12 26 -19
30 -15 4 3 -2 12 -13 20 -11 8 -20 22 -20 32 0 23 -53 25 -125 6z m80 -5 c-3
-5 -13 -10 -21 -10 -8 0 -14 5 -14 10 0 6 9 10 21 10 11 0 17 -4 14 -10z"/>
<path d="M1960 1531 c0 -5 10 -11 21 -14 20 -5 21 -11 16 -64 l-5 -58 13 40
13 40 1 -49 c1 -61 11 -54 22 16 8 49 7 54 -18 75 -26 23 -63 31 -63 14z"/>
<path d="M280 1520 c-12 -8 -11 -10 5 -10 17 0 17 -2 5 -10 -9 -6 -10 -10 -3
-10 16 0 23 13 15 27 -5 8 -13 9 -22 3z"/>
<path d="M373 1512 c1 -14 5 -18 11 -12 7 7 6 14 -1 21 -9 9 -12 7 -10 -9z"/>
<path d="M1365 1514 c-20 -15 -19 -16 5 -13 14 2 31 0 38 -4 16 -11 15 1 -2
19 -18 17 -16 17 -41 -2z"/>
<path d="M1550 1511 c0 -11 4 -21 9 -21 18 0 21 18 6 30 -13 10 -15 9 -15 -9z"/>
<path d="M1627 1515 c-3 -7 -3 -15 0 -18 7 -7 33 3 33 13 0 14 -28 19 -33 5z"/>
<path d="M2059 1507 c13 -15 19 -30 15 -41 -5 -12 -2 -15 10 -10 12 5 16 0 16
-17 0 -20 -2 -21 -11 -9 -8 12 -10 9 -6 -12 3 -18 -1 -29 -11 -33 -10 -4 -11
-9 -4 -18 16 -19 1 -34 -33 -35 -98 -1 -144 -15 -145 -44 0 -14 18 -8 24 8 4
10 13 13 27 9 15 -5 19 -4 15 4 -4 6 -3 11 2 11 11 0 19 -45 14 -72 -2 -10
-10 -18 -18 -18 -8 0 -12 5 -9 10 3 6 1 10 -5 10 -23 0 -3 -25 21 -27 13 0 30
-1 37 -2 7 -1 11 -5 8 -10 -3 -5 1 -12 10 -15 12 -4 14 -1 9 14 -4 14 2 27 21
45 15 14 23 25 18 25 -5 0 -2 6 6 13 30 24 50 75 50 128 0 46 -4 56 -32 81
-38 34 -60 38 -29 5z m42 -144 c-12 -20 -14 -14 -5 12 4 9 9 14 11 11 3 -2 0
-13 -6 -23z m-57 -86 c-3 -9 -12 -17 -20 -17 -8 0 -14 -5 -14 -11 0 -5 -4 -7
-10 -4 -15 9 -12 42 6 60 14 14 19 14 31 2 7 -7 11 -21 7 -30z"/>
<path d="M2416 1514 c-3 -8 -10 -13 -14 -10 -14 8 -10 -19 5 -32 11 -10 13 -8
13 12 0 14 5 28 12 32 8 5 9 1 4 -12 -5 -14 -4 -16 5 -7 11 11 5 33 -11 33 -4
0 -11 -7 -14 -16z"/>
<path d="M1473 1505 c0 -8 7 -15 15 -15 7 0 12 5 10 12 -6 18 -25 21 -25 3z"/>
<path d="M2690 1499 c0 -11 4 -18 10 -14 5 3 7 12 3 20 -7 21 -13 19 -13 -6z"/>
<path d="M2781 1504 c0 -11 3 -14 6 -6 3 7 2 16 -1 19 -3 4 -6 -2 -5 -13z"/>
<path d="M2841 1503 c0 -11 3 -13 6 -5 2 6 10 9 15 6 7 -4 8 -2 4 4 -11 18
-26 14 -25 -5z"/>
<path d="M2910 1504 c0 -9 5 -14 12 -12 18 6 21 28 4 28 -9 0 -16 -7 -16 -16z"/>
<path d="M2980 1511 c0 -6 5 -13 10 -16 6 -3 10 1 10 9 0 9 -4 16 -10 16 -5 0
-10 -4 -10 -9z"/>
<path d="M850 1498 c0 -4 7 -8 15 -8 8 0 15 4 15 8 0 5 -7 9 -15 9 -8 0 -15
-4 -15 -9z"/>
<path d="M2616 1495 c-3 -8 -1 -15 4 -15 6 0 10 7 10 15 0 8 -2 15 -4 15 -2 0
-6 -7 -10 -15z"/>
<path d="M489 1476 c-1 -9 -2 -20 -3 -25 0 -4 -17 -21 -36 -37 -19 -16 -37
-31 -40 -35 -64 -80 -121 -167 -126 -193 -4 -22 -24 -37 -36 -30 -5 3 -6 -6
-2 -20 4 -16 1 -35 -9 -49 -13 -20 -24 -24 -79 -25 -34 -1 -76 -5 -93 -9 -16
-4 -36 -7 -44 -7 -8 -1 -16 -7 -19 -15 -3 -10 4 -12 37 -6 23 4 69 8 104 10
34 2 70 3 80 4 11 1 23 14 29 34 34 96 140 261 198 307 46 36 59 38 53 5 -3
-13 0 -46 7 -73 6 -27 13 -58 14 -68 2 -13 14 -21 37 -25 40 -7 140 -65 186
-107 23 -21 46 -31 84 -36 30 -4 69 -17 87 -28 23 -14 37 -17 44 -10 7 7 -5
18 -41 36 -28 15 -51 23 -51 20 0 -4 -7 -1 -15 6 -10 9 -15 9 -15 1 0 -22 -31
-10 -112 45 -93 63 -113 79 -84 68 14 -5 17 -4 12 5 -5 7 -15 10 -23 7 -8 -3
-27 1 -42 9 -16 8 -31 11 -35 8 -3 -4 -7 0 -8 8 0 8 -2 19 -3 24 -2 6 -4 15
-5 20 -1 6 -4 24 -6 40 -1 17 -4 39 -5 50 -1 11 -9 25 -17 31 -10 7 -13 21
-10 38 3 14 1 29 -3 32 -5 3 -10 -2 -10 -10z"/>
<path d="M1723 1431 c5 -65 27 -111 52 -111 8 0 15 -4 15 -10 0 -5 -6 -10 -12
-10 -7 0 0 -7 15 -15 27 -14 57 -11 57 5 0 5 7 16 16 24 8 9 11 16 5 16 -6 0
-16 -9 -23 -20 -17 -27 -27 -25 -38 5 -6 15 -17 25 -30 25 -20 0 -26 25 -21
86 1 12 -6 24 -14 28 -9 3 -14 10 -10 15 3 5 0 13 -6 17 -9 5 -11 -9 -6 -55z"/>
<path d="M2442 1464 c-18 -21 -25 -24 -36 -14 -12 9 -13 7 -9 -9 3 -12 8 -21
10 -21 15 0 83 45 80 54 -6 19 -22 15 -45 -10z"/>
<path d="M401 1470 c-9 -5 -4 -7 13 -7 29 0 32 2 13 10 -8 3 -20 2 -26 -3z"/>
<path d="M2881 1472 c-15 -5 -14 -32 1 -32 6 0 9 -3 6 -6 -3 -3 7 -19 23 -37
16 -17 32 -28 35 -24 4 4 -5 18 -21 32 -25 24 -26 27 -11 44 9 10 16 20 16 22
0 6 -33 6 -49 1z"/>
<path d="M2971 1467 c-9 -12 -8 -16 5 -21 22 -8 28 -1 17 19 -8 14 -11 14 -22
2z"/>
<path d="M45 1459 c-3 -3 4 -9 15 -12 12 -3 20 0 20 7 0 13 -28 18 -35 5z"/>
<path d="M163 1455 c0 -8 4 -15 9 -15 4 0 8 4 8 9 0 6 -4 12 -8 15 -5 3 -9 -1
-9 -9z"/>
<path d="M230 1460 c-9 -6 -10 -10 -3 -10 6 0 15 5 18 10 8 12 4 12 -15 0z"/>
<path d="M640 1450 c-13 -10 -28 -16 -32 -14 -12 7 -17 -11 -7 -26 8 -13 12
-12 27 6 25 31 79 36 119 12 23 -14 31 -15 28 -6 -5 13 -59 38 -95 44 -8 2
-26 -5 -40 -16z"/>
<path d="M1513 1455 c0 -8 4 -15 9 -15 4 0 8 7 8 15 0 8 -4 15 -8 15 -5 0 -9
-7 -9 -15z"/>
<path d="M1580 1454 c0 -14 3 -14 15 -4 8 7 15 14 15 16 0 2 -7 4 -15 4 -8 0
-15 -7 -15 -16z"/>
<path d="M1892 1450 c0 -14 2 -19 5 -12 2 6 2 18 0 25 -3 6 -5 1 -5 -13z"/>
<path d="M2656 1461 c-4 -5 -2 -12 3 -15 5 -4 12 -2 15 3 4 5 2 12 -3 15 -5 4
-12 2 -15 -3z"/>
<path d="M2734 1462 c3 -5 0 -13 -6 -15 -9 -4 -10 -6 -1 -6 17 -1 25 16 12 25
-7 4 -9 3 -5 -4z"/>
<path d="M2800 1458 c0 -8 7 -15 15 -15 18 0 15 19 -3 25 -7 2 -12 -3 -12 -10z"/>
<path d="M0 1449 c0 -5 5 -7 10 -4 5 3 10 8 10 11 0 2 -4 4 -10 4 -5 0 -10 -5
-10 -11z"/>
<path d="M530 1450 c0 -5 4 -10 9 -10 5 0 18 -3 28 -7 16 -6 16 -5 4 10 -15
19 -41 23 -41 7z"/>
<path d="M1330 1451 c0 -17 34 -22 49 -6 14 13 12 15 -17 15 -18 0 -32 -4 -32
-9z"/>
<path d="M1119 1424 c-12 -23 -14 -23 -20 -7 -5 16 -7 15 -18 -6 -11 -19 -11
-22 1 -16 10 6 11 5 1 -6 -18 -19 -16 -43 5 -62 25 -23 54 -21 86 4 33 26 33
39 0 39 -14 0 -23 -4 -20 -9 8 -12 -36 -23 -48 -11 -15 15 1 37 36 45 29 7 30
9 10 12 -18 4 -21 8 -12 18 6 7 7 16 2 19 -5 3 -15 -6 -23 -20z"/>
<path d="M2371 1442 c-1 -8 -7 -12 -13 -10 -15 5 -38 -15 -38 -32 0 -6 -4 -8
-10 -5 -5 3 -10 1 -10 -6 0 -8 -3 -9 -13 0 -14 11 -27 5 -27 -11 0 -5 4 -7 9
-4 5 4 11 1 13 -5 3 -8 13 -6 32 6 23 16 29 16 37 4 7 -12 9 -12 10 1 1 8 1
19 0 24 -1 5 3 12 10 16 6 4 9 14 6 21 -4 11 -6 11 -6 1z"/>
<path d="M2510 1419 c5 -18 12 -34 16 -38 4 -3 3 4 0 17 -4 12 -3 22 3 22 5 0
11 -10 13 -22 2 -13 11 -24 22 -26 18 -4 19 -3 3 13 -9 9 -17 25 -17 35 0 13
-5 17 -15 14 -8 -4 -15 -1 -15 5 0 6 -4 11 -9 11 -6 0 -6 -12 -1 -31z"/>
<path d="M1470 1417 c0 -9 6 -17 13 -17 8 0 20 -11 27 -25 7 -14 17 -25 22
-25 15 0 7 15 -27 50 -26 25 -35 30 -35 17z"/>
<path d="M1550 1415 c0 -8 7 -15 15 -15 8 0 15 4 15 9 0 5 -7 11 -15 15 -9 3
-15 0 -15 -9z"/>
<path d="M2844 1418 c-14 -21 -14 -40 -1 -30 7 5 18 11 26 14 11 3 10 6 -2 16
-12 11 -17 10 -23 0z"/>
<path d="M700 1415 c0 -3 5 -14 12 -25 10 -16 9 -23 -7 -42 -11 -12 -13 -17
-4 -11 13 11 19 8 37 -17 27 -37 27 -45 0 -64 -20 -14 -24 -14 -46 0 -29 19
-40 12 -15 -11 37 -33 105 -85 111 -85 3 0 -9 16 -28 35 -34 36 -24 50 13 18
20 -18 20 -18 4 8 -10 14 -14 29 -11 32 13 13 5 72 -11 83 -9 7 -15 21 -13 31
2 10 -5 26 -14 35 -18 18 -28 23 -28 13z"/>
<path d="M2426 1413 c-10 -11 -7 -65 4 -58 6 3 10 0 10 -7 0 -8 7 -23 16 -34
16 -20 16 -19 -2 34 -4 11 0 8 11 -6 9 -13 15 -32 12 -43 -3 -10 -1 -19 4 -19
5 0 9 -10 9 -22 0 -13 5 -30 11 -38 8 -12 9 -10 4 8 -5 16 -2 22 9 22 8 0 17
4 20 9 4 5 -4 7 -16 3 -17 -4 -20 -2 -15 11 3 9 2 17 -3 19 -5 2 -11 19 -13
38 -3 22 -10 36 -21 38 -9 2 -16 12 -16 22 0 20 -13 33 -24 23z"/>
<path d="M2686 1411 c-3 -5 1 -11 9 -15 9 -3 15 0 15 9 0 16 -16 20 -24 6z"/>
<path d="M375 1400 c-3 -5 -1 -10 4 -10 6 0 11 5 11 10 0 6 -2 10 -4 10 -3 0
-8 -4 -11 -10z"/>
<path d="M930 1399 c0 -5 5 -7 10 -4 6 3 10 8 10 11 0 2 -4 4 -10 4 -5 0 -10
-5 -10 -11z"/>
<path d="M1380 1401 c0 -6 4 -13 10 -16 6 -3 7 1 4 9 -7 18 -14 21 -14 7z"/>
<path d="M2970 1391 c15 -14 26 -18 28 -11 5 14 3 16 -28 25 l-25 7 25 -21z"/>
<path d="M1701 1384 c0 -11 3 -14 6 -6 3 7 2 16 -1 19 -3 4 -6 -2 -5 -13z"/>
<path d="M657 1378 c4 -7 8 -16 9 -20 1 -5 2 -11 3 -15 2 -11 21 20 21 35 0 6
-9 12 -21 12 -14 0 -18 -4 -12 -12z"/>
<path d="M2370 1364 c0 -9 -10 -25 -22 -36 -16 -14 -19 -21 -10 -30 9 -9 12
-9 12 1 0 7 7 19 15 27 14 14 21 54 10 54 -3 0 -5 -7 -5 -16z"/>
<path d="M2804 1367 c-9 -24 6 -44 18 -22 7 11 6 21 -1 28 -7 7 -12 6 -17 -6z"/>
<path d="M167 1359 c7 -7 15 -10 18 -7 3 3 -2 9 -12 12 -14 6 -15 5 -6 -5z"/>
<path d="M1278 1347 c-3 -15 0 -24 9 -24 15 0 18 33 4 41 -5 3 -11 -5 -13 -17z"/>
<path d="M1355 1359 c-6 -8 -4 -10 5 -4 10 6 12 4 6 -11 -6 -15 -5 -17 5 -6 9
9 10 15 2 23 -8 8 -13 7 -18 -2z"/>
<path d="M2740 1352 c0 -12 4 -22 9 -22 10 0 9 26 -2 36 -4 4 -7 -2 -7 -14z"/>
<path d="M2883 1358 c-6 -7 -16 -24 -22 -38 -10 -21 -9 -22 1 -6 7 11 21 28
31 38 9 10 13 18 8 18 -5 0 -13 -6 -18 -12z"/>
<path d="M2320 1342 c0 -12 3 -12 15 -2 8 7 15 13 15 15 0 1 -7 2 -15 2 -8 0
-15 -7 -15 -15z"/>
<path d="M2992 1330 c0 -19 2 -27 5 -17 2 9 2 25 0 35 -3 9 -5 1 -5 -18z"/>
<path d="M1680 1341 c0 -5 7 -15 17 -22 15 -13 15 -12 4 9 -12 23 -21 28 -21
13z"/>
<path d="M630 1333 c0 -15 34 -43 53 -43 9 0 17 7 17 15 0 9 -6 12 -15 8 -9
-3 -25 3 -35 12 -11 10 -20 14 -20 8z"/>
<path d="M2505 1330 c3 -5 13 -6 21 -3 9 3 20 0 25 -8 7 -11 9 -11 9 4 0 12
-8 17 -31 17 -17 0 -28 -4 -24 -10z"/>
<path d="M1480 1325 c0 -18 19 -40 26 -32 4 4 0 15 -9 24 -9 10 -17 13 -17 8z"/>
<path d="M1550 1305 c0 -8 7 -15 15 -15 8 0 15 7 15 15 0 8 -7 15 -15 15 -8 0
-15 -7 -15 -15z"/>
<path d="M1163 1301 c3 -12 -51 -58 -85 -72 -28 -11 -38 -29 -18 -29 20 0 73
32 96 58 25 28 31 52 14 52 -5 0 -9 -4 -7 -9z"/>
<path d="M2293 1288 c2 -7 11 -12 21 -10 9 2 16 -3 16 -9 0 -7 2 -10 5 -7 3 3
3 13 -1 22 -7 19 -48 23 -41 4z"/>
<path d="M2698 1283 c7 -3 16 -2 19 1 4 3 -2 6 -13 5 -11 0 -14 -3 -6 -6z"/>
<path d="M2880 1272 c0 -5 7 -9 15 -9 8 0 12 4 9 9 -3 4 -9 8 -15 8 -5 0 -9
-4 -9 -8z"/>
<path d="M1210 1263 c0 -5 13 -31 30 -59 19 -35 38 -54 55 -58 14 -4 23 -10
20 -15 -2 -5 2 -11 10 -15 8 -3 17 -1 20 4 4 6 0 10 -7 11 -7 0 -3 4 10 9 12
5 22 14 22 20 0 7 -6 8 -17 2 -12 -7 -24 -5 -40 5 -13 8 -23 12 -23 8 0 -4
-15 12 -34 36 -19 23 -32 47 -30 51 3 4 0 8 -5 8 -6 0 -11 -3 -11 -7z"/>
<path d="M1830 1250 c-14 -19 -47 -36 -62 -32 -5 1 -8 -2 -8 -8 0 -5 8 -10 18
-11 9 0 12 -3 6 -5 -7 -3 -10 -14 -7 -24 3 -12 0 -20 -6 -20 -7 0 -10 -4 -6
-10 3 -5 15 -6 29 0 13 5 29 4 37 -1 11 -7 11 -9 1 -9 -7 0 -10 -4 -7 -10 3
-5 1 -10 -5 -10 -7 0 -10 -6 -7 -12 2 -7 10 -12 16 -10 9 2 9 -3 1 -18 -15
-28 -3 -60 21 -60 12 0 19 7 19 20 0 11 5 20 10 20 12 0 12 -2 1 -33 -7 -19
-6 -27 4 -31 9 -3 12 0 8 10 -3 8 0 20 6 27 12 15 -11 57 -32 57 -8 0 -8 -3 1
-9 11 -7 11 -9 -2 -14 -9 -4 -13 -13 -10 -22 4 -8 1 -15 -6 -15 -9 0 -11 10
-6 32 10 53 41 61 63 17 7 -13 13 -20 13 -16 0 5 7 1 16 -8 9 -9 18 -14 21
-11 7 7 -21 46 -34 46 -13 0 -28 19 -20 26 9 9 51 -19 90 -61 41 -44 48 -87
14 -93 -16 -3 -17 -1 -7 17 6 12 9 21 6 21 -7 0 -68 -102 -63 -106 2 -2 17 8
34 23 16 16 40 36 51 45 22 18 31 68 12 68 -5 0 -10 5 -10 10 0 6 -14 26 -32
45 -23 25 -37 34 -51 29 -16 -5 -18 -3 -12 18 4 12 4 20 -1 15 -4 -4 -18 3
-31 15 -13 12 -41 24 -63 27 l-40 6 25 28 c15 16 31 24 38 20 7 -4 5 2 -3 13
-8 10 -15 20 -15 21 -1 1 -7 -7 -15 -17z m41 -102 c12 -13 19 -17 15 -10 -8
14 10 17 19 2 3 -5 -6 -12 -20 -16 -14 -3 -25 -10 -25 -15 0 -5 -4 -9 -10 -9
-15 0 -12 30 3 30 6 0 1 9 -13 20 -20 15 -21 20 -8 20 10 0 27 -10 39 -22z"/>
<path d="M2556 1253 c-6 -14 -5 -15 5 -6 7 7 10 15 7 18 -3 3 -9 -2 -12 -12z"/>
<path d="M2060 1252 c1 -17 19 -34 29 -28 17 11 13 23 -9 29 -11 3 -20 2 -20
-1z"/>
<path d="M1889 1238 c-7 -24 -7 -48 0 -44 15 9 108 -44 119 -67 6 -12 11 -17
11 -12 2 24 -37 68 -69 79 -23 8 -35 17 -34 29 1 9 -4 17 -12 17 -8 0 -14 -1
-15 -2z"/>
<path d="M443 1208 c-1 -12 -8 -25 -15 -29 -8 -5 -8 -9 -2 -9 6 0 18 8 28 19
13 15 14 20 3 29 -10 8 -13 6 -14 -10z"/>
<path d="M380 1206 c0 -9 5 -16 10 -16 6 0 10 4 10 9 0 6 -4 13 -10 16 -5 3
-10 -1 -10 -9z"/>
<path d="M1125 1205 c-16 -7 -23 -14 -14 -14 8 -1 24 6 35 14 24 18 18 18 -21
0z"/>
<path d="M1202 1188 c6 -21 18 -38 25 -38 15 0 8 17 -21 55 -14 18 -14 17 -4
-17z"/>
<path d="M2480 1203 c0 -12 5 -25 10 -28 13 -8 13 15 0 35 -8 12 -10 11 -10
-7z"/>
<path d="M2520 1198 c0 -19 2 -20 10 -8 13 19 13 30 0 30 -5 0 -10 -10 -10
-22z"/>
<path d="M115 1200 c-8 -13 9 -20 24 -11 10 6 9 10 -3 14 -8 3 -18 2 -21 -3z"/>
<path d="M516 1188 c-3 -13 -6 -25 -7 -28 -3 -15 -23 -29 -32 -23 -6 4 -8 0
-4 -10 3 -9 -1 -18 -10 -21 -23 -9 -8 -19 16 -11 12 3 21 13 21 21 0 8 3 14 8
14 8 0 32 49 32 67 0 22 -17 15 -24 -9z"/>
<path d="M35 1190 c-3 -5 1 -10 9 -10 9 0 16 5 16 10 0 6 -4 10 -9 10 -6 0
-13 -4 -16 -10z"/>
<path d="M686 1192 c5 -5 34 -23 65 -40 40 -23 56 -28 56 -17 0 8 -4 12 -9 9
-4 -3 -28 9 -52 25 -40 28 -85 44 -60 23z"/>
<path d="M1392 1160 c-10 -17 -10 -20 4 -20 8 0 13 4 10 9 -3 5 1 12 10 15 8
3 12 2 9 -4 -3 -6 1 -7 9 -4 9 3 13 10 10 15 -9 16 -39 10 -52 -11z"/>
<path d="M338 1153 c-6 -23 1 -45 13 -37 12 7 12 54 0 54 -5 0 -11 -8 -13 -17z"/>
<path d="M1460 1163 c0 -5 9 -14 20 -21 11 -7 20 -8 20 -2 0 5 -9 14 -20 20
-11 6 -20 7 -20 3z"/>
<path d="M2527 1163 c-4 -3 -7 -11 -7 -17 0 -6 5 -5 12 2 6 6 9 14 7 17 -3 3
-9 2 -12 -2z"/>
<path d="M2694 1149 c-6 -11 14 -21 26 -14 6 4 17 1 25 -5 12 -10 15 -9 15 3
0 16 -57 30 -66 16z"/>
<path d="M1156 1133 c-6 -14 -5 -15 5 -6 7 7 10 15 7 18 -3 3 -9 -2 -12 -12z"/>
<path d="M2939 1135 c18 -8 36 -15 40 -15 13 1 -45 29 -59 29 -8 0 0 -6 19
-14z"/>
<path d="M1250 1121 c0 -25 6 -27 13 -6 4 8 2 17 -3 20 -6 4 -10 -3 -10 -14z"/>
<path d="M2645 1124 c9 -9 19 -13 23 -10 3 4 0 11 -8 16 -24 15 -33 11 -15 -6z"/>
<path d="M1283 1118 c-19 -25 -26 -41 -15 -34 5 3 13 1 15 -4 3 -6 4 -5 3 2
-2 7 1 21 6 31 10 20 5 23 -9 5z"/>
<path d="M2585 1120 c3 -5 8 -10 11 -10 2 0 4 5 4 10 0 6 -5 10 -11 10 -5 0
-7 -4 -4 -10z"/>
<path d="M390 1105 c-10 -13 -9 -15 9 -15 11 0 21 4 21 9 0 18 -18 21 -30 6z"/>
<path d="M700 1111 c0 -12 39 -35 46 -28 3 2 -7 12 -21 21 -14 9 -25 12 -25 7z"/>
<path d="M1107 1113 c-4 -3 -7 -11 -7 -17 0 -6 5 -5 12 2 6 6 9 14 7 17 -3 3
-9 2 -12 -2z"/>
<path d="M1448 1108 c13 -13 162 -23 162 -10 0 4 -24 7 -53 7 -28 1 -68 4 -87
8 -27 6 -32 5 -22 -5z"/>
<path d="M300 1098 c0 -7 -3 -24 -6 -38 -5 -24 -5 -24 10 -6 18 22 21 56 6 56
-5 0 -10 -6 -10 -12z"/>
<path d="M1647 1103 c-4 -3 -7 -11 -7 -17 0 -6 5 -5 12 2 6 6 9 14 7 17 -3 3
-9 2 -12 -2z"/>
<path d="M2031 1100 c0 -18 27 -79 28 -64 1 7 -6 27 -14 45 -8 19 -14 27 -14
19z"/>
<path d="M960 1073 c0 -8 12 -13 30 -13 17 0 30 -4 30 -8 0 -5 21 -9 46 -11
25 -1 55 -5 67 -9 12 -4 47 -5 77 -1 30 3 45 6 33 7 -15 1 -21 7 -17 16 4 11
0 13 -15 9 -11 -3 -19 -8 -17 -12 6 -9 -45 -7 -67 3 -9 5 -28 6 -41 4 -17 -4
-23 -1 -19 9 4 9 -5 13 -28 14 -19 0 -44 2 -56 3 -14 2 -23 -3 -23 -11z"/>
<path d="M450 1076 c0 -2 6 -9 13 -15 10 -8 14 -7 14 4 0 8 -6 15 -14 15 -7 0
-13 -2 -13 -4z"/>
<path d="M550 1071 c0 -5 7 -11 15 -15 8 -3 15 -1 15 3 0 5 -7 11 -15 15 -8 3
-15 1 -15 -3z"/>
<path d="M1590 1076 c0 -2 7 -6 15 -10 8 -3 15 -1 15 4 0 6 -7 10 -15 10 -8 0
-15 -2 -15 -4z"/>
<path d="M1810 1072 c0 -7 -9 -12 -20 -12 -13 0 -20 -7 -20 -20 0 -11 -7 -21
-15 -21 -8 -1 -20 -2 -27 -3 -6 0 -13 -7 -16 -14 -3 -9 3 -11 21 -7 45 12 185
-81 171 -114 -15 -34 -44 -125 -44 -135 1 -17 29 37 30 55 0 9 9 36 20 60 11
24 20 49 20 56 0 6 -18 22 -40 34 -22 13 -39 28 -36 34 2 6 -6 11 -18 11 -13
-1 -20 4 -18 13 2 8 -3 18 -9 22 -10 6 -10 11 1 23 7 9 10 19 6 23 -3 3 -6 1
-6 -5z m-5 -52 c3 -5 -1 -10 -9 -10 -9 0 -16 5 -16 10 0 6 4 10 9 10 6 0 13
-4 16 -10z"/>
<path d="M707 1056 c-4 -10 -1 -13 9 -9 7 3 14 9 14 14 0 14 -17 10 -23 -5z"/>
<path d="M1660 1059 c0 -5 5 -7 10 -4 6 3 10 8 10 11 0 2 -4 4 -10 4 -5 0 -10
-5 -10 -11z"/>
<path d="M2470 1060 c0 -5 7 -7 15 -4 8 4 15 8 15 10 0 2 -7 4 -15 4 -8 0 -15
-4 -15 -10z"/>
<path d="M2520 1054 c0 -14 3 -15 18 -3 9 7 19 15 21 16 2 2 -5 3 -17 3 -14 0
-22 -6 -22 -16z"/>
<path d="M520 1050 c0 -5 5 -10 11 -10 5 0 7 5 4 10 -3 6 -8 10 -11 10 -2 0
-4 -4 -4 -10z"/>
<path d="M641 1043 c0 -11 3 -13 6 -5 2 6 10 9 15 6 7 -4 8 -2 4 4 -11 18 -26
14 -25 -5z"/>
<path d="M295 999 c-15 -28 -25 -58 -23 -66 2 -9 15 14 29 50 14 37 25 67 23
67 -2 0 -15 -23 -29 -51z"/>
<path d="M1430 1040 c0 -5 5 -10 10 -10 6 0 10 5 10 10 0 6 -4 10 -10 10 -5 0
-10 -4 -10 -10z"/>
<path d="M721 1035 c0 -24 61 -77 97 -82 20 -3 42 -10 49 -15 15 -12 29 10 15
24 -6 6 -31 13 -57 16 -26 2 -49 11 -52 18 -3 8 -10 14 -15 14 -6 0 -17 8 -24
18 -7 9 -13 13 -13 7z"/>
<path d="M1555 1030 c-3 -5 -1 -10 4 -10 6 0 11 5 11 10 0 6 -2 10 -4 10 -3 0
-8 -4 -11 -10z"/>
<path d="M1950 998 c-26 -41 -28 -50 -12 -56 10 -3 49 85 41 92 -2 2 -15 -14
-29 -36z"/>
<path d="M218 984 c-25 -53 -51 -66 -73 -37 -13 17 -14 16 -15 -9 0 -16 -3
-29 -7 -29 -5 -1 -28 -3 -53 -4 -25 -2 -51 -3 -57 -4 -7 -1 -13 -5 -13 -11 0
-6 26 -8 68 -5 99 6 105 8 125 33 10 12 23 20 27 17 5 -3 14 3 20 14 6 12 6
22 0 26 -15 9 0 34 18 28 10 -3 13 -1 7 4 -5 4 -13 12 -17 17 -4 4 -17 -14
-30 -40z"/>
<path d="M1920 1009 c0 -18 2 -19 15 -9 15 12 12 30 -6 30 -5 0 -9 -10 -9 -21z"/>
<path d="M2170 1016 c0 -8 4 -17 9 -20 5 -4 7 3 4 14 -6 23 -13 26 -13 6z"/>
<path d="M460 1011 c0 -6 4 -13 10 -16 6 -3 7 1 4 9 -7 18 -14 21 -14 7z"/>
<path d="M1206 1011 c-7 -10 42 -21 61 -14 7 3 13 9 13 14 0 12 -67 12 -74 0z"/>
<path d="M1038 998 c9 -9 15 -9 24 0 9 9 7 12 -12 12 -19 0 -21 -3 -12 -12z"/>
<path d="M80 986 c0 -8 -9 -18 -20 -21 -11 -3 -20 -13 -20 -21 0 -21 18 -17
30 6 6 11 17 20 25 20 9 0 12 6 9 15 -8 19 -24 20 -24 1z"/>
<path d="M166 985 c4 -8 10 -12 15 -9 14 8 10 24 -6 24 -9 0 -12 -6 -9 -15z"/>
<path d="M673 970 c1 -11 5 -20 9 -20 11 0 10 28 -1 35 -6 3 -9 -4 -8 -15z"/>
<path d="M2383 968 c2 -15 0 -25 -4 -22 -5 3 -9 0 -9 -5 0 -6 9 -11 20 -11 24
0 26 19 4 46 -15 18 -15 18 -11 -8z"/>
<path d="M361 957 c12 -27 52 -57 43 -32 -4 9 0 15 10 15 9 0 16 4 16 9 0 5
-9 7 -20 4 -12 -3 -22 1 -26 11 -3 9 -12 16 -20 16 -11 0 -11 -5 -3 -23z"/>
<path d="M960 965 c7 -9 15 -13 17 -11 7 7 -7 26 -19 26 -6 0 -6 -6 2 -15z"/>
<path d="M2531 964 c0 -11 3 -14 6 -6 3 7 2 16 -1 19 -3 4 -6 -2 -5 -13z"/>
<path d="M725 950 c3 -5 11 -10 16 -10 6 0 7 5 4 10 -3 6 -11 10 -16 10 -6 0
-7 -4 -4 -10z"/>
<path d="M910 950 c0 -5 5 -10 10 -10 6 0 10 5 10 10 0 6 -4 10 -10 10 -5 0
-10 -4 -10 -10z"/>
<path d="M2200 955 c0 -5 5 -17 10 -25 5 -8 10 -10 10 -5 0 6 -5 17 -10 25 -5
8 -10 11 -10 5z"/>
<path d="M1790 940 c-20 -12 -5 -24 16 -12 9 5 12 12 7 15 -5 3 -15 2 -23 -3z"/>
<path d="M936 924 c-11 -7 -17 -16 -15 -19 3 -3 14 2 25 9 10 8 17 17 14 19
-3 3 -14 -1 -24 -9z"/>
<path d="M1714 925 c-18 -14 -18 -14 4 -8 12 3 22 9 22 14 0 12 -3 11 -26 -6z"/>
<path d="M195 897 c-8 -13 -20 -40 -26 -58 -16 -56 -49 -309 -49 -376 l0 -63
-27 6 c-16 3 -43 10 -60 14 -25 6 -33 5 -33 -5 0 -9 21 -15 60 -20 l60 -7 -2
-37 c-2 -45 -11 -51 -68 -46 -25 2 -36 2 -25 -1 35 -10 37 -21 6 -32 -21 -7
-31 -18 -31 -31 0 -20 0 -20 48 0 26 12 56 31 66 42 l19 22 -7 -28 c-7 -29 9
-137 27 -174 5 -12 10 -40 10 -62 0 -45 2 -48 23 -26 13 13 12 19 -4 52 -11
21 -22 49 -26 63 -7 24 -6 24 19 -5 l26 -30 -12 30 c-24 63 -56 184 -51 190 3
3 7 65 8 138 1 82 8 158 18 201 9 38 14 78 10 89 -5 15 -3 17 7 11 12 -6 12
-5 1 8 -10 12 -9 23 3 58 8 23 15 51 15 60 0 10 6 20 13 23 6 2 9 8 5 11 -3 4
-14 -3 -23 -17z"/>
<path d="M1760 911 c12 -9 10 -11 -9 -11 -20 0 -22 -3 -13 -12 9 -9 15 -9 24
0 17 17 28 15 28 -4 0 -9 -5 -12 -12 -8 -7 4 -10 4 -6 0 3 -4 0 -23 -8 -41
-25 -61 -14 -100 15 -54 11 19 11 21 -3 16 -17 -7 -22 8 -6 18 6 3 10 15 10
27 0 14 5 18 15 14 10 -3 15 1 15 12 0 25 -12 38 -40 46 -19 6 -21 5 -10 -3z"/>
<path d="M2351 898 c5 -10 12 -18 14 -18 3 0 5 8 5 18 0 10 -7 19 -14 19 -11
0 -13 -5 -5 -19z"/>
<path d="M2282 878 c11 -32 23 -39 13 -8 -5 16 -2 20 15 20 17 0 21 -4 15 -17
-5 -14 -3 -15 6 -6 16 16 4 30 -30 35 -28 4 -28 3 -19 -24z"/>
<path d="M840 879 c0 -5 5 -7 10 -4 6 3 10 8 10 11 0 2 -4 4 -10 4 -5 0 -10
-5 -10 -11z"/>
<path d="M978 883 c6 -2 18 -2 25 0 6 3 1 5 -13 5 -14 0 -19 -2 -12 -5z"/>
<path d="M1851 863 c0 -25 1 -26 9 -8 12 27 12 35 0 35 -5 0 -10 -12 -9 -27z"/>
<path d="M2093 870 c1 -20 12 -26 20 -12 3 4 -1 13 -8 19 -11 10 -13 9 -12 -7z"/>
<path d="M515 870 c3 -5 8 -10 11 -10 2 0 4 5 4 10 0 6 -5 10 -11 10 -5 0 -7
-4 -4 -10z"/>
<path d="M648 862 c-3 -10 4 -24 18 -35 22 -17 24 -16 34 3 9 17 8 20 -10 20
-11 0 -20 7 -20 15 0 21 -17 19 -22 -3z"/>
<path d="M531 856 c-8 -9 -11 -19 -7 -23 9 -9 29 13 24 27 -2 8 -8 7 -17 -4z"/>
<path d="M776 848 c-24 -37 -10 -71 41 -101 38 -23 48 -26 61 -15 8 7 17 12
19 11 1 -2 6 -3 11 -2 4 0 -2 4 -13 8 -11 5 -25 5 -31 0 -13 -10 -44 -2 -44
12 0 5 -7 9 -15 9 -9 0 -20 12 -25 26 -13 32 2 61 32 67 l23 4 -22 2 c-13 0
-28 -8 -37 -21z"/>
<path d="M2020 860 c-13 -8 -13 -10 2 -10 9 0 20 5 23 10 8 13 -5 13 -25 0z"/>
<path d="M330 850 c0 -5 5 -10 11 -10 5 0 7 5 4 10 -3 6 -8 10 -11 10 -2 0 -4
-4 -4 -10z"/>
<path d="M925 850 c3 -5 10 -10 16 -10 5 0 9 5 9 10 0 6 -7 10 -16 10 -8 0
-12 -4 -9 -10z"/>
<path d="M1180 846 c0 -8 13 -24 30 -36 l30 -21 -23 35 c-23 37 -37 45 -37 22z"/>
<path d="M804 825 c-10 -8 -14 -15 -7 -15 6 0 18 -3 26 -6 10 -4 15 0 13 10
-3 24 -11 27 -32 11z"/>
<path d="M2110 830 c0 -5 5 -10 11 -10 5 0 7 5 4 10 -3 6 -8 10 -11 10 -2 0
-4 -4 -4 -10z"/>
<path d="M566 821 c-4 -5 1 -8 9 -7 21 3 31 16 12 16 -9 0 -18 -4 -21 -9z"/>
<path d="M900 820 c0 -5 5 -10 11 -10 5 0 7 5 4 10 -3 6 -8 10 -11 10 -2 0 -4
-4 -4 -10z"/>
<path d="M1710 820 c-12 -7 -10 -9 8 -7 12 0 22 5 22 9 0 11 -12 10 -30 -2z"/>
<path d="M1845 821 c-3 -5 -1 -12 5 -16 5 -3 10 1 10 9 0 18 -6 21 -15 7z"/>
<path d="M985 800 c-3 -5 -1 -10 4 -10 6 0 11 5 11 10 0 6 -2 10 -4 10 -3 0
-8 -4 -11 -10z"/>
<path d="M286 787 c3 -10 9 -15 12 -12 3 3 0 11 -7 18 -10 9 -11 8 -5 -6z"/>
<path d="M870 791 c0 -6 5 -13 10 -16 6 -3 10 1 10 9 0 9 -4 16 -10 16 -5 0
-10 -4 -10 -9z"/>
<path d="M1160 791 c0 -5 9 -11 20 -14 24 -6 27 8 4 17 -21 8 -24 8 -24 -3z"/>
<path d="M1687 793 c-13 -12 -7 -33 9 -33 14 0 15 2 3 16 -12 15 -11 16 10 9
16 -5 21 -4 17 4 -8 12 -29 15 -39 4z"/>
<path d="M1816 792 c-2 -4 -1 -23 3 -42 l7 -35 10 30 c11 31 8 55 -6 55 -5 0
-11 -3 -14 -8z"/>
<path d="M1640 766 c0 -14 5 -28 11 -32 8 -4 9 1 4 16 -5 15 -2 25 6 31 11 7
10 9 -3 9 -12 0 -18 -8 -18 -24z"/>
<path d="M2496 761 c16 -16 31 -27 33 -25 6 6 -41 54 -52 54 -6 0 3 -13 19
-29z"/>
<path d="M1210 776 c0 -3 9 -10 20 -16 11 -6 20 -8 20 -6 0 3 -9 10 -20 16
-11 6 -20 8 -20 6z"/>
<path d="M1030 756 c0 -8 -6 -17 -12 -19 -8 -3 -6 -6 5 -6 11 -1 17 6 17 19 0
11 -2 20 -5 20 -3 0 -5 -6 -5 -14z"/>
<path d="M1150 761 c0 -5 5 -13 10 -16 6 -3 10 -2 10 4 0 5 -4 13 -10 16 -5 3
-10 2 -10 -4z"/>
<path d="M950 751 c0 -6 5 -11 10 -11 6 0 10 -9 10 -19 0 -11 4 -22 9 -25 14
-9 0 42 -15 55 -10 8 -14 8 -14 0z"/>
<path d="M1199 751 c11 -7 10 -11 -5 -20 -17 -9 -16 -10 9 -11 15 0 27 4 27 8
0 12 -22 32 -34 32 -6 0 -5 -4 3 -9z"/>
<path d="M930 725 c0 -8 -7 -15 -15 -15 -8 0 -15 -5 -15 -10 0 -7 6 -7 20 0
17 9 29 40 15 40 -3 0 -5 -7 -5 -15z"/>
<path d="M1670 730 c0 -5 5 -10 10 -10 6 0 10 5 10 10 0 6 -4 10 -10 10 -5 0
-10 -4 -10 -10z"/>
<path d="M2261 713 c-1 -24 -7 -33 -23 -39 -13 -4 -40 -22 -62 -41 -35 -32
-43 -35 -84 -30 -32 3 -53 0 -69 -10 -17 -11 -36 -14 -69 -9 -29 3 -43 2 -39
-4 3 -6 23 -10 43 -10 44 0 32 -18 -20 -30 l-33 -8 33 -1 c19 -1 31 -5 27 -11
-3 -5 -1 -19 5 -30 11 -21 64 -28 75 -10 4 6 10 8 14 5 8 -5 57 17 97 44 19
12 20 18 10 35 -6 12 -15 24 -21 28 -6 5 -5 8 4 8 7 0 27 11 45 25 17 14 44
36 59 48 24 19 27 25 18 47 -10 25 -10 25 -10 -7z m-171 -133 c-19 -13 -30
-13 -30 0 0 6 10 10 23 10 18 0 19 -2 7 -10z m47 -10 c-3 -10 0 -21 7 -23 6
-2 1 -9 -12 -16 -18 -10 -22 -9 -22 4 0 8 -4 15 -10 15 -5 0 -10 -9 -10 -20 0
-11 -7 -20 -15 -20 -22 0 -18 38 5 50 11 6 25 8 30 5 6 -3 10 1 10 9 0 9 5 16
11 16 6 0 9 -9 6 -20z m-90 -55 c-6 -14 -55 -26 -62 -15 -8 13 8 50 22 50 10
0 12 -6 8 -21 -5 -15 -4 -19 4 -15 6 4 11 17 11 30 0 12 3 26 8 30 8 9 16 -40
9 -59z"/>
<path d="M1135 720 c-3 -5 -1 -10 4 -10 6 0 11 5 11 10 0 6 -2 10 -4 10 -3 0
-8 -4 -11 -10z"/>
<path d="M1620 711 c-13 -26 -13 -31 3 -26 15 6 50 -75 45 -106 -2 -12 2 -24
8 -26 15 -5 0 86 -25 150 -12 32 -17 33 -31 8z"/>
<path d="M1015 711 c-3 -5 -1 -12 5 -16 5 -3 10 1 10 9 0 18 -6 21 -15 7z"/>
<path d="M1574 708 c3 -10 1 -20 -4 -23 -15 -9 1 -35 21 -35 10 0 19 -4 19
-10 0 -5 -10 -10 -22 -10 -17 0 -19 -3 -9 -9 7 -5 22 -6 34 -3 14 3 18 1 13
-6 -4 -7 -1 -12 8 -12 20 0 21 19 1 26 -8 4 -15 14 -15 25 0 10 -6 22 -13 26
-8 4 -19 17 -26 28 -9 14 -11 15 -7 3z"/>
<path d="M1700 716 c0 -11 30 -39 36 -34 2 3 -5 13 -16 23 -11 10 -20 15 -20
11z"/>
<path d="M1770 701 c-5 -11 -10 -28 -10 -38 1 -14 4 -13 15 7 12 22 20 21 16
-2 0 -5 4 -8 9 -8 6 0 10 14 10 30 0 35 -23 41 -40 11z"/>
<path d="M449 692 c6 -12 16 -24 22 -28 8 -4 8 -1 0 14 -6 12 -16 24 -22 28
-8 4 -8 1 0 -14z"/>
<path d="M1265 700 c3 -5 11 -10 16 -10 6 0 7 5 4 10 -3 6 -11 10 -16 10 -6 0
-7 -4 -4 -10z"/>
<path d="M1675 695 c5 -11 8 -30 8 -42 -1 -13 3 -23 8 -23 15 0 10 43 -8 65
-16 20 -16 20 -8 0z"/>
<path d="M1818 643 c-15 -32 -45 -85 -67 -118 -32 -48 -37 -62 -25 -68 22 -12
18 -30 -5 -18 -14 8 -23 6 -36 -9 -18 -19 -17 -20 9 -20 15 0 25 4 22 9 -4 5
4 6 16 3 18 -5 20 -7 6 -10 -11 -2 -17 -11 -15 -25 1 -14 -5 -23 -18 -25 -11
-2 -23 -9 -26 -14 -4 -6 -12 -7 -18 -4 -20 13 -11 26 18 26 17 0 32 4 36 9 3
6 -11 8 -31 6 -38 -3 -105 -57 -90 -72 4 -4 11 -1 15 6 5 8 11 9 14 4 4 -6 -5
-15 -20 -22 -14 -6 -23 -14 -20 -17 2 -3 19 3 36 14 24 15 28 21 18 31 -10 11
-9 13 3 9 8 -3 17 -13 19 -24 2 -10 14 -32 26 -49 19 -25 31 -51 40 -85 1 -3
4 -12 8 -20 3 -8 11 -32 17 -52 6 -21 16 -41 22 -45 8 -4 9 0 3 13 -12 27 -12
69 0 67 6 -1 19 -5 29 -9 16 -6 18 -4 13 9 -4 11 -1 17 9 17 8 0 19 11 24 25
5 14 14 25 20 25 13 0 13 100 0 134 -6 17 -6 27 1 32 13 8 -92 76 -108 69 -7
-2 -14 1 -14 8 -3 32 5 52 32 78 16 16 25 29 19 29 -6 0 -3 12 8 28 21 30 32
55 38 90 7 35 0 27 -28 -35z m-11 -245 c46 -49 53 -69 46 -129 -5 -40 -13 -61
-34 -81 -27 -27 -69 -38 -69 -18 0 6 9 10 20 10 12 0 32 11 45 25 21 20 25 34
25 80 0 51 -3 59 -41 100 -23 25 -37 45 -32 45 5 0 23 -15 40 -32z m-37 -18
c10 -5 21 -22 25 -37 4 -19 9 -23 14 -14 6 10 10 9 14 -3 4 -9 2 -16 -4 -16
-6 0 -8 -4 -5 -9 8 -12 -16 -60 -33 -66 -7 -3 -19 -1 -26 5 -8 7 -12 5 -12 -6
0 -10 8 -14 25 -12 15 2 27 -3 30 -11 3 -9 0 -11 -7 -7 -7 4 -19 2 -27 -5 -17
-14 -16 -15 -42 36 -22 45 -19 100 5 110 9 3 19 2 22 -1 3 -4 0 -9 -6 -11 -7
-3 -13 -11 -13 -19 0 -8 6 -11 15 -8 8 4 15 1 15 -5 0 -6 -11 -11 -25 -11 -14
0 -25 -5 -25 -10 0 -7 14 -8 38 -4 47 8 49 11 34 34 -7 11 -12 29 -12 40 0 11
-7 20 -15 20 -8 0 -15 5 -15 10 0 13 6 13 30 0z m-73 -65 c0 -18 -19 -15 -25
3 -2 7 3 12 11 12 7 0 14 -7 14 -15z"/>
<path d="M995 670 c-3 -5 -1 -10 4 -10 6 0 11 5 11 10 0 6 -2 10 -4 10 -3 0
-8 -4 -11 -10z"/>
<path d="M2489 663 c-13 -16 -12 -17 4 -4 16 13 21 21 13 21 -2 0 -10 -8 -17
-17z"/>
<path d="M1136 661 c-4 -7 -5 -15 -2 -18 9 -9 19 4 14 18 -4 11 -6 11 -12 0z"/>
<path d="M1334 645 c38 -32 53 -32 20 0 -14 14 -30 25 -37 25 -7 0 1 -11 17
-25z"/>
<path d="M1731 648 c-1 -16 -5 -28 -9 -28 -5 0 -6 -14 -4 -31 4 -25 2 -30 -9
-24 -8 5 -11 4 -6 0 4 -5 0 -17 -10 -27 -22 -24 -8 -23 17 2 11 11 20 33 20
51 0 27 3 30 23 24 12 -3 17 -3 12 2 -6 4 -16 19 -22 33 l-12 25 0 -27z"/>
<path d="M2280 633 c13 -27 25 -29 35 -5 5 13 4 14 -6 5 -10 -10 -15 -9 -26 5
-13 15 -13 15 -3 -5z"/>
<path d="M2220 630 c-9 -6 -10 -10 -3 -10 6 0 15 5 18 10 8 12 4 12 -15 0z"/>
<path d="M1213 604 c-24 -14 -43 -29 -43 -34 0 -5 23 5 50 22 28 17 50 33 50
34 0 9 -18 2 -57 -22z"/>
<path d="M1314 602 c6 -42 12 -49 19 -23 3 11 -2 28 -9 38 -13 16 -14 15 -10
-15z"/>
<path d="M1140 611 c0 -5 7 -12 16 -15 14 -5 15 -4 4 9 -14 17 -20 19 -20 6z"/>
<path d="M460 601 c0 -5 6 -14 14 -20 12 -10 13 -8 9 8 -5 21 -23 30 -23 12z"/>
<path d="M890 590 c0 -19 3 -21 12 -12 9 9 9 15 0 24 -9 9 -12 7 -12 -12z"/>
<path d="M1098 603 c6 -2 18 -2 25 0 6 3 1 5 -13 5 -14 0 -19 -2 -12 -5z"/>
<path d="M1368 603 c7 -3 16 -2 19 1 4 3 -2 6 -13 5 -11 0 -14 -3 -6 -6z"/>
<path d="M2220 569 c-48 -56 -50 -58 -12 -24 29 26 59 65 50 65 -2 0 -19 -18
-38 -41z"/>
<path d="M1490 581 c0 -5 -8 -11 -17 -13 -15 -3 -15 -5 -3 -9 8 -4 26 -2 40 3
20 7 22 11 10 18 -19 12 -30 12 -30 1z"/>
<path d="M1630 568 c0 -10 -7 -18 -17 -18 -9 0 -13 -3 -10 -6 3 -4 1 -16 -5
-28 -8 -15 -4 -14 16 7 14 15 31 25 37 21 12 -7 3 -55 -13 -65 -5 -4 -3 -9 7
-12 9 -4 13 -3 10 3 -3 6 -2 10 2 10 17 0 12 56 -7 80 -16 20 -20 22 -20 8z"/>
<path d="M921 554 c0 -11 3 -14 6 -6 3 7 2 16 -1 19 -3 4 -6 -2 -5 -13z"/>
<path d="M1440 539 c0 -15 5 -20 23 -17 27 4 26 19 -2 30 -17 6 -21 3 -21 -13z"/>
<path d="M1296 541 c-3 -5 2 -15 12 -22 15 -13 16 -12 4 3 -10 13 -10 17 0 21
9 4 9 6 1 6 -6 1 -14 -3 -17 -8z"/>
<path d="M1868 543 c6 -2 18 -2 25 0 6 3 1 5 -13 5 -14 0 -19 -2 -12 -5z"/>
<path d="M2730 529 c-124 -10 -252 -22 -285 -27 l-60 -10 65 -1 c68 -1 489 26
528 35 12 2 22 9 22 14 0 12 16 12 -270 -11z"/>
<path d="M1136 523 c-6 -14 -5 -15 5 -6 7 7 10 15 7 18 -3 3 -9 -2 -12 -12z"/>
<path d="M1490 511 c0 -17 21 -24 33 -11 9 10 9 11 0 6 -7 -4 -13 -2 -13 3 0
6 -4 11 -10 11 -5 0 -10 -4 -10 -9z"/>
<path d="M872 480 l33 -29 -18 -32 c-16 -29 -16 -31 -1 -18 15 13 16 11 9 -11
-4 -14 -14 -32 -22 -42 -10 -11 -11 -18 -4 -23 6 -3 11 -1 11 4 0 6 5 11 11
11 15 0 5 -80 -11 -90 -6 -4 -13 -26 -15 -49 -2 -23 -9 -49 -16 -57 -9 -11 -8
-14 5 -14 29 0 59 78 64 167 l4 81 96 7 c113 9 192 3 327 -24 155 -31 179 -41
183 -75 2 -16 -1 -26 -6 -22 -6 3 -110 -2 -233 -11 l-224 -16 -87 -45 c-61
-30 -88 -49 -88 -62 0 -21 -23 -33 -38 -18 -7 7 -10 4 -9 -8 1 -11 -4 -18 -11
-16 -8 1 -11 -2 -7 -8 3 -5 0 -10 -7 -10 -8 0 -14 -9 -15 -20 -1 -13 2 -18 9
-14 7 5 9 0 6 -14 -5 -17 -2 -22 13 -22 15 0 17 4 9 24 -12 32 -2 40 156 120
l131 66 179 15 c98 8 189 17 201 18 28 5 32 -11 40 -140 5 -82 9 -103 21 -103
12 0 14 15 9 93 -6 93 -9 108 -20 140 -15 40 -14 45 11 58 l27 13 -27 4 c-31
4 -34 11 -15 31 10 10 7 11 -15 6 -16 -4 -39 -1 -60 9 -18 9 -46 18 -63 20
-16 2 -46 9 -65 16 -36 11 -44 12 -185 25 -118 11 -127 12 -160 18 -43 8 -118
42 -134 61 -7 9 -17 16 -22 16 -5 0 5 -13 23 -30z m117 -65 l46 -13 -57 -1
c-31 -1 -60 4 -63 9 -9 14 4 32 17 24 6 -4 31 -12 57 -19z"/>
<path d="M1160 491 c0 -12 5 -21 10 -21 6 0 10 6 10 14 0 8 -4 18 -10 21 -5 3
-10 -3 -10 -14z"/>
<path d="M967 487 c-3 -9 -2 -19 4 -23 15 -9 18 -2 9 20 -6 17 -7 18 -13 3z"/>
<path d="M1529 484 c-10 -13 -10 -17 1 -24 8 -5 18 -6 23 -3 5 3 3 9 -4 14
-11 7 -10 9 4 9 10 0 15 5 12 10 -9 14 -21 12 -36 -6z"/>
<path d="M797 465 c-4 -8 -2 -17 3 -20 6 -4 10 3 10 14 0 25 -6 27 -13 6z"/>
<path d="M1338 473 c7 -3 16 -2 19 1 4 3 -2 6 -13 5 -11 0 -14 -3 -6 -6z"/>
<path d="M2170 470 c-9 -6 -10 -10 -3 -10 6 0 15 5 18 10 8 12 4 12 -15 0z"/>
<path d="M840 380 c0 -5 5 -10 10 -10 6 0 10 5 10 10 0 6 -4 10 -10 10 -5 0
-10 -4 -10 -10z"/>
<path d="M2397 383 c-10 -9 -9 -23 2 -23 5 0 11 7 15 15 5 15 -5 20 -17 8z"/>
<path d="M2435 363 c2 -10 6 -30 9 -44 3 -14 12 -26 20 -26 13 0 13 3 0 21 -8
11 -14 28 -14 38 0 9 -4 19 -9 22 -5 4 -8 -2 -6 -11z"/>
<path d="M1902 334 c21 -21 40 -36 43 -33 3 3 -14 21 -38 39 l-42 33 37 -39z"/>
<path d="M1921 353 c13 -10 35 -24 49 -32 23 -13 24 -13 11 2 -7 10 -19 17
-26 17 -7 0 -18 7 -25 15 -7 8 -17 15 -23 15 -5 0 1 -8 14 -17z"/>
<path d="M804 314 c3 -8 2 -13 -3 -10 -4 3 -16 -3 -26 -14 -18 -20 -18 -20 13
-4 31 15 44 44 21 44 -6 0 -8 -7 -5 -16z"/>
<path d="M2321 294 c0 -11 3 -14 6 -6 3 7 2 16 -1 19 -3 4 -6 -2 -5 -13z"/>
<path d="M1965 280 c-3 -5 -1 -10 4 -10 6 0 11 5 11 10 0 6 -2 10 -4 10 -3 0
-8 -4 -11 -10z"/>
<path d="M1560 269 c0 -5 5 -7 10 -4 6 3 10 8 10 11 0 2 -4 4 -10 4 -5 0 -10
-5 -10 -11z"/>
<path d="M1930 271 c0 -6 4 -13 10 -16 6 -3 7 1 4 9 -7 18 -14 21 -14 7z"/>
<path d="M2296 263 c-6 -14 -5 -15 5 -6 7 7 10 15 7 18 -3 3 -9 -2 -12 -12z"/>
<path d="M1576 255 c-11 -8 -18 -17 -15 -19 2 -2 15 4 28 15 27 22 15 26 -13
4z"/>
<path d="M2331 244 c-17 -20 -22 -34 -17 -56 4 -20 2 -27 -5 -22 -8 5 -9 2 -1
-11 5 -11 6 -26 2 -34 -5 -9 -11 -24 -14 -34 -4 -11 -11 -15 -18 -11 -10 6
-11 5 -1 -8 7 -8 11 -17 8 -20 -3 -3 4 -13 16 -24 17 -15 36 -19 99 -19 43 0
76 3 74 6 -2 4 17 14 41 24 25 9 46 22 46 28 3 27 -4 43 -24 59 -20 15 -21 19
-8 40 13 21 13 22 -2 10 -17 -15 -33 0 -21 21 6 10 4 10 -7 0 -17 -17 -30 -16
-23 1 3 8 1 17 -5 21 -7 4 -9 -1 -5 -12 4 -13 0 -11 -18 7 -29 31 -69 60 -83
60 -6 0 -22 -12 -34 -26z m100 -42 c29 -27 59 -47 66 -45 12 4 12 -14 0 -34
-11 -17 -156 -48 -169 -35 -13 13 20 162 36 162 7 0 37 -22 67 -48z m90 -101
c7 11 9 10 9 -3 0 -10 5 -18 12 -18 14 0 2 -13 -15 -16 -7 -2 -37 -10 -66 -18
-41 -11 -58 -12 -68 -4 -8 6 -16 8 -20 4 -3 -3 -1 -6 6 -6 7 0 9 -5 6 -10 -5
-8 -12 -7 -23 2 -12 10 -14 10 -8 0 5 -8 1 -11 -16 -9 -29 5 -39 47 -11 47 15
0 16 -2 3 -11 -12 -9 -11 -10 5 -4 11 4 33 8 49 11 16 2 32 7 35 11 3 5 22 9
41 10 19 1 36 7 39 15 4 11 5 11 9 -1 4 -11 6 -11 13 0z"/>
<path d="M2366 220 c12 -41 5 -83 -18 -107 -25 -27 -13 -31 15 -6 13 13 36 18
72 18 29 0 51 3 48 8 -2 4 -11 7 -20 7 -22 0 -65 37 -86 73 -14 26 -16 27 -11
7z"/>
<path d="M2420 61 c0 -7 -5 -9 -12 -5 -7 5 -8 3 -3 -5 5 -9 10 -10 18 -2 6 6
8 14 4 18 -4 3 -7 1 -7 -6z"/>
<path d="M2510 234 c0 -8 5 -12 10 -9 6 4 8 11 5 16 -9 14 -15 11 -15 -7z"/>
<path d="M1891 214 c0 -11 3 -14 6 -6 3 7 2 16 -1 19 -3 4 -6 -2 -5 -13z"/>
<path d="M720 209 c0 -5 5 -7 10 -4 6 3 10 8 10 11 0 2 -4 4 -10 4 -5 0 -10
-5 -10 -11z"/>
<path d="M2535 209 c-11 -17 1 -21 15 -4 8 9 8 15 2 15 -6 0 -14 -5 -17 -11z"/>
<path d="M2980 210 c0 -5 5 -10 10 -10 6 0 10 5 10 10 0 6 -4 10 -10 10 -5 0
-10 -4 -10 -10z"/>
<path d="M1931 174 c0 -11 3 -14 6 -6 3 7 2 16 -1 19 -3 4 -6 -2 -5 -13z"/>
<path d="M2040 170 c0 -5 4 -10 9 -10 6 0 13 5 16 10 3 6 -1 10 -9 10 -9 0
-16 -4 -16 -10z"/>
<path d="M1961 150 c-24 -21 -30 -51 -16 -84 6 -13 5 -17 -2 -13 -6 4 -16 0
-22 -7 -10 -12 -8 -13 11 -9 19 5 21 3 11 -8 -17 -17 -16 -29 2 -29 19 0 29
40 21 83 -5 25 -2 35 14 44 17 11 23 8 47 -23 57 -75 85 -104 100 -104 16 0
-1 26 -69 104 -21 24 -35 46 -31 50 4 4 0 4 -10 0 -10 -3 -17 -1 -17 5 0 16
-12 13 -39 -9z"/>
<path d="M2930 161 c0 -5 15 -7 33 -4 45 7 47 13 4 13 -20 0 -37 -4 -37 -9z"/>
<path d="M63 80 c-47 -22 -63 -34 -63 -50 0 -11 5 -20 10 -20 14 0 140 57 140
64 0 11 -13 36 -19 36 -3 0 -34 -13 -68 -30z"/>
<path d="M1355 60 c-3 -6 1 -7 9 -4 18 7 21 14 7 14 -6 0 -13 -4 -16 -10z"/>
<path d="M1846 57 c3 -10 9 -15 12 -12 3 3 0 11 -7 18 -10 9 -11 8 -5 -6z"/>
<path d="M1776 42 c-3 -5 4 -18 16 -28 21 -19 21 -19 8 6 -17 33 -17 33 -24
22z"/>
<path d="M1816 33 c6 -4 14 -15 17 -23 5 -11 6 -9 4 4 -1 11 -9 21 -17 23 -10
3 -11 2 -4 -4z"/>
<path d="M1861 26 c-9 -11 -9 -16 1 -22 7 -4 10 -4 6 1 -4 4 -3 14 3 22 6 7 9
13 6 13 -2 0 -10 -6 -16 -14z"/>
<path d="M108 3 c7 -3 16 -2 19 1 4 3 -2 6 -13 5 -11 0 -14 -3 -6 -6z"/>
</g>
</svg>
