<?xml version="1.0" standalone="no"?>
<!DOCTYPE svg PUBLIC "-//W3C//DTD SVG 20010904//EN"
 "http://www.w3.org/TR/2001/REC-SVG-20010904/DTD/svg10.dtd">
<svg version="1.0" xmlns="http://www.w3.org/2000/svg"
 width="300.000000pt" height="212.000000pt" viewBox="0 0 300.000000 212.000000"
 preserveAspectRatio="xMidYMid meet">
<metadata>
Created by potrace 1.10, written by Peter Selinger 2001-2011
</metadata>
<g transform="translate(0.000000,212.000000) scale(0.100000,-0.100000)"
fill="#000000" stroke="none">
<path d="M1258 2113 c6 -2 18 -2 25 0 6 3 1 5 -13 5 -14 0 -19 -2 -12 -5z"/>
<path d="M1466 2106 c4 -10 -1 -18 -12 -22 -64 -22 -103 -47 -120 -79 -10 -19
-24 -35 -31 -35 -16 0 -20 -50 -9 -100 2 -8 -1 -21 -7 -28 -8 -10 -7 -16 2
-22 9 -5 11 -20 6 -48 -6 -37 -10 -42 -41 -48 -19 -3 -41 -4 -49 0 -8 3 -15 1
-15 -4 0 -20 -29 -9 -65 23 -20 17 -44 32 -53 32 -9 0 -17 8 -17 17 0 9 -4 20
-8 24 -4 4 -7 0 -7 -9 0 -10 -12 -18 -35 -23 -36 -6 -63 -29 -51 -42 4 -4 12
1 17 10 5 10 17 14 28 11 27 -7 123 -102 116 -114 -4 -5 0 -12 9 -15 8 -3 12
-12 9 -20 -4 -10 3 -14 27 -14 34 0 38 -22 5 -29 -13 -2 -39 19 -82 64 -35 37
-63 63 -63 58 0 -6 28 -40 61 -77 l62 -67 -24 -17 c-13 -9 -40 -31 -60 -49
-36 -33 -59 -42 -59 -23 0 6 -5 10 -12 10 -6 0 -5 -7 5 -18 18 -20 5 -45 -18
-35 -10 3 -12 -2 -8 -16 4 -17 1 -21 -16 -21 -18 0 -20 -3 -11 -20 14 -26 -6
-82 -53 -143 -20 -27 -37 -53 -37 -58 0 -5 -4 -9 -10 -9 -5 0 -10 8 -10 17 0
14 -3 14 -12 5 -10 -10 -10 -15 2 -22 12 -8 13 -13 3 -30 -7 -11 -13 -29 -13
-40 0 -11 -5 -20 -11 -20 -7 0 -9 -9 -6 -22 4 -14 0 -27 -11 -35 -9 -8 -11
-12 -4 -8 7 4 12 -1 12 -14 0 -15 -7 -21 -22 -21 -13 -1 -37 -2 -55 -2 -18 0
-30 -5 -27 -10 4 -6 -6 -8 -22 -7 -16 2 -34 0 -40 -4 -7 -4 -31 -9 -54 -12
-24 -3 -47 -8 -51 -11 -5 -3 -9 0 -9 6 0 6 -10 4 -24 -5 -17 -11 -26 -13 -31
-5 -5 8 -10 8 -20 0 -8 -6 -22 -10 -32 -9 -10 1 -25 -1 -33 -4 -37 -14 -87
-26 -105 -26 -11 0 -42 -5 -69 -10 -36 -8 -53 -8 -63 0 -7 6 -13 8 -13 4 0 -4
-7 -2 -15 5 -8 7 -13 15 -11 19 3 4 -5 8 -16 8 -18 2 -17 -2 13 -33 31 -32 36
-34 84 -29 63 8 100 13 100 15 0 3 32 9 272 48 133 22 246 43 251 46 5 3 13
29 16 58 9 66 35 125 83 191 46 62 63 94 63 117 0 40 49 101 135 170 50 40 99
76 110 80 11 4 45 20 75 34 50 24 82 27 50 5 -13 -9 -13 -10 0 -6 20 5 19 27
-2 41 -19 12 -74 -4 -71 -20 1 -6 -8 -16 -19 -23 -22 -14 -22 -15 -3 32 3 8
-4 25 -15 38 -12 13 -19 18 -15 12 3 -7 1 -13 -5 -13 -6 0 -8 -5 -5 -10 4 -6
11 -7 17 -4 7 4 8 2 4 -4 -4 -6 -14 -8 -24 -5 -15 6 -15 4 -4 -9 11 -14 10
-16 -5 -14 -12 2 -17 10 -15 25 2 11 -2 21 -7 21 -6 0 -11 -4 -11 -10 0 -5 -5
-10 -11 -10 -6 0 -9 7 -5 15 5 13 -25 55 -39 55 -3 0 -14 9 -24 19 -34 34 -9
32 41 -5 l49 -35 86 7 85 7 -5 27 c-12 55 -19 179 -13 203 17 69 121 137 209
137 73 0 164 -41 215 -98 23 -26 42 -50 42 -54 0 -5 7 -8 15 -8 17 0 20 16 5
25 -6 4 -9 14 -8 23 2 11 -3 16 -13 14 -9 -1 -21 9 -27 22 -6 13 -20 27 -31
31 -13 4 -21 15 -21 28 0 16 -3 18 -9 9 -7 -12 -14 -11 -41 3 -31 16 -32 17
-13 38 17 20 16 20 -12 -2 -27 -20 -30 -21 -35 -5 -5 12 -9 14 -14 6 -10 -17
-29 -15 -22 3 7 19 1 19 -19 -2 -16 -15 -19 -15 -46 1 -25 15 -28 15 -23 2z
m-421 -336 c3 -5 -1 -10 -9 -10 -9 0 -16 5 -16 10 0 6 4 10 9 10 6 0 13 -4 16
-10z"/>
<path d="M1700 2105 c-7 -9 -11 -17 -9 -20 3 -2 10 5 17 15 14 24 10 26 -8 5z"/>
<path d="M1791 2102 c-13 -25 -14 -32 -2 -32 9 0 23 41 16 48 -2 2 -8 -5 -14
-16z"/>
<path d="M1831 2104 c0 -11 3 -14 6 -6 3 7 2 16 -1 19 -3 4 -6 -2 -5 -13z"/>
<path d="M1856 2093 c9 -37 34 -92 46 -99 18 -12 18 3 -1 23 -11 11 -23 37
-26 57 -4 20 -11 39 -17 42 -5 3 -6 -6 -2 -23z"/>
<path d="M1890 2107 c0 -26 29 -79 40 -72 6 4 5 14 -2 27 -7 11 -19 30 -25 42
-11 18 -13 19 -13 3z"/>
<path d="M1960 2111 c0 -6 5 -13 10 -16 6 -3 10 1 10 9 0 9 -4 16 -10 16 -5 0
-10 -4 -10 -9z"/>
<path d="M495 2100 c-3 -5 1 -10 10 -10 9 0 13 5 10 10 -3 6 -8 10 -10 10 -2
0 -7 -4 -10 -10z"/>
<path d="M560 2099 c0 -5 5 -7 10 -4 6 3 10 8 10 11 0 2 -4 4 -10 4 -5 0 -10
-5 -10 -11z"/>
<path d="M916 2095 c4 -8 10 -15 15 -15 4 0 6 7 3 15 -4 8 -10 15 -15 15 -4 0
-6 -7 -3 -15z"/>
<path d="M1920 2102 c0 -4 10 -13 23 -21 22 -14 22 -14 3 8 -20 22 -26 25 -26
13z"/>
<path d="M2510 2100 c0 -5 5 -10 11 -10 5 0 7 5 4 10 -3 6 -8 10 -11 10 -2 0
-4 -4 -4 -10z"/>
<path d="M780 2085 c0 -8 5 -15 10 -15 6 0 10 7 10 15 0 8 -4 15 -10 15 -5 0
-10 -7 -10 -15z"/>
<path d="M660 2074 c0 -8 5 -12 10 -9 6 4 8 11 5 16 -9 14 -15 11 -15 -7z"/>
<path d="M715 2080 c4 -6 11 -8 16 -5 14 9 11 15 -7 15 -8 0 -12 -5 -9 -10z"/>
<path d="M1995 2081 c-3 -5 -1 -12 5 -16 5 -3 10 1 10 9 0 18 -6 21 -15 7z"/>
<path d="M595 2070 c-3 -5 1 -10 10 -10 9 0 13 5 10 10 -3 6 -8 10 -10 10 -2
0 -7 -4 -10 -10z"/>
<path d="M1276 2071 c-4 -7 -5 -15 -2 -18 9 -9 19 4 14 18 -4 11 -6 11 -12 0z"/>
<path d="M2735 2070 c-3 -5 1 -10 9 -10 9 0 16 5 16 10 0 6 -4 10 -9 10 -6 0
-13 -4 -16 -10z"/>
<path d="M2800 2070 c0 -5 7 -7 15 -4 8 4 15 8 15 10 0 2 -7 4 -15 4 -8 0 -15
-4 -15 -10z"/>
<path d="M2950 2070 c-9 -6 -10 -10 -3 -10 6 0 15 5 18 10 8 12 4 12 -15 0z"/>
<path d="M535 2060 c-3 -5 -1 -10 4 -10 6 0 11 5 11 10 0 6 -2 10 -4 10 -3 0
-8 -4 -11 -10z"/>
<path d="M930 2059 c0 -5 5 -7 10 -4 6 3 10 8 10 11 0 2 -4 4 -10 4 -5 0 -10
-5 -10 -11z"/>
<path d="M2480 2060 c0 -5 5 -10 11 -10 5 0 7 5 4 10 -3 6 -8 10 -11 10 -2 0
-4 -4 -4 -10z"/>
<path d="M2600 2066 c0 -2 7 -7 16 -10 8 -3 12 -2 9 4 -6 10 -25 14 -25 6z"/>
<path d="M810 2050 c0 -5 5 -10 11 -10 5 0 7 5 4 10 -3 6 -8 10 -11 10 -2 0
-4 -4 -4 -10z"/>
<path d="M1210 2049 c0 -5 5 -7 10 -4 6 3 10 8 10 11 0 2 -4 4 -10 4 -5 0 -10
-5 -10 -11z"/>
<path d="M2153 2048 c5 -13 1 -18 -13 -18 -10 0 -22 4 -25 10 -8 13 -88 10
-97 -4 -5 -8 -13 -7 -28 2 -26 16 -28 15 -26 -5 1 -13 -5 -17 -19 -15 -15 3
-17 1 -8 -8 9 -10 24 -9 66 5 46 14 64 15 106 6 59 -12 111 -37 111 -51 0 -13
56 -13 80 0 13 7 27 6 45 -2 21 -10 29 -8 48 9 12 11 33 24 45 28 31 9 92 -3
92 -18 0 -7 21 -20 46 -30 39 -14 44 -14 34 -2 -7 8 -17 15 -22 15 -5 0 -22
13 -38 30 -26 27 -33 29 -90 26 -34 -2 -65 -7 -68 -13 -13 -18 -40 -22 -53 -7
-10 13 -14 13 -29 -1 -9 -8 -30 -17 -46 -21 -25 -4 -36 1 -73 38 -24 24 -41
35 -38 26z"/>
<path d="M2280 2049 c0 -5 5 -7 10 -4 6 3 10 8 10 11 0 2 -4 4 -10 4 -5 0 -10
-5 -10 -11z"/>
<path d="M340 2035 c-11 -13 -10 -14 4 -9 9 3 16 10 16 15 0 13 -6 11 -20 -6z"/>
<path d="M1148 2043 c7 -3 16 -2 19 1 4 3 -2 6 -13 5 -11 0 -14 -3 -6 -6z"/>
<path d="M565 2030 c-3 -5 1 -10 9 -10 9 0 16 5 16 10 0 6 -4 10 -9 10 -6 0
-13 -4 -16 -10z"/>
<path d="M630 2030 c0 -5 5 -10 10 -10 6 0 10 5 10 10 0 6 -4 10 -10 10 -5 0
-10 -4 -10 -10z"/>
<path d="M965 2030 c-3 -5 -2 -10 4 -10 5 0 13 5 16 10 3 6 2 10 -4 10 -5 0
-13 -4 -16 -10z"/>
<path d="M1030 2029 c0 -5 5 -7 10 -4 6 3 10 8 10 11 0 2 -4 4 -10 4 -5 0 -10
-5 -10 -11z"/>
<path d="M1580 2036 c0 -2 7 -7 16 -10 8 -3 12 -2 9 4 -6 10 -25 14 -25 6z"/>
<path d="M1835 2030 c3 -5 8 -10 11 -10 2 0 4 5 4 10 0 6 -5 10 -11 10 -5 0
-7 -4 -4 -10z"/>
<path d="M146 2022 c-3 -5 1 -9 9 -9 8 0 12 4 9 9 -3 4 -7 8 -9 8 -2 0 -6 -4
-9 -8z"/>
<path d="M445 2010 c3 -5 8 -10 11 -10 2 0 4 5 4 10 0 6 -5 10 -11 10 -5 0 -7
-4 -4 -10z"/>
<path d="M785 2010 c-3 -5 -1 -10 4 -10 6 0 11 5 11 10 0 6 -2 10 -4 10 -3 0
-8 -4 -11 -10z"/>
<path d="M1395 2004 c-18 -13 -18 -14 3 -14 12 0 22 4 22 10 0 5 6 7 14 4 8
-3 17 -1 20 4 9 15 -38 11 -59 -4z"/>
<path d="M1640 2000 c13 -24 17 -25 17 -5 0 8 -6 16 -14 19 -11 4 -11 1 -3
-14z"/>
<path d="M1795 2010 c-3 -5 -1 -10 4 -10 6 0 11 5 11 10 0 6 -2 10 -4 10 -3 0
-8 -4 -11 -10z"/>
<path d="M660 2000 c0 -5 5 -10 10 -10 6 0 10 5 10 10 0 6 -4 10 -10 10 -5 0
-10 -4 -10 -10z"/>
<path d="M1060 1999 c0 -5 5 -7 10 -4 6 3 10 8 10 11 0 2 -4 4 -10 4 -5 0 -10
-5 -10 -11z"/>
<path d="M597 1993 c-4 -3 -7 -11 -7 -17 0 -6 5 -5 12 2 6 6 9 14 7 17 -3 3
-9 2 -12 -2z"/>
<path d="M940 1990 c0 -5 5 -10 10 -10 6 0 10 5 10 10 0 6 -4 10 -10 10 -5 0
-10 -4 -10 -10z"/>
<path d="M1000 1989 c0 -5 5 -7 10 -4 6 3 10 8 10 11 0 2 -4 4 -10 4 -5 0 -10
-5 -10 -11z"/>
<path d="M1280 1990 c-8 -5 -11 -12 -7 -16 4 -4 13 -2 19 4 15 15 7 24 -12 12z"/>
<path d="M2166 1950 c27 -28 52 -60 57 -72 10 -28 21 -16 12 13 -8 24 -93 109
-109 109 -5 0 13 -23 40 -50z"/>
<path d="M116 1975 c4 -8 11 -15 16 -15 6 0 5 6 -2 15 -7 8 -14 15 -16 15 -2
0 -1 -7 2 -15z"/>
<path d="M475 1980 c-3 -5 1 -10 10 -10 9 0 13 5 10 10 -3 6 -8 10 -10 10 -2
0 -7 -4 -10 -10z"/>
<path d="M885 1980 c3 -5 8 -10 11 -10 2 0 4 5 4 10 0 6 -5 10 -11 10 -5 0 -7
-4 -4 -10z"/>
<path d="M1575 1981 c-3 -6 -13 -8 -23 -5 -15 5 -15 4 1 -9 19 -15 47 -13 47
3 0 14 -18 21 -25 11z"/>
<path d="M1674 1981 c4 -6 0 -13 -8 -16 -9 -3 -24 -7 -33 -10 -11 -4 -13 -9
-6 -16 6 -6 18 -6 34 0 13 5 20 10 15 10 -5 1 -3 7 3 15 9 11 9 16 0 22 -8 4
-9 3 -5 -5z"/>
<path d="M1936 1977 c3 -10 9 -15 12 -12 3 3 0 11 -7 18 -10 9 -11 8 -5 -6z"/>
<path d="M2070 1985 c0 -2 10 -10 23 -16 20 -11 21 -11 8 4 -13 16 -31 23 -31
12z"/>
<path d="M1095 1970 c-3 -5 -1 -10 4 -10 6 0 11 5 11 10 0 6 -2 10 -4 10 -3 0
-8 -4 -11 -10z"/>
<path d="M2021 1977 c2 -1 15 -11 29 -22 l25 -20 -19 23 c-11 12 -24 22 -29
22 -6 0 -8 -1 -6 -3z"/>
<path d="M1390 1963 c0 -7 5 -15 11 -19 8 -4 7 -9 -2 -15 -10 -6 -8 -8 8 -6
12 2 26 7 30 12 5 4 3 5 -4 1 -6 -3 -19 4 -27 16 -9 12 -16 17 -16 11z"/>
<path d="M1416 1958 c3 -5 10 -6 15 -3 13 9 11 12 -6 12 -8 0 -12 -4 -9 -9z"/>
<path d="M1470 1960 c-23 -7 -23 -8 -3 -9 12 -1 25 4 28 9 3 6 5 10 3 9 -2 -1
-14 -5 -28 -9z"/>
<path d="M2420 1956 c0 -8 5 -18 10 -21 18 -11 11 -33 -21 -70 -28 -31 -76
-65 -94 -65 -3 0 -5 8 -5 18 0 32 -48 122 -65 122 -13 0 -10 -11 15 -55 18
-32 26 -55 19 -55 -6 0 1 -10 17 -22 16 -13 31 -26 32 -30 6 -14 22 -9 16 5
-3 8 11 21 35 33 22 10 45 28 51 39 6 11 17 31 25 44 10 18 11 30 3 47 -12 26
-38 33 -38 10z"/>
<path d="M570 1950 c0 -5 5 -10 10 -10 6 0 10 5 10 10 0 6 -4 10 -10 10 -5 0
-10 -4 -10 -10z"/>
<path d="M915 1950 c-3 -5 -1 -10 4 -10 6 0 11 5 11 10 0 6 -2 10 -4 10 -3 0
-8 -4 -11 -10z"/>
<path d="M1516 1953 c-3 -3 -3 -10 0 -14 7 -12 34 -11 34 0 0 11 -26 22 -34
14z"/>
<path d="M2713 1945 c0 -8 4 -12 9 -9 5 3 6 10 3 15 -9 13 -12 11 -12 -6z"/>
<path d="M2970 1949 c0 -5 5 -7 10 -4 6 3 10 8 10 11 0 2 -4 4 -10 4 -5 0 -10
-5 -10 -11z"/>
<path d="M90 1940 c0 -5 5 -10 11 -10 5 0 7 5 4 10 -3 6 -8 10 -11 10 -2 0 -4
-4 -4 -10z"/>
<path d="M155 1940 c-3 -5 -1 -10 4 -10 6 0 11 5 11 10 0 6 -2 10 -4 10 -3 0
-8 -4 -11 -10z"/>
<path d="M850 1940 c0 -5 5 -10 10 -10 6 0 10 5 10 10 0 6 -4 10 -10 10 -5 0
-10 -4 -10 -10z"/>
<path d="M1715 1940 c3 -5 8 -10 11 -10 2 0 4 5 4 10 0 6 -5 10 -11 10 -5 0
-7 -4 -4 -10z"/>
<path d="M1934 1939 c-2 -5 6 -8 18 -7 48 2 57 -3 97 -53 23 -29 41 -45 41
-36 0 8 -20 36 -45 61 -35 34 -52 44 -75 44 -17 -1 -33 -5 -36 -9z"/>
<path d="M2170 1893 c22 -35 43 -63 46 -63 9 0 -29 59 -59 93 -20 22 -16 13
13 -30z"/>
<path d="M2325 1920 c-8 -16 -11 -31 -6 -34 5 -3 11 1 15 9 3 8 14 15 25 15
30 0 32 14 5 27 -22 10 -26 8 -39 -17z"/>
<path d="M2780 1939 c0 -5 5 -7 10 -4 6 3 10 8 10 11 0 2 -4 4 -10 4 -5 0 -10
-5 -10 -11z"/>
<path d="M735 1930 c-3 -5 -1 -10 4 -10 6 0 11 5 11 10 0 6 -2 10 -4 10 -3 0
-8 -4 -11 -10z"/>
<path d="M1125 1930 c3 -5 8 -10 11 -10 2 0 4 5 4 10 0 6 -5 10 -11 10 -5 0
-7 -4 -4 -10z"/>
<path d="M1557 1925 c-6 -15 10 -32 20 -21 4 3 1 6 -5 6 -6 0 -9 7 -6 15 4 8
4 15 1 15 -3 0 -7 -7 -10 -15z"/>
<path d="M1586 1930 c5 -8 7 -23 5 -34 -1 -11 2 -16 8 -12 6 4 11 3 11 -3 0
-6 -17 -13 -37 -16 -53 -9 -105 -26 -99 -32 3 -3 19 0 37 6 40 14 72 14 64 1
-11 -17 1 -11 30 16 26 24 27 27 11 36 -16 9 -16 11 1 25 15 12 15 14 2 10 -9
-3 -22 0 -29 6 -10 9 -11 9 -4 -3z"/>
<path d="M2040 1936 c0 -2 8 -10 18 -17 15 -13 16 -12 3 4 -13 16 -21 21 -21
13z"/>
<path d="M2556 1905 c48 -34 71 -44 59 -26 -5 10 -93 61 -103 61 -3 0 17 -16
44 -35z"/>
<path d="M2570 1936 c0 -3 9 -10 20 -16 11 -6 20 -8 20 -6 0 3 -9 10 -20 16
-11 6 -20 8 -20 6z"/>
<path d="M320 1920 c0 -5 5 -10 11 -10 5 0 7 5 4 10 -3 6 -8 10 -11 10 -2 0
-4 -4 -4 -10z"/>
<path d="M665 1920 c3 -5 8 -10 11 -10 2 0 4 5 4 10 0 6 -5 10 -11 10 -5 0 -7
-4 -4 -10z"/>
<path d="M1000 1920 c0 -5 5 -10 11 -10 5 0 7 5 4 10 -3 6 -8 10 -11 10 -2 0
-4 -4 -4 -10z"/>
<path d="M1340 1919 c0 -5 5 -7 10 -4 6 3 10 8 10 11 0 2 -4 4 -10 4 -5 0 -10
-5 -10 -11z"/>
<path d="M1489 1928 c-1 -2 -3 -13 -4 -25 -2 -23 30 -39 41 -21 4 7 9 6 14 -1
4 -7 15 -9 25 -5 17 7 17 8 -3 15 -12 5 -29 6 -37 3 -8 -4 -15 -1 -15 6 0 6
-4 8 -10 5 -5 -3 -10 -2 -10 4 0 5 6 12 13 14 10 4 10 6 0 6 -7 1 -14 0 -14
-1z"/>
<path d="M1906 1915 c18 -9 41 -25 53 -36 16 -15 21 -16 21 -6 0 18 -38 44
-76 52 l-29 6 31 -16z"/>
<path d="M600 1909 c0 -5 5 -7 10 -4 6 3 10 8 10 11 0 2 -4 4 -10 4 -5 0 -10
-5 -10 -11z"/>
<path d="M1835 1911 c3 -5 18 -12 33 -16 32 -7 83 -49 102 -85 8 -14 20 -50
27 -80 l13 -55 -4 57 c-6 82 -40 128 -123 168 -47 22 -57 24 -48 11z"/>
<path d="M2816 1912 c-3 -5 1 -9 9 -9 8 0 12 4 9 9 -3 4 -7 8 -9 8 -2 0 -6 -4
-9 -8z"/>
<path d="M2945 1911 c3 -6 11 -9 16 -6 5 4 9 -3 9 -14 0 -12 4 -21 10 -21 17
0 -6 45 -25 48 -11 3 -15 0 -10 -7z"/>
<path d="M480 1900 c0 -5 5 -10 11 -10 5 0 7 5 4 10 -3 6 -8 10 -11 10 -2 0
-4 -4 -4 -10z"/>
<path d="M1215 1900 c3 -5 8 -10 11 -10 2 0 4 5 4 10 0 6 -5 10 -11 10 -5 0
-7 -4 -4 -10z"/>
<path d="M1398 1902 c-15 -6 -13 -9 8 -19 21 -10 23 -9 15 1 -6 7 -8 16 -4 19
8 8 4 8 -19 -1z"/>
<path d="M1652 1897 c-8 -10 -2 -12 29 -9 21 2 41 7 43 11 8 12 -62 11 -72 -2z"/>
<path d="M1748 1898 c7 -8 10 -23 6 -31 -3 -10 2 -21 15 -29 12 -7 21 -18 21
-25 0 -7 5 -13 10 -13 6 0 10 -9 10 -19 0 -14 -5 -18 -20 -14 -11 3 -26 0 -34
-6 -11 -9 -16 -9 -22 0 -4 7 0 17 9 24 21 15 22 25 2 25 -13 0 -44 -43 -34
-47 2 -1 -6 -15 -19 -32 -23 -31 -42 -33 -42 -5 0 8 6 14 13 14 8 0 19 12 26
28 10 24 7 23 -26 -12 -23 -25 -32 -41 -24 -44 8 -3 7 -8 -6 -19 -17 -13 -17
-13 3 -4 12 6 24 8 27 5 10 -11 46 7 52 26 4 11 12 17 21 13 8 -3 25 2 39 11
14 9 25 13 25 8 0 -5 -11 -14 -25 -20 -14 -6 -25 -16 -25 -22 0 -7 9 -5 22 4
45 32 51 23 43 -61 -5 -43 -8 -89 -7 -103 0 -14 -4 -30 -9 -37 -7 -8 -5 -11 8
-9 14 3 17 11 15 35 -1 20 3 34 12 37 10 4 12 13 7 32 -4 15 -6 43 -4 62 1 19
-5 45 -13 57 -16 25 -18 37 -5 29 16 -11 22 27 6 44 -8 9 -13 19 -10 22 3 2
-6 11 -20 18 -37 20 -30 33 16 28 35 -3 38 -2 23 9 -10 7 -26 14 -36 14 -27 2
-32 3 -48 14 -13 7 -13 6 -2 -7z"/>
<path d="M2379 1892 c-8 -10 -19 -26 -23 -37 -7 -18 -6 -18 14 0 25 23 44 55
33 55 -5 0 -15 -8 -24 -18z"/>
<path d="M2520 1903 c0 -6 8 -17 18 -24 16 -13 16 -13 2 6 -8 11 -16 22 -17
24 -2 2 -3 0 -3 -6z"/>
<path d="M700 1890 c0 -5 5 -10 11 -10 5 0 7 5 4 10 -3 6 -8 10 -11 10 -2 0
-4 -4 -4 -10z"/>
<path d="M1435 1890 c3 -5 12 -7 20 -3 21 7 19 13 -6 13 -11 0 -18 -4 -14 -10z"/>
<path d="M350 1879 c0 -5 5 -7 10 -4 6 3 10 8 10 11 0 2 -4 4 -10 4 -5 0 -10
-5 -10 -11z"/>
<path d="M640 1880 c0 -5 5 -10 11 -10 5 0 7 5 4 10 -3 6 -8 10 -11 10 -2 0
-4 -4 -4 -10z"/>
<path d="M1700 1876 c-42 -13 -90 -44 -109 -69 -11 -16 -15 -16 -23 -6 -8 11
-9 11 -5 -1 2 -8 13 -14 23 -12 10 1 34 3 52 5 18 1 37 9 41 16 5 8 14 10 21
6 8 -5 11 -4 6 3 -3 6 2 17 12 24 45 33 36 51 -18 34z m-17 -36 c-4 -4 -19
-11 -31 -15 -23 -7 -24 -7 -5 12 10 11 24 17 31 15 7 -3 10 -8 5 -12z m-13
-30 c0 -5 -5 -10 -11 -10 -5 0 -7 5 -4 10 3 6 8 10 11 10 2 0 4 -4 4 -10z"/>
<path d="M220 1870 c0 -5 5 -10 10 -10 6 0 10 5 10 10 0 6 -4 10 -10 10 -5 0
-10 -4 -10 -10z"/>
<path d="M575 1870 c3 -5 8 -10 11 -10 2 0 4 5 4 10 0 6 -5 10 -11 10 -5 0 -7
-4 -4 -10z"/>
<path d="M920 1870 c0 -5 5 -10 11 -10 5 0 7 5 4 10 -3 6 -8 10 -11 10 -2 0
-4 -4 -4 -10z"/>
<path d="M1361 1861 c-23 -18 -22 -42 2 -40 9 0 9 2 0 6 -16 6 -17 23 -2 23 6
0 17 7 25 15 21 21 4 18 -25 -4z"/>
<path d="M1875 1860 c10 -11 20 -18 23 -15 7 6 -18 35 -31 35 -5 0 -2 -9 8
-20z"/>
<path d="M2711 1863 c0 -11 3 -13 6 -5 2 6 10 9 15 6 7 -4 8 -2 4 4 -11 18
-26 14 -25 -5z"/>
<path d="M91 1854 c0 -11 3 -14 6 -6 3 7 2 16 -1 19 -3 4 -6 -2 -5 -13z"/>
<path d="M160 1860 c0 -5 5 -10 10 -10 6 0 10 5 10 10 0 6 -4 10 -10 10 -5 0
-10 -4 -10 -10z"/>
<path d="M510 1860 c0 -6 7 -10 15 -10 8 0 15 2 15 4 0 2 -7 6 -15 10 -8 3
-15 1 -15 -4z"/>
<path d="M797 1863 c-4 -3 -7 -11 -7 -17 0 -6 5 -5 12 2 6 6 9 14 7 17 -3 3
-9 2 -12 -2z"/>
<path d="M855 1860 c3 -5 8 -10 11 -10 2 0 4 5 4 10 0 6 -5 10 -11 10 -5 0 -7
-4 -4 -10z"/>
<path d="M1190 1860 c0 -5 5 -10 11 -10 5 0 7 5 4 10 -3 6 -8 10 -11 10 -2 0
-4 -4 -4 -10z"/>
<path d="M1455 1860 c3 -5 8 -10 11 -10 2 0 4 5 4 10 0 6 -5 10 -11 10 -5 0
-7 -4 -4 -10z"/>
<path d="M30 1850 c0 -5 5 -10 11 -10 5 0 7 5 4 10 -3 6 -8 10 -11 10 -2 0 -4
-4 -4 -10z"/>
<path d="M670 1851 c0 -5 5 -13 10 -16 6 -3 10 -2 10 4 0 5 -4 13 -10 16 -5 3
-10 2 -10 -4z"/>
<path d="M730 1850 c0 -5 5 -10 10 -10 6 0 10 5 10 10 0 6 -4 10 -10 10 -5 0
-10 -4 -10 -10z"/>
<path d="M2450 1850 c0 -5 5 -10 11 -10 5 0 7 5 4 10 -3 6 -8 10 -11 10 -2 0
-4 -4 -4 -10z"/>
<path d="M325 1840 c-3 -5 -1 -10 4 -10 6 0 11 5 11 10 0 6 -2 10 -4 10 -3 0
-8 -4 -11 -10z"/>
<path d="M610 1841 c0 -5 5 -13 10 -16 6 -3 10 -2 10 4 0 5 -4 13 -10 16 -5 3
-10 2 -10 -4z"/>
<path d="M1915 1842 c29 -57 35 -65 35 -51 0 9 -9 27 -21 40 -11 13 -18 18
-14 11z"/>
<path d="M2236 1835 c4 -8 8 -15 10 -15 2 0 4 7 4 15 0 8 -4 15 -10 15 -5 0
-7 -7 -4 -15z"/>
<path d="M255 1830 c3 -5 10 -10 16 -10 5 0 9 5 9 10 0 6 -7 10 -16 10 -8 0
-12 -4 -9 -10z"/>
<path d="M545 1830 c3 -5 8 -10 11 -10 2 0 4 5 4 10 0 6 -5 10 -11 10 -5 0 -7
-4 -4 -10z"/>
<path d="M890 1830 c0 -5 5 -10 11 -10 5 0 7 5 4 10 -3 6 -8 10 -11 10 -2 0
-4 -4 -4 -10z"/>
<path d="M1720 1830 c0 -5 5 -10 10 -10 6 0 10 5 10 10 0 6 -4 10 -10 10 -5 0
-10 -4 -10 -10z"/>
<path d="M2886 1832 c-3 -5 1 -9 9 -9 8 0 12 4 9 9 -3 4 -7 8 -9 8 -2 0 -6 -4
-9 -8z"/>
<path d="M2960 1833 c5 -2 8 -9 5 -13 -3 -5 -1 -11 4 -14 5 -4 8 2 7 11 -2 9
-8 18 -15 19 -6 1 -7 0 -1 -3z"/>
<path d="M125 1820 c3 -5 11 -10 16 -10 6 0 7 5 4 10 -3 6 -11 10 -16 10 -6 0
-7 -4 -4 -10z"/>
<path d="M480 1820 c0 -5 4 -10 9 -10 6 0 13 5 16 10 3 6 -1 10 -9 10 -9 0
-16 -4 -16 -10z"/>
<path d="M767 1819 c7 -7 15 -10 18 -7 3 3 -2 9 -12 12 -14 6 -15 5 -6 -5z"/>
<path d="M835 1820 c3 -5 8 -10 11 -10 2 0 4 5 4 10 0 6 -5 10 -11 10 -5 0 -7
-4 -4 -10z"/>
<path d="M2426 1821 c-3 -5 1 -11 9 -15 8 -3 15 -1 15 4 0 13 -18 22 -24 11z"/>
<path d="M60 1810 c0 -5 5 -10 10 -10 6 0 10 5 10 10 0 6 -4 10 -10 10 -5 0
-10 -4 -10 -10z"/>
<path d="M361 1804 c0 -11 3 -14 6 -6 3 7 2 16 -1 19 -3 4 -6 -2 -5 -13z"/>
<path d="M425 1810 c3 -5 8 -10 11 -10 2 0 4 5 4 10 0 6 -5 10 -11 10 -5 0 -7
-4 -4 -10z"/>
<path d="M1520 1804 c0 -9 5 -14 12 -12 18 6 21 28 4 28 -9 0 -16 -7 -16 -16z"/>
<path d="M1845 1800 c10 -11 20 -20 23 -20 3 0 -3 9 -13 20 -10 11 -20 20 -23
20 -3 0 3 -9 13 -20z"/>
<path d="M2490 1810 c0 -5 7 -10 16 -10 8 0 12 5 9 10 -3 6 -10 10 -16 10 -5
0 -9 -4 -9 -10z"/>
<path d="M295 1800 c3 -5 8 -10 11 -10 2 0 4 5 4 10 0 6 -5 10 -11 10 -5 0 -7
-4 -4 -10z"/>
<path d="M645 1800 c3 -5 11 -10 16 -10 6 0 7 5 4 10 -3 6 -11 10 -16 10 -6 0
-7 -4 -4 -10z"/>
<path d="M1470 1800 c0 -5 5 -10 11 -10 5 0 7 5 4 10 -3 6 -8 10 -11 10 -2 0
-4 -4 -4 -10z"/>
<path d="M2231 1790 c14 -31 19 -36 19 -24 0 6 -7 19 -16 30 -14 18 -14 18 -3
-6z"/>
<path d="M226 1792 c-3 -5 1 -9 9 -9 8 0 12 4 9 9 -3 4 -7 8 -9 8 -2 0 -6 -4
-9 -8z"/>
<path d="M857 1789 c7 -7 15 -10 18 -7 3 3 -2 9 -12 12 -14 6 -15 5 -6 -5z"/>
<path d="M920 1790 c0 -5 5 -10 10 -10 6 0 10 5 10 10 0 6 -4 10 -10 10 -5 0
-10 -4 -10 -10z"/>
<path d="M1331 1783 c0 -12 3 -24 8 -27 5 -3 8 -27 6 -53 -1 -27 4 -60 11 -75
15 -29 47 -52 58 -41 3 3 6 1 6 -5 0 -7 5 -12 11 -12 8 0 8 5 -1 15 -7 8 -16
12 -21 9 -5 -3 -9 0 -9 6 0 6 -4 9 -9 6 -9 -6 -26 62 -17 71 10 10 45 -9 51
-28 4 -13 12 -18 21 -15 9 3 12 1 9 -4 -9 -15 5 -12 22 5 15 16 27 68 13 60
-13 -8 -33 24 -26 40 3 10 1 15 -7 13 -6 -1 -21 3 -33 9 -12 7 -25 8 -35 2
-11 -7 -10 -9 5 -9 21 0 86 -65 86 -86 0 -10 -7 -11 -32 -2 -29 10 -30 12 -12
20 14 6 12 7 -9 3 -21 -4 -27 -2 -21 6 4 7 3 9 -4 5 -6 -3 -16 2 -21 13 -13
23 -14 60 -3 62 56 9 73 7 94 -11 18 -16 20 -21 9 -29 -9 -6 -10 -11 -2 -15 6
-4 11 -2 11 3 0 6 5 11 11 11 5 0 8 -4 5 -9 -4 -5 2 -8 11 -7 9 2 19 9 21 16
3 8 0 10 -7 5 -7 -4 -21 3 -34 17 -42 44 -110 62 -121 31 -8 -19 -34 -16 -39
5 -4 13 -5 12 -6 -5z"/>
<path d="M2850 1792 c0 -5 7 -9 15 -9 8 0 12 4 9 9 -3 4 -9 8 -15 8 -5 0 -9
-4 -9 -8z"/>
<path d="M95 1780 c-3 -5 1 -10 10 -10 9 0 13 5 10 10 -3 6 -8 10 -10 10 -2 0
-7 -4 -10 -10z"/>
<path d="M460 1780 c0 -5 5 -10 11 -10 5 0 7 5 4 10 -3 6 -8 10 -11 10 -2 0
-4 -4 -4 -10z"/>
<path d="M800 1780 c0 -5 5 -10 10 -10 6 0 10 5 10 10 0 6 -4 10 -10 10 -5 0
-10 -4 -10 -10z"/>
<path d="M2525 1780 c3 -5 8 -10 11 -10 2 0 4 5 4 10 0 6 -5 10 -11 10 -5 0
-7 -4 -4 -10z"/>
<path d="M2720 1779 c0 -5 5 -7 10 -4 6 3 10 8 10 11 0 2 -4 4 -10 4 -5 0 -10
-5 -10 -11z"/>
<path d="M30 1769 c0 -5 5 -7 10 -4 6 3 10 8 10 11 0 2 -4 4 -10 4 -5 0 -10
-5 -10 -11z"/>
<path d="M395 1770 c3 -5 8 -10 11 -10 2 0 4 5 4 10 0 6 -5 10 -11 10 -5 0 -7
-4 -4 -10z"/>
<path d="M745 1770 c3 -5 8 -10 11 -10 2 0 4 5 4 10 0 6 -5 10 -11 10 -5 0 -7
-4 -4 -10z"/>
<path d="M330 1760 c0 -5 5 -10 10 -10 6 0 10 5 10 10 0 6 -4 10 -10 10 -5 0
-10 -4 -10 -10z"/>
<path d="M615 1760 c3 -5 11 -10 16 -10 6 0 7 5 4 10 -3 6 -11 10 -16 10 -6 0
-7 -4 -4 -10z"/>
<path d="M685 1760 c3 -5 8 -10 11 -10 2 0 4 5 4 10 0 6 -5 10 -11 10 -5 0 -7
-4 -4 -10z"/>
<path d="M1555 1760 c3 -5 8 -10 11 -10 2 0 4 5 4 10 0 6 -5 10 -11 10 -5 0
-7 -4 -4 -10z"/>
<path d="M1856 1751 c10 -10 21 -17 23 -15 6 6 -20 34 -32 34 -6 0 -2 -8 9
-19z"/>
<path d="M200 1750 c0 -5 5 -10 11 -10 5 0 7 5 4 10 -3 6 -8 10 -11 10 -2 0
-4 -4 -4 -10z"/>
<path d="M490 1751 c0 -5 5 -13 10 -16 6 -3 10 -2 10 4 0 5 -4 13 -10 16 -5 3
-10 2 -10 -4z"/>
<path d="M1615 1750 c-11 -5 -15 -9 -10 -9 6 -1 3 -5 -5 -11 -8 -5 -12 -11 -9
-14 3 -3 16 5 29 19 25 27 25 28 -5 15z"/>
<path d="M2880 1756 c0 -2 7 -6 15 -10 8 -3 15 -1 15 4 0 6 -7 10 -15 10 -8 0
-15 -2 -15 -4z"/>
<path d="M2960 1750 c0 -5 5 -10 11 -10 5 0 7 5 4 10 -3 6 -8 10 -11 10 -2 0
-4 -4 -4 -10z"/>
<path d="M136 1737 c3 -10 9 -15 12 -12 3 3 0 11 -7 18 -10 9 -11 8 -5 -6z"/>
<path d="M775 1740 c3 -5 8 -10 11 -10 2 0 4 5 4 10 0 6 -5 10 -11 10 -5 0 -7
-4 -4 -10z"/>
<path d="M1000 1730 c14 -10 27 -16 30 -13 6 6 -30 33 -44 33 -6 0 0 -9 14
-20z"/>
<path d="M2550 1740 c0 -5 5 -10 10 -10 6 0 10 5 10 10 0 6 -4 10 -10 10 -5 0
-10 -4 -10 -10z"/>
<path d="M70 1730 c0 -5 5 -10 11 -10 5 0 7 5 4 10 -3 6 -8 10 -11 10 -2 0 -4
-4 -4 -10z"/>
<path d="M360 1724 c0 -8 5 -12 10 -9 6 4 8 11 5 16 -9 14 -15 11 -15 -7z"/>
<path d="M430 1729 c0 -5 5 -7 10 -4 6 3 10 8 10 11 0 2 -4 4 -10 4 -5 0 -10
-5 -10 -11z"/>
<path d="M710 1730 c0 -5 5 -10 10 -10 6 0 10 5 10 10 0 6 -4 10 -10 10 -5 0
-10 -4 -10 -10z"/>
<path d="M1940 1735 c0 -5 5 -17 10 -25 5 -8 10 -10 10 -5 0 6 -5 17 -10 25
-5 8 -10 11 -10 5z"/>
<path d="M2266 1720 c3 -14 10 -29 15 -34 14 -16 10 6 -7 34 l-15 25 7 -25z"/>
<path d="M300 1720 c0 -5 5 -10 10 -10 6 0 10 5 10 10 0 6 -4 10 -10 10 -5 0
-10 -4 -10 -10z"/>
<path d="M590 1721 c0 -5 5 -13 10 -16 6 -3 10 -2 10 4 0 5 -4 13 -10 16 -5 3
-10 2 -10 -4z"/>
<path d="M655 1720 c3 -5 8 -10 11 -10 2 0 4 5 4 10 0 6 -5 10 -11 10 -5 0 -7
-4 -4 -10z"/>
<path d="M1387 1718 c2 -5 13 -8 24 -8 10 0 19 3 19 8 0 4 -11 7 -24 7 -13 0
-22 -3 -19 -7z"/>
<path d="M2300 1726 c0 -2 7 -6 15 -10 8 -3 15 -1 15 4 0 6 -7 10 -15 10 -8 0
-15 -2 -15 -4z"/>
<path d="M170 1711 c0 -5 5 -13 10 -16 6 -3 10 -2 10 4 0 5 -4 13 -10 16 -5 3
-10 2 -10 -4z"/>
<path d="M525 1710 c-3 -5 1 -10 10 -10 9 0 13 5 10 10 -3 6 -8 10 -10 10 -2
0 -7 -4 -10 -10z"/>
<path d="M870 1710 c0 -5 5 -10 11 -10 5 0 7 5 4 10 -3 6 -8 10 -11 10 -2 0
-4 -4 -4 -10z"/>
<path d="M2790 1710 c0 -5 5 -10 10 -10 6 0 10 5 10 10 0 6 -4 10 -10 10 -5 0
-10 -4 -10 -10z"/>
<path d="M2855 1710 c-3 -5 1 -10 9 -10 9 0 16 5 16 10 0 6 -4 10 -9 10 -6 0
-13 -4 -16 -10z"/>
<path d="M110 1700 c0 -5 5 -10 11 -10 5 0 7 5 4 10 -3 6 -8 10 -11 10 -2 0
-4 -4 -4 -10z"/>
<path d="M401 1694 c0 -11 3 -14 6 -6 3 7 2 16 -1 19 -3 4 -6 -2 -5 -13z"/>
<path d="M465 1700 c3 -5 8 -10 11 -10 2 0 4 5 4 10 0 6 -5 10 -11 10 -5 0 -7
-4 -4 -10z"/>
<path d="M805 1700 c3 -5 10 -10 16 -10 5 0 9 5 9 10 0 6 -7 10 -16 10 -8 0
-12 -4 -9 -10z"/>
<path d="M1775 1701 c-11 -5 -25 -7 -30 -4 -6 2 -16 -11 -23 -29 -14 -38 -8
-51 8 -16 7 14 17 25 23 25 7 0 21 4 31 9 14 5 17 4 12 -4 -4 -7 -14 -12 -21
-12 -19 0 -39 -37 -25 -45 19 -12 11 -26 -9 -15 -25 13 -31 13 -31 -1 0 -5 4
-8 9 -5 5 3 16 -9 24 -27 16 -31 15 -32 -6 -39 -28 -8 0 -10 31 -2 25 7 29 26
8 44 -8 6 -12 19 -9 27 6 14 7 14 18 0 10 -13 12 -11 12 16 0 18 4 44 8 60 8
28 3 31 -30 18z"/>
<path d="M40 1690 c0 -5 5 -10 10 -10 6 0 10 5 10 10 0 6 -4 10 -10 10 -5 0
-10 -4 -10 -10z"/>
<path d="M330 1690 c0 -6 7 -10 15 -10 8 0 15 2 15 4 0 2 -7 6 -15 10 -8 3
-15 1 -15 -4z"/>
<path d="M683 1685 c0 -8 4 -12 9 -9 4 3 8 9 8 15 0 5 -4 9 -8 9 -5 0 -9 -7
-9 -15z"/>
<path d="M1550 1696 c0 -2 7 -6 15 -10 8 -3 15 -1 15 4 0 6 -7 10 -15 10 -8 0
-15 -2 -15 -4z"/>
<path d="M1595 1690 c-3 -5 -1 -10 4 -10 6 0 11 5 11 10 0 6 -2 10 -4 10 -3 0
-8 -4 -11 -10z"/>
<path d="M2068 1688 c8 -8 17 -8 34 0 22 10 21 11 -11 11 -27 1 -32 -2 -23
-11z"/>
<path d="M2340 1690 c0 -5 5 -10 11 -10 5 0 7 5 4 10 -3 6 -8 10 -11 10 -2 0
-4 -4 -4 -10z"/>
<path d="M2460 1696 c0 -2 7 -7 16 -10 8 -3 12 -2 9 4 -6 10 -25 14 -25 6z"/>
<path d="M275 1680 c-3 -5 -1 -10 4 -10 6 0 11 5 11 10 0 6 -2 10 -4 10 -3 0
-8 -4 -11 -10z"/>
<path d="M625 1680 c3 -5 8 -10 11 -10 2 0 4 5 4 10 0 6 -5 10 -11 10 -5 0 -7
-4 -4 -10z"/>
<path d="M2150 1686 c0 -2 7 -9 15 -16 13 -11 14 -10 9 4 -5 14 -24 23 -24 12z"/>
<path d="M200 1670 c0 -5 7 -10 16 -10 8 0 12 5 9 10 -3 6 -10 10 -16 10 -5 0
-9 -4 -9 -10z"/>
<path d="M495 1670 c3 -5 11 -10 16 -10 6 0 7 5 4 10 -3 6 -11 10 -16 10 -6 0
-7 -4 -4 -10z"/>
<path d="M560 1669 c0 -5 5 -7 10 -4 6 3 10 8 10 11 0 2 -4 4 -10 4 -5 0 -10
-5 -10 -11z"/>
<path d="M836 1668 c3 -4 9 -8 15 -8 5 0 9 4 9 8 0 5 -7 9 -15 9 -8 0 -12 -4
-9 -9z"/>
<path d="M2560 1666 c0 -9 5 -16 10 -16 6 0 10 4 10 9 0 6 -4 13 -10 16 -5 3
-10 -1 -10 -9z"/>
<path d="M2895 1671 c-3 -5 -2 -12 3 -15 5 -3 9 1 9 9 0 17 -3 19 -12 6z"/>
<path d="M2965 1670 c3 -5 8 -10 11 -10 2 0 4 5 4 10 0 6 -5 10 -11 10 -5 0
-7 -4 -4 -10z"/>
<path d="M76 1655 c-3 -8 -1 -15 4 -15 13 0 22 18 11 24 -5 3 -11 -1 -15 -9z"/>
<path d="M140 1660 c0 -5 5 -10 10 -10 6 0 10 5 10 10 0 6 -4 10 -10 10 -5 0
-10 -4 -10 -10z"/>
<path d="M440 1661 c0 -5 5 -13 10 -16 6 -3 10 -2 10 4 0 5 -4 13 -10 16 -5 3
-10 2 -10 -4z"/>
<path d="M780 1660 c0 -5 5 -10 10 -10 6 0 10 5 10 10 0 6 -4 10 -10 10 -5 0
-10 -4 -10 -10z"/>
<path d="M1395 1650 c10 -11 20 -20 23 -20 3 0 -3 9 -13 20 -10 11 -20 20 -23
20 -3 0 3 -9 13 -20z"/>
<path d="M2008 1647 c-3 -19 -2 -25 4 -19 6 6 8 18 6 28 -3 14 -5 12 -10 -9z"/>
<path d="M2430 1657 c0 -7 9 -13 20 -14 18 -2 18 0 6 13 -18 17 -26 18 -26 1z"/>
<path d="M10 1650 c0 -5 5 -10 10 -10 6 0 10 5 10 10 0 6 -4 10 -10 10 -5 0
-10 -4 -10 -10z"/>
<path d="M370 1650 c0 -5 5 -10 11 -10 5 0 7 5 4 10 -3 6 -8 10 -11 10 -2 0
-4 -4 -4 -10z"/>
<path d="M725 1650 c3 -5 8 -10 11 -10 2 0 4 5 4 10 0 6 -5 10 -11 10 -5 0 -7
-4 -4 -10z"/>
<path d="M2100 1656 c0 -9 30 -14 35 -6 4 6 -3 10 -14 10 -12 0 -21 -2 -21 -4z"/>
<path d="M2300 1649 c0 -5 5 -7 10 -4 6 3 10 8 10 11 0 2 -4 4 -10 4 -5 0 -10
-5 -10 -11z"/>
<path d="M245 1640 c-3 -5 -1 -10 4 -10 6 0 11 5 11 10 0 6 -2 10 -4 10 -3 0
-8 -4 -11 -10z"/>
<path d="M305 1640 c3 -5 11 -10 16 -10 6 0 7 5 4 10 -3 6 -11 10 -16 10 -6 0
-7 -4 -4 -10z"/>
<path d="M595 1640 c3 -5 11 -10 16 -10 6 0 7 5 4 10 -3 6 -11 10 -16 10 -6 0
-7 -4 -4 -10z"/>
<path d="M175 1629 c-10 -15 3 -25 16 -12 7 7 7 13 1 17 -6 3 -14 1 -17 -5z"/>
<path d="M530 1630 c0 -5 5 -10 10 -10 6 0 10 5 10 10 0 6 -4 10 -10 10 -5 0
-10 -4 -10 -10z"/>
<path d="M815 1630 c3 -5 8 -10 11 -10 2 0 4 5 4 10 0 6 -5 10 -11 10 -5 0 -7
-4 -4 -10z"/>
<path d="M875 1630 c3 -5 8 -10 11 -10 2 0 4 5 4 10 0 6 -5 10 -11 10 -5 0 -7
-4 -4 -10z"/>
<path d="M2145 1630 c3 -5 11 -10 16 -10 6 0 7 5 4 10 -3 6 -11 10 -16 10 -6
0 -7 -4 -4 -10z"/>
<path d="M2280 1631 c0 -5 5 -13 10 -16 6 -3 10 -15 10 -25 0 -10 10 -35 22
-55 19 -33 22 -35 31 -19 7 12 6 20 -4 28 -8 6 -23 28 -34 49 -21 40 -35 55
-35 38z"/>
<path d="M2855 1630 c-3 -5 -1 -10 4 -10 6 0 11 5 11 10 0 6 -2 10 -4 10 -3 0
-8 -4 -11 -10z"/>
<path d="M110 1620 c0 -5 7 -10 16 -10 8 0 12 5 9 10 -3 6 -10 10 -16 10 -5 0
-9 -4 -9 -10z"/>
<path d="M470 1620 c0 -5 5 -10 10 -10 6 0 10 5 10 10 0 6 -4 10 -10 10 -5 0
-10 -4 -10 -10z"/>
<path d="M750 1620 c0 -5 5 -10 10 -10 6 0 10 5 10 10 0 6 -4 10 -10 10 -5 0
-10 -4 -10 -10z"/>
<path d="M2530 1621 c0 -6 5 -13 10 -16 6 -3 10 1 10 9 0 9 -4 16 -10 16 -5 0
-10 -4 -10 -9z"/>
<path d="M45 1610 c-3 -5 1 -10 9 -10 9 0 16 5 16 10 0 6 -4 10 -9 10 -6 0
-13 -4 -16 -10z"/>
<path d="M630 1604 c0 -8 5 -12 10 -9 6 4 8 11 5 16 -9 14 -15 11 -15 -7z"/>
<path d="M690 1610 c0 -5 5 -10 10 -10 6 0 10 5 10 10 0 6 -4 10 -10 10 -5 0
-10 -4 -10 -10z"/>
<path d="M2340 1609 c0 -5 5 -7 10 -4 6 3 10 8 10 11 0 2 -4 4 -10 4 -5 0 -10
-5 -10 -11z"/>
<path d="M275 1600 c3 -5 10 -10 16 -10 5 0 9 5 9 10 0 6 -7 10 -16 10 -8 0
-12 -4 -9 -10z"/>
<path d="M570 1600 c0 -5 5 -10 11 -10 5 0 7 5 4 10 -3 6 -8 10 -11 10 -2 0
-4 -4 -4 -10z"/>
<path d="M1480 1600 c0 -5 5 -10 11 -10 5 0 7 5 4 10 -3 6 -8 10 -11 10 -2 0
-4 -4 -4 -10z"/>
<path d="M2257 1599 c7 -7 15 -10 18 -7 3 3 -2 9 -12 12 -14 6 -15 5 -6 -5z"/>
<path d="M220 1590 c0 -5 5 -10 11 -10 5 0 7 5 4 10 -3 6 -8 10 -11 10 -2 0
-4 -4 -4 -10z"/>
<path d="M506 1585 c4 -8 10 -12 15 -9 11 6 2 24 -11 24 -5 0 -7 -7 -4 -15z"/>
<path d="M780 1590 c0 -5 5 -10 10 -10 6 0 10 5 10 10 0 6 -4 10 -10 10 -5 0
-10 -4 -10 -10z"/>
<path d="M1685 1589 c-9 -14 -2 -20 14 -10 8 6 9 11 3 15 -6 3 -14 1 -17 -5z"/>
<path d="M2090 1590 c0 -5 7 -7 15 -3 9 3 22 -2 30 -13 7 -11 17 -16 21 -11 4
4 2 7 -4 7 -7 0 -12 7 -12 15 0 9 -9 15 -25 15 -14 0 -25 -4 -25 -10z"/>
<path d="M2188 1578 c24 -11 46 -17 49 -15 6 7 -57 37 -76 36 -9 0 4 -10 27
-21z"/>
<path d="M2490 1592 c0 -5 7 -15 15 -22 8 -7 15 -8 15 -2 0 5 -7 15 -15 22 -8
7 -15 8 -15 2z"/>
<path d="M2835 1591 c-3 -5 -1 -12 5 -16 5 -3 10 1 10 9 0 18 -6 21 -15 7z"/>
<path d="M2960 1590 c0 -5 5 -10 10 -10 6 0 10 5 10 10 0 6 -4 10 -10 10 -5 0
-10 -4 -10 -10z"/>
<path d="M85 1580 c-3 -5 -1 -10 4 -10 6 0 11 5 11 10 0 6 -2 10 -4 10 -3 0
-8 -4 -11 -10z"/>
<path d="M2048 1583 c6 -2 18 -2 25 0 6 3 1 5 -13 5 -14 0 -19 -2 -12 -5z"/>
<path d="M2430 1580 c0 -5 7 -10 16 -10 8 0 12 5 9 10 -3 6 -10 10 -16 10 -5
0 -9 -4 -9 -10z"/>
<path d="M2626 1578 c3 -5 10 -6 15 -3 13 9 11 12 -6 12 -8 0 -12 -4 -9 -9z"/>
<path d="M20 1571 c0 -5 5 -13 10 -16 6 -3 10 -2 10 4 0 5 -4 13 -10 16 -5 3
-10 2 -10 -4z"/>
<path d="M665 1570 c3 -5 8 -10 11 -10 2 0 4 5 4 10 0 6 -5 10 -11 10 -5 0 -7
-4 -4 -10z"/>
<path d="M250 1560 c0 -5 5 -10 11 -10 5 0 7 5 4 10 -3 6 -8 10 -11 10 -2 0
-4 -4 -4 -10z"/>
<path d="M605 1560 c3 -5 8 -10 11 -10 2 0 4 5 4 10 0 6 -5 10 -11 10 -5 0 -7
-4 -4 -10z"/>
<path d="M1294 1556 c-18 -8 -35 -20 -39 -26 -5 -7 6 -4 24 6 22 13 34 15 39
8 4 -7 24 -19 45 -27 26 -11 37 -22 37 -36 0 -12 5 -21 11 -21 5 0 7 5 4 10
-3 6 -1 10 6 10 6 0 0 12 -15 26 -14 15 -26 34 -27 43 0 10 -2 12 -6 4 -6 -16
-34 -17 -30 -2 3 18 -15 19 -49 5z"/>
<path d="M2580 1564 c0 -11 29 -34 34 -26 2 4 -4 13 -15 20 -10 7 -19 10 -19
6z"/>
<path d="M475 1540 c-3 -11 -11 -20 -16 -20 -5 0 -9 -4 -9 -10 0 -18 18 -10
25 10 4 11 11 18 16 15 5 -3 6 1 3 9 -8 21 -11 20 -19 -4z"/>
<path d="M2265 1549 c-4 -6 -4 -13 -1 -16 3 -4 6 -1 6 6 0 7 5 9 12 5 7 -4 8
-3 4 4 -9 15 -13 15 -21 1z"/>
<path d="M2530 1545 c0 -8 5 -15 10 -15 6 0 10 7 10 15 0 8 -4 15 -10 15 -5 0
-10 -7 -10 -15z"/>
<path d="M2862 1548 c2 -6 10 -14 16 -16 7 -2 10 2 6 12 -7 18 -28 22 -22 4z"/>
<path d="M120 1540 c0 -5 5 -10 10 -10 6 0 10 5 10 10 0 6 -4 10 -10 10 -5 0
-10 -4 -10 -10z"/>
<path d="M187 1539 c7 -7 15 -10 18 -7 3 3 -2 9 -12 12 -14 6 -15 5 -6 -5z"/>
<path d="M700 1535 c7 -9 15 -13 17 -11 7 7 -7 26 -19 26 -6 0 -6 -6 2 -15z"/>
<path d="M2400 1540 c0 -5 5 -10 10 -10 6 0 10 5 10 10 0 6 -4 10 -10 10 -5 0
-10 -4 -10 -10z"/>
<path d="M2735 1540 c3 -5 8 -10 11 -10 2 0 4 5 4 10 0 6 -5 10 -11 10 -5 0
-7 -4 -4 -10z"/>
<path d="M2926 1538 c3 -5 10 -6 15 -3 13 9 11 12 -6 12 -8 0 -12 -4 -9 -9z"/>
<path d="M55 1530 c-3 -5 1 -10 10 -10 9 0 13 5 10 10 -3 6 -8 10 -10 10 -2 0
-7 -4 -10 -10z"/>
<path d="M295 1529 c-4 -6 -5 -12 -2 -15 2 -3 7 2 10 11 7 17 1 20 -8 4z"/>
<path d="M350 1530 c0 -5 5 -10 11 -10 5 0 7 5 4 10 -3 6 -8 10 -11 10 -2 0
-4 -4 -4 -10z"/>
<path d="M636 1531 c-3 -5 1 -11 9 -15 8 -3 15 -1 15 4 0 13 -18 22 -24 11z"/>
<path d="M1931 1524 c0 -11 3 -14 6 -6 3 7 2 16 -1 19 -3 4 -6 -2 -5 -13z"/>
<path d="M2180 1525 c47 -18 58 -18 34 0 -10 8 -30 14 -44 14 -22 0 -21 -2 10
-14z"/>
<path d="M0 1519 c0 -5 5 -7 10 -4 5 3 10 8 10 11 0 2 -4 4 -10 4 -5 0 -10 -5
-10 -11z"/>
<path d="M220 1516 c0 -9 5 -16 10 -16 6 0 10 4 10 9 0 6 -4 13 -10 16 -5 3
-10 -1 -10 -9z"/>
<path d="M575 1520 c-3 -5 -1 -10 4 -10 6 0 11 5 11 10 0 6 -2 10 -4 10 -3 0
-8 -4 -11 -10z"/>
<path d="M2282 1509 c-7 -10 -12 -21 -12 -24 0 -10 29 7 34 20 8 23 -9 26 -22
4z"/>
<path d="M160 1504 c0 -8 5 -12 10 -9 6 4 8 11 5 16 -9 14 -15 11 -15 -7z"/>
<path d="M790 1510 c-13 -8 -12 -10 3 -10 9 0 17 5 17 10 0 12 -1 12 -20 0z"/>
<path d="M1280 1510 c0 -6 7 -10 15 -10 8 0 15 2 15 4 0 2 -7 6 -15 10 -8 3
-15 1 -15 -4z"/>
<path d="M1440 1510 c0 -6 7 -10 15 -10 8 0 15 2 15 4 0 2 -7 6 -15 10 -8 3
-15 1 -15 -4z"/>
<path d="M2608 1490 c-3 -19 -2 -39 2 -43 11 -13 17 14 10 48 l-6 30 -6 -35z"/>
<path d="M2760 1510 c0 -5 5 -10 10 -10 6 0 10 5 10 10 0 6 -4 10 -10 10 -5 0
-10 -4 -10 -10z"/>
<path d="M2815 1510 c3 -5 13 -10 21 -10 8 0 14 5 14 10 0 6 -9 10 -21 10 -11
0 -17 -4 -14 -10z"/>
<path d="M2890 1510 c0 -5 7 -10 16 -10 8 0 12 5 9 10 -3 6 -10 10 -16 10 -5
0 -9 -4 -9 -10z"/>
<path d="M2966 1505 c4 -8 8 -15 10 -15 2 0 4 7 4 15 0 8 -4 15 -10 15 -5 0
-7 -7 -4 -15z"/>
<path d="M90 1500 c0 -5 5 -10 10 -10 6 0 10 5 10 10 0 6 -4 10 -10 10 -5 0
-10 -4 -10 -10z"/>
<path d="M735 1500 c-3 -5 -1 -10 4 -10 6 0 11 5 11 10 0 6 -2 10 -4 10 -3 0
-8 -4 -11 -10z"/>
<path d="M1178 1502 c-9 -2 -19 -10 -22 -18 -3 -8 -2 -13 3 -10 5 3 12 -1 15
-10 11 -27 7 -37 -9 -24 -8 7 -21 10 -29 7 -10 -4 -16 2 -18 16 -3 20 -4 20
-15 -6 -12 -27 -12 -27 26 -27 30 0 38 -4 37 -16 0 -9 6 -19 14 -22 13 -4 13
-3 2 10 -10 13 -10 17 0 20 23 8 49 -4 43 -19 -4 -11 0 -13 12 -9 10 4 5 -5
-12 -18 -33 -28 -45 -32 -45 -14 0 6 -3 9 -6 5 -3 -3 -2 -13 4 -23 6 -11 11
-13 16 -5 4 6 11 11 17 11 13 0 11 -34 -3 -48 -9 -9 -8 -12 5 -12 9 0 18 5 18
10 1 6 2 16 3 23 1 6 -2 18 -8 25 -13 18 13 35 31 21 9 -8 11 -6 8 10 -5 28
-20 53 -31 53 -15 1 -52 28 -58 43 -3 10 4 8 27 -5 18 -11 41 -20 53 -20 11 0
25 -5 31 -11 7 -7 12 -2 15 21 3 21 1 29 -7 26 -7 -2 -18 1 -24 7 -7 7 -11 7
-11 1 0 -14 -49 -12 -58 2 -4 5 -14 8 -24 6z"/>
<path d="M1690 1500 c0 -5 -15 -7 -32 -5 l-33 5 35 -16 c19 -10 47 -16 62 -15
20 1 37 -10 65 -39 79 -85 99 -161 67 -255 -16 -49 -13 -80 13 -147 15 -37 35
-49 48 -27 4 6 -2 13 -12 15 -25 7 -50 119 -32 141 6 7 13 43 14 79 3 76 -19
143 -66 195 -31 35 -36 49 -17 49 6 0 8 3 5 6 -4 4 -14 1 -22 -6 -13 -11 -16
-11 -13 0 2 9 -8 15 -26 16 -16 2 -35 5 -43 8 -7 3 -13 1 -13 -4z"/>
<path d="M2370 1501 c0 -5 7 -11 14 -14 10 -4 13 -1 9 9 -6 15 -23 19 -23 5z"/>
<path d="M2435 1500 c3 -5 11 -10 16 -10 6 0 7 5 4 10 -3 6 -11 10 -16 10 -6
0 -7 -4 -4 -10z"/>
<path d="M2695 1500 c4 -6 11 -8 16 -5 14 9 11 15 -7 15 -8 0 -12 -5 -9 -10z"/>
<path d="M25 1490 c-3 -5 1 -10 10 -10 9 0 13 5 10 10 -3 6 -8 10 -10 10 -2 0
-7 -4 -10 -10z"/>
<path d="M1916 1483 c-6 -14 -5 -15 5 -6 7 7 10 15 7 18 -3 3 -9 -2 -12 -12z"/>
<path d="M250 1470 c-10 -19 -10 -20 9 -8 22 13 28 28 11 28 -5 0 -14 -9 -20
-20z"/>
<path d="M320 1486 c0 -2 7 -7 16 -10 8 -3 12 -2 9 4 -6 10 -25 14 -25 6z"/>
<path d="M540 1480 c0 -5 7 -10 16 -10 8 0 12 5 9 10 -3 6 -10 10 -16 10 -5 0
-9 -4 -9 -10z"/>
<path d="M820 1480 c0 -5 5 -10 11 -10 5 0 7 5 4 10 -3 6 -8 10 -11 10 -2 0
-4 -4 -4 -10z"/>
<path d="M890 1480 c0 -5 5 -10 10 -10 6 0 10 5 10 10 0 6 -4 10 -10 10 -5 0
-10 -4 -10 -10z"/>
<path d="M1375 1483 c3 -3 0 -11 -5 -18 -7 -8 -5 -12 4 -12 14 0 16 22 3 32
-4 3 -5 2 -2 -2z"/>
<path d="M2170 1480 c0 -5 -7 -10 -17 -10 -9 0 -14 -3 -10 -6 3 -4 14 -3 24 1
10 5 24 7 32 6 7 -1 10 2 6 8 -8 14 -35 14 -35 1z"/>
<path d="M2314 1476 c-11 -8 -44 -22 -74 -31 -30 -9 -64 -20 -75 -25 -18 -8
-17 -9 6 -9 38 -1 118 25 141 46 19 17 20 17 38 -7 11 -14 27 -42 36 -62 14
-31 19 -35 30 -23 18 18 18 25 -1 25 -8 0 -15 4 -15 10 0 11 -52 89 -60 90 -3
0 -15 -6 -26 -14z"/>
<path d="M2657 1477 c-3 -9 1 -18 10 -21 23 -9 29 2 11 20 -13 14 -16 14 -21
1z"/>
<path d="M760 1470 c0 -5 5 -10 11 -10 5 0 7 5 4 10 -3 6 -8 10 -11 10 -2 0
-4 -4 -4 -10z"/>
<path d="M1614 1456 c-20 -24 -17 -55 4 -42 6 4 6 -4 -1 -18 -7 -14 -14 -22
-16 -20 -3 3 -11 -6 -19 -18 -11 -20 -13 -20 -9 -3 3 11 8 29 12 40 8 20 8 20
-8 0 -9 -11 -17 -33 -17 -49 0 -24 -2 -27 -15 -16 -8 7 -12 16 -9 21 3 5 2 8
-3 7 -4 -2 -30 12 -56 31 -27 18 -51 30 -55 26 -4 -3 1 -11 11 -16 9 -6 15
-15 11 -20 -3 -5 -2 -9 3 -8 20 5 63 -15 77 -36 14 -21 14 -24 -7 -40 -12 -9
-15 -13 -7 -9 12 7 13 5 2 -8 -7 -8 -33 -23 -58 -33 -26 -10 -55 -26 -65 -36
-10 -10 -25 -16 -34 -13 -13 5 -10 11 15 32 16 14 30 29 30 34 0 4 -14 -4 -31
-19 -17 -16 -35 -27 -40 -26 -17 5 -9 -15 9 -22 14 -5 10 -10 -21 -27 -22 -10
-36 -22 -33 -25 3 -3 12 -1 19 6 27 22 113 41 186 41 62 0 72 2 62 14 -11 14
-59 14 -118 1 -44 -10 -22 7 55 42 42 20 71 38 65 40 -7 3 -13 9 -13 15 0 5 5
8 12 6 6 -2 29 14 50 36 32 33 38 46 34 69 -5 23 -1 29 19 37 33 13 32 24 -1
16 -17 -5 -23 -3 -19 4 11 17 1 11 -21 -14z"/>
<path d="M2936 1467 c3 -10 9 -15 12 -12 3 3 0 11 -7 18 -10 9 -11 8 -5 -6z"/>
<path d="M126 1462 c-3 -5 1 -9 9 -9 8 0 15 4 15 9 0 4 -4 8 -9 8 -6 0 -12 -4
-15 -8z"/>
<path d="M700 1461 c0 -5 7 -11 15 -15 9 -3 15 0 15 9 0 8 -7 15 -15 15 -8 0
-15 -4 -15 -9z"/>
<path d="M2400 1466 c0 -2 7 -9 15 -16 13 -11 14 -10 9 4 -5 14 -24 23 -24 12z"/>
<path d="M2470 1466 c0 -2 7 -9 15 -16 13 -11 14 -10 9 4 -5 14 -24 23 -24 12z"/>
<path d="M2536 1461 c-3 -5 1 -11 9 -15 8 -3 15 -1 15 4 0 13 -18 22 -24 11z"/>
<path d="M2846 1462 c-2 -4 4 -8 14 -9 11 -1 22 2 25 8 4 5 -3 9 -14 9 -11 0
-22 -4 -25 -8z"/>
<path d="M66 1448 c3 -5 10 -6 15 -3 13 9 11 12 -6 12 -8 0 -12 -4 -9 -9z"/>
<path d="M350 1450 c0 -5 7 -10 15 -10 8 0 15 5 15 10 0 6 -7 10 -15 10 -8 0
-15 -4 -15 -10z"/>
<path d="M580 1452 c0 -12 19 -26 26 -19 2 2 -2 10 -11 17 -9 8 -15 8 -15 2z"/>
<path d="M645 1450 c-3 -5 1 -10 10 -10 9 0 13 5 10 10 -3 6 -8 10 -10 10 -2
0 -7 -4 -10 -10z"/>
<path d="M920 1450 c0 -5 5 -10 10 -10 6 0 10 5 10 10 0 6 -4 10 -10 10 -5 0
-10 -4 -10 -10z"/>
<path d="M2733 1453 c9 -2 25 -2 35 0 9 3 1 5 -18 5 -19 0 -27 -2 -17 -5z"/>
<path d="M2805 1450 c3 -5 10 -10 16 -10 5 0 9 5 9 10 0 6 -7 10 -16 10 -8 0
-12 -4 -9 -10z"/>
<path d="M507 1443 c-13 -13 -7 -21 13 -16 11 3 20 9 20 14 0 10 -24 12 -33 2z"/>
<path d="M857 1443 c-12 -12 -7 -22 8 -17 8 4 15 10 15 15 0 11 -14 12 -23 2z"/>
<path d="M2093 1440 c-32 -13 -29 -17 7 -12 16 2 27 8 24 13 -3 5 -6 9 -7 8
-1 0 -12 -4 -24 -9z"/>
<path d="M166 1431 c-3 -5 1 -11 9 -15 8 -3 15 -1 15 4 0 13 -18 22 -24 11z"/>
<path d="M737 1427 c-3 -7 3 -13 14 -14 12 -1 16 3 12 13 -6 18 -19 18 -26 1z"/>
<path d="M2760 1430 c0 -6 7 -10 15 -10 8 0 15 2 15 4 0 2 -7 6 -15 10 -8 3
-15 1 -15 -4z"/>
<path d="M2895 1430 c-3 -5 -1 -10 4 -10 6 0 11 5 11 10 0 6 -2 10 -4 10 -3 0
-8 -4 -11 -10z"/>
<path d="M2965 1430 c3 -5 11 -10 16 -10 6 0 7 5 4 10 -3 6 -11 10 -16 10 -6
0 -7 -4 -4 -10z"/>
<path d="M1330 1415 c13 -15 88 -40 97 -31 3 2 -4 9 -14 14 -18 10 -25 12 -44
12 -5 0 -8 4 -5 8 2 4 -7 9 -21 10 -21 2 -24 0 -13 -13z"/>
<path d="M1678 1417 c-7 -20 6 -60 22 -65 13 -5 13 -3 1 12 -8 9 -12 19 -9 21
7 8 38 -6 38 -16 0 -5 5 -9 12 -9 6 0 4 8 -6 19 -17 18 -16 20 5 26 21 7 21 8
4 18 -14 7 -20 7 -23 -1 -2 -8 -9 -9 -22 -2 -13 7 -19 6 -22 -3z"/>
<path d="M2435 1420 c3 -5 11 -10 16 -10 6 0 7 5 4 10 -3 6 -11 10 -16 10 -6
0 -7 -4 -4 -10z"/>
<path d="M2505 1420 c3 -5 8 -10 11 -10 2 0 4 5 4 10 0 6 -5 10 -11 10 -5 0
-7 -4 -4 -10z"/>
<path d="M2570 1420 c0 -5 5 -10 10 -10 6 0 10 5 10 10 0 6 -4 10 -10 10 -5 0
-10 -4 -10 -10z"/>
<path d="M2640 1421 c0 -6 4 -13 10 -16 6 -3 7 1 4 9 -7 18 -14 21 -14 7z"/>
<path d="M2695 1420 c3 -5 11 -10 16 -10 6 0 7 5 4 10 -3 6 -11 10 -16 10 -6
0 -7 -4 -4 -10z"/>
<path d="M30 1416 c0 -2 7 -7 16 -10 8 -3 12 -2 9 4 -6 10 -25 14 -25 6z"/>
<path d="M330 1410 c0 -5 5 -10 10 -10 6 0 10 5 10 10 0 6 -4 10 -10 10 -5 0
-10 -4 -10 -10z"/>
<path d="M480 1412 c0 -15 18 -34 29 -31 7 3 3 11 -9 21 -11 10 -20 14 -20 10z"/>
<path d="M620 1404 c0 -8 5 -12 10 -9 6 3 10 10 10 16 0 5 -4 9 -10 9 -5 0
-10 -7 -10 -16z"/>
<path d="M1106 1409 c2 -4 0 -19 -6 -33 -14 -37 2 -32 21 7 15 31 15 33 -2 33
-9 0 -16 -3 -13 -7z"/>
<path d="M207 1403 c-4 -3 -7 -14 -7 -24 0 -9 -6 -20 -12 -22 -8 -4 -7 -6 3
-6 10 -1 20 10 23 25 7 27 4 39 -7 27z"/>
<path d="M266 1393 c-6 -14 -5 -15 5 -6 7 7 10 15 7 18 -3 3 -9 -2 -12 -12z"/>
<path d="M377 1396 c-4 -10 -5 -21 -2 -24 9 -9 17 6 13 25 -3 17 -4 17 -11 -1z"/>
<path d="M555 1400 c-3 -5 1 -10 10 -10 9 0 13 5 10 10 -3 6 -8 10 -10 10 -2
0 -7 -4 -10 -10z"/>
<path d="M1297 1394 c3 -9 0 -20 -8 -26 -11 -8 -10 -9 4 -4 11 3 17 0 17 -9 0
-8 -8 -15 -17 -16 -15 0 -15 -2 -3 -7 18 -8 26 -57 11 -67 -6 -3 -11 -16 -11
-29 0 -12 -7 -31 -15 -42 -8 -10 -15 -23 -15 -28 0 -13 34 35 48 66 17 41 25
134 12 158 -13 24 -32 27 -23 4z"/>
<path d="M2320 1400 c-8 -5 -25 -10 -37 -10 -13 0 -23 -4 -23 -9 0 -10 80 7
95 20 13 12 -16 11 -35 -1z"/>
<path d="M426 1385 c-3 -9 0 -15 9 -15 16 0 20 16 6 24 -5 3 -11 -1 -15 -9z"/>
<path d="M710 1390 c0 -13 18 -22 24 -11 3 5 -1 11 -9 15 -8 3 -15 1 -15 -4z"/>
<path d="M775 1390 c-3 -5 1 -10 10 -10 9 0 13 5 10 10 -3 6 -8 10 -10 10 -2
0 -7 -4 -10 -10z"/>
<path d="M1053 1383 c0 -8 7 -11 14 -8 8 3 17 5 19 5 2 0 4 4 4 9 0 6 -8 9
-18 8 -10 0 -19 -7 -19 -14z"/>
<path d="M1531 1384 c0 -11 3 -14 6 -6 3 7 2 16 -1 19 -3 4 -6 -2 -5 -13z"/>
<path d="M1760 1385 c7 -9 15 -13 17 -11 7 7 -7 26 -19 26 -6 0 -6 -6 2 -15z"/>
<path d="M2098 1393 c12 -2 32 -2 45 0 12 2 2 4 -23 4 -25 0 -35 -2 -22 -4z"/>
<path d="M2735 1391 c-3 -5 -1 -12 5 -16 5 -3 10 1 10 9 0 18 -6 21 -15 7z"/>
<path d="M140 1380 c0 -5 5 -10 10 -10 6 0 10 5 10 10 0 6 -4 10 -10 10 -5 0
-10 -4 -10 -10z"/>
<path d="M650 1380 c0 -5 7 -10 16 -10 8 0 12 5 9 10 -3 6 -10 10 -16 10 -5 0
-9 -4 -9 -10z"/>
<path d="M2025 1380 c-13 -5 -14 -9 -5 -9 8 0 24 4 35 9 13 5 14 9 5 9 -8 0
-24 -4 -35 -9z"/>
<path d="M2203 1383 c9 -2 25 -2 35 0 9 3 1 5 -18 5 -19 0 -27 -2 -17 -5z"/>
<path d="M2475 1380 c3 -5 8 -10 11 -10 2 0 4 5 4 10 0 6 -5 10 -11 10 -5 0
-7 -4 -4 -10z"/>
<path d="M2535 1380 c4 -6 11 -8 16 -5 14 9 11 15 -7 15 -8 0 -12 -5 -9 -10z"/>
<path d="M2605 1380 c3 -5 8 -10 11 -10 2 0 4 5 4 10 0 6 -5 10 -11 10 -5 0
-7 -4 -4 -10z"/>
<path d="M2665 1380 c4 -6 11 -8 16 -5 14 9 11 15 -7 15 -8 0 -12 -5 -9 -10z"/>
<path d="M2930 1380 c0 -5 5 -10 10 -10 6 0 10 5 10 10 0 6 -4 10 -10 10 -5 0
-10 -4 -10 -10z"/>
<path d="M0 1364 c0 -8 5 -12 10 -9 6 4 8 11 5 16 -9 14 -15 11 -15 -7z"/>
<path d="M72 1369 c2 -6 8 -10 13 -10 5 0 11 4 13 10 2 6 -4 11 -13 11 -9 0
-15 -5 -13 -11z"/>
<path d="M305 1370 c-3 -5 -1 -10 4 -10 6 0 11 5 11 10 0 6 -2 10 -4 10 -3 0
-8 -4 -11 -10z"/>
<path d="M590 1359 c0 -11 5 -17 10 -14 6 3 10 13 10 21 0 8 -4 14 -10 14 -5
0 -10 -9 -10 -21z"/>
<path d="M527 1357 c-3 -7 3 -13 14 -13 13 0 15 3 7 13 -6 7 -12 13 -13 13 -2
0 -5 -6 -8 -13z"/>
<path d="M810 1360 c0 -5 7 -10 16 -10 8 0 12 5 9 10 -3 6 -10 10 -16 10 -5 0
-9 -4 -9 -10z"/>
<path d="M467 1353 c-12 -12 -7 -22 8 -17 8 4 15 10 15 15 0 11 -14 12 -23 2z"/>
<path d="M1384 1349 c-3 -6 -2 -15 3 -20 5 -5 9 -1 9 11 0 23 -2 24 -12 9z"/>
<path d="M1435 1350 c3 -5 16 -10 28 -9 21 0 21 1 2 9 -28 12 -37 12 -30 0z"/>
<path d="M1770 1349 c0 -5 5 -7 10 -4 6 3 10 8 10 11 0 2 -4 4 -10 4 -5 0 -10
-5 -10 -11z"/>
<path d="M2700 1352 c0 -12 19 -26 26 -19 2 2 -2 10 -11 17 -9 8 -15 8 -15 2z"/>
<path d="M2770 1346 c0 -9 5 -16 10 -16 6 0 10 4 10 9 0 6 -4 13 -10 16 -5 3
-10 -1 -10 -9z"/>
<path d="M2835 1350 c-3 -5 -1 -10 4 -10 6 0 11 5 11 10 0 6 -2 10 -4 10 -3 0
-8 -4 -11 -10z"/>
<path d="M2895 1350 c-3 -5 1 -10 10 -10 9 0 13 5 10 10 -3 6 -8 10 -10 10 -2
0 -7 -4 -10 -10z"/>
<path d="M112 1339 c2 -6 8 -10 13 -10 5 0 11 4 13 10 2 6 -4 11 -13 11 -9 0
-15 -5 -13 -11z"/>
<path d="M331 1323 c-12 -27 -13 -27 -27 -8 -11 15 -17 16 -26 7 -9 -9 -8 -12
5 -12 19 0 20 -2 11 -24 -5 -13 -9 -14 -20 -5 -8 7 -17 9 -20 6 -7 -7 70 -87
85 -87 6 0 11 7 11 15 0 9 -9 15 -25 15 -21 0 -25 5 -25 30 0 20 5 30 15 30 8
0 15 -8 15 -18 0 -11 8 -18 22 -19 13 -1 18 1 12 5 -6 4 -16 16 -21 27 -9 15
-8 22 5 31 12 9 14 16 6 24 -8 7 -14 3 -23 -17z"/>
<path d="M400 1335 c0 -9 6 -12 15 -9 8 4 12 10 9 15 -8 14 -24 10 -24 -6z"/>
<path d="M690 1340 c0 -5 5 -10 10 -10 6 0 10 5 10 10 0 6 -4 10 -10 10 -5 0
-10 -4 -10 -10z"/>
<path d="M745 1340 c-3 -6 1 -7 9 -4 18 7 21 14 7 14 -6 0 -13 -4 -16 -10z"/>
<path d="M2440 1340 c0 -5 5 -10 10 -10 6 0 10 5 10 10 0 6 -4 10 -10 10 -5 0
-10 -4 -10 -10z"/>
<path d="M2505 1340 c3 -5 8 -10 11 -10 2 0 4 5 4 10 0 6 -5 10 -11 10 -5 0
-7 -4 -4 -10z"/>
<path d="M2635 1340 c3 -5 8 -10 11 -10 2 0 4 5 4 10 0 6 -5 10 -11 10 -5 0
-7 -4 -4 -10z"/>
<path d="M1 1324 c0 -11 3 -14 6 -6 3 7 2 16 -1 19 -3 4 -6 -2 -5 -13z"/>
<path d="M630 1330 c0 -5 5 -10 10 -10 6 0 10 5 10 10 0 6 -4 10 -10 10 -5 0
-10 -4 -10 -10z"/>
<path d="M910 1330 c0 -5 5 -10 10 -10 6 0 10 5 10 10 0 6 -4 10 -10 10 -5 0
-10 -4 -10 -10z"/>
<path d="M993 1325 c-3 -9 -3 -18 -1 -21 3 -3 8 4 11 16 6 23 -1 27 -10 5z"/>
<path d="M2164 1325 c-10 -8 -14 -14 -9 -14 6 0 19 6 29 14 11 8 15 15 10 15
-6 0 -19 -7 -30 -15z"/>
<path d="M200 1315 c0 -8 9 -15 20 -15 13 0 18 5 14 15 -4 8 -12 15 -20 15 -8
0 -14 -7 -14 -15z"/>
<path d="M505 1319 c-9 -14 -2 -20 14 -10 8 6 9 11 3 15 -6 3 -14 1 -17 -5z"/>
<path d="M786 1322 c-3 -6 -1 -14 5 -17 15 -10 25 3 12 16 -7 7 -13 7 -17 1z"/>
<path d="M850 1320 c0 -5 5 -10 10 -10 6 0 10 5 10 10 0 6 -4 10 -10 10 -5 0
-10 -4 -10 -10z"/>
<path d="M2410 1312 c0 -10 11 -29 25 -42 14 -13 25 -19 25 -13 0 6 -7 13 -15
17 -8 3 -15 14 -15 25 0 11 -4 23 -10 26 -5 3 -10 -2 -10 -13z"/>
<path d="M434 1295 c-11 -22 -10 -23 7 -12 20 13 24 23 11 31 -4 2 -12 -6 -18
-19z"/>
<path d="M730 1310 c0 -5 5 -10 11 -10 5 0 7 5 4 10 -3 6 -8 10 -11 10 -2 0
-4 -4 -4 -10z"/>
<path d="M1150 1310 c19 -13 30 -13 30 0 0 6 -10 10 -22 10 -19 0 -20 -2 -8
-10z"/>
<path d="M1360 1311 c0 -6 4 -13 10 -16 6 -3 7 1 4 9 -7 18 -14 21 -14 7z"/>
<path d="M1807 1300 c3 -11 10 -23 15 -26 5 -3 3 -13 -4 -22 -12 -15 -11 -16
4 -3 16 12 16 16 2 42 -17 34 -24 38 -17 9z"/>
<path d="M2088 1313 c7 -3 16 -2 19 1 4 3 -2 6 -13 5 -11 0 -14 -3 -6 -6z"/>
<path d="M2600 1310 c0 -5 5 -10 11 -10 5 0 7 5 4 10 -3 6 -8 10 -11 10 -2 0
-4 -4 -4 -10z"/>
<path d="M2667 1306 c-4 -10 -1 -13 8 -9 8 3 12 9 9 14 -7 12 -11 11 -17 -5z"/>
<path d="M2730 1312 c0 -5 7 -13 16 -16 10 -4 14 -1 12 6 -5 15 -28 23 -28 10z"/>
<path d="M2800 1311 c0 -6 4 -13 10 -16 6 -3 7 1 4 9 -7 18 -14 21 -14 7z"/>
<path d="M2860 1310 c0 -5 7 -10 16 -10 8 0 12 5 9 10 -3 6 -10 10 -16 10 -5
0 -9 -4 -9 -10z"/>
<path d="M2925 1310 c-3 -5 1 -10 9 -10 9 0 16 5 16 10 0 6 -4 10 -9 10 -6 0
-13 -4 -16 -10z"/>
<path d="M76 1295 c-4 -10 1 -15 14 -15 11 0 20 7 20 15 0 19 -26 19 -34 0z"/>
<path d="M1025 1300 c-3 -6 1 -7 9 -4 18 7 21 14 7 14 -6 0 -13 -4 -16 -10z"/>
<path d="M1585 1300 c3 -5 13 -10 21 -10 8 0 14 -4 14 -10 0 -5 -5 -10 -12
-10 -6 0 -8 -3 -4 -7 4 -5 36 -8 70 -8 l63 0 -15 23 c-14 21 -30 33 -17 12 8
-14 -12 -12 -60 5 -47 17 -69 19 -60 5z"/>
<path d="M2475 1300 c3 -5 11 -10 16 -10 6 0 7 5 4 10 -3 6 -11 10 -16 10 -6
0 -7 -4 -4 -10z"/>
<path d="M380 1284 c0 -8 5 -12 10 -9 6 3 10 10 10 16 0 5 -4 9 -10 9 -5 0
-10 -7 -10 -16z"/>
<path d="M605 1290 c-3 -5 -1 -10 4 -10 6 0 11 5 11 10 0 6 -2 10 -4 10 -3 0
-8 -4 -11 -10z"/>
<path d="M885 1290 c3 -5 8 -10 11 -10 2 0 4 5 4 10 0 6 -5 10 -11 10 -5 0 -7
-4 -4 -10z"/>
<path d="M540 1280 c0 -5 5 -10 10 -10 6 0 10 5 10 10 0 6 -4 10 -10 10 -5 0
-10 -4 -10 -10z"/>
<path d="M825 1280 c-3 -5 -1 -10 4 -10 6 0 11 5 11 10 0 6 -2 10 -4 10 -3 0
-8 -4 -11 -10z"/>
<path d="M1116 1275 c-11 -8 -15 -15 -9 -15 7 0 15 5 18 10 4 6 11 8 16 5 5
-4 9 -1 9 4 0 15 -11 13 -34 -4z"/>
<path d="M2376 1274 c-8 -22 1 -31 16 -16 9 9 9 15 1 23 -7 7 -12 5 -17 -7z"/>
<path d="M470 1264 c0 -9 5 -14 12 -12 18 6 21 28 4 28 -9 0 -16 -7 -16 -16z"/>
<path d="M700 1270 c0 -5 5 -10 11 -10 5 0 7 5 4 10 -3 6 -8 10 -11 10 -2 0
-4 -4 -4 -10z"/>
<path d="M767 1273 c-4 -3 -7 -11 -7 -17 0 -6 5 -5 12 2 6 6 9 14 7 17 -3 3
-9 2 -12 -2z"/>
<path d="M1231 1271 c-7 -5 -9 -11 -4 -14 4 -3 17 1 28 9 21 16 0 20 -24 5z"/>
<path d="M1468 1273 c7 -3 16 -2 19 1 4 3 -2 6 -13 5 -11 0 -14 -3 -6 -6z"/>
<path d="M2635 1270 c-3 -5 -1 -10 4 -10 6 0 11 5 11 10 0 6 -2 10 -4 10 -3 0
-8 -4 -11 -10z"/>
<path d="M2760 1272 c0 -5 7 -13 16 -16 10 -4 14 -1 12 6 -5 15 -28 23 -28 10z"/>
<path d="M2895 1270 c-3 -5 1 -10 10 -10 9 0 13 5 10 10 -3 6 -8 10 -10 10 -2
0 -7 -4 -10 -10z"/>
<path d="M2960 1271 c0 -6 4 -12 8 -15 5 -3 9 1 9 9 0 8 -4 15 -9 15 -4 0 -8
-4 -8 -9z"/>
<path d="M160 1256 c-15 -15 -12 -46 5 -46 18 0 20 26 3 33 -7 3 -3 6 10 6 12
1 22 5 22 9 0 12 -27 11 -40 -2z"/>
<path d="M636 1254 c-4 -10 -1 -14 6 -12 15 5 23 28 10 28 -5 0 -13 -7 -16
-16z"/>
<path d="M1545 1254 c-20 -16 -20 -16 3 -9 13 4 22 2 22 -4 0 -6 4 -11 9 -11
5 0 7 9 4 20 -6 24 -12 24 -38 4z"/>
<path d="M2705 1260 c3 -5 8 -10 11 -10 2 0 4 5 4 10 0 6 -5 10 -11 10 -5 0
-7 -4 -4 -10z"/>
<path d="M0 1254 c0 -4 5 -24 11 -43 7 -20 13 -42 15 -49 2 -7 9 -10 15 -6 8
5 8 8 -1 14 -6 4 -12 21 -12 39 -1 17 -7 36 -15 42 -7 6 -13 8 -13 3z"/>
<path d="M580 1250 c0 -5 5 -10 10 -10 6 0 10 5 10 10 0 6 -4 10 -10 10 -5 0
-10 -4 -10 -10z"/>
<path d="M860 1250 c0 -5 5 -10 11 -10 5 0 7 5 4 10 -3 6 -8 10 -11 10 -2 0
-4 -4 -4 -10z"/>
<path d="M956 1253 c-11 -11 -6 -102 6 -109 8 -5 9 0 6 14 -4 12 -3 24 1 26
10 7 12 64 3 70 -5 3 -12 3 -16 -1z"/>
<path d="M1077 1253 c-4 -3 -7 -13 -7 -22 1 -13 3 -13 11 2 11 19 8 33 -4 20z"/>
<path d="M2295 1250 c-3 -5 -1 -10 4 -10 6 0 11 5 11 10 0 6 -2 10 -4 10 -3 0
-8 -4 -11 -10z"/>
<path d="M223 1234 c0 -16 13 -19 21 -5 3 5 0 11 -7 14 -8 3 -14 -1 -14 -9z"/>
<path d="M515 1240 c-3 -5 -1 -10 4 -10 6 0 11 5 11 10 0 6 -2 10 -4 10 -3 0
-8 -4 -11 -10z"/>
<path d="M800 1241 c0 -6 5 -13 10 -16 6 -3 10 1 10 9 0 9 -4 16 -10 16 -5 0
-10 -4 -10 -9z"/>
<path d="M1667 1241 c-17 -6 -17 -8 5 -18 19 -8 30 -7 49 4 l24 14 -27 -5
c-14 -3 -28 -2 -30 3 -2 4 -11 5 -21 2z"/>
<path d="M2415 1235 c25 -73 27 -76 41 -64 12 10 12 14 -1 28 -9 9 -23 25 -31
36 -16 20 -16 20 -9 0z"/>
<path d="M100 1228 c1 -30 60 -77 60 -48 0 6 -6 10 -14 10 -8 0 -16 10 -18 22
-3 23 -28 38 -28 16z"/>
<path d="M736 1223 c-6 -14 -5 -15 5 -6 7 7 10 15 7 18 -3 3 -9 -2 -12 -12z"/>
<path d="M1607 1233 c-4 -3 8 -15 26 -26 17 -11 32 -18 32 -17 0 2 11 -2 24
-9 18 -10 21 -15 10 -22 -10 -6 -8 -8 7 -7 32 3 9 34 -38 53 -21 8 -38 19 -38
25 0 11 -13 13 -23 3z"/>
<path d="M2476 1226 c3 -9 11 -16 16 -16 13 0 5 23 -10 28 -7 2 -10 -2 -6 -12z"/>
<path d="M2540 1225 c7 -9 15 -13 17 -11 7 7 -7 26 -19 26 -6 0 -6 -6 2 -15z"/>
<path d="M2670 1230 c0 -5 5 -10 11 -10 5 0 7 5 4 10 -3 6 -8 10 -11 10 -2 0
-4 -4 -4 -10z"/>
<path d="M2800 1230 c0 -5 5 -10 11 -10 5 0 7 5 4 10 -3 6 -8 10 -11 10 -2 0
-4 -4 -4 -10z"/>
<path d="M2866 1232 c-3 -6 -1 -14 5 -17 15 -10 25 3 12 16 -7 7 -13 7 -17 1z"/>
<path d="M390 1215 c0 -9 6 -12 15 -9 8 4 15 10 15 15 0 5 -7 9 -15 9 -8 0
-15 -7 -15 -15z"/>
<path d="M616 1215 c-3 -8 -1 -15 4 -15 13 0 22 18 11 24 -5 3 -11 -1 -15 -9z"/>
<path d="M2336 1215 c-6 -17 9 -21 19 -4 4 6 13 8 21 5 8 -3 14 -1 14 4 0 16
-47 11 -54 -5z"/>
<path d="M2935 1220 c3 -5 8 -10 11 -10 2 0 4 5 4 10 0 6 -5 10 -11 10 -5 0
-7 -4 -4 -10z"/>
<path d="M556 1211 c-4 -7 -5 -15 -2 -18 9 -9 19 4 14 18 -4 11 -6 11 -12 0z"/>
<path d="M837 1213 c-4 -3 -7 -11 -7 -17 0 -6 5 -5 12 2 6 6 9 14 7 17 -3 3
-9 2 -12 -2z"/>
<path d="M1802 1176 c-12 -25 -22 -53 -22 -61 0 -28 -30 -88 -50 -102 -23 -16
-18 -33 9 -33 10 0 26 -9 36 -20 18 -20 18 -21 -5 -45 -13 -14 -26 -23 -28
-20 -3 3 -11 0 -18 -5 -6 -6 -16 -10 -20 -9 -5 1 -25 0 -44 -1 -25 -2 -29 -4
-12 -7 12 -2 20 -9 17 -14 -10 -15 -48 -10 -74 10 -24 18 -24 19 -5 29 13 7
26 7 35 1 19 -12 29 -11 29 1 0 6 -10 10 -22 11 -22 0 -22 1 -3 9 26 11 35 12
34 3 -3 -20 2 -33 14 -33 24 0 80 37 83 54 3 22 -43 41 -61 26 -10 -8 -15 -8
-20 0 -5 8 -18 1 -40 -20 -31 -30 -34 -31 -60 -18 -26 14 -26 14 -8 37 23 28
110 41 124 19 7 -10 9 -9 9 3 0 16 -30 30 -72 34 -9 1 -24 5 -33 8 -9 4 -13 3
-10 -3 3 -5 -3 -20 -15 -32 -16 -18 -23 -20 -29 -9 -6 10 -10 10 -16 1 -4 -6
-14 -9 -22 -6 -8 3 -12 2 -9 -2 5 -8 -35 -32 -89 -53 -23 -9 -26 -13 -13 -16
10 -3 47 11 83 30 68 36 95 34 48 -3 -16 -12 -27 -25 -26 -28 2 -4 -4 -7 -11
-7 -8 0 -18 -4 -22 -8 -4 -4 -16 -7 -26 -7 -10 0 -18 -4 -18 -10 0 -5 7 -7 15
-4 11 5 13 2 9 -10 -8 -20 0 -20 31 0 20 13 31 14 55 6 16 -6 30 -8 30 -4 1 4
10 -18 20 -48 28 -77 27 -117 -5 -132 -28 -12 -33 -28 -10 -28 8 0 15 4 15 9
0 12 27 21 44 15 11 -4 14 -18 12 -47 -6 -74 -7 -75 -114 -82 -118 -7 -149
-12 -100 -14 50 -1 79 -27 72 -60 -4 -20 -3 -23 5 -11 6 8 11 23 11 33 0 9 5
17 11 17 7 0 8 -12 4 -33 -9 -39 -6 -36 -35 -39 -22 -3 -24 0 -21 35 3 45 -15
50 -21 5 -8 -53 9 -70 62 -63 25 4 49 10 55 13 5 3 19 6 29 7 27 0 33 25 7 25
-16 0 -21 6 -21 26 0 21 -4 24 -20 19 -11 -4 -20 -2 -20 4 0 6 6 11 14 11 8 0
22 3 32 7 14 5 16 2 10 -20 -4 -16 -2 -27 4 -27 5 0 19 -9 30 -20 11 -11 17
-20 14 -20 -3 0 1 -7 9 -15 8 -8 15 -31 15 -52 0 -21 5 -51 11 -66 8 -22 8
-35 -4 -57 -17 -32 -20 -55 -4 -27 14 24 24 21 37 -8 14 -31 16 -57 2 -35 -6
9 -7 -6 -3 -45 6 -68 17 -89 27 -51 6 23 9 24 26 14 16 -10 25 -9 49 5 18 10
32 13 36 8 3 -6 -8 -17 -25 -26 -26 -14 -30 -21 -26 -45 5 -34 14 -50 27 -50
13 0 11 21 -5 53 -8 15 -13 27 -10 27 10 0 49 -26 60 -39 7 -10 22 -12 47 -8
25 4 39 1 48 -9 9 -11 7 -14 -12 -15 -13 0 -18 -3 -11 -6 7 -3 20 -2 29 1 15
6 15 8 1 22 -14 14 -13 20 7 57 22 42 26 81 11 106 -5 8 -4 16 3 20 9 6 9 16
1 37 -9 27 -9 28 5 10 8 -11 15 -38 15 -61 0 -46 32 -171 49 -188 19 -19 21
-3 6 53 -8 30 -17 69 -20 85 -12 69 -18 91 -28 103 -5 7 -7 15 -4 19 4 3 -1
11 -9 18 -11 8 -16 27 -16 63 0 37 -5 52 -16 57 -14 5 -14 7 -2 15 12 8 12 10
-3 16 -22 8 -22 24 1 24 16 1 16 2 -2 15 -24 18 -14 49 15 42 16 -4 18 -3 9 8
-6 7 -20 11 -31 8 -15 -4 -18 -2 -13 13 4 11 12 25 17 32 6 7 6 12 1 10 -8 -3
-15 5 -13 17 3 26 0 95 -5 103 -3 6 -2 13 4 17 5 3 10 11 10 16 0 6 -5 7 -12
3 -6 -4 -8 -3 -5 3 4 6 3 32 -2 57 -6 32 -5 46 3 46 7 0 6 3 -2 8 -10 7 -10
15 -2 37 6 16 9 34 6 42 -3 8 7 16 27 21 22 5 32 14 33 28 1 15 0 16 -3 2 -5
-21 -33 -24 -52 -5 -10 10 -14 8 -22 -6 -7 -12 -17 -16 -30 -12 -11 4 -19 2
-19 -4 0 -6 12 -11 26 -11 19 0 24 -4 20 -17 -16 -54 -17 -80 -7 -160 6 -48
12 -145 15 -214 l4 -126 -37 7 c-73 15 -74 17 -74 105 0 17 -1 25 -4 18 -8
-23 -51 8 -67 49 -18 45 -20 62 -6 53 6 -4 9 -3 8 2 -3 10 32 63 42 63 5 0 6
-8 4 -17 -3 -10 2 -27 11 -38 9 -11 14 -14 10 -8 -3 7 0 31 6 54 12 37 11 43
-6 55 -19 14 -19 15 0 32 14 12 16 13 7 1 -12 -15 -7 -29 10 -29 15 0 8 39 -8
48 -13 7 -11 13 15 39 18 18 32 26 35 19 2 -6 5 -2 5 10 1 11 -6 29 -14 40
-14 18 -14 18 -15 -7 0 -19 -9 -31 -35 -45 -19 -10 -35 -24 -35 -31 0 -6 -8
-14 -17 -16 -14 -4 -13 -5 4 -6 12 0 24 5 27 12 3 6 5 3 3 -8 -3 -30 -61 -28
-65 2 -2 16 3 22 18 25 16 2 26 15 37 47 14 41 14 44 -8 67 -13 14 -29 22 -38
19 -13 -5 -13 -3 1 12 16 19 32 54 30 65 -1 4 3 19 8 34 7 17 15 24 25 20 10
-3 15 1 16 12 0 9 2 26 4 36 2 11 0 26 -4 34 -6 10 -14 1 -29 -32z m28 16 c0
-5 -7 -17 -15 -28 -14 -18 -14 -17 -4 9 12 27 19 34 19 19z m-82 -244 c-3 -15
-69 -51 -77 -43 -3 3 -6 14 -8 25 -2 14 5 20 30 23 17 2 38 5 45 5 6 1 11 -4
10 -10z m-174 -27 c3 -4 -5 -13 -19 -19 -21 -10 -23 -9 -22 9 1 19 31 27 41
10z m131 -65 c8 -7 12 -16 9 -19 -3 -3 -1 -21 4 -40 6 -22 6 -40 0 -51 -6 -10
-11 -25 -12 -33 -2 -11 -16 -17 -45 -19 -25 -2 -39 1 -36 6 4 6 2 10 -4 10 -6
0 -7 14 -4 34 3 22 -1 46 -11 66 l-16 32 29 -5 c21 -4 34 -1 46 13 21 24 23
24 40 6z m89 -80 c-12 -40 -48 -96 -61 -96 -27 0 -5 53 26 62 11 3 11 6 -1 19
-20 19 -13 34 17 35 22 2 25 -1 19 -20z m26 -26 c0 -5 -4 -10 -10 -10 -5 0
-10 5 -10 10 0 6 5 10 10 10 6 0 10 -4 10 -10z m-110 -93 c0 -7 14 -40 31 -75
32 -66 59 -137 59 -156 0 -7 -20 -10 -59 -8 l-59 4 -16 57 c-17 60 -18 108 -4
128 5 6 5 14 -2 18 -5 3 -10 15 -10 26 0 14 7 19 30 19 18 0 30 -5 30 -13z
m-83 -129 c-3 -8 -6 -5 -6 6 -1 11 2 17 5 13 3 -3 4 -12 1 -19z m-66 -52 c-13
-32 -35 -36 -25 -3 6 21 25 40 31 33 2 -2 -1 -15 -6 -30z m383 -67 c24 -19 26
-26 25 -93 -1 -76 -8 -92 -52 -121 -37 -24 -45 -13 -10 15 15 13 20 20 11 17
-9 -3 -18 -1 -20 5 -3 8 -10 8 -25 -1 -17 -8 -23 -8 -29 1 -4 7 -3 10 1 5 5
-4 17 0 27 10 10 9 18 12 18 7 0 -11 20 17 20 29 0 4 -5 7 -11 7 -5 0 -8 -4
-4 -9 3 -6 -3 -9 -13 -8 -14 1 -17 7 -14 24 2 12 8 20 13 17 15 -9 79 -13 79
-5 0 16 -13 19 -36 11 -14 -6 -26 -6 -29 0 -4 6 -1 10 5 10 6 0 8 5 4 11 -4 7
-23 9 -48 6 -33 -4 -37 -3 -19 5 21 10 37 44 27 60 -8 13 -24 -1 -24 -23 0
-10 -4 -19 -10 -19 -15 0 -12 47 3 53 31 13 86 6 111 -14z m-183 -9 c39 0 39
0 39 -40 0 -27 -5 -42 -18 -49 -9 -5 -23 -31 -30 -58 -11 -41 -15 -45 -24 -30
-5 11 -11 50 -13 89 -2 38 -8 75 -14 81 -7 7 -8 -1 -4 -28 4 -27 3 -36 -5 -31
-11 7 -14 51 -4 69 2 5 11 6 19 3 8 -3 32 -6 54 -6z m96 -79 c1 -11 -5 -25
-13 -32 -12 -10 -17 -8 -29 7 -8 10 -15 14 -15 7 0 -6 7 -19 16 -28 9 -9 13
-22 9 -33 -5 -14 -9 -12 -19 13 l-13 30 0 -33 c0 -19 -6 -38 -14 -42 -7 -5
-10 -13 -5 -17 4 -4 14 1 22 11 8 11 14 17 14 13 0 -15 3 -23 16 -42 19 -26
18 -32 -8 -46 -18 -10 -20 -9 -15 5 4 9 2 16 -4 16 -6 0 -9 7 -5 15 5 14 2 14
-24 0 -16 -9 -33 -14 -37 -13 -12 5 -3 31 15 45 10 7 13 13 8 13 -4 0 -1 12 9
26 9 14 14 33 10 42 -3 9 -3 13 1 9 4 -4 12 3 18 15 6 12 22 25 36 29 14 4 25
7 25 8 1 1 1 -8 2 -18z m29 -116 c-11 -8 -24 -15 -29 -15 -4 0 -2 -7 7 -15 20
-21 42 -19 79 7 l32 22 -19 -22 c-11 -12 -38 -27 -60 -34 -40 -12 -40 -12 -12
-16 19 -2 39 4 58 18 16 12 31 20 34 17 8 -8 -35 -39 -73 -53 -35 -13 -36 -14
-8 -12 17 2 46 11 65 21 l35 19 -23 -25 c-13 -14 -35 -28 -48 -31 -34 -9 -30
-28 4 -21 23 5 24 4 9 -5 -24 -15 -58 -4 -50 17 5 13 0 15 -33 10 -32 -5 -35
-5 -18 4 24 12 28 65 6 88 -15 15 -7 27 23 34 36 8 40 7 21 -8z m-107 -81 c3
-16 1 -17 -13 -5 -19 16 -21 34 -3 29 6 -3 14 -13 16 -24z"/>
<path d="M1628 803 c6 -2 18 -2 25 0 6 3 1 5 -13 5 -14 0 -19 -2 -12 -5z"/>
<path d="M1680 726 c0 -8 4 -17 9 -20 5 -4 7 3 4 14 -6 23 -13 26 -13 6z"/>
<path d="M1735 709 c-11 -17 1 -21 15 -4 8 9 8 15 2 15 -6 0 -14 -5 -17 -11z"/>
<path d="M1670 540 c20 -13 80 -13 80 0 0 6 -21 10 -47 10 -35 0 -44 -3 -33
-10z"/>
<path d="M1890 401 c0 -11 -6 -22 -12 -24 -8 -4 -7 -6 3 -6 10 -1 19 9 21 24
3 14 1 25 -3 25 -5 0 -9 -9 -9 -19z"/>
<path d="M1940 383 c0 -17 -4 -21 -17 -17 -17 5 -17 5 -1 -9 10 -8 16 -16 13
-19 -3 -2 2 -5 10 -5 17 0 20 34 5 57 -8 12 -10 11 -10 -7z"/>
<path d="M1932 260 c0 -14 2 -19 5 -12 2 6 2 18 0 25 -3 6 -5 1 -5 -13z"/>
<path d="M260 1200 c0 -5 5 -10 10 -10 6 0 10 5 10 10 0 6 -4 10 -10 10 -5 0
-10 -4 -10 -10z"/>
<path d="M496 1201 c-4 -7 -5 -15 -2 -18 9 -9 19 4 14 18 -4 11 -6 11 -12 0z"/>
<path d="M770 1194 c0 -8 5 -12 10 -9 6 4 8 11 5 16 -9 14 -15 11 -15 -7z"/>
<path d="M1052 1194 c-7 -8 -8 -14 -3 -14 10 0 25 19 20 25 -2 1 -10 -3 -17
-11z"/>
<path d="M1578 1198 c5 -8 6 -22 1 -33 -4 -11 -8 -32 -8 -46 -1 -24 2 -26 39
-26 37 0 39 1 21 14 -11 7 -25 12 -32 11 -6 -2 -14 3 -16 10 -3 7 3 12 14 12
15 0 16 2 3 11 -10 7 -11 12 -4 15 17 7 5 44 -13 44 -11 0 -13 -4 -5 -12z"/>
<path d="M2245 1190 c-21 -14 -25 -20 -12 -20 9 0 17 5 17 11 0 5 3 8 8 5 4
-2 18 2 32 10 22 12 23 13 5 14 -11 0 -33 -9 -50 -20z"/>
<path d="M200 1190 c0 -5 5 -10 10 -10 6 0 10 5 10 10 0 6 -4 10 -10 10 -5 0
-10 -4 -10 -10z"/>
<path d="M424 1185 c-6 -14 30 -54 49 -55 4 0 7 -6 7 -13 0 -8 20 -24 45 -36
25 -12 45 -26 45 -31 0 -4 9 -10 20 -13 17 -4 18 -2 9 14 -5 11 -14 17 -19 14
-5 -3 -14 3 -20 14 -6 12 -16 18 -26 14 -8 -3 -14 -2 -13 3 3 21 -2 34 -13 34
-16 0 -58 44 -58 59 0 16 -20 13 -26 -4z"/>
<path d="M1747 1193 c-4 -6 0 -13 8 -17 8 -3 17 0 21 6 4 6 3 8 -4 4 -5 -3
-12 -1 -14 6 -3 8 -6 9 -11 1z"/>
<path d="M2391 1187 c-8 -10 -7 -14 4 -14 8 0 15 6 15 14 0 7 -2 13 -4 13 -2
0 -9 -6 -15 -13z"/>
<path d="M2570 1193 c0 -5 11 -19 25 -31 14 -12 25 -19 25 -14 0 11 -50 56
-50 45z"/>
<path d="M2640 1190 c0 -5 5 -10 11 -10 5 0 7 5 4 10 -3 6 -8 10 -11 10 -2 0
-4 -4 -4 -10z"/>
<path d="M2770 1184 c0 -8 5 -12 10 -9 6 4 8 11 5 16 -9 14 -15 11 -15 -7z"/>
<path d="M360 1177 c0 -8 7 -18 16 -21 11 -4 14 -1 12 11 -4 21 -28 30 -28 10z"/>
<path d="M650 1179 c0 -5 5 -7 10 -4 6 3 10 8 10 11 0 2 -4 4 -10 4 -5 0 -10
-5 -10 -11z"/>
<path d="M2285 1164 c-22 -18 -24 -22 -7 -14 16 8 22 8 22 -1 0 -18 10 -5 15
20 5 26 6 26 -30 -5z"/>
<path d="M2830 1186 c0 -2 7 -7 16 -10 8 -3 12 -2 9 4 -6 10 -25 14 -25 6z"/>
<path d="M2975 1180 c3 -5 8 -10 11 -10 2 0 4 5 4 10 0 6 -5 10 -11 10 -5 0
-7 -4 -4 -10z"/>
<path d="M300 1165 c0 -8 5 -15 10 -15 6 0 10 7 10 15 0 8 -4 15 -10 15 -5 0
-10 -7 -10 -15z"/>
<path d="M590 1170 c0 -5 5 -10 10 -10 6 0 10 5 10 10 0 6 -4 10 -10 10 -5 0
-10 -4 -10 -10z"/>
<path d="M237 1163 c-12 -11 -8 -23 8 -23 8 0 15 7 15 15 0 16 -12 20 -23 8z"/>
<path d="M525 1160 c4 -6 11 -8 16 -5 14 9 11 15 -7 15 -8 0 -12 -5 -9 -10z"/>
<path d="M750 1160 c0 -5 5 -10 11 -10 5 0 7 5 4 10 -3 6 -8 10 -11 10 -2 0
-4 -4 -4 -10z"/>
<path d="M1503 1163 c-10 -3 -10 -8 1 -19 19 -19 23 -18 29 6 5 20 -5 24 -30
13z"/>
<path d="M2180 1166 c0 -2 7 -7 16 -10 8 -3 12 -2 9 4 -6 10 -25 14 -25 6z"/>
<path d="M2470 1160 c0 -5 5 -10 11 -10 5 0 7 5 4 10 -3 6 -8 10 -11 10 -2 0
-4 -4 -4 -10z"/>
<path d="M2672 1156 c4 -5 -9 -15 -29 -22 -32 -11 -41 -11 -61 2 -18 12 -27
13 -35 5 -6 -6 -21 -11 -34 -11 -13 0 -27 -8 -30 -17 -7 -18 -56 -64 -61 -58
-2 2 -1 17 3 33 4 22 14 32 33 37 15 4 21 10 14 12 -7 3 -26 0 -43 -7 -24 -10
-29 -18 -29 -49 -1 -31 -48 -143 -50 -117 0 6 -13 -10 -29 -35 -16 -24 -41
-57 -55 -73 -14 -16 -23 -33 -20 -37 3 -5 -2 -12 -10 -15 -9 -3 -14 -9 -11
-13 2 -4 7 -34 10 -67 4 -32 9 -62 12 -67 2 -4 1 -6 -4 -5 -4 2 -9 -1 -10 -7
-1 -5 5 -9 13 -7 8 2 13 -1 12 -5 -1 -4 6 -33 16 -64 16 -55 22 -79 32 -129 2
-14 7 -32 10 -40 7 -18 16 -66 18 -97 0 -11 4 -19 7 -17 13 8 17 -61 4 -76
-23 -29 -25 -38 -10 -54 13 -13 13 -15 -7 -22 -13 -4 -24 -2 -26 4 -5 15 -32
3 -32 -14 0 -18 68 -19 105 -2 28 13 31 34 10 62 -10 13 -11 24 -4 37 7 13 4
36 -11 80 -12 34 -19 63 -17 66 3 2 147 -4 321 -13 283 -16 341 -16 324 1 -2
3 -150 12 -329 21 -178 10 -325 18 -326 19 -5 3 -23 108 -19 112 2 2 153 -3
336 -12 183 -8 336 -13 338 -10 13 12 -19 16 -234 25 -126 5 -280 12 -341 16
l-113 6 -10 42 c-6 22 -16 51 -22 63 -16 32 -4 52 47 74 25 11 45 22 45 24 0
10 -65 -6 -80 -20 -9 -8 -20 -15 -23 -15 -13 0 -7 58 6 63 6 2 4 3 -5 2 -10
-2 -18 2 -18 8 0 14 32 68 55 94 52 58 95 120 100 143 l6 26 255 -2 c140 -2
258 -5 263 -8 13 -8 71 5 71 16 0 5 -10 9 -22 8 -56 -5 -88 0 -88 14 0 22 49
56 81 56 16 0 29 4 29 10 0 9 -74 5 -91 -5 -4 -3 -10 -1 -14 5 -3 5 -22 10
-41 10 -19 0 -34 5 -34 10 0 6 -4 10 -10 10 -5 0 -10 -7 -10 -15 0 -9 -10 -15
-26 -15 -19 0 -25 4 -20 15 3 8 1 15 -4 15 -6 0 -10 -4 -10 -9 0 -20 -40 -23
-58 -4 -9 10 -14 14 -10 9z m82 -49 c-14 -25 -48 -57 -60 -57 -7 0 -17 8 -23
17 -9 17 -10 17 -28 0 -41 -36 -59 -11 -21 30 25 27 46 29 63 6 11 -15 14 -14
34 6 22 22 47 20 35 -2z m-164 -5 c0 -29 -25 -56 -44 -49 -10 4 -14 12 -11 18
4 6 -7 4 -23 -5 -62 -32 -72 -11 -15 29 45 30 93 34 93 7z m300 13 c0 -4 -7
-19 -15 -35 -14 -28 -20 -30 -70 -30 -60 0 -66 7 -33 45 17 20 31 25 70 25 26
0 48 -2 48 -5z m-524 -947 c-10 -6 -20 -7 -24 -3 -9 8 20 25 31 18 5 -3 2 -10
-7 -15z"/>
<path d="M2818 1083 c6 -2 18 -2 25 0 6 3 1 5 -13 5 -14 0 -19 -2 -12 -5z"/>
<path d="M100 1149 c-8 -5 -12 -9 -7 -9 4 0 1 -13 -8 -30 -13 -26 -14 -29 0
-24 8 4 15 15 15 25 0 10 7 19 15 19 8 0 15 4 15 9 0 16 -15 20 -30 10z"/>
<path d="M175 1149 c-9 -14 -2 -20 14 -10 8 6 9 11 3 15 -6 3 -14 1 -17 -5z"/>
<path d="M686 1151 c-9 -15 16 -52 33 -49 8 2 16 9 19 17 3 8 0 11 -6 7 -6 -3
-17 3 -25 15 -9 12 -18 16 -21 10z"/>
<path d="M2330 1145 c0 -8 -7 -15 -16 -15 -8 0 -12 -5 -9 -11 5 -7 13 -5 24 5
10 9 21 13 24 9 4 -3 7 -2 7 4 0 6 -7 13 -15 17 -9 3 -15 0 -15 -9z"/>
<path d="M623 1133 c-3 -10 -13 -26 -21 -36 -14 -16 -14 -17 9 -15 25 3 28 -8
14 -47 -5 -14 0 -12 19 10 19 21 23 31 14 34 -33 10 -39 23 -23 47 9 14 11 24
5 24 -6 0 -13 -8 -17 -17z"/>
<path d="M1227 1124 c-21 -14 -37 -20 -37 -13 0 7 -8 4 -21 -7 -16 -15 -24
-16 -39 -6 -16 10 -18 9 -14 -3 3 -8 20 -22 37 -30 19 -9 27 -11 19 -3 -16 16
-15 28 2 28 24 0 26 -14 11 -64 -19 -61 -48 -109 -80 -130 -27 -18 -50 -13
-39 7 3 7 -1 5 -8 -4 -13 -15 -15 -15 -37 2 -25 20 -51 25 -51 9 0 -5 21 -18
47 -30 25 -11 44 -23 40 -26 -3 -3 -15 0 -27 6 -22 12 -50 -1 -50 -23 0 -8 3
-8 11 0 11 11 96 -3 174 -29 33 -11 57 -11 135 0 106 14 114 13 131 -20 l12
-22 -28 18 c-22 14 -32 16 -51 7 -29 -13 -32 -31 -4 -24 11 3 17 9 14 14 -7
12 7 11 26 -1 22 -14 7 -21 -54 -24 -31 -1 -62 -8 -68 -14 -8 -8 2 -10 36 -9
25 1 46 5 46 10 0 12 75 8 89 -5 11 -11 12 -10 6 1 -5 9 -3 12 5 9 21 -7 23
-51 3 -66 -15 -11 -16 -14 -3 -22 21 -13 40 7 40 41 0 33 -18 84 -27 75 -7 -7
-38 33 -38 49 0 11 -107 12 -172 1 -25 -4 -60 -2 -85 5 -24 7 -56 11 -73 10
l-30 -2 27 25 c15 14 31 26 37 26 18 0 77 146 73 185 -1 11 1 14 4 7 5 -10 10
-7 18 10 12 24 56 38 56 18 0 -6 4 -8 10 -5 5 3 22 0 37 -8 48 -24 153 -17
113 8 -5 3 -10 1 -10 -5 0 -17 -91 -1 -115 20 -11 10 -26 15 -34 13 -7 -3 -16
0 -20 6 -5 7 -19 2 -44 -15z"/>
<path d="M1353 1143 c-29 -11 -10 -20 25 -12 20 4 47 6 60 2 12 -3 22 -1 22 4
0 10 -86 15 -107 6z"/>
<path d="M1470 1140 c0 -5 5 -10 11 -10 5 0 7 5 4 10 -3 6 -8 10 -11 10 -2 0
-4 -4 -4 -10z"/>
<path d="M47 1133 c-4 -3 -7 -11 -7 -17 0 -6 5 -5 12 2 6 6 9 14 7 17 -3 3 -9
2 -12 -2z"/>
<path d="M275 1130 c-8 -13 -1 -24 14 -19 6 3 7 10 2 18 -6 10 -10 10 -16 1z"/>
<path d="M380 1126 c0 -8 -3 -22 -7 -32 -4 -12 -3 -15 6 -10 7 5 26 -5 48 -26
19 -18 44 -41 55 -51 16 -15 22 -16 32 -7 8 10 8 14 -3 18 -14 5 -23 13 -81
81 -37 43 -50 50 -50 27z"/>
<path d="M565 1130 c-3 -5 -1 -10 4 -10 6 0 11 5 11 10 0 6 -2 10 -4 10 -3 0
-8 -4 -11 -10z"/>
<path d="M1745 1130 c-3 -5 -1 -10 4 -10 6 0 11 5 11 10 0 6 -2 10 -4 10 -3 0
-8 -4 -11 -10z"/>
<path d="M215 1121 c-3 -5 -1 -12 5 -16 5 -3 10 1 10 9 0 18 -6 21 -15 7z"/>
<path d="M335 1120 c-3 -6 1 -7 9 -4 18 7 21 14 7 14 -6 0 -13 -4 -16 -10z"/>
<path d="M780 1120 c0 -5 5 -10 10 -10 6 0 10 5 10 10 0 6 -4 10 -10 10 -5 0
-10 -4 -10 -10z"/>
<path d="M1030 1126 c0 -2 7 -7 16 -10 8 -3 12 -2 9 4 -6 10 -25 14 -25 6z"/>
<path d="M146 1111 c-3 -5 1 -11 9 -15 8 -3 15 -1 15 4 0 13 -18 22 -24 11z"/>
<path d="M2180 1110 c-9 -6 -10 -10 -3 -10 6 0 15 5 18 10 8 12 4 12 -15 0z"/>
<path d="M1698 1103 c6 -2 18 -2 25 0 6 3 1 5 -13 5 -14 0 -19 -2 -12 -5z"/>
<path d="M310 1090 c0 -5 5 -10 10 -10 6 0 10 5 10 10 0 6 -4 10 -10 10 -5 0
-10 -4 -10 -10z"/>
<path d="M1000 1090 c0 -5 5 -10 10 -10 6 0 10 5 10 10 0 6 -4 10 -10 10 -5 0
-10 -4 -10 -10z"/>
<path d="M2098 1093 c7 -3 16 -2 19 1 4 3 -2 6 -13 5 -11 0 -14 -3 -6 -6z"/>
<path d="M250 1080 c0 -5 5 -10 10 -10 6 0 10 5 10 10 0 6 -4 10 -10 10 -5 0
-10 -4 -10 -10z"/>
<path d="M754 1073 c-7 -11 -23 -17 -45 -16 -27 1 -35 -3 -36 -18 -1 -10 2
-19 8 -19 5 0 9 5 9 11 0 7 11 9 30 6 23 -5 33 -2 45 16 8 12 15 25 15 29 0
14 -15 9 -26 -9z"/>
<path d="M2058 1083 c7 -3 16 -2 19 1 4 3 -2 6 -13 5 -11 0 -14 -3 -6 -6z"/>
<path d="M2947 1076 c-4 -10 0 -12 14 -9 27 7 34 23 11 23 -11 0 -22 -6 -25
-14z"/>
<path d="M180 1065 c0 -8 2 -15 4 -15 2 0 6 7 10 15 3 8 1 15 -4 15 -6 0 -10
-7 -10 -15z"/>
<path d="M1053 1070 c16 -10 16 -12 0 -28 -12 -12 -18 -13 -21 -4 -2 6 -11 12
-20 11 -11 0 -12 -2 -4 -6 6 -2 12 -11 12 -19 0 -20 14 -17 35 6 10 11 26 20
36 20 10 0 21 5 24 10 3 6 -5 10 -19 10 -13 0 -33 3 -43 6 -17 5 -17 5 0 -6z"/>
<path d="M1490 1076 c0 -2 9 -6 20 -9 11 -3 20 -1 20 4 0 5 -9 9 -20 9 -11 0
-20 -2 -20 -4z"/>
<path d="M1586 1065 c4 -8 15 -15 25 -15 21 0 25 15 7 26 -7 4 -8 3 -4 -4 4
-7 2 -12 -3 -12 -6 0 -11 5 -11 10 0 6 -4 10 -10 10 -5 0 -7 -7 -4 -15z"/>
<path d="M1727 1073 c-4 -3 -7 -13 -7 -21 0 -12 3 -12 15 -2 8 7 15 16 15 21
0 11 -14 12 -23 2z"/>
<path d="M2162 1041 c-82 -43 -95 -52 -60 -44 12 4 25 9 28 12 3 3 26 16 52
29 26 13 50 27 53 33 8 13 8 13 -73 -30z"/>
<path d="M117 1063 c-13 -13 -7 -21 13 -16 11 3 17 9 14 14 -6 11 -18 12 -27
2z"/>
<path d="M350 1061 c0 -5 7 -14 15 -21 8 -7 15 -19 15 -26 0 -8 5 -14 10 -14
15 0 12 22 -6 48 -15 22 -34 29 -34 13z"/>
<path d="M1008 1063 c7 -3 16 -2 19 1 4 3 -2 6 -13 5 -11 0 -14 -3 -6 -6z"/>
<path d="M220 1040 c0 -5 7 -10 16 -10 8 0 12 5 9 10 -3 6 -10 10 -16 10 -5 0
-9 -4 -9 -10z"/>
<path d="M1110 1035 c-7 -8 -9 -15 -6 -15 4 0 14 7 22 15 9 8 11 15 6 15 -5 0
-15 -7 -22 -15z"/>
<path d="M2010 1040 c0 -5 5 -10 10 -10 6 0 10 5 10 10 0 6 -4 10 -10 10 -5 0
-10 -4 -10 -10z"/>
<path d="M1245 1016 c8 -12 14 -25 14 -31 0 -5 4 -11 10 -13 12 -4 5 24 -10
44 -5 6 -7 13 -4 16 3 2 -1 5 -9 5 -12 0 -12 -3 -1 -21z"/>
<path d="M1505 1019 c-4 -6 -5 -12 -2 -15 2 -3 7 2 10 11 7 17 1 20 -8 4z"/>
<path d="M320 1010 c0 -5 4 -10 9 -10 6 0 13 5 16 10 3 6 -1 10 -9 10 -9 0
-16 -4 -16 -10z"/>
<path d="M2839 1000 c-21 -17 -22 -19 -6 -20 10 0 25 6 33 14 30 31 8 36 -27
6z"/>
<path d="M196 1001 c-4 -7 -5 -15 -2 -18 9 -9 19 4 14 18 -4 11 -6 11 -12 0z"/>
<path d="M265 1000 c3 -5 8 -10 11 -10 2 0 4 5 4 10 0 6 -5 10 -11 10 -5 0 -7
-4 -4 -10z"/>
<path d="M1150 1000 c0 -7 -7 -22 -17 -32 -9 -10 -12 -18 -6 -18 13 0 38 48
30 57 -4 3 -7 0 -7 -7z"/>
<path d="M2196 1000 c5 -5 25 -12 44 -15 l35 -6 -40 15 c-47 18 -52 19 -39 6z"/>
<path d="M415 990 c3 -5 13 -10 21 -10 8 0 14 5 14 10 0 6 -9 10 -21 10 -11 0
-17 -4 -14 -10z"/>
<path d="M1393 985 c0 -11 4 -12 14 -4 7 6 13 13 13 15 0 2 -6 4 -13 4 -8 0
-14 -7 -14 -15z"/>
<path d="M2450 989 c0 -14 -19 -32 -50 -46 -20 -9 8 -12 145 -12 94 -1 234 -4
313 -8 135 -6 142 -5 142 13 0 19 -34 23 -220 22 -53 0 -101 0 -233 1 -94 1
-97 2 -87 21 7 14 7 20 0 20 -5 0 -10 -5 -10 -11z"/>
<path d="M2700 990 c0 -5 4 -10 9 -10 6 0 13 5 16 10 3 6 -1 10 -9 10 -9 0
-16 -4 -16 -10z"/>
<path d="M150 966 c0 -19 5 -24 20 -23 11 1 20 3 20 4 0 2 -9 12 -20 23 -20
20 -20 20 -20 -4z"/>
<path d="M360 974 c0 -8 5 -12 10 -9 6 3 10 10 10 16 0 5 -4 9 -10 9 -5 0 -10
-7 -10 -16z"/>
<path d="M575 980 c28 -12 37 -12 30 0 -3 6 -16 10 -28 9 -21 0 -21 -1 -2 -9z"/>
<path d="M1360 975 c-8 -9 -8 -15 -2 -15 12 0 26 19 19 26 -2 2 -10 -2 -17
-11z"/>
<path d="M16 954 c9 -39 13 -44 29 -44 23 0 28 21 6 27 -11 3 -19 9 -16 13 3
4 -2 14 -11 21 -13 11 -14 9 -8 -17z"/>
<path d="M300 969 c0 -5 5 -7 10 -4 6 3 10 8 10 11 0 2 -4 4 -10 4 -5 0 -10
-5 -10 -11z"/>
<path d="M2051 976 c2 -2 18 -6 34 -10 22 -5 26 -4 15 4 -14 9 -59 15 -49 6z"/>
<path d="M930 955 c8 -10 7 -14 -2 -18 -7 -2 14 -4 47 -5 33 0 53 2 45 5 -8 2
-24 8 -35 13 -11 5 -30 11 -43 13 -18 4 -21 3 -12 -8z"/>
<path d="M1290 966 c0 -2 7 -7 16 -10 8 -3 12 -2 9 4 -6 10 -25 14 -25 6z"/>
<path d="M1590 960 c-19 -4 -21 -7 -9 -12 9 -3 22 -2 30 2 19 13 8 18 -21 10z"/>
<path d="M2190 960 c0 -5 5 -10 11 -10 5 0 7 5 4 10 -3 6 -8 10 -11 10 -2 0
-4 -4 -4 -10z"/>
<path d="M405 950 c-3 -5 -1 -10 4 -10 6 0 11 5 11 10 0 6 -2 10 -4 10 -3 0
-8 -4 -11 -10z"/>
<path d="M831 929 c0 -14 8 -34 19 -44 18 -16 20 -16 20 -2 0 9 -6 20 -14 24
-8 4 -16 17 -19 28 -4 16 -5 15 -6 -6z"/>
<path d="M2228 943 c7 -3 16 -2 19 1 4 3 -2 6 -13 5 -11 0 -14 -3 -6 -6z"/>
<path d="M1260 931 c-28 -5 -31 -8 -17 -14 10 -4 26 -3 35 2 9 5 26 5 37 0 29
-11 32 -11 32 6 0 16 -23 18 -87 6z"/>
<path d="M1065 920 c28 -12 47 -12 40 0 -3 6 -18 10 -33 9 -24 0 -25 -1 -7 -9z"/>
<path d="M130 910 c18 -12 30 -13 30 -2 0 4 -10 9 -22 9 -18 2 -20 0 -8 -7z"/>
<path d="M797 891 c-6 -30 -10 -33 -37 -29 -16 3 -30 0 -30 -5 0 -5 -13 -7
-29 -5 -21 3 -28 1 -24 -9 6 -16 -44 -36 -71 -29 -11 3 -25 1 -30 -3 -16 -12
-72 -21 -81 -13 -8 8 -55 10 -55 2 0 -3 -8 -6 -17 -6 -16 -1 -59 -7 -133 -20
-14 -3 -50 -7 -80 -10 -30 -3 -62 -8 -70 -12 -8 -3 -19 -7 -25 -7 -5 -1 -33
-5 -61 -10 -44 -6 -52 -10 -51 -29 0 -21 2 -21 59 -12 41 7 57 14 54 23 -3 7
-1 13 3 13 5 0 11 -5 13 -12 4 -11 148 12 547 86 l115 21 8 34 c5 18 8 40 6
49 -2 10 -7 2 -11 -17z"/>
<path d="M903 891 c-10 -17 -22 -31 -26 -31 -5 0 -5 -5 -2 -10 4 -6 1 -18 -7
-27 -11 -14 -11 -16 2 -12 17 5 66 97 57 106 -4 3 -14 -8 -24 -26z"/>
<path d="M1237 892 c-16 -3 -15 -6 8 -18 32 -17 40 -14 22 8 -6 8 -20 13 -30
10z"/>
<path d="M2 870 c0 -14 2 -19 5 -12 2 6 2 18 0 25 -3 6 -5 1 -5 -13z"/>
<path d="M600 861 c0 -6 5 -13 10 -16 6 -3 10 1 10 9 0 9 -4 16 -10 16 -5 0
-10 -4 -10 -9z"/>
<path d="M2038 863 c7 -3 16 -2 19 1 4 3 -2 6 -13 5 -11 0 -14 -3 -6 -6z"/>
<path d="M2083 863 c9 -2 25 -2 35 0 9 3 1 5 -18 5 -19 0 -27 -2 -17 -5z"/>
<path d="M540 851 c0 -17 18 -21 24 -6 3 9 0 15 -9 15 -8 0 -15 -4 -15 -9z"/>
<path d="M1485 850 c-13 -5 -14 -9 -5 -9 8 0 24 4 35 9 13 5 14 9 5 9 -8 0
-24 -4 -35 -9z"/>
<path d="M480 840 c0 -5 5 -10 10 -10 6 0 10 5 10 10 0 6 -4 10 -10 10 -5 0
-10 -4 -10 -10z"/>
<path d="M1882 804 c-1 -26 3 -53 9 -60 9 -11 8 -14 -2 -14 -10 0 -10 -3 -1
-12 19 -19 22 -6 15 65 -7 78 -17 87 -21 21z"/>
<path d="M7 833 c-24 -23 13 -35 73 -23 8 1 -44 29 -56 30 -6 0 -14 -3 -17 -7z"/>
<path d="M950 830 c-13 -8 -12 -10 3 -10 9 0 17 5 17 10 0 12 -1 12 -20 0z"/>
<path d="M1500 820 c-12 -10 -19 -24 -15 -29 10 -18 25 -12 25 9 0 13 7 20 19
20 26 0 35 15 11 17 -10 1 -28 -7 -40 -17z"/>
<path d="M2025 830 c27 -12 43 -12 25 0 -8 5 -22 9 -30 9 -10 0 -8 -3 5 -9z"/>
<path d="M1452 821 c-11 -6 -10 -10 0 -19 11 -8 14 -7 14 9 0 10 0 19 -1 19 0
0 -6 -4 -13 -9z"/>
<path d="M791 787 c-20 -65 -23 -123 -8 -153 30 -58 48 -66 150 -67 l95 -2
-13 -25 c-7 -14 -15 -36 -18 -50 -6 -24 -16 -27 -499 -123 -271 -54 -495 -101
-497 -103 -2 -2 -2 -6 1 -9 6 -6 931 177 962 190 16 7 17 6 7 -13 -6 -11 -11
-36 -11 -54 0 -47 -7 -53 -75 -65 -33 -7 -215 -44 -405 -83 -190 -39 -370 -75
-401 -81 -56 -11 -88 -24 -78 -33 5 -5 252 44 737 147 111 24 202 39 202 34 0
-19 -45 -114 -67 -140 -27 -33 -30 -28 -6 11 12 20 8 18 -19 -11 -20 -20 -41
-37 -46 -37 -15 0 -92 -81 -92 -96 0 -20 17 -25 55 -18 32 6 34 8 18 19 -10 7
-21 11 -25 9 -4 -2 -9 0 -13 6 -3 5 0 10 9 10 8 0 17 6 20 13 5 13 27 -14 36
-46 3 -12 13 3 29 45 25 65 48 102 38 60 -3 -12 -2 -20 3 -17 4 3 11 -2 14
-11 10 -26 21 -6 17 32 -3 38 15 94 30 94 5 0 34 24 65 53 30 28 62 51 70 49
9 -2 12 3 8 13 -3 8 -9 15 -13 15 -3 0 -35 -26 -70 -57 -52 -46 -62 -52 -56
-32 10 33 35 60 49 52 6 -3 8 -3 4 2 -4 4 -4 13 1 19 17 23 20 45 5 39 -10 -4
-14 2 -14 20 0 34 17 77 30 77 6 0 8 -5 4 -12 -4 -7 -3 -8 5 -4 9 6 9 11 0 22
-6 8 -9 17 -7 20 3 3 15 -7 27 -22 11 -15 21 -23 21 -19 0 4 -9 18 -20 32 -20
26 -27 49 -12 39 9 -5 9 50 0 59 -3 3 -44 7 -91 9 -47 3 -95 9 -106 15 -24 14
-44 47 -36 61 3 6 2 10 -3 10 -7 0 -8 63 -1 80 1 3 3 12 3 20 1 8 7 14 14 13
17 -4 15 14 -2 20 -10 4 -18 -4 -25 -26z m44 -703 c-15 -34 -18 -37 -25 -19
-5 14 -2 27 13 42 28 31 32 23 12 -23z"/>
<path d="M1544 804 c-18 -14 -18 -15 4 -4 12 6 22 13 22 15 0 8 -5 6 -26 -11z"/>
<path d="M226 798 c3 -4 9 -8 15 -8 5 0 9 4 9 8 0 5 -7 9 -15 9 -8 0 -12 -4
-9 -9z"/>
<path d="M936 802 c-10 -17 25 -23 40 -7 9 8 11 15 5 15 -5 0 -13 -5 -17 -11
-5 -8 -9 -8 -14 1 -5 8 -10 8 -14 2z"/>
<path d="M102 788 c7 -19 38 -22 38 -4 0 10 -9 16 -21 16 -12 0 -19 -5 -17
-12z"/>
<path d="M160 779 c0 -5 5 -7 10 -4 6 3 10 8 10 11 0 2 -4 4 -10 4 -5 0 -10
-5 -10 -11z"/>
<path d="M1069 782 c-1 -4 -1 -10 0 -14 0 -5 -12 -8 -28 -8 -17 0 -33 -5 -37
-12 -5 -8 2 -9 27 -3 19 4 50 7 69 6 20 -1 45 5 55 14 23 17 8 19 -29 5 -14
-5 -26 -6 -26 -1 0 11 -30 23 -31 13z"/>
<path d="M1540 781 c-8 -3 -16 -13 -18 -21 -3 -12 -1 -13 9 -2 19 17 28 15 22
-7 -2 -10 1 -21 9 -24 9 -3 14 3 14 17 0 28 -17 45 -36 37z"/>
<path d="M982 765 c-14 -16 -2 -21 14 -6 5 5 18 11 29 14 16 4 15 5 -5 5 -14
1 -31 -5 -38 -13z"/>
<path d="M818 748 c-4 -24 19 -84 29 -74 3 3 0 19 -7 35 -6 16 -9 34 -6 40 4
5 2 12 -3 15 -5 4 -11 -4 -13 -16z"/>
<path d="M870 761 c0 -6 4 -12 8 -15 5 -3 9 1 9 9 0 8 -4 15 -9 15 -4 0 -8 -4
-8 -9z"/>
<path d="M939 753 c-13 -16 -12 -17 4 -4 9 7 17 15 17 17 0 8 -8 3 -21 -13z"/>
<path d="M1206 745 c18 -14 18 -14 -11 -15 -23 0 -27 -3 -15 -10 13 -9 13 -10
0 -10 -9 0 -22 6 -29 13 -10 10 -11 9 -6 -5 5 -13 2 -15 -17 -11 -13 3 -32 13
-42 22 -18 15 -19 15 -13 -1 3 -9 1 -19 -6 -22 -13 -5 53 -10 90 -7 12 1 34 8
49 15 14 8 32 12 38 10 7 -3 12 6 13 18 2 16 0 19 -6 9 -7 -10 -13 -10 -29 -2
-30 16 -39 14 -16 -4z"/>
<path d="M2633 750 c-12 -5 -29 -21 -39 -35 -9 -14 -29 -32 -43 -40 l-26 -14
28 -1 c20 0 39 13 72 47 56 58 57 62 8 43z"/>
<path d="M2915 748 c-11 -6 -35 -30 -52 -54 l-33 -44 25 0 c14 0 25 4 25 9 0
5 15 25 33 45 35 37 36 60 2 44z"/>
<path d="M884 736 c-20 -11 -22 -36 -3 -36 6 0 7 5 3 12 -5 8 -2 9 9 5 12 -5
17 -1 17 13 0 11 -1 20 -2 19 -2 -1 -12 -6 -24 -13z"/>
<path d="M990 716 c0 -8 9 -14 19 -13 15 1 17 4 9 14 -14 17 -28 16 -28 -1z"/>
<path d="M2390 717 c0 -8 -19 -24 -42 -35 -35 -17 -38 -21 -19 -22 29 0 103
40 98 54 -6 17 -37 19 -37 3z"/>
<path d="M2470 704 c-24 -20 -28 -29 -18 -35 20 -13 28 -11 28 6 0 9 19 25 43
35 l42 20 -32 0 c-20 0 -43 -10 -63 -26z"/>
<path d="M2683 708 c-33 -20 -45 -48 -20 -48 6 0 23 12 36 25 13 14 27 25 33
25 5 0 6 5 3 10 -8 13 -14 12 -52 -12z"/>
<path d="M630 679 c25 -22 64 -54 88 -71 23 -17 42 -35 42 -40 0 -4 5 -8 10
-8 24 0 4 23 -79 89 -96 77 -134 96 -61 30z"/>
<path d="M1383 700 c-24 -10 -43 -22 -43 -25 0 -3 12 1 28 9 15 8 42 16 61 19
40 7 53 17 20 17 -13 0 -43 -9 -66 -20z"/>
<path d="M2780 705 c0 -8 9 -15 20 -15 11 0 20 7 20 15 0 8 -9 15 -20 15 -11
0 -20 -7 -20 -15z"/>
<path d="M2962 700 c-37 -23 -40 -35 -12 -50 16 -9 20 -8 20 6 0 10 7 26 17
36 24 26 12 30 -25 8z"/>
<path d="M950 700 c-12 -8 -11 -10 8 -10 12 0 22 5 22 10 0 13 -11 13 -30 0z"/>
<path d="M1290 691 c0 -14 -29 -12 -75 5 -11 4 -17 4 -13 -1 4 -4 0 -14 -10
-22 -15 -13 -15 -13 4 -4 12 6 37 8 56 5 24 -4 47 0 73 13 l38 20 -37 -1 c-23
-1 -36 -6 -36 -15z"/>
<path d="M454 680 c-50 -10 -121 -20 -156 -23 -36 -3 -74 -9 -84 -15 -10 -5
-63 -18 -116 -28 -60 -11 -98 -22 -98 -30 0 -9 11 -10 41 -3 23 6 47 8 53 6 6
-3 -10 -8 -37 -12 -26 -4 -50 -12 -54 -18 -4 -7 5 -8 27 -3 19 3 59 9 89 12
90 9 98 12 109 44 6 16 15 30 20 30 18 0 20 -13 5 -36 -10 -16 -11 -24 -4 -24
6 0 16 11 21 25 10 26 30 31 65 14 16 -7 14 -8 -10 -4 -25 4 -27 3 -12 -6 20
-12 66 -6 132 16 22 7 65 16 95 19 53 6 57 5 94 -28 41 -37 41 -38 -16 -50
-33 -7 -78 2 -78 16 0 5 13 17 30 26 16 9 30 21 30 26 0 5 -6 4 -12 -1 -14
-11 -91 -38 -148 -52 l-35 -8 47 -1 c55 0 86 -9 106 -28 7 -8 18 -12 23 -8 5
3 41 11 80 17 l71 12 -85 68 c-47 37 -89 67 -94 66 -4 0 -49 -9 -99 -19z m79
-17 c-7 -2 -19 -2 -25 0 -7 3 -2 5 12 5 14 0 19 -2 13 -5z m-346 -59 c-3 -3
-12 -4 -19 -1 -8 3 -5 6 6 6 11 1 17 -2 13 -5z"/>
<path d="M1788 665 c3 -16 6 -40 5 -52 0 -12 6 -24 14 -27 12 -5 14 -1 9 20
-4 15 -13 41 -21 58 l-14 31 7 -30z"/>
<path d="M1857 673 c-10 -9 -9 -23 1 -23 5 0 9 7 9 15 0 17 -1 18 -10 8z"/>
<path d="M2760 660 c-13 -8 -12 -10 3 -10 9 0 17 5 17 10 0 12 -1 12 -20 0z"/>
<path d="M1863 629 c-19 -23 -20 -28 -7 -33 10 -4 13 -2 8 6 -4 6 1 17 11 24
9 7 15 17 14 22 -2 5 -14 -3 -26 -19z"/>
<path d="M1518 633 c-10 -2 -18 -8 -18 -13 0 -11 41 -20 54 -12 6 3 17 7 25 9
7 1 19 7 25 13 11 13 8 12 -53 -5 -16 -5 -21 -4 -17 4 4 6 6 10 4 10 -2 -1
-11 -3 -20 -6z"/>
<path d="M2325 630 c-4 -6 16 -10 52 -11 32 -1 82 -3 111 -4 28 -2 52 1 52 6
0 5 -28 9 -62 10 -35 0 -82 3 -105 5 -23 2 -45 0 -48 -6z"/>
<path d="M2565 620 c-4 -6 19 -10 62 -9 63 1 65 2 28 10 -55 11 -83 11 -90 -1z"/>
<path d="M2730 626 c0 -9 40 -13 46 -5 3 5 -6 9 -20 9 -14 0 -26 -2 -26 -4z"/>
<path d="M2800 616 c0 -12 9 -16 34 -16 19 0 38 5 41 10 3 6 -2 10 -12 10 -10
0 -28 3 -40 6 -17 5 -23 2 -23 -10z"/>
<path d="M2908 613 c12 -2 30 -2 40 0 9 3 -1 5 -23 4 -22 0 -30 -2 -17 -4z"/>
<path d="M1210 600 c-8 -5 -10 -10 -5 -10 6 0 17 5 25 10 8 5 11 10 5 10 -5 0
-17 -5 -25 -10z"/>
<path d="M1905 600 c-3 -5 -1 -10 4 -10 6 0 11 5 11 10 0 6 -2 10 -4 10 -3 0
-8 -4 -11 -10z"/>
<path d="M2095 579 c-16 -10 -25 -19 -19 -19 7 0 22 9 35 20 30 24 23 24 -16
-1z"/>
<path d="M1500 580 c0 -5 5 -10 10 -10 6 0 10 5 10 10 0 6 -4 10 -10 10 -5 0
-10 -4 -10 -10z"/>
<path d="M1115 567 c10 -8 26 -12 34 -9 9 3 12 1 7 -6 -4 -7 -2 -10 7 -6 7 2
26 0 41 -6 15 -5 33 -7 39 -3 10 6 -30 19 -123 40 -24 5 -24 5 -5 -10z"/>
<path d="M1896 563 c-6 -14 -5 -15 5 -6 7 7 10 15 7 18 -3 3 -9 -2 -12 -12z"/>
<path d="M2149 566 c-8 -8 -47 -31 -86 -51 -40 -20 -73 -37 -73 -39 0 -1 35 0
63 3 4 1 6 6 5 13 -2 7 11 17 27 23 34 11 91 53 83 60 -2 2 -11 -2 -19 -9z"/>
<path d="M1076 545 c4 -8 8 -15 10 -15 2 0 4 7 4 15 0 8 -4 15 -10 15 -5 0 -7
-7 -4 -15z"/>
<path d="M237 543 c-11 -10 -8 -43 3 -43 6 0 10 11 10 25 0 26 -2 29 -13 18z"/>
<path d="M837 516 c30 -37 43 -44 43 -23 0 12 -51 57 -66 57 -3 0 7 -15 23
-34z"/>
<path d="M1328 543 c6 -2 18 -2 25 0 6 3 1 5 -13 5 -14 0 -19 -2 -12 -5z"/>
<path d="M2134 512 c-22 -20 -49 -43 -60 -50 -10 -7 -3 -5 16 4 40 19 68 41
81 66 13 25 10 23 -37 -20z"/>
<path d="M179 536 c-2 -2 -43 -6 -91 -8 -101 -4 -103 -19 -3 -21 78 -2 97 -20
39 -36 -20 -6 -41 -8 -45 -5 -5 3 -17 1 -26 -5 -13 -7 -23 -5 -37 7 -18 16
-18 16 -7 -5 14 -27 18 -27 111 -11 57 10 70 15 70 31 0 10 5 27 10 38 8 14 7
19 -3 19 -8 0 -16 -2 -18 -4z"/>
<path d="M296 526 c-19 -9 -24 -15 -15 -18 8 -3 -4 -11 -26 -18 -42 -13 -68
-30 -46 -30 7 0 33 7 59 15 26 9 103 24 172 34 69 10 112 19 95 20 -16 1 -70
3 -120 6 -61 3 -99 0 -119 -9z"/>
<path d="M719 536 c-2 -2 -20 -7 -39 -10 -19 -3 -80 -14 -135 -26 -55 -11
-110 -20 -121 -20 -12 0 -28 -7 -35 -16 -9 -11 -23 -14 -46 -11 -36 6 -103 -9
-103 -23 0 -5 -19 -7 -43 -4 -23 3 -53 1 -67 -5 -22 -8 -23 -10 -4 -10 11 -1
26 -7 33 -13 11 -11 13 -10 8 5 -6 15 -2 18 15 15 30 -4 48 -35 28 -48 -25
-16 -66 -11 -85 10 -18 20 -55 28 -55 12 0 -12 30 -37 54 -46 10 -3 66 3 125
15 58 11 119 22 136 25 16 2 66 11 110 20 103 22 125 26 155 28 14 2 35 8 47
14 12 7 33 12 46 12 14 0 30 7 38 16 8 10 21 13 38 9 21 -5 23 -4 12 8 -22 28
-98 56 -112 43z m45 -28 c11 -43 2 -48 -47 -25 -33 15 -47 42 -17 34 11 -3 23
-1 26 4 10 17 32 9 38 -13z m-79 -18 c10 -11 16 -22 14 -24 -2 -2 -26 -7 -52
-10 -51 -7 -77 4 -77 31 0 12 7 14 30 10 17 -4 30 -2 30 3 0 17 36 11 55 -10z
m-123 -17 c26 -23 23 -30 -18 -37 -37 -7 -64 5 -64 30 0 11 14 17 54 23 5 0
18 -6 28 -16z m-92 -23 c29 -22 27 -25 -22 -34 -31 -6 -39 -3 -48 15 -21 39
27 53 70 19z m-103 -21 c12 -1 24 -7 26 -14 4 -8 -13 -15 -48 -22 -45 -8 -57
-7 -76 7 -33 26 -16 43 35 36 22 -4 51 -7 63 -7z m-104 -44 c1 -5 -6 -11 -15
-13 -11 -2 -18 3 -18 13 0 17 30 18 33 0z"/>
<path d="M1268 533 c6 -2 18 -2 25 0 6 3 1 5 -13 5 -14 0 -19 -2 -12 -5z"/>
<path d="M2015 530 c-3 -5 -1 -10 4 -10 6 0 11 5 11 10 0 6 -2 10 -4 10 -3 0
-8 -4 -11 -10z"/>
<path d="M1910 512 c0 -10 -6 -24 -12 -31 -11 -10 -10 -11 5 -6 15 6 26 55 12
55 -3 0 -5 -8 -5 -18z"/>
<path d="M2195 518 c-8 -29 -12 -67 -5 -63 4 3 10 21 12 40 4 35 1 46 -7 23z"/>
<path d="M1060 503 c0 -9 40 -36 45 -31 2 2 -8 11 -21 21 -13 10 -24 14 -24
10z"/>
<path d="M1861 494 c0 -11 3 -14 6 -6 3 7 2 16 -1 19 -3 4 -6 -2 -5 -13z"/>
<path d="M2360 472 c23 -4 24 -5 5 -12 -19 -7 -19 -8 -1 -15 10 -5 21 -3 25 2
3 5 15 15 26 21 17 10 12 11 -30 10 -29 0 -39 -3 -25 -6z"/>
<path d="M2460 473 c0 -10 179 -25 189 -17 10 9 -11 13 -97 20 -60 4 -92 3
-92 -3z"/>
<path d="M2414 435 c-18 -14 -18 -14 11 -14 17 0 39 6 49 14 19 14 18 15 -10
15 -17 0 -39 -7 -50 -15z"/>
<path d="M2694 441 c-10 -10 -3 -20 10 -15 8 3 17 1 21 -5 8 -13 52 -14 60 -2
3 5 21 7 40 4 23 -4 35 -2 35 6 0 6 -10 12 -22 13 -46 4 -140 3 -144 -1z"/>
<path d="M2544 425 c-18 -14 -17 -14 12 -15 16 0 39 7 50 15 18 14 17 14 -12
15 -16 0 -39 -7 -50 -15z"/>
<path d="M1308 398 c5 -5 16 -8 23 -6 8 3 3 7 -10 11 -17 4 -21 3 -13 -5z"/>
<path d="M2190 396 c0 -8 4 -17 9 -20 5 -4 7 3 4 14 -6 23 -13 26 -13 6z"/>
<path d="M17 393 c-7 -11 33 -58 58 -67 16 -6 14 -1 -10 26 -16 18 -33 37 -36
41 -4 5 -9 5 -12 0z"/>
<path d="M2053 388 c-18 -24 -24 -38 -16 -38 10 0 36 40 30 46 -2 3 -9 -1 -14
-8z"/>
<path d="M2152 354 c-15 -32 -15 -43 1 -23 7 9 18 18 26 20 11 4 11 7 -1 17
-12 10 -17 7 -26 -14z"/>
<path d="M1267 359 c7 -7 15 -10 18 -7 3 3 -2 9 -12 12 -14 6 -15 5 -6 -5z"/>
<path d="M1318 363 c6 -2 18 -2 25 0 6 3 1 5 -13 5 -14 0 -19 -2 -12 -5z"/>
<path d="M1368 353 c6 -2 18 -2 25 0 6 3 1 5 -13 5 -14 0 -19 -2 -12 -5z"/>
<path d="M1300 344 c0 -7 71 -36 76 -31 2 2 -14 11 -36 20 -22 8 -40 13 -40
11z"/>
<path d="M2210 342 c0 -7 4 -20 9 -30 5 -9 14 -33 20 -52 l10 -35 -6 39 c-6
39 -33 103 -33 78z"/>
<path d="M1581 324 c0 -11 3 -14 6 -6 3 7 2 16 -1 19 -3 4 -6 -2 -5 -13z"/>
<path d="M1468 313 c7 -3 16 -2 19 1 4 3 -2 6 -13 5 -11 0 -14 -3 -6 -6z"/>
<path d="M1410 297 c14 -8 36 -17 50 -21 l25 -7 -25 14 c-14 8 -36 17 -50 21
l-25 7 25 -14z"/>
<path d="M1068 249 c-1 -28 0 -56 4 -62 4 -7 8 16 8 51 0 75 -7 82 -12 11z"/>
<path d="M1125 264 c17 -8 41 -24 55 -35 14 -11 19 -17 11 -13 -11 5 -13 0 -9
-25 2 -17 3 -31 2 -31 -11 0 -52 55 -47 63 3 5 9 3 14 -4 4 -7 11 -10 15 -7 3
4 -9 16 -27 27 -38 23 -64 28 -36 7 9 -7 17 -16 17 -19 0 -3 -8 -8 -17 -10
-14 -4 -13 -5 4 -6 24 -1 50 -36 34 -46 -5 -3 -12 -1 -16 5 -3 5 -14 10 -23 9
-12 0 -11 -3 6 -9 36 -15 26 -35 -15 -29 -18 2 -39 -66 -23 -76 5 -3 7 -12 4
-20 -3 -7 -1 -22 5 -32 9 -15 10 -12 11 17 0 19 4 30 8 23 4 -6 21 -13 37 -15
28 -3 30 -1 33 35 2 21 -2 45 -8 52 -7 8 -9 19 -5 25 9 15 35 -14 35 -39 0
-12 5 -21 10 -21 6 0 10 -7 10 -16 0 -8 -4 -12 -10 -9 -13 8 -13 -35 0 -55 16
-25 25 0 25 69 0 47 -5 75 -18 94 -9 15 -13 27 -7 27 29 0 59 -126 41 -172 -9
-25 -8 -28 10 -28 11 0 18 4 14 9 -3 5 -1 12 3 15 5 3 8 15 7 28 -1 13 3 26 9
30 8 5 7 8 -1 8 -7 0 -13 9 -13 20 0 21 15 27 25 10 3 -5 17 -10 29 -10 13 0
35 -9 49 -20 14 -11 28 -16 31 -11 3 5 0 13 -7 19 -19 16 -109 43 -123 38 -7
-3 -16 -1 -19 4 -4 6 0 10 7 10 10 0 10 2 1 8 -7 4 -14 18 -16 30 -3 20 -47
63 -47 47 0 -4 -14 5 -31 19 -17 14 -40 26 -52 26 -19 0 -18 -3 8 -16z m23
-161 c-19 -5 -25 -33 -8 -33 6 0 10 -4 10 -10 0 -15 -28 -12 -37 4 -4 7 -15
16 -23 20 -8 3 -5 4 8 2 14 -3 22 1 22 10 0 8 9 14 23 13 16 -1 18 -2 5 -6z"/>
<path d="M1180 276 c0 -2 7 -7 16 -10 8 -3 12 -2 9 4 -6 10 -25 14 -25 6z"/>
<path d="M1490 266 c0 -2 7 -7 16 -10 8 -3 12 -2 9 4 -6 10 -25 14 -25 6z"/>
<path d="M1420 214 c35 -8 69 -13 75 -11 13 5 -89 27 -118 26 -12 -1 7 -7 43
-15z"/>
<path d="M2548 223 c7 -3 16 -2 19 1 4 3 -2 6 -13 5 -11 0 -14 -3 -6 -6z"/>
<path d="M2970 220 c-9 -6 -10 -10 -3 -10 6 0 15 5 18 10 8 12 4 12 -15 0z"/>
<path d="M972 180 c0 -19 2 -27 5 -17 2 9 2 25 0 35 -3 9 -5 1 -5 -18z"/>
<path d="M2261 174 c0 -11 3 -14 6 -6 3 7 2 16 -1 19 -3 4 -6 -2 -5 -13z"/>
<path d="M1410 170 c8 -5 24 -9 35 -9 20 0 20 0 0 9 -11 5 -27 9 -35 9 -13 1
-13 0 0 -9z"/>
<path d="M981 132 c-2 -23 31 -112 41 -112 5 0 6 6 1 13 -4 6 -16 35 -25 62
-9 28 -17 44 -17 37z"/>
<path d="M950 118 c0 -9 5 -20 10 -23 13 -8 13 5 0 25 -8 13 -10 13 -10 -2z"/>
<path d="M1660 99 c0 -11 -5 -30 -12 -42 -11 -21 -18 -57 -12 -57 4 0 32 54
44 84 7 18 5 26 -6 30 -9 4 -14 -1 -14 -15z"/>
<path d="M2235 100 c-3 -5 -2 -10 3 -10 11 0 24 -36 24 -67 1 -13 7 -23 15
-23 10 0 12 6 8 22 -6 18 -4 20 11 13 26 -11 110 -14 125 -4 19 11 -3 18 -82
27 -53 6 -66 11 -74 30 -11 24 -20 28 -30 12z"/>
<path d="M2387 88 c-22 -24 -19 -29 11 -17 12 5 22 15 22 24 0 20 -11 18 -33
-7z"/>
<path d="M1741 84 c0 -11 3 -14 6 -6 3 7 2 16 -1 19 -3 4 -6 -2 -5 -13z"/>
<path d="M1347 69 c7 -7 15 -10 18 -7 3 3 -2 9 -12 12 -14 6 -15 5 -6 -5z"/>
<path d="M963 56 c4 -10 7 -27 7 -37 0 -11 4 -18 9 -15 11 7 2 54 -12 63 -7 4
-8 0 -4 -11z"/>
<path d="M1690 53 c0 -12 -3 -28 -6 -37 -4 -11 0 -14 15 -13 21 1 21 19 0 57
-7 12 -8 10 -9 -7z"/>
<path d="M1401 44 c0 -11 3 -14 6 -6 3 7 2 16 -1 19 -3 4 -6 -2 -5 -13z"/>
<path d="M1730 53 c1 -5 8 -19 16 -33 8 -14 13 -17 10 -7 -3 10 -6 25 -6 33 0
8 -4 14 -10 14 -5 0 -10 -3 -10 -7z"/>
<path d="M869 36 c4 -6 11 -18 14 -26 3 -9 6 -5 6 11 1 16 -4 26 -14 26 -9 0
-11 -4 -6 -11z"/>
<path d="M1340 30 c6 -11 13 -20 16 -20 2 0 0 9 -6 20 -6 11 -13 20 -16 20 -2
0 0 -9 6 -20z"/>
<path d="M1420 40 c0 -5 5 -10 11 -10 5 0 7 5 4 10 -3 6 -8 10 -11 10 -2 0 -4
-4 -4 -10z"/>
<path d="M1445 19 c-4 -6 -5 -12 -2 -15 2 -3 7 2 10 11 7 17 1 20 -8 4z"/>
<path d="M1175 10 c-3 -5 -1 -10 4 -10 6 0 11 5 11 10 0 6 -2 10 -4 10 -3 0
-8 -4 -11 -10z"/>
</g>
</svg>
